G71*
G90*
G04 Quadcept GERBER*
%MOMM*%
%FSLAX44Y44*%
%ADD10C,0.1*%
%ADD11C,0.15*%
%ADD12C,0.2*%
%ADD13C,0.25*%
%ADD14C,0.3*%
%ADD15C,0.35*%
%ADD16C,0.5*%
%ADD17C,0.6*%
%ADD18C,2*%
%ADD19R,0.6X0.6*%
%ADD20O,1X1.8*%
%ADD21R,0.2X0.8*%
%ADD22R,0.53X1.9*%
%ADD23R,0.6X1.9*%
%ADD24R,0.8X0.9*%
%ADD25R,0.9X0.8*%
%ADD26R,1.1X2.5*%
G54D10*
G01X-43250Y-215500D02*
G01X-88500D01*
G01Y-182015D01*
G01X-88222Y-182780D01*
G01X-87742Y-183808D01*
G01X-87175Y-184792D01*
G01X-86523Y-185721D01*
G01X-85794Y-186591D01*
G01X-84991Y-187394D01*
G01X-84121Y-188123D01*
G01X-83192Y-188775D01*
G01X-82208Y-189342D01*
G01X-81180Y-189822D01*
G01X-80113Y-190210D01*
G01X-79016Y-190504D01*
G01X-77898Y-190701D01*
G01X-76768Y-190800D01*
G01X-75632D01*
G01X-74502Y-190701D01*
G01X-73384Y-190504D01*
G01X-72287Y-190210D01*
G01X-71220Y-189822D01*
G01X-70192Y-189342D01*
G01X-69208Y-188775D01*
G01X-68279Y-188123D01*
G01X-67409Y-187394D01*
G01X-66606Y-186591D01*
G01X-65877Y-185721D01*
G01X-65225Y-184792D01*
G01X-64658Y-183808D01*
G01X-64178Y-182780D01*
G01X-63790Y-181713D01*
G01X-63496Y-180616D01*
G01X-63299Y-179498D01*
G01X-63200Y-178368D01*
G01Y-177843D01*
G01X-63184Y-175500D01*
G01X-43250D01*
G01X-33278D01*
G01X-28192Y-180586D01*
G01X-24000Y-199599D01*
G01Y-204500D01*
G01X-18864D01*
G01X-18747Y-204515D01*
G01X-18383Y-204500D01*
G01X-7000D01*
G01Y-178522D01*
G01X-6984Y-178380D01*
G01X-7000Y-178107D01*
G01Y-173500D01*
G01X-9706D01*
G01X-13250Y-169758D01*
G01Y-168473D01*
G01X-12204Y-164550D01*
G01X-12137Y-164300D01*
G01X-12136Y-164297D01*
G01X-12096Y-164145D01*
G01X-12082Y-163992D01*
G01X-12046Y-163784D01*
G01X-12000Y-163262D01*
G01Y-162738D01*
G01X-12046Y-162216D01*
G01X-12137Y-161700D01*
G01X-12272Y-161194D01*
G01X-12451Y-160702D01*
G01X-12673Y-160227D01*
G01X-12935Y-159773D01*
G01X-13235Y-159344D01*
G01X-13572Y-158943D01*
G01X-13943Y-158572D01*
G01X-14344Y-158235D01*
G01X-14773Y-157935D01*
G01X-15227Y-157673D01*
G01X-15702Y-157451D01*
G01X-16194Y-157272D01*
G01X-16700Y-157137D01*
G01X-17216Y-157046D01*
G01X-17675Y-157006D01*
G01X-17418Y-156046D01*
G01X-17239Y-155035D01*
G01X-17150Y-154013D01*
G01Y-152987D01*
G01X-17239Y-151965D01*
G01X-17418Y-150954D01*
G01X-17683Y-149963D01*
G01X-18034Y-148999D01*
G01X-18468Y-148069D01*
G01X-18981Y-147181D01*
G01X-19569Y-146340D01*
G01X-20229Y-145554D01*
G01X-20954Y-144829D01*
G01X-21740Y-144169D01*
G01X-22581Y-143581D01*
G01X-23469Y-143068D01*
G01X-24399Y-142634D01*
G01X-25363Y-142283D01*
G01X-26354Y-142018D01*
G01X-27365Y-141839D01*
G01X-28387Y-141750D01*
G01X-29413D01*
G01X-30435Y-141839D01*
G01X-31446Y-142018D01*
G01X-32437Y-142283D01*
G01X-33401Y-142634D01*
G01X-34331Y-143068D01*
G01X-35219Y-143581D01*
G01X-35237Y-143593D01*
G01X-35443Y-142422D01*
G01X-35922Y-141106D01*
G01X-36622Y-139894D01*
G01X-37522Y-138822D01*
G01X-38594Y-137922D01*
G01X-39806Y-137222D01*
G01X-41122Y-136743D01*
G01X-42500Y-136500D01*
G01X-43250D01*
G01X-43900D01*
G01X-45278Y-136743D01*
G01X-46594Y-137222D01*
G01X-47806Y-137922D01*
G01X-48878Y-138822D01*
G01X-49778Y-139894D01*
G01X-50478Y-141106D01*
G01X-50957Y-142422D01*
G01X-51200Y-143800D01*
G01Y-153200D01*
G01X-50957Y-154578D01*
G01X-50478Y-155894D01*
G01X-49778Y-157106D01*
G01X-48878Y-158178D01*
G01X-47806Y-159078D01*
G01X-46594Y-159778D01*
G01X-45278Y-160257D01*
G01X-43900Y-160500D01*
G01X-43250D01*
G01X-42500D01*
G01X-41122Y-160257D01*
G01X-39806Y-159778D01*
G01X-39084Y-159361D01*
G01X-38819Y-159819D01*
G01X-38231Y-160660D01*
G01X-37571Y-161446D01*
G01X-36846Y-162171D01*
G01X-36060Y-162831D01*
G01X-35219Y-163419D01*
G01X-34331Y-163932D01*
G01X-33401Y-164366D01*
G01X-33032Y-164500D01*
G01X-43250D01*
G01X-68160D01*
G01X-68400Y-164479D01*
G01X-68640Y-164500D01*
G01X-68881D01*
G01X-69119Y-164542D01*
G01X-69359Y-164563D01*
G01X-69592Y-164625D01*
G01X-69829Y-164667D01*
G01X-70055Y-164750D01*
G01X-70091Y-164759D01*
G01X-72185Y-164773D01*
G01X-71220Y-164422D01*
G01X-70192Y-163942D01*
G01X-69208Y-163375D01*
G01X-68279Y-162723D01*
G01X-67409Y-161994D01*
G01X-66606Y-161191D01*
G01X-65877Y-160321D01*
G01X-65225Y-159392D01*
G01X-64658Y-158408D01*
G01X-64178Y-157380D01*
G01X-63790Y-156313D01*
G01X-63496Y-155216D01*
G01X-63299Y-154098D01*
G01X-63200Y-152968D01*
G01Y-151832D01*
G01X-63299Y-150702D01*
G01X-63496Y-149584D01*
G01X-63790Y-148487D01*
G01X-64178Y-147420D01*
G01X-64658Y-146392D01*
G01X-65225Y-145408D01*
G01X-65877Y-144479D01*
G01X-66606Y-143609D01*
G01X-67409Y-142806D01*
G01X-68279Y-142077D01*
G01X-69208Y-141425D01*
G01X-70192Y-140858D01*
G01X-71220Y-140378D01*
G01X-72287Y-139990D01*
G01X-73369Y-139700D01*
G01X-72287Y-139410D01*
G01X-71220Y-139022D01*
G01X-70192Y-138542D01*
G01X-69208Y-137975D01*
G01X-68279Y-137323D01*
G01X-67409Y-136594D01*
G01X-66606Y-135791D01*
G01X-65877Y-134921D01*
G01X-65225Y-133992D01*
G01X-64658Y-133008D01*
G01X-64178Y-131980D01*
G01X-63790Y-130913D01*
G01X-63496Y-129816D01*
G01X-63299Y-128698D01*
G01X-63200Y-127568D01*
G01Y-126432D01*
G01X-63299Y-125302D01*
G01X-63496Y-124184D01*
G01X-63790Y-123087D01*
G01X-64178Y-122020D01*
G01X-64658Y-120992D01*
G01X-65225Y-120008D01*
G01X-65877Y-119079D01*
G01X-66606Y-118209D01*
G01X-67409Y-117406D01*
G01X-68279Y-116677D01*
G01X-69208Y-116025D01*
G01X-70192Y-115458D01*
G01X-71220Y-114978D01*
G01X-72287Y-114590D01*
G01X-73369Y-114300D01*
G01X-72287Y-114010D01*
G01X-71220Y-113622D01*
G01X-70192Y-113142D01*
G01X-69792Y-112912D01*
G01X-69751Y-112895D01*
G01X-69547Y-112770D01*
G01X-69208Y-112575D01*
G01X-69064Y-112473D01*
G01X-61373Y-107750D01*
G01X-59056Y-106327D01*
G01X-58979Y-106314D01*
G01X-58772Y-106296D01*
G01X-58571Y-106242D01*
G01X-58366Y-106206D01*
G01X-58170Y-106134D01*
G01X-57969Y-106081D01*
G01X-57781Y-105993D01*
G01X-57585Y-105921D01*
G01X-57405Y-105817D01*
G01X-57216Y-105729D01*
G01X-57045Y-105610D01*
G01X-56865Y-105506D01*
G01X-56706Y-105372D01*
G01X-56535Y-105253D01*
G01X-56388Y-105105D01*
G01X-56228Y-104972D01*
G01X-56095Y-104812D01*
G01X-47000Y-95718D01*
G01X-43250Y-99468D01*
G01X-34968Y-107750D01*
G01X-34505Y-108212D01*
G01X-34372Y-108372D01*
G01X-34212Y-108505D01*
G01X-34065Y-108653D01*
G01X-33894Y-108772D01*
G01X-33735Y-108906D01*
G01X-33555Y-109010D01*
G01X-33384Y-109129D01*
G01X-33195Y-109217D01*
G01X-33015Y-109321D01*
G01X-32819Y-109393D01*
G01X-32686Y-109455D01*
G01X-30950Y-113687D01*
G01Y-117500D01*
G01X-26519D01*
G01X-26424Y-117513D01*
G01X-26104Y-117500D01*
G01X-19650D01*
G01Y-107750D01*
G01Y-92500D01*
G01X-26104D01*
G01X-26424Y-92487D01*
G01X-26519Y-92500D01*
G01X-30950D01*
G01Y-96313D01*
G01X-31537Y-97745D01*
G01X-41550Y-87732D01*
G01Y-86314D01*
G01X-40797Y-85000D01*
G01X-38800D01*
G01X-23800D01*
G01Y-71000D01*
G01X-38800D01*
G01X-43250D01*
G01X-53800D01*
G01Y-80242D01*
G01X-53801Y-80650D01*
G01X-53800Y-80658D01*
G01Y-85000D01*
G01X-51803D01*
G01X-51050Y-86314D01*
G01Y-86332D01*
G01X-60626Y-95909D01*
G01X-69064Y-90727D01*
G01X-69208Y-90625D01*
G01X-69547Y-90430D01*
G01X-69751Y-90305D01*
G01X-69792Y-90288D01*
G01X-70192Y-90058D01*
G01X-71220Y-89578D01*
G01X-72287Y-89190D01*
G01X-73369Y-88900D01*
G01X-72287Y-88610D01*
G01X-71220Y-88222D01*
G01X-70192Y-87742D01*
G01X-69208Y-87175D01*
G01X-68279Y-86523D01*
G01X-67409Y-85794D01*
G01X-66606Y-84991D01*
G01X-65877Y-84121D01*
G01X-65225Y-83192D01*
G01X-64658Y-82208D01*
G01X-64178Y-81180D01*
G01X-63790Y-80113D01*
G01X-63496Y-79016D01*
G01X-63299Y-77898D01*
G01X-63200Y-76768D01*
G01Y-75632D01*
G01X-63299Y-74502D01*
G01X-63496Y-73384D01*
G01X-63790Y-72287D01*
G01X-64178Y-71220D01*
G01X-64658Y-70192D01*
G01X-65225Y-69208D01*
G01X-65877Y-68279D01*
G01X-66606Y-67409D01*
G01X-67409Y-66606D01*
G01X-68279Y-65877D01*
G01X-69208Y-65225D01*
G01X-70192Y-64658D01*
G01X-71220Y-64178D01*
G01X-72287Y-63790D01*
G01X-73369Y-63500D01*
G01X-72287Y-63210D01*
G01X-71220Y-62822D01*
G01X-70192Y-62342D01*
G01X-69208Y-61775D01*
G01X-68279Y-61123D01*
G01X-67409Y-60394D01*
G01X-66606Y-59591D01*
G01X-65877Y-58721D01*
G01X-65750Y-58541D01*
G01Y-58793D01*
G01X-65768Y-59000D01*
G01X-65750Y-59207D01*
G01Y-59416D01*
G01X-65714Y-59621D01*
G01X-65696Y-59828D01*
G01X-65642Y-60029D01*
G01X-65606Y-60234D01*
G01X-65534Y-60430D01*
G01X-65481Y-60631D01*
G01X-65393Y-60819D01*
G01X-65321Y-61015D01*
G01X-65217Y-61195D01*
G01X-65129Y-61384D01*
G01X-65010Y-61555D01*
G01X-64906Y-61735D01*
G01X-64772Y-61894D01*
G01X-64653Y-62065D01*
G01X-64505Y-62212D01*
G01X-64372Y-62372D01*
G01X-64212Y-62505D01*
G01X-57505Y-69212D01*
G01X-57372Y-69372D01*
G01X-57212Y-69505D01*
G01X-57065Y-69653D01*
G01X-56894Y-69772D01*
G01X-56735Y-69906D01*
G01X-56555Y-70010D01*
G01X-56384Y-70129D01*
G01X-56195Y-70217D01*
G01X-56015Y-70321D01*
G01X-55819Y-70393D01*
G01X-55631Y-70481D01*
G01X-55430Y-70534D01*
G01X-55234Y-70606D01*
G01X-55029Y-70642D01*
G01X-54828Y-70696D01*
G01X-54621Y-70714D01*
G01X-54416Y-70750D01*
G01X-54207D01*
G01X-54000Y-70768D01*
G01X-53793Y-70750D01*
G01X-43250D01*
G01X-2968D01*
G01X-2718Y-71000D01*
G01X-4000D01*
G01X-19000D01*
G01Y-85000D01*
G01X-4000D01*
G01X-2003D01*
G01X-1250Y-86314D01*
G01Y-88193D01*
G01X-1268Y-88400D01*
G01X-1250Y-88607D01*
G01Y-88816D01*
G01X-1214Y-89021D01*
G01X-1196Y-89228D01*
G01X-1142Y-89429D01*
G01X-1106Y-89634D01*
G01X-1034Y-89830D01*
G01X-0981Y-90031D01*
G01X-0893Y-90219D01*
G01X-0821Y-90415D01*
G01X-0717Y-90595D01*
G01X-0629Y-90784D01*
G01X-0510Y-90955D01*
G01X-0406Y-91135D01*
G01X-0272Y-91294D01*
G01X-0153Y-91465D01*
G01X-0005Y-91612D01*
G01X0128Y-91772D01*
G01X0288Y-91905D01*
G01X0882Y-92500D01*
G01X0450D01*
G01Y-97009D01*
G01X0432Y-97183D01*
G01X0450Y-97424D01*
G01Y-107750D01*
G01Y-112724D01*
G01X0446Y-113114D01*
G01X0450Y-113140D01*
G01Y-117500D01*
G01X2000D01*
G01X3899D01*
G01X6063Y-118781D01*
G01X13250Y-125968D01*
G01Y-162032D01*
G01X12288Y-162995D01*
G01X12128Y-163128D01*
G01X11995Y-163288D01*
G01X11847Y-163435D01*
G01X11728Y-163606D01*
G01X11594Y-163765D01*
G01X11490Y-163945D01*
G01X11371Y-164116D01*
G01X11283Y-164305D01*
G01X11179Y-164485D01*
G01X11107Y-164681D01*
G01X11019Y-164869D01*
G01X10966Y-165070D01*
G01X10894Y-165266D01*
G01X10858Y-165471D01*
G01X10804Y-165672D01*
G01X10786Y-165879D01*
G01X10750Y-166084D01*
G01Y-166293D01*
G01X10732Y-166500D01*
G01X10750Y-166707D01*
G01Y-170395D01*
G01X8986Y-173500D01*
G01X7000D01*
G01Y-177851D01*
G01X6997Y-177867D01*
G01X7000Y-178266D01*
G01Y-204500D01*
G01X24000D01*
G01Y-178266D01*
G01X24003Y-177867D01*
G01X24000Y-177851D01*
G01Y-173500D01*
G01X22014D01*
G01X20250Y-170395D01*
G01Y-168468D01*
G01X21212Y-167505D01*
G01X21372Y-167372D01*
G01X21505Y-167212D01*
G01X21653Y-167065D01*
G01X21772Y-166894D01*
G01X21906Y-166735D01*
G01X22010Y-166555D01*
G01X22129Y-166384D01*
G01X22217Y-166195D01*
G01X22321Y-166015D01*
G01X22393Y-165819D01*
G01X22481Y-165631D01*
G01X22534Y-165430D01*
G01X22606Y-165234D01*
G01X22642Y-165029D01*
G01X22696Y-164828D01*
G01X22714Y-164621D01*
G01X22750Y-164416D01*
G01Y-164207D01*
G01X22768Y-164000D01*
G01X22750Y-163793D01*
G01Y-163517D01*
G01X23469Y-163932D01*
G01X24399Y-164366D01*
G01X25363Y-164717D01*
G01X26354Y-164982D01*
G01X27365Y-165161D01*
G01X28387Y-165250D01*
G01X29413D01*
G01X30435Y-165161D01*
G01X31446Y-164982D01*
G01X32437Y-164717D01*
G01X33401Y-164366D01*
G01X34331Y-163932D01*
G01X35219Y-163419D01*
G01X36060Y-162831D01*
G01X36846Y-162171D01*
G01X37571Y-161446D01*
G01X38231Y-160660D01*
G01X38819Y-159819D01*
G01X39084Y-159361D01*
G01X39806Y-159778D01*
G01X41122Y-160257D01*
G01X42500Y-160500D01*
G01X43900D01*
G01X45278Y-160257D01*
G01X46594Y-159778D01*
G01X47250Y-159399D01*
G01X47806Y-159078D01*
G01X48878Y-158178D01*
G01X49778Y-157106D01*
G01X50478Y-155894D01*
G01X50957Y-154578D01*
G01X51200Y-153200D01*
G01Y-143800D01*
G01X50957Y-142422D01*
G01X50478Y-141106D01*
G01X49778Y-139894D01*
G01X48878Y-138822D01*
G01X47806Y-137922D01*
G01X47250Y-137601D01*
G01X46594Y-137222D01*
G01X45278Y-136743D01*
G01X43900Y-136500D01*
G01X42500D01*
G01X41122Y-136743D01*
G01X39806Y-137222D01*
G01X38594Y-137922D01*
G01X37522Y-138822D01*
G01X36622Y-139894D01*
G01X35922Y-141106D01*
G01X35443Y-142422D01*
G01X35237Y-143593D01*
G01X35219Y-143581D01*
G01X34331Y-143068D01*
G01X33401Y-142634D01*
G01X32437Y-142283D01*
G01X31446Y-142018D01*
G01X30435Y-141839D01*
G01X29413Y-141750D01*
G01X28387D01*
G01X27365Y-141839D01*
G01X26354Y-142018D01*
G01X25363Y-142283D01*
G01X24399Y-142634D01*
G01X23469Y-143068D01*
G01X22750Y-143483D01*
G01Y-124207D01*
G01X22768Y-124000D01*
G01X22750Y-123793D01*
G01Y-123584D01*
G01X22714Y-123379D01*
G01X22696Y-123172D01*
G01X22642Y-122971D01*
G01X22606Y-122766D01*
G01X22534Y-122570D01*
G01X22481Y-122369D01*
G01X22393Y-122181D01*
G01X22321Y-121985D01*
G01X22217Y-121805D01*
G01X22129Y-121616D01*
G01X22010Y-121445D01*
G01X21906Y-121265D01*
G01X21772Y-121106D01*
G01X21653Y-120935D01*
G01X21505Y-120788D01*
G01X21372Y-120628D01*
G01X21212Y-120495D01*
G01X12522Y-111805D01*
G01X12407Y-111664D01*
G01X12335Y-111603D01*
G01X11750Y-110944D01*
G01Y-110053D01*
G01X25233Y-123536D01*
G01X25338Y-123662D01*
G01X25464Y-123767D01*
G01X25580Y-123884D01*
G01X25715Y-123978D01*
G01X25841Y-124084D01*
G01X25983Y-124166D01*
G01X26118Y-124260D01*
G01X26267Y-124329D01*
G01X26409Y-124412D01*
G01X26564Y-124468D01*
G01X26713Y-124537D01*
G01X26871Y-124580D01*
G01X27026Y-124636D01*
G01X27188Y-124665D01*
G01X27346Y-124707D01*
G01X27510Y-124721D01*
G01X27672Y-124750D01*
G01X27836D01*
G01X28000Y-124764D01*
G01X28164Y-124750D01*
G01X37400D01*
G01X41577Y-126491D01*
G01X41702Y-126549D01*
G01X41819Y-126591D01*
G01X41995Y-126665D01*
G01X42061Y-126679D01*
G01X42194Y-126728D01*
G01X42700Y-126863D01*
G01X43216Y-126954D01*
G01X43738Y-127000D01*
G01X44262D01*
G01X44784Y-126954D01*
G01X45300Y-126863D01*
G01X45806Y-126728D01*
G01X46298Y-126549D01*
G01X46773Y-126327D01*
G01X47227Y-126065D01*
G01X47250Y-126049D01*
G01X47656Y-125765D01*
G01X48057Y-125428D01*
G01X48428Y-125057D01*
G01X48765Y-124656D01*
G01X49065Y-124227D01*
G01X49327Y-123773D01*
G01X49549Y-123298D01*
G01X49728Y-122806D01*
G01X49863Y-122300D01*
G01X49954Y-121784D01*
G01X50000Y-121262D01*
G01Y-120738D01*
G01X49954Y-120216D01*
G01X49863Y-119700D01*
G01X49728Y-119194D01*
G01X49549Y-118702D01*
G01X49327Y-118227D01*
G01X49065Y-117773D01*
G01X48765Y-117344D01*
G01X48428Y-116943D01*
G01X48057Y-116572D01*
G01X47656Y-116235D01*
G01X47250Y-115951D01*
G01X47227Y-115935D01*
G01X46773Y-115673D01*
G01X46298Y-115451D01*
G01X45806Y-115272D01*
G01X45300Y-115137D01*
G01X44784Y-115046D01*
G01X44262Y-115000D01*
G01X43738D01*
G01X43216Y-115046D01*
G01X42700Y-115137D01*
G01X42194Y-115272D01*
G01X42061Y-115321D01*
G01X41995Y-115335D01*
G01X41819Y-115409D01*
G01X41702Y-115451D01*
G01X41577Y-115509D01*
G01X37400Y-117250D01*
G01X29553D01*
G01X20053Y-107750D01*
G01X17750Y-105447D01*
G01Y-67164D01*
G01X17764Y-67000D01*
G01X17750Y-66836D01*
G01Y-66672D01*
G01X17721Y-66510D01*
G01X17707Y-66346D01*
G01X17665Y-66188D01*
G01X17636Y-66026D01*
G01X17580Y-65871D01*
G01X17537Y-65713D01*
G01X17468Y-65564D01*
G01X17412Y-65409D01*
G01X17329Y-65267D01*
G01X17260Y-65118D01*
G01X17166Y-64983D01*
G01X17084Y-64841D01*
G01X16978Y-64715D01*
G01X16884Y-64580D01*
G01X16767Y-64464D01*
G01X16662Y-64338D01*
G01X16536Y-64233D01*
G01X10767Y-58464D01*
G01X10662Y-58338D01*
G01X10536Y-58233D01*
G01X10420Y-58116D01*
G01X10285Y-58022D01*
G01X10159Y-57916D01*
G01X10017Y-57834D01*
G01X9882Y-57740D01*
G01X9733Y-57671D01*
G01X9591Y-57588D01*
G01X9436Y-57532D01*
G01X9287Y-57463D01*
G01X9129Y-57420D01*
G01X8974Y-57364D01*
G01X8812Y-57335D01*
G01X8654Y-57293D01*
G01X8490Y-57279D01*
G01X8328Y-57250D01*
G01X8164D01*
G01X8000Y-57236D01*
G01X7836Y-57250D01*
G01X2000D01*
G01X-43250D01*
G01X-44434D01*
G01X-43250Y-54601D01*
G01X-42689Y-53346D01*
G01X-40295Y-50952D01*
G01X-40161Y-50839D01*
G01X-40048Y-50705D01*
G01X-39924Y-50581D01*
G01X-39824Y-50437D01*
G01X-39711Y-50303D01*
G01X-39623Y-50151D01*
G01X-39523Y-50008D01*
G01X-39449Y-49849D01*
G01X-39361Y-49697D01*
G01X-39301Y-49532D01*
G01X-39227Y-49373D01*
G01X-39181Y-49204D01*
G01X-39122Y-49039D01*
G01X-39091Y-48867D01*
G01X-39046Y-48697D01*
G01X-39030Y-48523D01*
G01X-39000Y-48350D01*
G01Y-48175D01*
G01X-38985Y-48000D01*
G01X-39000Y-47825D01*
G01Y-26947D01*
G01X-37783Y-25000D01*
G01X-36000D01*
G01Y-23034D01*
G01X-34000Y-21575D01*
G01X-32000Y-23034D01*
G01Y-25000D01*
G01X-28213D01*
G01X-28077Y-25015D01*
G01X-27864Y-25000D01*
G01X-18000D01*
G01Y-10000D01*
G01Y0000D01*
G01Y2519D01*
G01X-17992Y2523D01*
G01X-17849Y2623D01*
G01X-17697Y2711D01*
G01X-17563Y2824D01*
G01X-17419Y2924D01*
G01X-17295Y3048D01*
G01X-17161Y3161D01*
G01X-17048Y3295D01*
G01X-12295Y8048D01*
G01X-12161Y8161D01*
G01X-12048Y8295D01*
G01X-12000Y8343D01*
G01Y1000D01*
G01Y0000D01*
G01Y-14000D01*
G01X-2469D01*
G01X-2317Y-14016D01*
G01X-2098Y-14000D01*
G01X2000D01*
G01Y-12005D01*
G01X3853Y-10750D01*
G01X4147D01*
G01X6000Y-12005D01*
G01Y-14000D01*
G01X9413D01*
G01X10742Y-14399D01*
G01X20000Y-23657D01*
G01Y-43825D01*
G01X19985Y-44000D01*
G01X20000Y-44175D01*
G01Y-44350D01*
G01X20030Y-44523D01*
G01X20046Y-44697D01*
G01X20091Y-44867D01*
G01X20122Y-45039D01*
G01X20181Y-45204D01*
G01X20227Y-45373D01*
G01X20301Y-45532D01*
G01X20361Y-45697D01*
G01X20449Y-45849D01*
G01X20523Y-46008D01*
G01X20623Y-46151D01*
G01X20711Y-46303D01*
G01X20824Y-46437D01*
G01X20924Y-46581D01*
G01X21048Y-46705D01*
G01X21161Y-46839D01*
G01X21295Y-46952D01*
G01X29000Y-54657D01*
G01Y-107750D01*
G01Y-108825D01*
G01X28985Y-109000D01*
G01X29000Y-109175D01*
G01Y-109350D01*
G01X29030Y-109523D01*
G01X29039Y-109624D01*
G01X29008Y-110646D01*
G01X29000Y-110738D01*
G01Y-110908D01*
G01X28992Y-111166D01*
G01X29000Y-111221D01*
G01Y-111262D01*
G01X29046Y-111784D01*
G01X29137Y-112300D01*
G01X29272Y-112806D01*
G01X29451Y-113298D01*
G01X29673Y-113773D01*
G01X29935Y-114227D01*
G01X30235Y-114656D01*
G01X30572Y-115057D01*
G01X30943Y-115428D01*
G01X31344Y-115765D01*
G01X31773Y-116065D01*
G01X32227Y-116327D01*
G01X32702Y-116549D01*
G01X33194Y-116728D01*
G01X33700Y-116863D01*
G01X34216Y-116954D01*
G01X34738Y-117000D01*
G01X35262D01*
G01X35784Y-116954D01*
G01X36300Y-116863D01*
G01X36806Y-116728D01*
G01X37298Y-116549D01*
G01X37773Y-116327D01*
G01X38227Y-116065D01*
G01X38656Y-115765D01*
G01X39057Y-115428D01*
G01X39428Y-115057D01*
G01X39765Y-114656D01*
G01X40065Y-114227D01*
G01X40327Y-113773D01*
G01X40549Y-113298D01*
G01X40728Y-112806D01*
G01X40817Y-112474D01*
G01X42048Y-113705D01*
G01X42161Y-113839D01*
G01X42295Y-113952D01*
G01X42419Y-114076D01*
G01X42563Y-114176D01*
G01X42697Y-114289D01*
G01X42849Y-114377D01*
G01X42992Y-114477D01*
G01X43151Y-114551D01*
G01X43303Y-114639D01*
G01X43468Y-114699D01*
G01X43627Y-114773D01*
G01X43796Y-114819D01*
G01X43961Y-114878D01*
G01X44133Y-114909D01*
G01X44303Y-114954D01*
G01X44477Y-114970D01*
G01X44650Y-115000D01*
G01X44825D01*
G01X45000Y-115015D01*
G01X45175Y-115000D01*
G01X47250D01*
G01X51343D01*
G01X53000Y-116657D01*
G01Y-165825D01*
G01X52985Y-166000D01*
G01X53000Y-166175D01*
G01Y-166350D01*
G01X53030Y-166523D01*
G01X53046Y-166697D01*
G01X53091Y-166867D01*
G01X53122Y-167039D01*
G01X53181Y-167204D01*
G01X53227Y-167373D01*
G01X53301Y-167532D01*
G01X53361Y-167697D01*
G01X53449Y-167849D01*
G01X53523Y-168008D01*
G01X53623Y-168151D01*
G01X53711Y-168303D01*
G01X53824Y-168437D01*
G01X53924Y-168581D01*
G01X54048Y-168705D01*
G01X54161Y-168839D01*
G01X54295Y-168952D01*
G01X55722Y-170379D01*
G01X65137Y-184638D01*
G01X65225Y-184792D01*
G01X65449Y-185111D01*
G01X65544Y-185255D01*
G01X65566Y-185278D01*
G01X65877Y-185721D01*
G01X66606Y-186591D01*
G01X67409Y-187394D01*
G01X68279Y-188123D01*
G01X69208Y-188775D01*
G01X70192Y-189342D01*
G01X71220Y-189822D01*
G01X72287Y-190210D01*
G01X73384Y-190504D01*
G01X74502Y-190701D01*
G01X75632Y-190800D01*
G01X76768D01*
G01X77898Y-190701D01*
G01X79016Y-190504D01*
G01X80113Y-190210D01*
G01X81180Y-189822D01*
G01X82208Y-189342D01*
G01X83192Y-188775D01*
G01X84121Y-188123D01*
G01X84991Y-187394D01*
G01X85794Y-186591D01*
G01X86523Y-185721D01*
G01X87175Y-184792D01*
G01X87742Y-183808D01*
G01X88222Y-182780D01*
G01X88610Y-181713D01*
G01X88904Y-180616D01*
G01X89101Y-179498D01*
G01X89200Y-178368D01*
G01Y-177232D01*
G01X89101Y-176102D01*
G01X88904Y-174984D01*
G01X88610Y-173887D01*
G01X88222Y-172820D01*
G01X87742Y-171792D01*
G01X87175Y-170808D01*
G01X86523Y-169879D01*
G01X85794Y-169009D01*
G01X84991Y-168206D01*
G01X84121Y-167477D01*
G01X83192Y-166825D01*
G01X82208Y-166258D01*
G01X81180Y-165778D01*
G01X80113Y-165390D01*
G01X79031Y-165100D01*
G01X80113Y-164810D01*
G01X81180Y-164422D01*
G01X82208Y-163942D01*
G01X83192Y-163375D01*
G01X84121Y-162723D01*
G01X84991Y-161994D01*
G01X85794Y-161191D01*
G01X86523Y-160321D01*
G01X87175Y-159392D01*
G01X87742Y-158408D01*
G01X88222Y-157380D01*
G01X88610Y-156313D01*
G01X88904Y-155216D01*
G01X89101Y-154098D01*
G01X89200Y-152968D01*
G01Y-151832D01*
G01X89101Y-150702D01*
G01X88904Y-149584D01*
G01X88610Y-148487D01*
G01X88222Y-147420D01*
G01X87742Y-146392D01*
G01X87175Y-145408D01*
G01X86523Y-144479D01*
G01X85794Y-143609D01*
G01X84991Y-142806D01*
G01X84121Y-142077D01*
G01X83192Y-141425D01*
G01X82208Y-140858D01*
G01X81180Y-140378D01*
G01X80113Y-139990D01*
G01X79031Y-139700D01*
G01X80113Y-139410D01*
G01X81180Y-139022D01*
G01X82208Y-138542D01*
G01X83192Y-137975D01*
G01X84121Y-137323D01*
G01X84991Y-136594D01*
G01X85794Y-135791D01*
G01X86523Y-134921D01*
G01X87175Y-133992D01*
G01X87742Y-133008D01*
G01X88222Y-131980D01*
G01X88610Y-130913D01*
G01X88904Y-129816D01*
G01X89101Y-128698D01*
G01X89200Y-127568D01*
G01Y-126432D01*
G01X89101Y-125302D01*
G01X88904Y-124184D01*
G01X88610Y-123087D01*
G01X88222Y-122020D01*
G01X87742Y-120992D01*
G01X87175Y-120008D01*
G01X86523Y-119079D01*
G01X85794Y-118209D01*
G01X84991Y-117406D01*
G01X84121Y-116677D01*
G01X83192Y-116025D01*
G01X82208Y-115458D01*
G01X81180Y-114978D01*
G01X80113Y-114590D01*
G01X79031Y-114300D01*
G01X80113Y-114010D01*
G01X81180Y-113622D01*
G01X82208Y-113142D01*
G01X83192Y-112575D01*
G01X84121Y-111923D01*
G01X84991Y-111194D01*
G01X85794Y-110391D01*
G01X86523Y-109521D01*
G01X87175Y-108592D01*
G01X87660Y-107750D01*
G01X87742Y-107608D01*
G01X88222Y-106580D01*
G01X88610Y-105513D01*
G01X88904Y-104416D01*
G01X89101Y-103298D01*
G01X89200Y-102168D01*
G01Y-101032D01*
G01X89101Y-99902D01*
G01X88904Y-98784D01*
G01X88610Y-97687D01*
G01X88222Y-96620D01*
G01X87742Y-95592D01*
G01X87175Y-94608D01*
G01X86523Y-93679D01*
G01X85794Y-92809D01*
G01X84991Y-92006D01*
G01X84121Y-91277D01*
G01X83192Y-90625D01*
G01X82208Y-90058D01*
G01X81180Y-89578D01*
G01X80113Y-89190D01*
G01X79031Y-88900D01*
G01X80113Y-88610D01*
G01X81180Y-88222D01*
G01X82208Y-87742D01*
G01X83192Y-87175D01*
G01X84121Y-86523D01*
G01X84991Y-85794D01*
G01X85794Y-84991D01*
G01X86523Y-84121D01*
G01X87175Y-83192D01*
G01X87742Y-82208D01*
G01X88222Y-81180D01*
G01X88610Y-80113D01*
G01X88904Y-79016D01*
G01X89101Y-77898D01*
G01X89200Y-76768D01*
G01Y-75632D01*
G01X89101Y-74502D01*
G01X88904Y-73384D01*
G01X88610Y-72287D01*
G01X88222Y-71220D01*
G01X87742Y-70192D01*
G01X87175Y-69208D01*
G01X86523Y-68279D01*
G01X85794Y-67409D01*
G01X84991Y-66606D01*
G01X84121Y-65877D01*
G01X83192Y-65225D01*
G01X82208Y-64658D01*
G01X81180Y-64178D01*
G01X80113Y-63790D01*
G01X79031Y-63500D01*
G01X80113Y-63210D01*
G01X81180Y-62822D01*
G01X82208Y-62342D01*
G01X83192Y-61775D01*
G01X84121Y-61123D01*
G01X84991Y-60394D01*
G01X85794Y-59591D01*
G01X86523Y-58721D01*
G01X87175Y-57792D01*
G01X87742Y-56808D01*
G01X88222Y-55780D01*
G01X88610Y-54713D01*
G01X88904Y-53616D01*
G01X89101Y-52498D01*
G01X89200Y-51368D01*
G01Y-50232D01*
G01X89101Y-49102D01*
G01X88904Y-47984D01*
G01X88610Y-46887D01*
G01X88222Y-45820D01*
G01X87742Y-44792D01*
G01X87175Y-43808D01*
G01X86523Y-42879D01*
G01X85794Y-42009D01*
G01X84991Y-41206D01*
G01X84121Y-40477D01*
G01X83192Y-39825D01*
G01X82208Y-39258D01*
G01X81180Y-38778D01*
G01X80113Y-38390D01*
G01X79031Y-38100D01*
G01X80113Y-37810D01*
G01X81180Y-37422D01*
G01X82208Y-36942D01*
G01X83192Y-36375D01*
G01X84121Y-35723D01*
G01X84991Y-34994D01*
G01X85794Y-34191D01*
G01X86523Y-33321D01*
G01X87175Y-32392D01*
G01X87742Y-31408D01*
G01X88222Y-30380D01*
G01X88610Y-29313D01*
G01X88904Y-28216D01*
G01X89101Y-27098D01*
G01X89200Y-25968D01*
G01Y-24832D01*
G01X89101Y-23702D01*
G01X88904Y-22584D01*
G01X88610Y-21487D01*
G01X88222Y-20420D01*
G01X87742Y-19392D01*
G01X87175Y-18408D01*
G01X86523Y-17479D01*
G01X85794Y-16609D01*
G01X84991Y-15806D01*
G01X84121Y-15077D01*
G01X83192Y-14425D01*
G01X82208Y-13858D01*
G01X81180Y-13378D01*
G01X80113Y-12990D01*
G01X79031Y-12700D01*
G01X80113Y-12410D01*
G01X81180Y-12022D01*
G01X82208Y-11542D01*
G01X83192Y-10975D01*
G01X84121Y-10323D01*
G01X84991Y-9594D01*
G01X85794Y-8791D01*
G01X86523Y-7921D01*
G01X87175Y-6992D01*
G01X87742Y-6008D01*
G01X88222Y-4980D01*
G01X88610Y-3913D01*
G01X88904Y-2816D01*
G01X89101Y-1698D01*
G01X89200Y-0568D01*
G01Y0000D01*
G01Y0568D01*
G01X89101Y1698D01*
G01X88904Y2816D01*
G01X88610Y3913D01*
G01X88222Y4980D01*
G01X87742Y6008D01*
G01X87175Y6992D01*
G01X86523Y7921D01*
G01X85794Y8791D01*
G01X84991Y9594D01*
G01X84121Y10323D01*
G01X83192Y10975D01*
G01X82208Y11542D01*
G01X81180Y12022D01*
G01X80113Y12410D01*
G01X79031Y12700D01*
G01X80113Y12990D01*
G01X81180Y13378D01*
G01X82208Y13858D01*
G01X83192Y14425D01*
G01X84121Y15077D01*
G01X84991Y15806D01*
G01X85794Y16609D01*
G01X86523Y17479D01*
G01X87175Y18408D01*
G01X87742Y19392D01*
G01X88222Y20420D01*
G01X88610Y21487D01*
G01X88904Y22584D01*
G01X89101Y23702D01*
G01X89200Y24832D01*
G01Y25968D01*
G01X89101Y27098D01*
G01X88904Y28216D01*
G01X88610Y29313D01*
G01X88222Y30380D01*
G01X87742Y31408D01*
G01X87175Y32392D01*
G01X86523Y33321D01*
G01X85794Y34191D01*
G01X84991Y34994D01*
G01X84121Y35723D01*
G01X83192Y36375D01*
G01X82208Y36942D01*
G01X81180Y37422D01*
G01X80113Y37810D01*
G01X79031Y38100D01*
G01X80113Y38390D01*
G01X81180Y38778D01*
G01X82208Y39258D01*
G01X83192Y39825D01*
G01X84121Y40477D01*
G01X84991Y41206D01*
G01X85794Y42009D01*
G01X86523Y42879D01*
G01X87175Y43808D01*
G01X87742Y44792D01*
G01X88222Y45820D01*
G01X88610Y46887D01*
G01X88904Y47984D01*
G01X89101Y49102D01*
G01X89200Y50232D01*
G01Y51368D01*
G01X89101Y52498D01*
G01X88904Y53616D01*
G01X88610Y54713D01*
G01X88222Y55780D01*
G01X87742Y56808D01*
G01X87175Y57792D01*
G01X86523Y58721D01*
G01X85794Y59591D01*
G01X84991Y60394D01*
G01X84121Y61123D01*
G01X83192Y61775D01*
G01X82208Y62342D01*
G01X81180Y62822D01*
G01X80113Y63210D01*
G01X79031Y63500D01*
G01X80113Y63790D01*
G01X81180Y64178D01*
G01X82208Y64658D01*
G01X83192Y65225D01*
G01X84121Y65877D01*
G01X84991Y66606D01*
G01X85794Y67409D01*
G01X86523Y68279D01*
G01X87175Y69208D01*
G01X87742Y70192D01*
G01X88222Y71220D01*
G01X88610Y72287D01*
G01X88904Y73384D01*
G01X89101Y74502D01*
G01X89200Y75632D01*
G01Y76768D01*
G01X89101Y77898D01*
G01X88904Y79016D01*
G01X88610Y80113D01*
G01X88222Y81180D01*
G01X87742Y82208D01*
G01X87175Y83192D01*
G01X86523Y84121D01*
G01X85794Y84991D01*
G01X84991Y85794D01*
G01X84121Y86523D01*
G01X83192Y87175D01*
G01X82208Y87742D01*
G01X81180Y88222D01*
G01X80113Y88610D01*
G01X79031Y88900D01*
G01X80113Y89190D01*
G01X81180Y89578D01*
G01X82208Y90058D01*
G01X83192Y90625D01*
G01X84121Y91277D01*
G01X84991Y92006D01*
G01X85794Y92809D01*
G01X86523Y93679D01*
G01X87175Y94608D01*
G01X87742Y95592D01*
G01X88222Y96620D01*
G01X88610Y97687D01*
G01X88904Y98784D01*
G01X89101Y99902D01*
G01X89200Y101032D01*
G01Y102168D01*
G01X89101Y103298D01*
G01X88904Y104416D01*
G01X88610Y105513D01*
G01X88222Y106580D01*
G01X87742Y107608D01*
G01X87660Y107750D01*
G01X87175Y108592D01*
G01X86523Y109521D01*
G01X85794Y110391D01*
G01X84991Y111194D01*
G01X84121Y111923D01*
G01X83192Y112575D01*
G01X82208Y113142D01*
G01X81180Y113622D01*
G01X80113Y114010D01*
G01X79031Y114300D01*
G01X80113Y114590D01*
G01X81180Y114978D01*
G01X82208Y115458D01*
G01X83192Y116025D01*
G01X84121Y116677D01*
G01X84991Y117406D01*
G01X85794Y118209D01*
G01X86523Y119079D01*
G01X87175Y120008D01*
G01X87742Y120992D01*
G01X88222Y122020D01*
G01X88610Y123087D01*
G01X88904Y124184D01*
G01X89101Y125302D01*
G01X89200Y126432D01*
G01Y127568D01*
G01X89101Y128698D01*
G01X88904Y129816D01*
G01X88610Y130913D01*
G01X88222Y131980D01*
G01X87742Y133008D01*
G01X87175Y133992D01*
G01X86523Y134921D01*
G01X85794Y135791D01*
G01X84991Y136594D01*
G01X84121Y137323D01*
G01X83192Y137975D01*
G01X82208Y138542D01*
G01X81180Y139022D01*
G01X80113Y139410D01*
G01X79179Y139660D01*
G01X80072Y139979D01*
G01X80113Y139990D01*
G01X80606Y140169D01*
G01X80895Y140273D01*
G01X80906Y140279D01*
G01X81180Y140378D01*
G01X82208Y140858D01*
G01X83192Y141425D01*
G01X84121Y142077D01*
G01X84991Y142806D01*
G01X85794Y143609D01*
G01X86523Y144479D01*
G01X87175Y145408D01*
G01X87742Y146392D01*
G01X88222Y147420D01*
G01X88610Y148487D01*
G01X88904Y149584D01*
G01X89101Y150702D01*
G01X89200Y151832D01*
G01Y152968D01*
G01X89101Y154098D01*
G01X88904Y155216D01*
G01X88610Y156313D01*
G01X88222Y157380D01*
G01X87742Y158408D01*
G01X87175Y159392D01*
G01X86523Y160321D01*
G01X85794Y161191D01*
G01X84991Y161994D01*
G01X84121Y162723D01*
G01X83192Y163375D01*
G01X82208Y163942D01*
G01X81180Y164422D01*
G01X80113Y164810D01*
G01X79031Y165100D01*
G01X80113Y165390D01*
G01X81180Y165778D01*
G01X82208Y166258D01*
G01X83192Y166825D01*
G01X84121Y167477D01*
G01X84991Y168206D01*
G01X85794Y169009D01*
G01X86523Y169879D01*
G01X87175Y170808D01*
G01X87742Y171792D01*
G01X88222Y172820D01*
G01X88610Y173887D01*
G01X88904Y174984D01*
G01X89101Y176102D01*
G01X89200Y177232D01*
G01Y178368D01*
G01X89101Y179498D01*
G01X88904Y180616D01*
G01X88610Y181713D01*
G01X88222Y182780D01*
G01X87742Y183808D01*
G01X87175Y184792D01*
G01X86523Y185721D01*
G01X85794Y186591D01*
G01X84991Y187394D01*
G01X84121Y188123D01*
G01X83192Y188775D01*
G01X82208Y189342D01*
G01X81180Y189822D01*
G01X80113Y190210D01*
G01X79016Y190504D01*
G01X77898Y190701D01*
G01X76768Y190800D01*
G01X75632D01*
G01X74502Y190701D01*
G01X73384Y190504D01*
G01X72287Y190210D01*
G01X71220Y189822D01*
G01X70192Y189342D01*
G01X69208Y188775D01*
G01X68279Y188123D01*
G01X67409Y187394D01*
G01X66606Y186591D01*
G01X65877Y185721D01*
G01X65225Y184792D01*
G01X64658Y183808D01*
G01X64178Y182780D01*
G01X63790Y181713D01*
G01X63496Y180616D01*
G01X63299Y179498D01*
G01X63200Y178368D01*
G01Y177232D01*
G01X63299Y176102D01*
G01X63496Y174984D01*
G01X63790Y173887D01*
G01X64178Y172820D01*
G01X64658Y171792D01*
G01X65225Y170808D01*
G01X65877Y169879D01*
G01X66606Y169009D01*
G01X67409Y168206D01*
G01X68279Y167477D01*
G01X69208Y166825D01*
G01X70192Y166258D01*
G01X71220Y165778D01*
G01X72287Y165390D01*
G01X73369Y165100D01*
G01X72287Y164810D01*
G01X71220Y164422D01*
G01X70192Y163942D01*
G01X69208Y163375D01*
G01X68279Y162723D01*
G01X67409Y161994D01*
G01X66606Y161191D01*
G01X65877Y160321D01*
G01X65225Y159392D01*
G01X64658Y158408D01*
G01X64178Y157380D01*
G01X64079Y157106D01*
G01X64073Y157095D01*
G01X63969Y156806D01*
G01X63790Y156313D01*
G01X63779Y156272D01*
G01X57886Y139742D01*
G01X56295Y138152D01*
G01X56161Y138039D01*
G01X56048Y137905D01*
G01X55924Y137781D01*
G01X55824Y137637D01*
G01X55711Y137503D01*
G01X55623Y137351D01*
G01X55523Y137208D01*
G01X55449Y137049D01*
G01X55361Y136897D01*
G01X55301Y136732D01*
G01X55227Y136573D01*
G01X55181Y136404D01*
G01X55122Y136239D01*
G01X55091Y136067D01*
G01X55046Y135897D01*
G01X55030Y135723D01*
G01X55000Y135550D01*
G01Y135375D01*
G01X54985Y135200D01*
G01X55000Y135025D01*
G01Y107750D01*
G01Y68657D01*
G01X47250Y60907D01*
G01X41343Y55000D01*
G01X25175D01*
G01X25000Y55015D01*
G01X24825Y55000D01*
G01X24650D01*
G01X24477Y54970D01*
G01X24303Y54954D01*
G01X24133Y54909D01*
G01X23961Y54878D01*
G01X23796Y54819D01*
G01X23627Y54773D01*
G01X23468Y54699D01*
G01X23303Y54639D01*
G01X23151Y54551D01*
G01X22992Y54477D01*
G01X22849Y54377D01*
G01X22697Y54289D01*
G01X22563Y54176D01*
G01X22419Y54076D01*
G01X22295Y53952D01*
G01X22161Y53839D01*
G01X22048Y53705D01*
G01X19343Y51000D01*
G01X9175D01*
G01X9000Y51015D01*
G01X8825Y51000D01*
G01X8650D01*
G01X8477Y50970D01*
G01X8303Y50954D01*
G01X8133Y50909D01*
G01X7961Y50878D01*
G01X7796Y50819D01*
G01X7627Y50773D01*
G01X7468Y50699D01*
G01X7303Y50639D01*
G01X7151Y50551D01*
G01X6992Y50477D01*
G01X6849Y50377D01*
G01X6697Y50289D01*
G01X6563Y50176D01*
G01X6419Y50076D01*
G01X6295Y49952D01*
G01X6161Y49839D01*
G01X6048Y49705D01*
G01X2000Y45657D01*
G01X1850Y45507D01*
G01Y70900D01*
G01X2000D01*
G01X2750D01*
G01Y75000D01*
G01X4308Y80590D01*
G01X18612Y94895D01*
G01X18772Y95028D01*
G01X18905Y95188D01*
G01X19053Y95335D01*
G01X19172Y95506D01*
G01X19306Y95665D01*
G01X19410Y95845D01*
G01X19529Y96016D01*
G01X19617Y96205D01*
G01X19721Y96385D01*
G01X19793Y96581D01*
G01X19881Y96769D01*
G01X19934Y96970D01*
G01X20006Y97166D01*
G01X20042Y97371D01*
G01X20096Y97572D01*
G01X20114Y97779D01*
G01X20150Y97984D01*
G01Y98193D01*
G01X20168Y98400D01*
G01X20150Y98607D01*
G01Y104686D01*
G01X20903Y106000D01*
G01X22900D01*
G01Y107750D01*
G01Y110342D01*
G01X22901Y110350D01*
G01X22900Y110758D01*
G01Y115242D01*
G01X22901Y115650D01*
G01X22900Y115658D01*
G01Y120000D01*
G01X20903D01*
G01X20150Y121314D01*
G01Y134432D01*
G01X28612Y142895D01*
G01X28772Y143028D01*
G01X28905Y143188D01*
G01X29053Y143335D01*
G01X29172Y143506D01*
G01X29306Y143665D01*
G01X29410Y143845D01*
G01X29529Y144016D01*
G01X29617Y144205D01*
G01X29721Y144385D01*
G01X29793Y144581D01*
G01X29881Y144769D01*
G01X29934Y144970D01*
G01X30006Y145166D01*
G01X30042Y145371D01*
G01X30096Y145572D01*
G01X30114Y145779D01*
G01X30127Y145856D01*
G01X36273Y155864D01*
G01X36375Y156008D01*
G01X36570Y156347D01*
G01X36695Y156551D01*
G01X36712Y156592D01*
G01X36942Y156992D01*
G01X37422Y158020D01*
G01X37810Y159087D01*
G01X38104Y160184D01*
G01X38301Y161302D01*
G01X38400Y162432D01*
G01Y163568D01*
G01X38301Y164698D01*
G01X38104Y165816D01*
G01X37810Y166913D01*
G01X37422Y167980D01*
G01X36942Y169008D01*
G01X36375Y169992D01*
G01X35723Y170921D01*
G01X34994Y171791D01*
G01X34191Y172594D01*
G01X33321Y173323D01*
G01X32392Y173975D01*
G01X31408Y174542D01*
G01X30380Y175022D01*
G01X29313Y175410D01*
G01X28216Y175704D01*
G01X27098Y175901D01*
G01X25968Y176000D01*
G01X24832D01*
G01X23702Y175901D01*
G01X22584Y175704D01*
G01X21487Y175410D01*
G01X20420Y175022D01*
G01X19392Y174542D01*
G01X18408Y173975D01*
G01X17479Y173323D01*
G01X16609Y172594D01*
G01X15806Y171791D01*
G01X15077Y170921D01*
G01X14425Y169992D01*
G01X13858Y169008D01*
G01X13378Y167980D01*
G01X12990Y166913D01*
G01X12696Y165816D01*
G01X12499Y164698D01*
G01X12400Y163568D01*
G01Y162432D01*
G01X12499Y161302D01*
G01X12696Y160184D01*
G01X12990Y159087D01*
G01X13378Y158020D01*
G01X13858Y156992D01*
G01X14088Y156592D01*
G01X14105Y156551D01*
G01X14230Y156347D01*
G01X14425Y156008D01*
G01X14527Y155864D01*
G01X19709Y147426D01*
G01X12188Y139905D01*
G01X12028Y139772D01*
G01X11895Y139612D01*
G01X11747Y139465D01*
G01X11628Y139294D01*
G01X11494Y139135D01*
G01X11390Y138955D01*
G01X11271Y138784D01*
G01X11183Y138595D01*
G01X11079Y138415D01*
G01X11007Y138219D01*
G01X10919Y138031D01*
G01X10866Y137830D01*
G01X10794Y137634D01*
G01X10758Y137429D01*
G01X10704Y137228D01*
G01X10686Y137021D01*
G01X10650Y136816D01*
G01Y136607D01*
G01X10632Y136400D01*
G01X10650Y136193D01*
G01Y121314D01*
G01X9897Y120000D01*
G01X7900D01*
G01X2000D01*
G01X-7100D01*
G01Y107750D01*
G01Y106000D01*
G01X2000D01*
G01X7900D01*
G01X9897D01*
G01X10650Y104686D01*
G01Y100368D01*
G01X2750Y92468D01*
G01Y95900D01*
G01X2000D01*
G01X-1816D01*
G01X-2048Y95918D01*
G01X-2231Y95900D01*
G01X-8550D01*
G01Y75824D01*
G01X-8568Y75583D01*
G01X-8550Y75409D01*
G01Y70900D01*
G01X-7650D01*
G01Y44068D01*
G01X-24968Y26750D01*
G01X-43250D01*
G01X-47793D01*
G01X-48000Y26768D01*
G01X-48207Y26750D01*
G01X-48416D01*
G01X-48621Y26714D01*
G01X-48828Y26696D01*
G01X-49029Y26642D01*
G01X-49234Y26606D01*
G01X-49430Y26534D01*
G01X-49631Y26481D01*
G01X-49819Y26393D01*
G01X-50015Y26321D01*
G01X-50195Y26217D01*
G01X-50384Y26129D01*
G01X-50555Y26010D01*
G01X-50735Y25906D01*
G01X-50894Y25772D01*
G01X-51065Y25653D01*
G01X-51212Y25505D01*
G01X-51372Y25372D01*
G01X-51505Y25212D01*
G01X-64212Y12505D01*
G01X-64372Y12372D01*
G01X-64505Y12212D01*
G01X-64653Y12065D01*
G01X-64772Y11894D01*
G01X-64906Y11735D01*
G01X-65010Y11555D01*
G01X-65129Y11384D01*
G01X-65217Y11195D01*
G01X-65321Y11015D01*
G01X-65393Y10819D01*
G01X-65481Y10631D01*
G01X-65534Y10430D01*
G01X-65606Y10234D01*
G01X-65642Y10029D01*
G01X-65696Y9828D01*
G01X-65714Y9621D01*
G01X-65750Y9416D01*
G01Y9207D01*
G01X-65768Y9000D01*
G01X-65750Y8793D01*
G01Y7741D01*
G01X-65877Y7921D01*
G01X-66606Y8791D01*
G01X-67409Y9594D01*
G01X-68279Y10323D01*
G01X-69208Y10975D01*
G01X-70192Y11542D01*
G01X-71220Y12022D01*
G01X-72287Y12410D01*
G01X-73369Y12700D01*
G01X-72287Y12990D01*
G01X-71220Y13378D01*
G01X-70192Y13858D01*
G01X-69208Y14425D01*
G01X-68279Y15077D01*
G01X-67409Y15806D01*
G01X-66606Y16609D01*
G01X-65877Y17479D01*
G01X-65225Y18408D01*
G01X-64658Y19392D01*
G01X-64178Y20420D01*
G01X-63790Y21487D01*
G01X-63496Y22584D01*
G01X-63299Y23702D01*
G01X-63200Y24832D01*
G01Y25968D01*
G01X-63299Y27098D01*
G01X-63496Y28216D01*
G01X-63790Y29313D01*
G01X-64178Y30380D01*
G01X-64658Y31408D01*
G01X-65225Y32392D01*
G01X-65877Y33321D01*
G01X-66606Y34191D01*
G01X-67409Y34994D01*
G01X-68279Y35723D01*
G01X-69208Y36375D01*
G01X-70192Y36942D01*
G01X-71220Y37422D01*
G01X-72287Y37810D01*
G01X-73369Y38100D01*
G01X-72287Y38390D01*
G01X-71220Y38778D01*
G01X-70192Y39258D01*
G01X-69208Y39825D01*
G01X-68279Y40477D01*
G01X-67409Y41206D01*
G01X-66606Y42009D01*
G01X-65877Y42879D01*
G01X-65225Y43808D01*
G01X-64658Y44792D01*
G01X-64178Y45820D01*
G01X-63790Y46887D01*
G01X-63496Y47984D01*
G01X-63299Y49102D01*
G01X-63200Y50232D01*
G01Y51368D01*
G01X-63299Y52498D01*
G01X-63496Y53616D01*
G01X-63790Y54713D01*
G01X-64178Y55780D01*
G01X-64658Y56808D01*
G01X-65225Y57792D01*
G01X-65877Y58721D01*
G01X-66606Y59591D01*
G01X-67409Y60394D01*
G01X-68279Y61123D01*
G01X-69208Y61775D01*
G01X-70192Y62342D01*
G01X-71220Y62822D01*
G01X-72287Y63210D01*
G01X-73369Y63500D01*
G01X-72287Y63790D01*
G01X-71220Y64178D01*
G01X-70192Y64658D01*
G01X-69208Y65225D01*
G01X-68279Y65877D01*
G01X-67409Y66606D01*
G01X-66606Y67409D01*
G01X-65877Y68279D01*
G01X-65225Y69208D01*
G01X-64658Y70192D01*
G01X-64178Y71220D01*
G01X-63790Y72287D01*
G01X-63496Y73384D01*
G01X-63299Y74502D01*
G01X-63200Y75632D01*
G01Y76768D01*
G01X-63299Y77898D01*
G01X-63496Y79016D01*
G01X-63790Y80113D01*
G01X-64178Y81180D01*
G01X-64658Y82208D01*
G01X-65225Y83192D01*
G01X-65877Y84121D01*
G01X-66606Y84991D01*
G01X-67409Y85794D01*
G01X-68279Y86523D01*
G01X-69208Y87175D01*
G01X-70192Y87742D01*
G01X-71220Y88222D01*
G01X-72287Y88610D01*
G01X-73369Y88900D01*
G01X-72287Y89190D01*
G01X-71220Y89578D01*
G01X-70192Y90058D01*
G01X-69208Y90625D01*
G01X-68279Y91277D01*
G01X-67409Y92006D01*
G01X-66606Y92809D01*
G01X-65877Y93679D01*
G01X-65225Y94608D01*
G01X-64658Y95592D01*
G01X-64178Y96620D01*
G01X-63790Y97687D01*
G01X-63496Y98784D01*
G01X-63299Y99902D01*
G01X-63200Y101032D01*
G01Y102168D01*
G01X-63299Y103298D01*
G01X-63496Y104416D01*
G01X-63790Y105513D01*
G01X-64178Y106580D01*
G01X-64658Y107608D01*
G01X-64740Y107750D01*
G01X-65225Y108592D01*
G01X-65877Y109521D01*
G01X-66606Y110391D01*
G01X-67409Y111194D01*
G01X-68279Y111923D01*
G01X-69208Y112575D01*
G01X-70192Y113142D01*
G01X-71220Y113622D01*
G01X-72287Y114010D01*
G01X-73369Y114300D01*
G01X-72287Y114590D01*
G01X-71220Y114978D01*
G01X-70192Y115458D01*
G01X-69208Y116025D01*
G01X-68279Y116677D01*
G01X-67878Y117012D01*
G01X-61018Y122688D01*
G01X-60974Y122704D01*
G01X-60784Y122755D01*
G01X-60605Y122839D01*
G01X-60420Y122906D01*
G01X-60249Y123005D01*
G01X-60070Y123088D01*
G01X-59909Y123201D01*
G01X-59738Y123300D01*
G01X-59587Y123427D01*
G01X-59425Y123540D01*
G01X-59286Y123679D01*
G01X-59135Y123806D01*
G01X-59008Y123957D01*
G01X-54631Y128334D01*
G01X-46714D01*
G01Y126834D01*
G01X-43250D01*
G01X-42317D01*
G01X-42027Y126821D01*
G01X-41924Y126834D01*
G01X-39155D01*
G01X-43250Y122739D01*
G01X-45343Y120646D01*
G01X-45478Y120533D01*
G01X-46451Y120000D01*
G01X-49800D01*
G01Y115551D01*
G01X-49808Y115208D01*
G01X-49800Y115158D01*
G01Y110758D01*
G01X-49801Y110350D01*
G01X-49800Y110342D01*
G01Y107750D01*
G01Y106000D01*
G01X-47803D01*
G01X-47050Y104686D01*
G01Y103473D01*
G01X-48096Y99550D01*
G01X-48163Y99300D01*
G01X-48164Y99297D01*
G01X-48204Y99145D01*
G01X-48218Y98992D01*
G01X-48254Y98784D01*
G01X-48300Y98262D01*
G01Y97738D01*
G01X-48254Y97216D01*
G01X-48218Y97008D01*
G01X-48204Y96855D01*
G01X-48164Y96703D01*
G01X-48163Y96700D01*
G01X-48096Y96450D01*
G01X-47050Y92527D01*
G01Y91607D01*
G01X-47068Y91400D01*
G01X-47050Y91193D01*
G01Y90984D01*
G01X-47014Y90779D01*
G01X-46996Y90572D01*
G01X-46942Y90371D01*
G01X-46906Y90166D01*
G01X-46834Y89970D01*
G01X-46781Y89769D01*
G01X-46693Y89581D01*
G01X-46621Y89385D01*
G01X-46517Y89205D01*
G01X-46429Y89016D01*
G01X-46310Y88845D01*
G01X-46206Y88665D01*
G01X-46072Y88506D01*
G01X-45953Y88335D01*
G01X-45805Y88188D01*
G01X-45672Y88028D01*
G01X-45512Y87895D01*
G01X-43250Y85632D01*
G01X-41813Y84196D01*
G01X-39950Y75165D01*
G01Y70900D01*
G01X-35546D01*
G01X-35478Y70890D01*
G01X-35131Y70900D01*
G01X-28650D01*
G01Y95900D01*
G01X-34949D01*
G01X-35113Y95917D01*
G01X-35364Y95900D01*
G01X-36650D01*
G01X-36504Y96450D01*
G01X-36437Y96700D01*
G01X-36436Y96703D01*
G01X-36396Y96855D01*
G01X-36382Y97008D01*
G01X-36346Y97216D01*
G01X-36300Y97738D01*
G01Y98262D01*
G01X-36346Y98784D01*
G01X-36382Y98992D01*
G01X-36396Y99145D01*
G01X-36436Y99297D01*
G01X-36437Y99300D01*
G01X-36504Y99550D01*
G01X-37550Y103473D01*
G01Y104686D01*
G01X-36797Y106000D01*
G01X-34800D01*
G01X-19800D01*
G01Y107750D01*
G01Y120000D01*
G01X-33261D01*
G01X-26671Y126590D01*
G01X-26520Y126717D01*
G01X-26422Y126834D01*
G01X-23714D01*
G01Y130960D01*
G01X-23711Y130979D01*
G01X-23714Y131353D01*
G01Y134054D01*
G01X-23700Y134166D01*
G01X-23714Y134447D01*
G01Y138834D01*
G01X-26996D01*
G01X-31412Y143250D01*
G01X-31539Y143401D01*
G01X-31690Y143528D01*
G01X-31830Y143668D01*
G01X-31991Y143781D01*
G01X-32142Y143907D01*
G01X-32313Y144006D01*
G01X-32475Y144119D01*
G01X-32653Y144203D01*
G01X-32824Y144301D01*
G01X-33009Y144369D01*
G01X-33188Y144452D01*
G01X-33379Y144503D01*
G01X-33564Y144570D01*
G01X-33758Y144605D01*
G01X-33949Y144656D01*
G01X-34145Y144673D01*
G01X-34339Y144707D01*
G01X-34537D01*
G01X-34733Y144724D01*
G01X-34930Y144707D01*
G01X-43250D01*
G01X-59232D01*
G01X-64037Y156992D01*
G01X-64178Y157380D01*
G01X-64658Y158408D01*
G01X-65225Y159392D01*
G01X-65877Y160321D01*
G01X-66606Y161191D01*
G01X-67409Y161994D01*
G01X-68279Y162723D01*
G01X-69208Y163375D01*
G01X-70192Y163942D01*
G01X-71220Y164422D01*
G01X-72287Y164810D01*
G01X-73369Y165100D01*
G01X-72287Y165390D01*
G01X-71220Y165778D01*
G01X-70192Y166258D01*
G01X-69208Y166825D01*
G01X-68279Y167477D01*
G01X-67409Y168206D01*
G01X-66606Y169009D01*
G01X-65877Y169879D01*
G01X-65225Y170808D01*
G01X-64658Y171792D01*
G01X-64178Y172820D01*
G01X-63790Y173887D01*
G01X-63496Y174984D01*
G01X-63299Y176102D01*
G01X-63200Y177232D01*
G01Y178368D01*
G01X-63299Y179498D01*
G01X-63496Y180616D01*
G01X-63790Y181713D01*
G01X-64178Y182780D01*
G01X-64658Y183808D01*
G01X-65225Y184792D01*
G01X-65877Y185721D01*
G01X-66606Y186591D01*
G01X-67409Y187394D01*
G01X-68279Y188123D01*
G01X-69208Y188775D01*
G01X-70192Y189342D01*
G01X-71220Y189822D01*
G01X-72287Y190210D01*
G01X-73384Y190504D01*
G01X-74502Y190701D01*
G01X-75632Y190800D01*
G01X-76768D01*
G01X-77898Y190701D01*
G01X-79016Y190504D01*
G01X-80113Y190210D01*
G01X-81180Y189822D01*
G01X-82208Y189342D01*
G01X-83192Y188775D01*
G01X-84121Y188123D01*
G01X-84991Y187394D01*
G01X-85794Y186591D01*
G01X-86523Y185721D01*
G01X-87175Y184792D01*
G01X-87742Y183808D01*
G01X-88222Y182780D01*
G01X-88500Y182015D01*
G01Y215500D01*
G01X-43250D01*
G01X2000D01*
G01X47250D01*
G01X92500D01*
G01Y107750D01*
G01Y0000D01*
G01Y-107750D01*
G01Y-215500D01*
G01X47250D01*
G01X2000D01*
G01X-43250D01*
G01X-43250Y-178000D02*
G01X-42500D01*
G01X-41122Y-178243D01*
G01X-39806Y-178722D01*
G01X-38594Y-179422D01*
G01X-37522Y-180322D01*
G01X-36622Y-181394D01*
G01X-35922Y-182606D01*
G01X-35443Y-183922D01*
G01X-35200Y-185300D01*
G01Y-194700D01*
G01X-35443Y-196078D01*
G01X-35922Y-197394D01*
G01X-36622Y-198606D01*
G01X-37522Y-199678D01*
G01X-38594Y-200578D01*
G01X-39806Y-201278D01*
G01X-41122Y-201757D01*
G01X-42500Y-202000D01*
G01X-43250D01*
G01X-43900D01*
G01X-45278Y-201757D01*
G01X-46594Y-201278D01*
G01X-47806Y-200578D01*
G01X-48878Y-199678D01*
G01X-49778Y-198606D01*
G01X-50478Y-197394D01*
G01X-50957Y-196078D01*
G01X-51200Y-194700D01*
G01Y-185300D01*
G01X-50957Y-183922D01*
G01X-50478Y-182606D01*
G01X-49778Y-181394D01*
G01X-48878Y-180322D01*
G01X-47806Y-179422D01*
G01X-46594Y-178722D01*
G01X-45278Y-178243D01*
G01X-43900Y-178000D01*
G01X-43250D01*
G01X-24600Y95900D02*
G01X-12600D01*
G01Y70900D01*
G01X-24600D01*
G01Y95900D01*
G01X-12400Y163568D02*
G01Y162432D01*
G01X-12499Y161302D01*
G01X-12696Y160184D01*
G01X-12990Y159087D01*
G01X-13378Y158020D01*
G01X-13858Y156992D01*
G01X-14425Y156008D01*
G01X-15077Y155079D01*
G01X-15806Y154209D01*
G01X-16609Y153406D01*
G01X-17479Y152677D01*
G01X-18408Y152025D01*
G01X-19392Y151458D01*
G01X-20420Y150978D01*
G01X-21487Y150590D01*
G01X-22584Y150296D01*
G01X-23702Y150099D01*
G01X-24832Y150000D01*
G01X-25968D01*
G01X-27098Y150099D01*
G01X-28216Y150296D01*
G01X-29313Y150590D01*
G01X-30380Y150978D01*
G01X-31408Y151458D01*
G01X-32392Y152025D01*
G01X-33321Y152677D01*
G01X-34191Y153406D01*
G01X-34994Y154209D01*
G01X-35723Y155079D01*
G01X-36375Y156008D01*
G01X-36942Y156992D01*
G01X-37422Y158020D01*
G01X-37810Y159087D01*
G01X-38104Y160184D01*
G01X-38301Y161302D01*
G01X-38400Y162432D01*
G01Y163568D01*
G01X-38301Y164698D01*
G01X-38104Y165816D01*
G01X-37810Y166913D01*
G01X-37422Y167980D01*
G01X-36942Y169008D01*
G01X-36375Y169992D01*
G01X-35723Y170921D01*
G01X-34994Y171791D01*
G01X-34191Y172594D01*
G01X-33321Y173323D01*
G01X-32392Y173975D01*
G01X-31408Y174542D01*
G01X-30380Y175022D01*
G01X-29313Y175410D01*
G01X-28216Y175704D01*
G01X-27098Y175901D01*
G01X-25968Y176000D01*
G01X-24832D01*
G01X-23702Y175901D01*
G01X-22584Y175704D01*
G01X-21487Y175410D01*
G01X-20420Y175022D01*
G01X-19392Y174542D01*
G01X-18408Y173975D01*
G01X-17479Y173323D01*
G01X-16609Y172594D01*
G01X-15806Y171791D01*
G01X-15077Y170921D01*
G01X-14425Y169992D01*
G01X-13858Y169008D01*
G01X-13378Y167980D01*
G01X-12990Y166913D01*
G01X-12696Y165816D01*
G01X-12499Y164698D01*
G01X-12400Y163568D01*
G01X47250Y-179101D02*
G01X47806Y-179422D01*
G01X48878Y-180322D01*
G01X49778Y-181394D01*
G01X50478Y-182606D01*
G01X50957Y-183922D01*
G01X51200Y-185300D01*
G01Y-194700D01*
G01X50957Y-196078D01*
G01X50478Y-197394D01*
G01X49778Y-198606D01*
G01X48878Y-199678D01*
G01X47806Y-200578D01*
G01X47250Y-200899D01*
G01X46594Y-201278D01*
G01X45278Y-201757D01*
G01X43900Y-202000D01*
G01X42500D01*
G01X41122Y-201757D01*
G01X39806Y-201278D01*
G01X38594Y-200578D01*
G01X37522Y-199678D01*
G01X36622Y-198606D01*
G01X35922Y-197394D01*
G01X35443Y-196078D01*
G01X35200Y-194700D01*
G01Y-185300D01*
G01X35443Y-183922D01*
G01X35922Y-182606D01*
G01X36622Y-181394D01*
G01X37522Y-180322D01*
G01X38594Y-179422D01*
G01X39806Y-178722D01*
G01X41122Y-178243D01*
G01X42500Y-178000D01*
G01X43900D01*
G01X45278Y-178243D01*
G01X46594Y-178722D01*
G01X47250Y-179101D01*
G01X-15600Y-107750D02*
G01Y-92500D01*
G01X-3600D01*
G01Y-107750D01*
G01Y-117500D01*
G01X-15600D01*
G01Y-107750D01*
G01X-88250Y-215050D02*
G01X92250D01*
G01Y-214150D01*
G01X-88250D01*
G01Y-213250D01*
G01X92250D01*
G01Y-212350D01*
G01X-88250D01*
G01Y-211450D01*
G01X92250D01*
G01Y-210550D01*
G01X-88250D01*
G01Y-209650D01*
G01X92250D01*
G01Y-208750D01*
G01X-88250D01*
G01Y-207850D01*
G01X92250D01*
G01Y-206950D01*
G01X-88250D01*
G01Y-206050D01*
G01X92250D01*
G01Y-205150D01*
G01X-88250D01*
G01X-88250Y190852D02*
G01X92250D01*
G01Y191752D01*
G01X-88250D01*
G01Y192652D01*
G01X92250D01*
G01Y193552D01*
G01X-88250D01*
G01Y194452D01*
G01X92250D01*
G01Y195352D01*
G01X-88250D01*
G01Y196252D01*
G01X92250D01*
G01Y197152D01*
G01X-88250D01*
G01Y198052D01*
G01X92250D01*
G01Y198952D01*
G01X-88250D01*
G01Y199852D01*
G01X92250D01*
G01Y200752D01*
G01X-88250D01*
G01Y201652D01*
G01X92250D01*
G01Y202552D01*
G01X-88250D01*
G01Y203452D01*
G01X92250D01*
G01Y204352D01*
G01X-88250D01*
G01Y205252D01*
G01X92250D01*
G01Y206152D01*
G01X-88250D01*
G01Y207052D01*
G01X92250D01*
G01Y207952D01*
G01X-88250D01*
G01Y208852D01*
G01X92250D01*
G01Y209752D01*
G01X-88250D01*
G01Y210652D01*
G01X92250D01*
G01Y211552D01*
G01X-88250D01*
G01Y212452D01*
G01X92250D01*
G01Y213352D01*
G01X-88250D01*
G01Y214252D01*
G01X92250D01*
G01Y215152D01*
G01X-88250D01*
G01X-88250Y-204250D02*
G01X-24250D01*
G01Y-203350D01*
G01X-88250D01*
G01Y-202450D01*
G01X-24250D01*
G01X-6750Y-204250D02*
G01X6750D01*
G01Y-203350D01*
G01X-6750D01*
G01Y-202450D01*
G01X6750D01*
G01Y-201550D01*
G01X-6750D01*
G01Y-200650D01*
G01X6750D01*
G01Y-199750D01*
G01X-6750D01*
G01Y-198850D01*
G01X6750D01*
G01Y-197950D01*
G01X-6750D01*
G01Y-197050D01*
G01X6750D01*
G01Y-196150D01*
G01X-6750D01*
G01Y-195250D01*
G01X6750D01*
G01Y-194350D01*
G01X-6750D01*
G01Y-193450D01*
G01X6750D01*
G01Y-192550D01*
G01X-6750D01*
G01Y-191650D01*
G01X6750D01*
G01Y-190750D01*
G01X-6750D01*
G01Y-189850D01*
G01X6750D01*
G01Y-188950D01*
G01X-6750D01*
G01Y-188050D01*
G01X6750D01*
G01Y-187150D01*
G01X-6750D01*
G01Y-186250D01*
G01X6750D01*
G01Y-185350D01*
G01X-6750D01*
G01Y-184450D01*
G01X6750D01*
G01Y-183550D01*
G01X-6750D01*
G01Y-182650D01*
G01X6750D01*
G01Y-181750D01*
G01X-6750D01*
G01Y-180850D01*
G01X6750D01*
G01Y-179950D01*
G01X-6750D01*
G01Y-179050D01*
G01X6750D01*
G01X6750Y-177250D02*
G01X-6750D01*
G01Y-176350D01*
G01X6750D01*
G01Y-175450D01*
G01X-6750D01*
G01Y-174550D01*
G01X6750D01*
G01Y-173650D01*
G01X-6750D01*
G01X24250Y-204250D02*
G01X92250D01*
G01Y-203350D01*
G01X24250D01*
G01Y-202450D01*
G01X92250D01*
G01X-88250Y-201550D02*
G01X-46097D01*
G01X-40303Y-201550D02*
G01X-24250D01*
G01X24250Y-201550D02*
G01X40303D01*
G01X46097Y-201550D02*
G01X92250D01*
G01X-88250Y-200650D02*
G01X-47932D01*
G01X-38468Y-200650D02*
G01X-24250D01*
G01X24250Y-200650D02*
G01X38468D01*
G01X47932Y-200650D02*
G01X92250D01*
G01X-88250Y-199750D02*
G01X-49043D01*
G01X-37357Y-199750D02*
G01X-24250D01*
G01X24250Y-199750D02*
G01X37357D01*
G01X49043Y-199750D02*
G01X92250D01*
G01X-88250Y-198850D02*
G01X-49824D01*
G01X-36576Y-198850D02*
G01X-24415D01*
G01X24250Y-198850D02*
G01X36576D01*
G01X49824Y-198850D02*
G01X92250D01*
G01X-88250Y-197950D02*
G01X-50407D01*
G01X-35993Y-197950D02*
G01X-24614D01*
G01X24250Y-197950D02*
G01X35993D01*
G01X50407Y-197950D02*
G01X92250D01*
G01X-88250Y-197050D02*
G01X-50853D01*
G01X-35547Y-197050D02*
G01X-24812D01*
G01X24250Y-197050D02*
G01X35547D01*
G01X50853Y-197050D02*
G01X92250D01*
G01X-88250Y-196150D02*
G01X-51181D01*
G01X-35219Y-196150D02*
G01X-25010D01*
G01X24250Y-196150D02*
G01X35219D01*
G01X51181Y-196150D02*
G01X92250D01*
G01X-88250Y-195250D02*
G01X-51353D01*
G01X-35047Y-195250D02*
G01X-25209D01*
G01X24250Y-195250D02*
G01X35047D01*
G01X51353Y-195250D02*
G01X92250D01*
G01X-88250Y-194350D02*
G01X-51450D01*
G01Y-193450D01*
G01X-88250D01*
G01Y-192550D01*
G01X-51450D01*
G01Y-191650D01*
G01X-88250D01*
G01X-34950Y-194350D02*
G01X-25407D01*
G01X24250Y-194350D02*
G01X34950D01*
G01Y-193450D01*
G01X24250D01*
G01Y-192550D01*
G01X34950D01*
G01Y-191650D01*
G01X24250D01*
G01Y-190750D01*
G01X34950D01*
G01Y-189850D01*
G01X24250D01*
G01Y-188950D01*
G01X34950D01*
G01Y-188050D01*
G01X24250D01*
G01Y-187150D01*
G01X34950D01*
G01Y-186250D01*
G01X24250D01*
G01Y-185350D01*
G01X34950D01*
G01X51450Y-194350D02*
G01X92250D01*
G01Y-193450D01*
G01X51450D01*
G01Y-192550D01*
G01X92250D01*
G01Y-191650D01*
G01X51450D01*
G01X-34950Y-193450D02*
G01X-25606D01*
G01X-34950Y-192550D02*
G01X-25804D01*
G01X-34950Y-191650D02*
G01X-26003D01*
G01X-88250Y-190750D02*
G01X-77589D01*
G01X-74811Y-190750D02*
G01X-51450D01*
G01X-34950Y-190750D02*
G01X-26201D01*
G01X51450Y-190750D02*
G01X74811D01*
G01X77589Y-190750D02*
G01X92250D01*
G01X-88250Y-189850D02*
G01X-81352D01*
G01X-71048Y-189850D02*
G01X-51450D01*
G01X-34950Y-189850D02*
G01X-26399D01*
G01X51450Y-189850D02*
G01X71048D01*
G01X81352Y-189850D02*
G01X92250D01*
G01X92250Y-140350D02*
G01X81352D01*
G01X-88250Y-188950D02*
G01X-83138D01*
G01X-69262Y-188950D02*
G01X-51450D01*
G01X-34950Y-188950D02*
G01X-26598D01*
G01X51450Y-188950D02*
G01X69262D01*
G01X83138Y-188950D02*
G01X92250D01*
G01X92250Y-141250D02*
G01X83138D01*
G01X-88250Y-188050D02*
G01X-84459D01*
G01X-67941Y-188050D02*
G01X-51450D01*
G01X-34950Y-188050D02*
G01X-26796D01*
G01X51450Y-188050D02*
G01X67941D01*
G01X84459Y-188050D02*
G01X92250D01*
G01X92250Y-142150D02*
G01X84459D01*
G01X-88250Y-187150D02*
G01X-85485D01*
G01X-66915Y-187150D02*
G01X-51450D01*
G01X-34950Y-187150D02*
G01X-26995D01*
G01X51450Y-187150D02*
G01X66915D01*
G01X85485Y-187150D02*
G01X92250D01*
G01X92250Y-143050D02*
G01X85485D01*
G01X-88250Y-186250D02*
G01X-86330D01*
G01X-66070Y-186250D02*
G01X-51450D01*
G01X-51450Y-143950D02*
G01X-66070D01*
G01X-34950Y-186250D02*
G01X-27193D01*
G01X51450Y-186250D02*
G01X66070D01*
G01X86330Y-186250D02*
G01X92250D01*
G01X92250Y-143950D02*
G01X86330D01*
G01X-88250Y-185350D02*
G01X-87034D01*
G01X-65366Y-185350D02*
G01X-51450D01*
G01X-51450Y-144850D02*
G01X-65366D01*
G01X-34950Y-185350D02*
G01X-27392D01*
G01X51450Y-185350D02*
G01X65366D01*
G01X87034Y-185350D02*
G01X92250D01*
G01X92250Y-144850D02*
G01X87034D01*
G01X-88250Y-184450D02*
G01X-87622D01*
G01X-64778Y-184450D02*
G01X-51300D01*
G01X-35100Y-184450D02*
G01X-27590D01*
G01X24250Y-184450D02*
G01X35100D01*
G01X51300Y-184450D02*
G01X64763D01*
G01X87622Y-184450D02*
G01X92250D01*
G01X92250Y-145750D02*
G01X87622D01*
G01X-88250Y-183550D02*
G01X-88113D01*
G01X-64287Y-183550D02*
G01X-51072D01*
G01X-35328Y-183550D02*
G01X-27789D01*
G01X24250Y-183550D02*
G01X35328D01*
G01X51072Y-183550D02*
G01X64168D01*
G01X88113Y-183550D02*
G01X92250D01*
G01X92250Y-146650D02*
G01X88113D01*
G01X-63881Y-182650D02*
G01X-50744D01*
G01X-35656Y-182650D02*
G01X-27987D01*
G01X24250Y-182650D02*
G01X35656D01*
G01X50744Y-182650D02*
G01X63574D01*
G01X88519Y-182650D02*
G01X92250D01*
G01X92250Y-147550D02*
G01X88519D01*
G01X-63553Y-181750D02*
G01X-50234D01*
G01X-36166Y-181750D02*
G01X-28185D01*
G01X24250Y-181750D02*
G01X36166D01*
G01X50234Y-181750D02*
G01X62980D01*
G01X88847Y-181750D02*
G01X92250D01*
G01X92250Y-148450D02*
G01X88847D01*
G01X88847Y46852D02*
G01X92250D01*
G01X-63309Y-180850D02*
G01X-49572D01*
G01X-36828Y-180850D02*
G01X-28384D01*
G01X24250Y-180850D02*
G01X36828D01*
G01X49572Y-180850D02*
G01X62386D01*
G01X89091Y-180850D02*
G01X92250D01*
G01X92250Y-149350D02*
G01X89091D01*
G01X89091Y79252D02*
G01X92250D01*
G01X-63129Y-179950D02*
G01X-48686D01*
G01X-37714Y-179950D02*
G01X-29078D01*
G01X24250Y-179950D02*
G01X37714D01*
G01X48686Y-179950D02*
G01X61792D01*
G01X89271Y-179950D02*
G01X92250D01*
G01X92250Y-150250D02*
G01X89271D01*
G01X89271Y78352D02*
G01X92250D01*
G01X-63010Y-179050D02*
G01X-47412D01*
G01X-38988Y-179050D02*
G01X-29978D01*
G01X24250Y-179050D02*
G01X38988D01*
G01X47412Y-179050D02*
G01X61197D01*
G01X89390Y-179050D02*
G01X92250D01*
G01X92250Y-151150D02*
G01X89390D01*
G01X89390Y49552D02*
G01X92250D01*
G01X92250Y77452D02*
G01X89390D01*
G01X-62950Y-178150D02*
G01X-45001D01*
G01X-41399Y-178150D02*
G01X-30878D01*
G01X-6747Y-178150D02*
G01X6749D01*
G01X24251Y-178150D02*
G01X41399D01*
G01X45001Y-178150D02*
G01X60603D01*
G01X89450Y-178150D02*
G01X92250D01*
G01Y-177250D01*
G01X89450D01*
G01X89450Y-152950D02*
G01X92250D01*
G01Y-152050D01*
G01X89450D01*
G01X89450Y-126850D02*
G01X92250D01*
G01X92250Y-101650D02*
G01X89450D01*
G01X89450Y-76450D02*
G01X92250D01*
G01X92250Y-51250D02*
G01X89450D01*
G01Y-50350D01*
G01X92250D01*
G01X92250Y-25150D02*
G01X89450D01*
G01X89450Y0052D02*
G01X92250D01*
G01X92250Y25252D02*
G01X89450D01*
G01X89450Y50452D02*
G01X92250D01*
G01Y51352D01*
G01X89450D01*
G01X89450Y75652D02*
G01X92250D01*
G01Y76552D01*
G01X89450D01*
G01X89450Y101752D02*
G01X92250D01*
G01X92250Y126952D02*
G01X89450D01*
G01X89450Y152152D02*
G01X92250D01*
G01X92250Y177352D02*
G01X89450D01*
G01Y178252D01*
G01X92250D01*
G01X-62946Y-177250D02*
G01X-31778D01*
G01X24250Y-177250D02*
G01X60009D01*
G01X-62940Y-176350D02*
G01X-32678D01*
G01X24250Y-176350D02*
G01X59415D01*
G01X89373Y-176350D02*
G01X92250D01*
G01X92250Y-153850D02*
G01X89373D01*
G01X89373Y52252D02*
G01X92250D01*
G01X92250Y74752D02*
G01X89373D01*
G01X24250Y-175450D02*
G01X58820D01*
G01X89236Y-175450D02*
G01X92250D01*
G01X92250Y-154750D02*
G01X89236D01*
G01X89236Y53152D02*
G01X92250D01*
G01X24250Y-174550D02*
G01X58226D01*
G01X89038Y-174550D02*
G01X92250D01*
G01X92250Y-155650D02*
G01X89038D01*
G01X89038Y72952D02*
G01X92250D01*
G01X24250Y-173650D02*
G01X57632D01*
G01X88774Y-173650D02*
G01X92250D01*
G01X92250Y-156550D02*
G01X88774D01*
G01X-10167Y-172750D02*
G01X9162D01*
G01X21838Y-172750D02*
G01X57038D01*
G01X88439Y-172750D02*
G01X92250D01*
G01X92250Y-157450D02*
G01X88439D01*
G01X-11019Y-171850D02*
G01X9673D01*
G01X21327Y-171850D02*
G01X56443D01*
G01X88019Y-171850D02*
G01X92250D01*
G01X92250Y-158350D02*
G01X88019D01*
G01X-11871Y-170950D02*
G01X10185D01*
G01X20815Y-170950D02*
G01X55849D01*
G01X87506Y-170950D02*
G01X92250D01*
G01X92250Y-159250D02*
G01X87506D01*
G01X-12723Y-170050D02*
G01X10500D01*
G01X20500Y-170050D02*
G01X55143D01*
G01X86893Y-170050D02*
G01X92250D01*
G01X92250Y-160150D02*
G01X86893D01*
G01X-13000Y-169150D02*
G01X10500D01*
G01X20500Y-169150D02*
G01X54243D01*
G01X86162Y-169150D02*
G01X92250D01*
G01X92250Y-161050D02*
G01X86162D01*
G01X-12941Y-168250D02*
G01X10500D01*
G01X20718Y-168250D02*
G01X53430D01*
G01X85285Y-168250D02*
G01X92250D01*
G01X92250Y-161950D02*
G01X85285D01*
G01X-12701Y-167350D02*
G01X10500D01*
G01X21640Y-167350D02*
G01X52971D01*
G01X84191Y-167350D02*
G01X92250D01*
G01X92250Y-162850D02*
G01X84191D01*
G01X-12460Y-166450D02*
G01X10486D01*
G01X22333Y-166450D02*
G01X52768D01*
G01X82791Y-166450D02*
G01X92250D01*
G01X92250Y-163750D02*
G01X82791D01*
G01X-12220Y-165550D02*
G01X10587D01*
G01X22752Y-165550D02*
G01X52750D01*
G01X80803Y-165550D02*
G01X92250D01*
G01Y-164650D01*
G01X80803D01*
G01X-71597Y-164650D02*
G01X-69982D01*
G01X-11980Y-164650D02*
G01X10869D01*
G01X22961Y-164650D02*
G01X24930D01*
G01X32870Y-164650D02*
G01X52750D01*
G01X-69609Y-163750D02*
G01X-34896D01*
G01X-11793Y-163750D02*
G01X11357D01*
G01X34896Y-163750D02*
G01X52750D01*
G01X-68209Y-162850D02*
G01X-36282D01*
G01X-11750Y-162850D02*
G01X12182D01*
G01X36282Y-162850D02*
G01X52750D01*
G01X-67115Y-161950D02*
G01X-37317D01*
G01X-11843Y-161950D02*
G01X13000D01*
G01X37317Y-161950D02*
G01X52750D01*
G01X-66238Y-161050D02*
G01X-38153D01*
G01X-12075Y-161050D02*
G01X13000D01*
G01X38153Y-161050D02*
G01X52750D01*
G01X-65507Y-160150D02*
G01X-45822D01*
G01X-40578Y-160150D02*
G01X-38838D01*
G01X-12467Y-160150D02*
G01X13000D01*
G01X38838Y-160150D02*
G01X40578D01*
G01X45822Y-160150D02*
G01X52750D01*
G01X-64894Y-159250D02*
G01X-47759D01*
G01X-13064Y-159250D02*
G01X13000D01*
G01X47759Y-159250D02*
G01X52750D01*
G01X-64381Y-158350D02*
G01X-48924D01*
G01X-13957Y-158350D02*
G01X13000D01*
G01X48924Y-158350D02*
G01X52750D01*
G01X-63961Y-157450D02*
G01X-49740D01*
G01X-15456Y-157450D02*
G01X13000D01*
G01X49740Y-157450D02*
G01X52750D01*
G01X-63626Y-156550D02*
G01X-50349D01*
G01X-17303Y-156550D02*
G01X13000D01*
G01X50349Y-156550D02*
G01X52750D01*
G01X-63362Y-155650D02*
G01X-50817D01*
G01X-17098Y-155650D02*
G01X13000D01*
G01X50817Y-155650D02*
G01X52750D01*
G01X-63164Y-154750D02*
G01X-51144D01*
G01X-16964Y-154750D02*
G01X13000D01*
G01X51144Y-154750D02*
G01X52750D01*
G01X-63027Y-153850D02*
G01X-51335D01*
G01X-16900Y-153850D02*
G01X13000D01*
G01X51335Y-153850D02*
G01X52750D01*
G01X-62950Y-152950D02*
G01X-51450D01*
G01Y-152050D01*
G01X-62950D01*
G01X-16903Y-152950D02*
G01X13000D01*
G01X51450Y-152950D02*
G01X52750D01*
G01Y-152050D01*
G01X51450D01*
G01Y-151150D01*
G01X52750D01*
G01Y-150250D01*
G01X51450D01*
G01Y-149350D01*
G01X52750D01*
G01Y-148450D01*
G01X51450D01*
G01Y-147550D01*
G01X52750D01*
G01Y-146650D01*
G01X51450D01*
G01Y-145750D01*
G01X52750D01*
G01Y-144850D01*
G01X51450D01*
G01Y-143950D01*
G01X52750D01*
G01X-16982Y-152050D02*
G01X13000D01*
G01X-63010Y-151150D02*
G01X-51450D01*
G01X-17133Y-151150D02*
G01X13000D01*
G01X-63129Y-150250D02*
G01X-51450D01*
G01X-17356Y-150250D02*
G01X13000D01*
G01X-63309Y-149350D02*
G01X-51450D01*
G01X-17656Y-149350D02*
G01X13000D01*
G01X-63553Y-148450D02*
G01X-51450D01*
G01X-18040Y-148450D02*
G01X13000D01*
G01X-63881Y-147550D02*
G01X-51450D01*
G01X-18518Y-147550D02*
G01X13000D01*
G01X-64287Y-146650D02*
G01X-51450D01*
G01X-19102Y-146650D02*
G01X13000D01*
G01X-64778Y-145750D02*
G01X-51450D01*
G01X-19814Y-145750D02*
G01X13000D01*
G01X-20683Y-144850D02*
G01X13000D01*
G01X-21803Y-143950D02*
G01X13000D01*
G01X-66915Y-143050D02*
G01X-51318D01*
G01X-35082Y-143050D02*
G01X-34543D01*
G01X-23257Y-143050D02*
G01X13000D01*
G01X23000Y-143050D02*
G01X23257D01*
G01X34543Y-143050D02*
G01X35082D01*
G01X51318Y-143050D02*
G01X52750D01*
G01X-67941Y-142150D02*
G01X-51108D01*
G01X-35292Y-142150D02*
G01X-32190D01*
G01X-25610Y-142150D02*
G01X13000D01*
G01X23000Y-142150D02*
G01X25610D01*
G01X32190Y-142150D02*
G01X35292D01*
G01X51108Y-142150D02*
G01X52750D01*
G01X-69262Y-141250D02*
G01X-50781D01*
G01X-35619Y-141250D02*
G01X13000D01*
G01X23000Y-141250D02*
G01X35619D01*
G01X50781Y-141250D02*
G01X52750D01*
G01X-71048Y-140350D02*
G01X-50292D01*
G01X-36108Y-140350D02*
G01X13000D01*
G01X23000Y-140350D02*
G01X36108D01*
G01X50292Y-140350D02*
G01X52750D01*
G01X-72186Y-139450D02*
G01X-49656D01*
G01X-36744Y-139450D02*
G01X13000D01*
G01X23000Y-139450D02*
G01X36744D01*
G01X49656Y-139450D02*
G01X52750D01*
G01X80214Y-139450D02*
G01X92250D01*
G01X-69958Y-138550D02*
G01X-48805D01*
G01X-37595Y-138550D02*
G01X13000D01*
G01X23000Y-138550D02*
G01X37595D01*
G01X48805Y-138550D02*
G01X52750D01*
G01X82442Y-138550D02*
G01X92250D01*
G01X-68495Y-137650D02*
G01X-47585D01*
G01X-38815Y-137650D02*
G01X13000D01*
G01X23000Y-137650D02*
G01X38815D01*
G01X47585Y-137650D02*
G01X52750D01*
G01X83905Y-137650D02*
G01X92250D01*
G01X-67345Y-136750D02*
G01X-45547D01*
G01X-40853Y-136750D02*
G01X13000D01*
G01X23000Y-136750D02*
G01X40853D01*
G01X45547Y-136750D02*
G01X52750D01*
G01X85055Y-136750D02*
G01X92250D01*
G01X-66415Y-135850D02*
G01X13000D01*
G01X23000Y-135850D02*
G01X52750D01*
G01Y-134950D01*
G01X23000D01*
G01Y-134050D01*
G01X52750D01*
G01Y-133150D01*
G01X23000D01*
G01Y-132250D01*
G01X52750D01*
G01Y-131350D01*
G01X23000D01*
G01Y-130450D01*
G01X52750D01*
G01Y-129550D01*
G01X23000D01*
G01Y-128650D01*
G01X52750D01*
G01Y-127750D01*
G01X23000D01*
G01X85985Y-135850D02*
G01X92250D01*
G01X-65651Y-134950D02*
G01X13000D01*
G01X86749Y-134950D02*
G01X92250D01*
G01X-65016Y-134050D02*
G01X13000D01*
G01X87384Y-134050D02*
G01X92250D01*
G01X-64490Y-133150D02*
G01X13000D01*
G01X87910Y-133150D02*
G01X92250D01*
G01X-64054Y-132250D02*
G01X13000D01*
G01X88346Y-132250D02*
G01X92250D01*
G01X-63699Y-131350D02*
G01X13000D01*
G01X88701Y-131350D02*
G01X92250D01*
G01X-63416Y-130450D02*
G01X13000D01*
G01X88984Y-130450D02*
G01X92250D01*
G01X92250Y28852D02*
G01X88984D01*
G01X-63199Y-129550D02*
G01X13000D01*
G01X89201Y-129550D02*
G01X92250D01*
G01X92250Y27952D02*
G01X89201D01*
G01X89201Y99052D02*
G01X92250D01*
G01X-63045Y-128650D02*
G01X13000D01*
G01X89355Y-128650D02*
G01X92250D01*
G01X92250Y27052D02*
G01X89355D01*
G01X89355Y99952D02*
G01X92250D01*
G01X-62966Y-127750D02*
G01X13000D01*
G01X89434Y-127750D02*
G01X92250D01*
G01X92250Y26152D02*
G01X89434D01*
G01X89434Y100852D02*
G01X92250D01*
G01X-62950Y-126850D02*
G01X13000D01*
G01X23000Y-126850D02*
G01X42400D01*
G01X45600Y-126850D02*
G01X52750D01*
G01X-62992Y-125950D02*
G01X12982D01*
G01X23000Y-125950D02*
G01X40030D01*
G01X47641Y-125950D02*
G01X52750D01*
G01X89408Y-125950D02*
G01X92250D01*
G01X92250Y24352D02*
G01X89408D01*
G01X89408Y102652D02*
G01X92250D01*
G01X-63093Y-125050D02*
G01X12082D01*
G01X23000Y-125050D02*
G01X37870D01*
G01X48684Y-125050D02*
G01X52750D01*
G01X52750Y-116950D02*
G01X48684D01*
G01X89307Y-125050D02*
G01X92250D01*
G01X92250Y23452D02*
G01X89307D01*
G01X-63255Y-124150D02*
G01X11182D01*
G01X23005Y-124150D02*
G01X25706D01*
G01X49360Y-124150D02*
G01X52750D01*
G01X52750Y-117850D02*
G01X49360D01*
G01X89145Y-124150D02*
G01X92250D01*
G01X92250Y22552D02*
G01X89145D01*
G01X-63496Y-123250D02*
G01X10282D01*
G01X22953Y-123250D02*
G01X24697D01*
G01X49816Y-123250D02*
G01X52750D01*
G01X52750Y-118750D02*
G01X49816D01*
G01X88904Y-123250D02*
G01X92250D01*
G01X92250Y21652D02*
G01X88904D01*
G01X-63808Y-122350D02*
G01X9382D01*
G01X22722Y-122350D02*
G01X23797D01*
G01X50100Y-122350D02*
G01X52750D01*
G01X52750Y-119650D02*
G01X50100D01*
G01X88592Y-122350D02*
G01X92250D01*
G01X-64194Y-121450D02*
G01X8482D01*
G01X22263Y-121450D02*
G01X22897D01*
G01X50234Y-121450D02*
G01X52750D01*
G01Y-120550D01*
G01X50234D01*
G01X88206Y-121450D02*
G01X92250D01*
G01X-64663Y-120550D02*
G01X7582D01*
G01X21528Y-120550D02*
G01X21997D01*
G01X87737Y-120550D02*
G01X92250D01*
G01X-65226Y-119650D02*
G01X6682D01*
G01X20618Y-119650D02*
G01X21097D01*
G01X87174Y-119650D02*
G01X92250D01*
G01X-65902Y-118750D02*
G01X5761D01*
G01X19718Y-118750D02*
G01X20197D01*
G01X86498Y-118750D02*
G01X92250D01*
G01X-66715Y-117850D02*
G01X4241D01*
G01X18818Y-117850D02*
G01X19297D01*
G01X85685Y-117850D02*
G01X92250D01*
G01X-67703Y-116950D02*
G01X-31200D01*
G01X-19400Y-116950D02*
G01X-15850D01*
G01Y-116050D01*
G01X-19400D01*
G01Y-115150D01*
G01X-15850D01*
G01Y-114250D01*
G01X-19400D01*
G01Y-113350D01*
G01X-15850D01*
G01Y-112450D01*
G01X-19400D01*
G01Y-111550D01*
G01X-15850D01*
G01Y-110650D01*
G01X-19400D01*
G01Y-109750D01*
G01X-15850D01*
G01Y-108850D01*
G01X-19400D01*
G01Y-107950D01*
G01X-15850D01*
G01Y-107050D01*
G01X-19400D01*
G01Y-106150D01*
G01X-15850D01*
G01Y-105250D01*
G01X-19400D01*
G01Y-104350D01*
G01X-15850D01*
G01Y-103450D01*
G01X-19400D01*
G01Y-102550D01*
G01X-15850D01*
G01Y-101650D01*
G01X-19400D01*
G01Y-100750D01*
G01X-15850D01*
G01Y-99850D01*
G01X-19400D01*
G01Y-98950D01*
G01X-15850D01*
G01Y-98050D01*
G01X-19400D01*
G01Y-97150D01*
G01X-15850D01*
G01Y-96250D01*
G01X-19400D01*
G01Y-95350D01*
G01X-15850D01*
G01Y-94450D01*
G01X-19400D01*
G01Y-93550D01*
G01X-15850D01*
G01Y-92650D01*
G01X-19400D01*
G01X-3350Y-116950D02*
G01X0200D01*
G01Y-116050D01*
G01X-3350D01*
G01Y-115150D01*
G01X0200D01*
G01Y-114250D01*
G01X-3350D01*
G01Y-113350D01*
G01X0200D01*
G01Y-112450D01*
G01X-3350D01*
G01Y-111550D01*
G01X0200D01*
G01Y-110650D01*
G01X-3350D01*
G01Y-109750D01*
G01X0200D01*
G01Y-108850D01*
G01X-3350D01*
G01Y-107950D01*
G01X0200D01*
G01Y-107050D01*
G01X-3350D01*
G01Y-106150D01*
G01X0200D01*
G01Y-105250D01*
G01X-3350D01*
G01Y-104350D01*
G01X0200D01*
G01Y-103450D01*
G01X-3350D01*
G01Y-102550D01*
G01X0200D01*
G01Y-101650D01*
G01X-3350D01*
G01Y-100750D01*
G01X0200D01*
G01Y-99850D01*
G01X-3350D01*
G01Y-98950D01*
G01X0200D01*
G01Y-98050D01*
G01X-3350D01*
G01X-3350Y-96250D02*
G01X0200D01*
G01Y-95350D01*
G01X-3350D01*
G01Y-94450D01*
G01X0200D01*
G01Y-93550D01*
G01X-3350D01*
G01Y-92650D01*
G01X0200D01*
G01X17918Y-116950D02*
G01X18397D01*
G01X29503Y-116950D02*
G01X33942D01*
G01X36058Y-116950D02*
G01X37870D01*
G01X84697Y-116950D02*
G01X92250D01*
G01X-68923Y-116050D02*
G01X-31200D01*
G01X17018Y-116050D02*
G01X17497D01*
G01X28603Y-116050D02*
G01X31501D01*
G01X38499Y-116050D02*
G01X40030D01*
G01X47641Y-116050D02*
G01X52143D01*
G01X83477Y-116050D02*
G01X92250D01*
G01X-70602Y-115150D02*
G01X-31200D01*
G01X16118Y-115150D02*
G01X16597D01*
G01X27703Y-115150D02*
G01X30415D01*
G01X39585Y-115150D02*
G01X42400D01*
G01X45600Y-115150D02*
G01X51243D01*
G01X81798Y-115150D02*
G01X92250D01*
G01X-72932Y-114250D02*
G01X-31200D01*
G01X15218Y-114250D02*
G01X15697D01*
G01X26803Y-114250D02*
G01X29701D01*
G01X40299Y-114250D02*
G01X42400D01*
G01X79468Y-114250D02*
G01X92250D01*
G01X-70387Y-113350D02*
G01X-31338D01*
G01X14318Y-113350D02*
G01X14797D01*
G01X25903Y-113350D02*
G01X29226D01*
G01X40774Y-113350D02*
G01X41443D01*
G01X82013Y-113350D02*
G01X92250D01*
G01X-68776Y-112450D02*
G01X-31707D01*
G01X13418Y-112450D02*
G01X13897D01*
G01X25003Y-112450D02*
G01X28927D01*
G01X83619Y-112450D02*
G01X92250D01*
G01X-67310Y-111550D02*
G01X-32077D01*
G01X12538Y-111550D02*
G01X12997D01*
G01X24103Y-111550D02*
G01X28775D01*
G01X84816Y-111550D02*
G01X92250D01*
G01X-65845Y-110650D02*
G01X-32446D01*
G01X12000Y-110650D02*
G01X12097D01*
G01X23203Y-110650D02*
G01X28758D01*
G01X85785Y-110650D02*
G01X92250D01*
G01X-64379Y-109750D02*
G01X-32815D01*
G01X22303Y-109750D02*
G01X28786D01*
G01X86582Y-109750D02*
G01X92250D01*
G01X-62914Y-108850D02*
G01X-34051D01*
G01X21403Y-108850D02*
G01X28748D01*
G01X87244Y-108850D02*
G01X92250D01*
G01X-61448Y-107950D02*
G01X-35018D01*
G01X20503Y-107950D02*
G01X28750D01*
G01X87795Y-107950D02*
G01X92250D01*
G01X-59983Y-107050D02*
G01X-35918D01*
G01X19603Y-107050D02*
G01X28750D01*
G01X88253Y-107050D02*
G01X92250D01*
G01X92250Y121552D02*
G01X88253D01*
G01X-57963Y-106150D02*
G01X-36818D01*
G01X18703Y-106150D02*
G01X28750D01*
G01X88628Y-106150D02*
G01X92250D01*
G01X92250Y4552D02*
G01X88628D01*
G01X-56282Y-105250D02*
G01X-37718D01*
G01X18000Y-105250D02*
G01X28750D01*
G01Y-104350D01*
G01X18000D01*
G01Y-103450D01*
G01X28750D01*
G01Y-102550D01*
G01X18000D01*
G01Y-101650D01*
G01X28750D01*
G01Y-100750D01*
G01X18000D01*
G01Y-99850D01*
G01X28750D01*
G01Y-98950D01*
G01X18000D01*
G01Y-98050D01*
G01X28750D01*
G01Y-97150D01*
G01X18000D01*
G01Y-96250D01*
G01X28750D01*
G01Y-95350D01*
G01X18000D01*
G01Y-94450D01*
G01X28750D01*
G01Y-93550D01*
G01X18000D01*
G01Y-92650D01*
G01X28750D01*
G01Y-91750D01*
G01X18000D01*
G01Y-90850D01*
G01X28750D01*
G01Y-89950D01*
G01X18000D01*
G01Y-89050D01*
G01X28750D01*
G01Y-88150D01*
G01X18000D01*
G01Y-87250D01*
G01X28750D01*
G01Y-86350D01*
G01X18000D01*
G01Y-85450D01*
G01X28750D01*
G01Y-84550D01*
G01X18000D01*
G01Y-83650D01*
G01X28750D01*
G01Y-82750D01*
G01X18000D01*
G01Y-81850D01*
G01X28750D01*
G01Y-80950D01*
G01X18000D01*
G01Y-80050D01*
G01X28750D01*
G01Y-79150D01*
G01X18000D01*
G01Y-78250D01*
G01X28750D01*
G01Y-77350D01*
G01X18000D01*
G01Y-76450D01*
G01X28750D01*
G01Y-75550D01*
G01X18000D01*
G01Y-74650D01*
G01X28750D01*
G01Y-73750D01*
G01X18000D01*
G01Y-72850D01*
G01X28750D01*
G01Y-71950D01*
G01X18000D01*
G01Y-71050D01*
G01X28750D01*
G01Y-70150D01*
G01X18000D01*
G01Y-69250D01*
G01X28750D01*
G01Y-68350D01*
G01X18000D01*
G01Y-67450D01*
G01X28750D01*
G01X88931Y-105250D02*
G01X92250D01*
G01X92250Y123352D02*
G01X88931D01*
G01X-55382Y-104350D02*
G01X-38618D01*
G01X89166Y-104350D02*
G01X92250D01*
G01X92250Y124252D02*
G01X89166D01*
G01X-54482Y-103450D02*
G01X-39518D01*
G01X89324Y-103450D02*
G01X92250D01*
G01X92250Y1852D02*
G01X89324D01*
G01X-53582Y-102550D02*
G01X-40418D01*
G01X89417Y-102550D02*
G01X92250D01*
G01X92250Y126052D02*
G01X89417D01*
G01X-52682Y-101650D02*
G01X-41318D01*
G01X-51782Y-100750D02*
G01X-42218D01*
G01X89425Y-100750D02*
G01X92250D01*
G01X92250Y-0848D02*
G01X89425D01*
G01X89425Y127852D02*
G01X92250D01*
G01X-50882Y-99850D02*
G01X-43118D01*
G01X89342Y-99850D02*
G01X92250D01*
G01X92250Y-1748D02*
G01X89342D01*
G01X89342Y128752D02*
G01X92250D01*
G01X-49982Y-98950D02*
G01X-44018D01*
G01X89183Y-98950D02*
G01X92250D01*
G01X92250Y129652D02*
G01X89183D01*
G01X-49082Y-98050D02*
G01X-44918D01*
G01X88957Y-98050D02*
G01X92250D01*
G01X92250Y130552D02*
G01X88957D01*
G01X-48182Y-97150D02*
G01X-45818D01*
G01X-31882Y-97150D02*
G01X-31543D01*
G01X-3350Y-97150D02*
G01X0186D01*
G01X88665Y-97150D02*
G01X92250D01*
G01X92250Y-4448D02*
G01X88665D01*
G01X-47282Y-96250D02*
G01X-46718D01*
G01X-32782Y-96250D02*
G01X-31200D01*
G01X88299Y-96250D02*
G01X92250D01*
G01X-61285Y-95350D02*
G01X-60318D01*
G01X-33682Y-95350D02*
G01X-31200D01*
G01X87853Y-95350D02*
G01X92250D01*
G01X-62751Y-94450D02*
G01X-59418D01*
G01X-34582Y-94450D02*
G01X-31200D01*
G01X87314Y-94450D02*
G01X92250D01*
G01X-64217Y-93550D02*
G01X-58518D01*
G01X-35482Y-93550D02*
G01X-31200D01*
G01X86666Y-93550D02*
G01X92250D01*
G01X-65682Y-92650D02*
G01X-57618D01*
G01X-36382Y-92650D02*
G01X-31200D01*
G01X85885Y-92650D02*
G01X92250D01*
G01X-67148Y-91750D02*
G01X-56718D01*
G01X-37282Y-91750D02*
G01X-0140D01*
G01X84936Y-91750D02*
G01X92250D01*
G01X-68613Y-90850D02*
G01X-55818D01*
G01X-38182Y-90850D02*
G01X-0833D01*
G01X83762Y-90850D02*
G01X92250D01*
G01X-70173Y-89950D02*
G01X-54918D01*
G01X-39082Y-89950D02*
G01X-1252D01*
G01X82227Y-89950D02*
G01X92250D01*
G01X92250Y-11650D02*
G01X82227D01*
G01X-72559Y-89050D02*
G01X-54018D01*
G01X-39982Y-89050D02*
G01X-1461D01*
G01X79841Y-89050D02*
G01X92250D01*
G01X92250Y-12550D02*
G01X79841D01*
G01X-70816Y-88150D02*
G01X-53118D01*
G01X-40882Y-88150D02*
G01X-1500D01*
G01X81584Y-88150D02*
G01X92250D01*
G01X92250Y-13450D02*
G01X81584D01*
G01X-69089Y-87250D02*
G01X-52218D01*
G01X-41300Y-87250D02*
G01X-1500D01*
G01Y-86350D01*
G01X-41300D01*
G01X83311Y-87250D02*
G01X92250D01*
G01X92250Y-14350D02*
G01X83311D01*
G01X-67822Y-86350D02*
G01X-51318D01*
G01X84578Y-86350D02*
G01X92250D01*
G01X92250Y-15250D02*
G01X84578D01*
G01X-66815Y-85450D02*
G01X-51795D01*
G01X-40805Y-85450D02*
G01X-1995D01*
G01X85585Y-85450D02*
G01X92250D01*
G01X92250Y-16150D02*
G01X85585D01*
G01X-65986Y-84550D02*
G01X-54050D01*
G01X-23550Y-84550D02*
G01X-19250D01*
G01Y-83650D01*
G01X-23550D01*
G01Y-82750D01*
G01X-19250D01*
G01Y-81850D01*
G01X-23550D01*
G01Y-80950D01*
G01X-19250D01*
G01Y-80050D01*
G01X-23550D01*
G01Y-79150D01*
G01X-19250D01*
G01Y-78250D01*
G01X-23550D01*
G01Y-77350D01*
G01X-19250D01*
G01Y-76450D01*
G01X-23550D01*
G01Y-75550D01*
G01X-19250D01*
G01Y-74650D01*
G01X-23550D01*
G01Y-73750D01*
G01X-19250D01*
G01Y-72850D01*
G01X-23550D01*
G01Y-71950D01*
G01X-19250D01*
G01Y-71050D01*
G01X-23550D01*
G01X86414Y-84550D02*
G01X92250D01*
G01X92250Y-17050D02*
G01X86414D01*
G01X-65296Y-83650D02*
G01X-54050D01*
G01X87104Y-83650D02*
G01X92250D01*
G01X92250Y-17950D02*
G01X87104D01*
G01X-64721Y-82750D02*
G01X-54050D01*
G01X87679Y-82750D02*
G01X92250D01*
G01X92250Y-18850D02*
G01X87679D01*
G01X-64241Y-81850D02*
G01X-54050D01*
G01X88159Y-81850D02*
G01X92250D01*
G01X92250Y-19750D02*
G01X88159D01*
G01X-63845Y-80950D02*
G01X-54050D01*
G01X88555Y-80950D02*
G01X92250D01*
G01X92250Y-20650D02*
G01X88555D01*
G01X-63523Y-80050D02*
G01X-54050D01*
G01X88877Y-80050D02*
G01X92250D01*
G01X92250Y-21550D02*
G01X88877D01*
G01X-63282Y-79150D02*
G01X-54050D01*
G01X89118Y-79150D02*
G01X92250D01*
G01X92250Y-22450D02*
G01X89118D01*
G01X-63111Y-78250D02*
G01X-54050D01*
G01X89289Y-78250D02*
G01X92250D01*
G01X92250Y-23350D02*
G01X89289D01*
G01X89289Y150352D02*
G01X92250D01*
G01X-63001Y-77350D02*
G01X-54050D01*
G01X89399Y-77350D02*
G01X92250D01*
G01X92250Y-24250D02*
G01X89399D01*
G01X89399Y151252D02*
G01X92250D01*
G01X-62950Y-76450D02*
G01X-54050D01*
G01X-62957Y-75550D02*
G01X-54050D01*
G01X89443Y-75550D02*
G01X92250D01*
G01X92250Y-26050D02*
G01X89443D01*
G01X89443Y153052D02*
G01X92250D01*
G01X-63036Y-74650D02*
G01X-54050D01*
G01X89364Y-74650D02*
G01X92250D01*
G01X92250Y-26950D02*
G01X89364D01*
G01X89364Y153952D02*
G01X92250D01*
G01X-63181Y-73750D02*
G01X-54050D01*
G01X89219Y-73750D02*
G01X92250D01*
G01X92250Y-27850D02*
G01X89219D01*
G01X-63389Y-72850D02*
G01X-54050D01*
G01X89011Y-72850D02*
G01X92250D01*
G01X92250Y-28750D02*
G01X89011D01*
G01X-63663Y-71950D02*
G01X-54050D01*
G01X88737Y-71950D02*
G01X92250D01*
G01X92250Y-29650D02*
G01X88737D01*
G01X88737Y156652D02*
G01X92250D01*
G01X-64008Y-71050D02*
G01X-54050D01*
G01X88392Y-71050D02*
G01X92250D01*
G01X92250Y-30550D02*
G01X88392D01*
G01X-64432Y-70150D02*
G01X-56590D01*
G01X87968Y-70150D02*
G01X92250D01*
G01X92250Y-31450D02*
G01X87968D01*
G01X-64951Y-69250D02*
G01X-57724D01*
G01X87449Y-69250D02*
G01X92250D01*
G01X92250Y-32350D02*
G01X87449D01*
G01X-65577Y-68350D02*
G01X-58618D01*
G01X86823Y-68350D02*
G01X92250D01*
G01X92250Y-33250D02*
G01X86823D01*
G01X-66322Y-67450D02*
G01X-59518D01*
G01X86078Y-67450D02*
G01X92250D01*
G01X92250Y-34150D02*
G01X86078D01*
G01X-67226Y-66550D02*
G01X-60418D01*
G01X17979Y-66550D02*
G01X28750D01*
G01X85174Y-66550D02*
G01X92250D01*
G01X92250Y-35050D02*
G01X85174D01*
G01X-68352Y-65650D02*
G01X-61318D01*
G01X17758Y-65650D02*
G01X28750D01*
G01X84048Y-65650D02*
G01X92250D01*
G01X92250Y-35950D02*
G01X84048D01*
G01X-69782Y-64750D02*
G01X-62218D01*
G01X17257Y-64750D02*
G01X28750D01*
G01X82618Y-64750D02*
G01X92250D01*
G01X92250Y-36850D02*
G01X82618D01*
G01X-71872Y-63850D02*
G01X-63118D01*
G01X16403Y-63850D02*
G01X28750D01*
G01X80528Y-63850D02*
G01X92250D01*
G01X92250Y-37750D02*
G01X80528D01*
G01X-71322Y-62950D02*
G01X-64018D01*
G01X15503Y-62950D02*
G01X28750D01*
G01X81078Y-62950D02*
G01X92250D01*
G01X92250Y-38650D02*
G01X81078D01*
G01X-69436Y-62050D02*
G01X-64913D01*
G01X14603Y-62050D02*
G01X28750D01*
G01X82964Y-62050D02*
G01X92250D01*
G01X92250Y-39550D02*
G01X82964D01*
G01X-68067Y-61150D02*
G01X-65494D01*
G01X13703Y-61150D02*
G01X28750D01*
G01X84333Y-61150D02*
G01X92250D01*
G01X92250Y-40450D02*
G01X84333D01*
G01X-67015Y-60250D02*
G01X-65850D01*
G01X12803Y-60250D02*
G01X28750D01*
G01X85385Y-60250D02*
G01X92250D01*
G01X92250Y-41350D02*
G01X85385D01*
G01X-66154Y-59350D02*
G01X-66000D01*
G01X11903Y-59350D02*
G01X28750D01*
G01X86246Y-59350D02*
G01X92250D01*
G01X92250Y-42250D02*
G01X86246D01*
G01X11006Y-58450D02*
G01X28750D01*
G01X86963Y-58450D02*
G01X92250D01*
G01X92250Y-43150D02*
G01X86963D01*
G01X9735Y-57550D02*
G01X28750D01*
G01X87564Y-57550D02*
G01X92250D01*
G01X92250Y-44050D02*
G01X87564D01*
G01X-43916Y-56650D02*
G01X28750D01*
G01X88066Y-56650D02*
G01X92250D01*
G01X92250Y-44950D02*
G01X88066D01*
G01X-43513Y-55750D02*
G01X28750D01*
G01X88483Y-55750D02*
G01X92250D01*
G01X92250Y-45850D02*
G01X88483D01*
G01X88483Y172852D02*
G01X92250D01*
G01X-43111Y-54850D02*
G01X28750D01*
G01X88810Y-54850D02*
G01X92250D01*
G01X92250Y-46750D02*
G01X88810D01*
G01X88810Y181852D02*
G01X92250D01*
G01X-42709Y-53950D02*
G01X28043D01*
G01X89065Y-53950D02*
G01X92250D01*
G01X92250Y-47650D02*
G01X89065D01*
G01X89065Y174652D02*
G01X92250D01*
G01X-42143Y-53050D02*
G01X27143D01*
G01X89254Y-53050D02*
G01X92250D01*
G01X92250Y-48550D02*
G01X89254D01*
G01X89254Y175552D02*
G01X92250D01*
G01X-41243Y-52150D02*
G01X26243D01*
G01X89382Y-52150D02*
G01X92250D01*
G01X92250Y-49450D02*
G01X89382D01*
G01X89382Y176452D02*
G01X92250D01*
G01X-40343Y-51250D02*
G01X25343D01*
G01X-39500Y-50350D02*
G01X24443D01*
G01X-39013Y-49450D02*
G01X23543D01*
G01X-38783Y-48550D02*
G01X22643D01*
G01X-38750Y-47650D02*
G01X21743D01*
G01X-38750Y-46750D02*
G01X20836D01*
G01X-38750Y-45850D02*
G01X20199D01*
G01X-38750Y-44950D02*
G01X19856D01*
G01X-38750Y-44050D02*
G01X19739D01*
G01X-38750Y-43150D02*
G01X19750D01*
G01Y-42250D01*
G01X-38750D01*
G01Y-41350D01*
G01X19750D01*
G01Y-40450D01*
G01X-38750D01*
G01Y-39550D01*
G01X19750D01*
G01Y-38650D01*
G01X-38750D01*
G01Y-37750D01*
G01X19750D01*
G01Y-36850D01*
G01X-38750D01*
G01Y-35950D01*
G01X19750D01*
G01Y-35050D01*
G01X-38750D01*
G01Y-34150D01*
G01X19750D01*
G01Y-33250D01*
G01X-38750D01*
G01Y-32350D01*
G01X19750D01*
G01Y-31450D01*
G01X-38750D01*
G01Y-30550D01*
G01X19750D01*
G01Y-29650D01*
G01X-38750D01*
G01Y-28750D01*
G01X19750D01*
G01Y-27850D01*
G01X-38750D01*
G01Y-26950D01*
G01X19750D01*
G01X-38189Y-26050D02*
G01X19750D01*
G01X-37627Y-25150D02*
G01X19750D01*
G01X-35750Y-24250D02*
G01X-32250D01*
G01Y-23350D01*
G01X-35750D01*
G01X-17750Y-24250D02*
G01X19750D01*
G01X-17750Y-23350D02*
G01X19443D01*
G01X-34949Y-22450D02*
G01X-33051D01*
G01X-17750Y-22450D02*
G01X18543D01*
G01X-17750Y-21550D02*
G01X17643D01*
G01X-17750Y-20650D02*
G01X16743D01*
G01X-17750Y-19750D02*
G01X15843D01*
G01X-17750Y-18850D02*
G01X14943D01*
G01X-17750Y-17950D02*
G01X14043D01*
G01X-17750Y-17050D02*
G01X13143D01*
G01X-17750Y-16150D02*
G01X12243D01*
G01X-17750Y-15250D02*
G01X11343D01*
G01X-17750Y-14350D02*
G01X10330D01*
G01X-17750Y-13450D02*
G01X-12250D01*
G01Y-12550D01*
G01X-17750D01*
G01Y-11650D01*
G01X-12250D01*
G01Y-10748D01*
G01X-17750D01*
G01Y-9848D01*
G01X-12250D01*
G01Y-8948D01*
G01X-17750D01*
G01Y-8048D01*
G01X-12250D01*
G01Y-7148D01*
G01X-17750D01*
G01Y-6248D01*
G01X-12250D01*
G01Y-5348D01*
G01X-17750D01*
G01Y-4448D01*
G01X-12250D01*
G01Y-3548D01*
G01X-17750D01*
G01Y-2648D01*
G01X-12250D01*
G01Y-1748D01*
G01X-17750D01*
G01Y-0848D01*
G01X-12250D01*
G01Y0052D01*
G01X-17750D01*
G01Y0952D01*
G01X-12250D01*
G01Y1852D01*
G01X-17750D01*
G01X2250Y-13450D02*
G01X5750D01*
G01Y-12550D01*
G01X2250D01*
G01X2774Y-11650D02*
G01X5226D01*
G01X83765Y-10748D02*
G01X92250D01*
G01X84938Y-9848D02*
G01X92250D01*
G01X85887Y-8948D02*
G01X92250D01*
G01X86667Y-8048D02*
G01X92250D01*
G01X87315Y-7148D02*
G01X92250D01*
G01X87854Y-6248D02*
G01X92250D01*
G01X88300Y-5348D02*
G01X92250D01*
G01X88958Y-3548D02*
G01X92250D01*
G01X89184Y-2648D02*
G01X92250D01*
G01X89416Y0952D02*
G01X92250D01*
G01X-17398Y2752D02*
G01X-12250D01*
G01X89165Y2752D02*
G01X92250D01*
G01X-16441Y3652D02*
G01X-12250D01*
G01X88930Y3652D02*
G01X92250D01*
G01X-15541Y4552D02*
G01X-12250D01*
G01X-14641Y5452D02*
G01X-12250D01*
G01X88252Y5452D02*
G01X92250D01*
G01X-13741Y6352D02*
G01X-12250D01*
G01X87794Y6352D02*
G01X92250D01*
G01X-12841Y7252D02*
G01X-12250D01*
G01X87242Y7252D02*
G01X92250D01*
G01X86580Y8152D02*
G01X92250D01*
G01X-66617Y9052D02*
G01X-66014D01*
G01X85783Y9052D02*
G01X92250D01*
G01X-67586Y9952D02*
G01X-65912D01*
G01X84814Y9952D02*
G01X92250D01*
G01X-68783Y10852D02*
G01X-65631D01*
G01X83617Y10852D02*
G01X92250D01*
G01X-70392Y11752D02*
G01X-65141D01*
G01X82008Y11752D02*
G01X92250D01*
G01X-72940Y12652D02*
G01X-64316D01*
G01X79460Y12652D02*
G01X92250D01*
G01X-70597Y13552D02*
G01X-63416D01*
G01X81803Y13552D02*
G01X92250D01*
G01X-68921Y14452D02*
G01X-62516D01*
G01X83479Y14452D02*
G01X92250D01*
G01X-67700Y15352D02*
G01X-61616D01*
G01X84700Y15352D02*
G01X92250D01*
G01X-66713Y16252D02*
G01X-60716D01*
G01X85687Y16252D02*
G01X92250D01*
G01X-65901Y17152D02*
G01X-59816D01*
G01X86499Y17152D02*
G01X92250D01*
G01X-65225Y18052D02*
G01X-58916D01*
G01X87175Y18052D02*
G01X92250D01*
G01X-64662Y18952D02*
G01X-58016D01*
G01X87738Y18952D02*
G01X92250D01*
G01X-64193Y19852D02*
G01X-57116D01*
G01X88207Y19852D02*
G01X92250D01*
G01X-63807Y20752D02*
G01X-56216D01*
G01X88593Y20752D02*
G01X92250D01*
G01X-63496Y21652D02*
G01X-55316D01*
G01X-63255Y22552D02*
G01X-54416D01*
G01X-63093Y23452D02*
G01X-53516D01*
G01X-62992Y24352D02*
G01X-52616D01*
G01X-62950Y25252D02*
G01X-51722D01*
G01X-62966Y26152D02*
G01X-50585D01*
G01X-63045Y27052D02*
G01X-24916D01*
G01X-63199Y27952D02*
G01X-24016D01*
G01X-63416Y28852D02*
G01X-23116D01*
G01X-63700Y29752D02*
G01X-22216D01*
G01X88700Y29752D02*
G01X92250D01*
G01X-64055Y30652D02*
G01X-21316D01*
G01X88345Y30652D02*
G01X92250D01*
G01X-64491Y31552D02*
G01X-20416D01*
G01X87909Y31552D02*
G01X92250D01*
G01X-65018Y32452D02*
G01X-19516D01*
G01X87382Y32452D02*
G01X92250D01*
G01X-65652Y33352D02*
G01X-18616D01*
G01X86748Y33352D02*
G01X92250D01*
G01X-66417Y34252D02*
G01X-17716D01*
G01X85983Y34252D02*
G01X92250D01*
G01X-67348Y35152D02*
G01X-16816D01*
G01X85052Y35152D02*
G01X92250D01*
G01X-68498Y36052D02*
G01X-15916D01*
G01X83902Y36052D02*
G01X92250D01*
G01X-69963Y36952D02*
G01X-15016D01*
G01X82437Y36952D02*
G01X92250D01*
G01X-72193Y37852D02*
G01X-14116D01*
G01X80207Y37852D02*
G01X92250D01*
G01X-71042Y38752D02*
G01X-13216D01*
G01X81358Y38752D02*
G01X92250D01*
G01X-69259Y39652D02*
G01X-12316D01*
G01X83141Y39652D02*
G01X92250D01*
G01X-67939Y40552D02*
G01X-11416D01*
G01X84461Y40552D02*
G01X92250D01*
G01X-66913Y41452D02*
G01X-10516D01*
G01X85487Y41452D02*
G01X92250D01*
G01X-66068Y42352D02*
G01X-9616D01*
G01X86332Y42352D02*
G01X92250D01*
G01X-65365Y43252D02*
G01X-8716D01*
G01X87035Y43252D02*
G01X92250D01*
G01X-64777Y44152D02*
G01X-7900D01*
G01X87623Y44152D02*
G01X92250D01*
G01X-64286Y45052D02*
G01X-7900D01*
G01X88114Y45052D02*
G01X92250D01*
G01X-63880Y45952D02*
G01X-7900D01*
G01X88520Y45952D02*
G01X92250D01*
G01X-63553Y46852D02*
G01X-7900D01*
G01X2100Y46852D02*
G01X2945D01*
G01X-63308Y47752D02*
G01X-7900D01*
G01X2100Y47752D02*
G01X3845D01*
G01X89092Y47752D02*
G01X92250D01*
G01X-63128Y48652D02*
G01X-7900D01*
G01X2100Y48652D02*
G01X4745D01*
G01X89272Y48652D02*
G01X92250D01*
G01X-63010Y49552D02*
G01X-7900D01*
G01X2100Y49552D02*
G01X5645D01*
G01X-62950Y50452D02*
G01X-7900D01*
G01Y51352D01*
G01X-62950D01*
G01X2100Y50452D02*
G01X6706D01*
G01X2100Y51352D02*
G01X19445D01*
G01X-63027Y52252D02*
G01X-7900D01*
G01X2100Y52252D02*
G01X20345D01*
G01X-63164Y53152D02*
G01X-7900D01*
G01X2100Y53152D02*
G01X21245D01*
G01X-63363Y54052D02*
G01X-7900D01*
G01X2100Y54052D02*
G01X22145D01*
G01X89037Y54052D02*
G01X92250D01*
G01X-63627Y54952D02*
G01X-7900D01*
G01X2100Y54952D02*
G01X24044D01*
G01X88773Y54952D02*
G01X92250D01*
G01X-63962Y55852D02*
G01X-7900D01*
G01X2100Y55852D02*
G01X41945D01*
G01X88438Y55852D02*
G01X92250D01*
G01X-64382Y56752D02*
G01X-7900D01*
G01X2100Y56752D02*
G01X42845D01*
G01X88018Y56752D02*
G01X92250D01*
G01X-64895Y57652D02*
G01X-7900D01*
G01X2100Y57652D02*
G01X43745D01*
G01X87505Y57652D02*
G01X92250D01*
G01X-65508Y58552D02*
G01X-7900D01*
G01X2100Y58552D02*
G01X44645D01*
G01X86892Y58552D02*
G01X92250D01*
G01X-66240Y59452D02*
G01X-7900D01*
G01X2100Y59452D02*
G01X45545D01*
G01X86160Y59452D02*
G01X92250D01*
G01X-67117Y60352D02*
G01X-7900D01*
G01X2100Y60352D02*
G01X46445D01*
G01X85283Y60352D02*
G01X92250D01*
G01X-68212Y61252D02*
G01X-7900D01*
G01X2100Y61252D02*
G01X47345D01*
G01X84188Y61252D02*
G01X92250D01*
G01X-69612Y62152D02*
G01X-7900D01*
G01X2100Y62152D02*
G01X48245D01*
G01X82788Y62152D02*
G01X92250D01*
G01X-71603Y63052D02*
G01X-7900D01*
G01X2100Y63052D02*
G01X49145D01*
G01X80797Y63052D02*
G01X92250D01*
G01X-71592Y63952D02*
G01X-7900D01*
G01X2100Y63952D02*
G01X50045D01*
G01X80808Y63952D02*
G01X92250D01*
G01X-69605Y64852D02*
G01X-7900D01*
G01X2100Y64852D02*
G01X50945D01*
G01X82795Y64852D02*
G01X92250D01*
G01X-68206Y65752D02*
G01X-7900D01*
G01X2100Y65752D02*
G01X51845D01*
G01X84194Y65752D02*
G01X92250D01*
G01X-67113Y66652D02*
G01X-7900D01*
G01X2100Y66652D02*
G01X52745D01*
G01X85287Y66652D02*
G01X92250D01*
G01X-66236Y67552D02*
G01X-7900D01*
G01X2100Y67552D02*
G01X53645D01*
G01X86164Y67552D02*
G01X92250D01*
G01X-65505Y68452D02*
G01X-7900D01*
G01X2100Y68452D02*
G01X54545D01*
G01X86895Y68452D02*
G01X92250D01*
G01X-64893Y69352D02*
G01X-7900D01*
G01X2100Y69352D02*
G01X54750D01*
G01Y70252D01*
G01X2100D01*
G01X87507Y69352D02*
G01X92250D01*
G01X-64380Y70252D02*
G01X-7900D01*
G01X88020Y70252D02*
G01X92250D01*
G01X-63960Y71152D02*
G01X-40200D01*
G01X-28400Y71152D02*
G01X-24850D01*
G01Y72052D01*
G01X-28400D01*
G01Y72952D01*
G01X-24850D01*
G01Y73852D01*
G01X-28400D01*
G01Y74752D01*
G01X-24850D01*
G01Y75652D01*
G01X-28400D01*
G01Y76552D01*
G01X-24850D01*
G01Y77452D01*
G01X-28400D01*
G01Y78352D01*
G01X-24850D01*
G01Y79252D01*
G01X-28400D01*
G01Y80152D01*
G01X-24850D01*
G01Y81052D01*
G01X-28400D01*
G01Y81952D01*
G01X-24850D01*
G01Y82852D01*
G01X-28400D01*
G01Y83752D01*
G01X-24850D01*
G01Y84652D01*
G01X-28400D01*
G01Y85552D01*
G01X-24850D01*
G01Y86452D01*
G01X-28400D01*
G01Y87352D01*
G01X-24850D01*
G01Y88252D01*
G01X-28400D01*
G01Y89152D01*
G01X-24850D01*
G01Y90052D01*
G01X-28400D01*
G01Y90952D01*
G01X-24850D01*
G01Y91852D01*
G01X-28400D01*
G01Y92752D01*
G01X-24850D01*
G01Y93652D01*
G01X-28400D01*
G01Y94552D01*
G01X-24850D01*
G01Y95452D01*
G01X-28400D01*
G01X-12350Y71152D02*
G01X-8800D01*
G01Y72052D01*
G01X-12350D01*
G01Y72952D01*
G01X-8800D01*
G01Y73852D01*
G01X-12350D01*
G01Y74752D01*
G01X-8800D01*
G01X-8800Y76552D02*
G01X-12350D01*
G01Y77452D01*
G01X-8800D01*
G01Y78352D01*
G01X-12350D01*
G01Y79252D01*
G01X-8800D01*
G01Y80152D01*
G01X-12350D01*
G01Y81052D01*
G01X-8800D01*
G01Y81952D01*
G01X-12350D01*
G01Y82852D01*
G01X-8800D01*
G01Y83752D01*
G01X-12350D01*
G01Y84652D01*
G01X-8800D01*
G01Y85552D01*
G01X-12350D01*
G01Y86452D01*
G01X-8800D01*
G01Y87352D01*
G01X-12350D01*
G01Y88252D01*
G01X-8800D01*
G01Y89152D01*
G01X-12350D01*
G01Y90052D01*
G01X-8800D01*
G01Y90952D01*
G01X-12350D01*
G01Y91852D01*
G01X-8800D01*
G01Y92752D01*
G01X-12350D01*
G01Y93652D01*
G01X-8800D01*
G01Y94552D01*
G01X-12350D01*
G01Y95452D01*
G01X-8800D01*
G01X3000Y71152D02*
G01X54750D01*
G01Y72052D01*
G01X3000D01*
G01Y72952D01*
G01X54750D01*
G01Y73852D01*
G01X3000D01*
G01Y74752D01*
G01X54750D01*
G01X88440Y71152D02*
G01X92250D01*
G01X-63625Y72052D02*
G01X-40200D01*
G01X88775Y72052D02*
G01X92250D01*
G01X-63362Y72952D02*
G01X-40200D01*
G01X-63163Y73852D02*
G01X-40200D01*
G01X89237Y73852D02*
G01X92250D01*
G01X-63027Y74752D02*
G01X-40200D01*
G01X-62950Y75652D02*
G01X-40300D01*
G01X-12350Y75652D02*
G01X-8813D01*
G01X3182Y75652D02*
G01X54750D01*
G01X-62950Y76552D02*
G01X-40486D01*
G01X3432Y76552D02*
G01X54750D01*
G01X-63010Y77452D02*
G01X-40672D01*
G01X3683Y77452D02*
G01X54750D01*
G01X-63129Y78352D02*
G01X-40858D01*
G01X3934Y78352D02*
G01X54750D01*
G01X-63309Y79252D02*
G01X-41043D01*
G01X4185Y79252D02*
G01X54750D01*
G01X-63554Y80152D02*
G01X-41229D01*
G01X4436Y80152D02*
G01X54750D01*
G01X88846Y80152D02*
G01X92250D01*
G01X-63882Y81052D02*
G01X-41415D01*
G01X5020Y81052D02*
G01X54750D01*
G01X88518Y81052D02*
G01X92250D01*
G01X-64288Y81952D02*
G01X-41600D01*
G01X5920Y81952D02*
G01X54750D01*
G01X88112Y81952D02*
G01X92250D01*
G01X-64779Y82852D02*
G01X-41786D01*
G01X6820Y82852D02*
G01X54750D01*
G01X87621Y82852D02*
G01X92250D01*
G01X-65368Y83752D02*
G01X-41972D01*
G01X7720Y83752D02*
G01X54750D01*
G01X87032Y83752D02*
G01X92250D01*
G01X-66072Y84652D02*
G01X-42520D01*
G01X8620Y84652D02*
G01X54750D01*
G01X86328Y84652D02*
G01X92250D01*
G01X-66917Y85552D02*
G01X-43420D01*
G01X9520Y85552D02*
G01X54750D01*
G01X85483Y85552D02*
G01X92250D01*
G01X-67943Y86452D02*
G01X-44320D01*
G01X10420Y86452D02*
G01X54750D01*
G01X84457Y86452D02*
G01X92250D01*
G01X-69266Y87352D02*
G01X-45220D01*
G01X11320Y87352D02*
G01X54750D01*
G01X83134Y87352D02*
G01X92250D01*
G01X-71053Y88252D02*
G01X-46120D01*
G01X12220Y88252D02*
G01X54750D01*
G01X81347Y88252D02*
G01X92250D01*
G01X-72178Y89152D02*
G01X-46743D01*
G01X13120Y89152D02*
G01X54750D01*
G01X80222Y89152D02*
G01X92250D01*
G01X-69954Y90052D02*
G01X-47114D01*
G01X14020Y90052D02*
G01X54750D01*
G01X82446Y90052D02*
G01X92250D01*
G01X-68492Y90952D02*
G01X-47294D01*
G01X14920Y90952D02*
G01X54750D01*
G01X83908Y90952D02*
G01X92250D01*
G01X-67343Y91852D02*
G01X-47300D01*
G01X15820Y91852D02*
G01X54750D01*
G01X85057Y91852D02*
G01X92250D01*
G01X-66413Y92752D02*
G01X-47360D01*
G01X16720Y92752D02*
G01X54750D01*
G01X85987Y92752D02*
G01X92250D01*
G01X-65649Y93652D02*
G01X-47600D01*
G01X3000Y93652D02*
G01X3684D01*
G01X17620Y93652D02*
G01X54750D01*
G01X86751Y93652D02*
G01X92250D01*
G01X-65015Y94552D02*
G01X-47840D01*
G01X3000Y94552D02*
G01X4584D01*
G01X18520Y94552D02*
G01X54750D01*
G01X87385Y94552D02*
G01X92250D01*
G01X-64488Y95452D02*
G01X-48080D01*
G01X3000Y95452D02*
G01X5484D01*
G01X19384Y95452D02*
G01X54750D01*
G01X87912Y95452D02*
G01X92250D01*
G01X-64053Y96352D02*
G01X-48320D01*
G01X-36280Y96352D02*
G01X6384D01*
G01X19952Y96352D02*
G01X54750D01*
G01X88347Y96352D02*
G01X92250D01*
G01X-63698Y97252D02*
G01X-48507D01*
G01X-36093Y97252D02*
G01X7284D01*
G01X20271Y97252D02*
G01X54750D01*
G01X88702Y97252D02*
G01X92250D01*
G01X-63415Y98152D02*
G01X-48550D01*
G01X-36050Y98152D02*
G01X8184D01*
G01X20400Y98152D02*
G01X54750D01*
G01Y99052D01*
G01X20400D01*
G01Y99952D01*
G01X54750D01*
G01Y100852D01*
G01X20400D01*
G01Y101752D01*
G01X54750D01*
G01Y102652D01*
G01X20400D01*
G01Y103552D01*
G01X54750D01*
G01Y104452D01*
G01X20400D01*
G01X20400Y121552D02*
G01X54750D01*
G01Y122452D01*
G01X20400D01*
G01Y123352D01*
G01X54750D01*
G01Y124252D01*
G01X20400D01*
G01Y125152D01*
G01X54750D01*
G01Y126052D01*
G01X20400D01*
G01Y126952D01*
G01X54750D01*
G01Y127852D01*
G01X20400D01*
G01Y128752D01*
G01X54750D01*
G01Y129652D01*
G01X20400D01*
G01Y130552D01*
G01X54750D01*
G01Y131452D01*
G01X20400D01*
G01Y132352D01*
G01X54750D01*
G01Y133252D01*
G01X20400D01*
G01Y134152D01*
G01X54750D01*
G01X88985Y98152D02*
G01X92250D01*
G01X-63199Y99052D02*
G01X-48462D01*
G01X-36138Y99052D02*
G01X9084D01*
G01X-63045Y99952D02*
G01X-48239D01*
G01X-36361Y99952D02*
G01X9984D01*
G01X-62966Y100852D02*
G01X-47999D01*
G01X-36601Y100852D02*
G01X10400D01*
G01X-62950Y101752D02*
G01X-47759D01*
G01X-36841Y101752D02*
G01X10400D01*
G01X-62992Y102652D02*
G01X-47519D01*
G01X-37081Y102652D02*
G01X10400D01*
G01X-63094Y103552D02*
G01X-47300D01*
G01X-37300Y103552D02*
G01X10400D01*
G01Y104452D01*
G01X-37300D01*
G01X89306Y103552D02*
G01X92250D01*
G01X-63256Y104452D02*
G01X-47300D01*
G01X89144Y104452D02*
G01X92250D01*
G01X-63497Y105352D02*
G01X-47682D01*
G01X-36918Y105352D02*
G01X10018D01*
G01X20782Y105352D02*
G01X54750D01*
G01X88903Y105352D02*
G01X92250D01*
G01X-63809Y106252D02*
G01X-50050D01*
G01X-19550Y106252D02*
G01X-7350D01*
G01Y107152D01*
G01X-19550D01*
G01Y108052D01*
G01X-7350D01*
G01Y108952D01*
G01X-19550D01*
G01Y109852D01*
G01X-7350D01*
G01Y110752D01*
G01X-19550D01*
G01Y111652D01*
G01X-7350D01*
G01Y112552D01*
G01X-19550D01*
G01Y113452D01*
G01X-7350D01*
G01Y114352D01*
G01X-19550D01*
G01Y115252D01*
G01X-7350D01*
G01Y116152D01*
G01X-19550D01*
G01Y117052D01*
G01X-7350D01*
G01Y117952D01*
G01X-19550D01*
G01Y118852D01*
G01X-7350D01*
G01Y119752D01*
G01X-19550D01*
G01X23150Y106252D02*
G01X54750D01*
G01Y107152D01*
G01X23150D01*
G01Y108052D01*
G01X54750D01*
G01Y108952D01*
G01X23150D01*
G01Y109852D01*
G01X54750D01*
G01Y110752D01*
G01X23150D01*
G01Y111652D01*
G01X54750D01*
G01Y112552D01*
G01X23150D01*
G01Y113452D01*
G01X54750D01*
G01Y114352D01*
G01X23150D01*
G01Y115252D01*
G01X54750D01*
G01Y116152D01*
G01X23150D01*
G01Y117052D01*
G01X54750D01*
G01Y117952D01*
G01X23150D01*
G01Y118852D01*
G01X54750D01*
G01Y119752D01*
G01X23150D01*
G01X88591Y106252D02*
G01X92250D01*
G01X-64195Y107152D02*
G01X-50050D01*
G01X88205Y107152D02*
G01X92250D01*
G01X-64664Y108052D02*
G01X-50050D01*
G01X87736Y108052D02*
G01X92250D01*
G01X-65228Y108952D02*
G01X-50050D01*
G01X87172Y108952D02*
G01X92250D01*
G01X-65904Y109852D02*
G01X-50050D01*
G01X86496Y109852D02*
G01X92250D01*
G01X-66717Y110752D02*
G01X-50050D01*
G01X85683Y110752D02*
G01X92250D01*
G01X-67705Y111652D02*
G01X-50050D01*
G01X84695Y111652D02*
G01X92250D01*
G01X-68926Y112552D02*
G01X-50050D01*
G01X83474Y112552D02*
G01X92250D01*
G01X-70606Y113452D02*
G01X-50050D01*
G01X81794Y113452D02*
G01X92250D01*
G01X-72925Y114352D02*
G01X-50050D01*
G01X79475Y114352D02*
G01X92250D01*
G01X-70383Y115252D02*
G01X-50057D01*
G01X82017Y115252D02*
G01X92250D01*
G01X-68778Y116152D02*
G01X-50050D01*
G01X83622Y116152D02*
G01X92250D01*
G01X-67580Y117052D02*
G01X-50050D01*
G01X84819Y117052D02*
G01X92250D01*
G01X-66493Y117952D02*
G01X-50050D01*
G01X85787Y117952D02*
G01X92250D01*
G01X-65405Y118852D02*
G01X-50050D01*
G01X86583Y118852D02*
G01X92250D01*
G01X-64317Y119752D02*
G01X-50050D01*
G01X87245Y119752D02*
G01X92250D01*
G01X-63229Y120652D02*
G01X-45587D01*
G01X-32359Y120652D02*
G01X10021D01*
G01X20779Y120652D02*
G01X54750D01*
G01X87796Y120652D02*
G01X92250D01*
G01X-62141Y121552D02*
G01X-44687D01*
G01X-31459Y121552D02*
G01X10400D01*
G01X-61054Y122452D02*
G01X-43787D01*
G01X-30559Y122452D02*
G01X10400D01*
G01X88629Y122452D02*
G01X92250D01*
G01X-59425Y123352D02*
G01X-42887D01*
G01X-29659Y123352D02*
G01X10400D01*
G01X-58463Y124252D02*
G01X-41987D01*
G01X-28759Y124252D02*
G01X10400D01*
G01X-57563Y125152D02*
G01X-41087D01*
G01X-27859Y125152D02*
G01X10400D01*
G01X89325Y125152D02*
G01X92250D01*
G01X-56663Y126052D02*
G01X-40187D01*
G01X-26959Y126052D02*
G01X10400D01*
G01X-55763Y126952D02*
G01X-46964D01*
G01X-23464Y126952D02*
G01X10400D01*
G01Y127852D01*
G01X-23464D01*
G01Y128752D01*
G01X10400D01*
G01Y129652D01*
G01X-23464D01*
G01Y130552D01*
G01X10400D01*
G01Y131452D01*
G01X-23464D01*
G01Y132352D01*
G01X10400D01*
G01Y133252D01*
G01X-23464D01*
G01X-23464Y135052D02*
G01X10400D01*
G01Y135952D01*
G01X-23464D01*
G01X-54863Y127852D02*
G01X-46964D01*
G01X88664Y131452D02*
G01X92250D01*
G01X88298Y132352D02*
G01X92250D01*
G01X87852Y133252D02*
G01X92250D01*
G01X-23452Y134152D02*
G01X10400D01*
G01X87312Y134152D02*
G01X92250D01*
G01X21020Y135052D02*
G01X54748D01*
G01X86664Y135052D02*
G01X92250D01*
G01X21920Y135952D02*
G01X54810D01*
G01X85883Y135952D02*
G01X92250D01*
G01X-23464Y136852D02*
G01X10406D01*
G01X22820Y136852D02*
G01X55095D01*
G01X84933Y136852D02*
G01X92250D01*
G01X-23464Y137752D02*
G01X10587D01*
G01X23720Y137752D02*
G01X55654D01*
G01X83759Y137752D02*
G01X92250D01*
G01X-23464Y138652D02*
G01X10959D01*
G01X24620Y138652D02*
G01X56545D01*
G01X82223Y138652D02*
G01X92250D01*
G01X-27464Y139552D02*
G01X11584D01*
G01X25520Y139552D02*
G01X57445D01*
G01X79833Y139552D02*
G01X92250D01*
G01X-28364Y140452D02*
G01X12484D01*
G01X26420Y140452D02*
G01X57889D01*
G01X81588Y140452D02*
G01X92250D01*
G01X-29264Y141352D02*
G01X13384D01*
G01X27320Y141352D02*
G01X58209D01*
G01X83314Y141352D02*
G01X92250D01*
G01X-30164Y142252D02*
G01X14284D01*
G01X28220Y142252D02*
G01X58530D01*
G01X84580Y142252D02*
G01X92250D01*
G01X-31064Y143152D02*
G01X15184D01*
G01X29125Y143152D02*
G01X58851D01*
G01X85587Y143152D02*
G01X92250D01*
G01X-32129Y144052D02*
G01X16084D01*
G01X29796Y144052D02*
G01X59172D01*
G01X86415Y144052D02*
G01X92250D01*
G01X-59078Y144952D02*
G01X16984D01*
G01X30180Y144952D02*
G01X59493D01*
G01X87105Y144952D02*
G01X92250D01*
G01X-59430Y145852D02*
G01X17884D01*
G01X30377Y145852D02*
G01X59814D01*
G01X87681Y145852D02*
G01X92250D01*
G01X-59782Y146752D02*
G01X18784D01*
G01X30928Y146752D02*
G01X60135D01*
G01X88160Y146752D02*
G01X92250D01*
G01X-60134Y147652D02*
G01X19320D01*
G01X31480Y147652D02*
G01X60456D01*
G01X88556Y147652D02*
G01X92250D01*
G01X-60486Y148552D02*
G01X18767D01*
G01X32033Y148552D02*
G01X60776D01*
G01X88878Y148552D02*
G01X92250D01*
G01X-60838Y149452D02*
G01X18214D01*
G01X32586Y149452D02*
G01X61097D01*
G01X89119Y149452D02*
G01X92250D01*
G01X-61190Y150352D02*
G01X-28675D01*
G01X-22125Y150352D02*
G01X17662D01*
G01X33138Y150352D02*
G01X61418D01*
G01X-61542Y151252D02*
G01X-31217D01*
G01X-19583Y151252D02*
G01X17109D01*
G01X33691Y151252D02*
G01X61739D01*
G01X-61894Y152152D02*
G01X-32822D01*
G01X-17978Y152152D02*
G01X16556D01*
G01X34244Y152152D02*
G01X62060D01*
G01X-62246Y153052D02*
G01X-34019D01*
G01X-16781Y153052D02*
G01X16004D01*
G01X34796Y153052D02*
G01X62381D01*
G01X-62598Y153952D02*
G01X-34987D01*
G01X-15813Y153952D02*
G01X15451D01*
G01X35349Y153952D02*
G01X62702D01*
G01X-62950Y154852D02*
G01X-35783D01*
G01X-15017Y154852D02*
G01X14898D01*
G01X35902Y154852D02*
G01X63023D01*
G01X89218Y154852D02*
G01X92250D01*
G01X-63302Y155752D02*
G01X-36445D01*
G01X-14355Y155752D02*
G01X14345D01*
G01X36455Y155752D02*
G01X63344D01*
G01X89010Y155752D02*
G01X92250D01*
G01X-63654Y156652D02*
G01X-36996D01*
G01X-13804Y156652D02*
G01X13804D01*
G01X36996Y156652D02*
G01X63663D01*
G01X-64009Y157552D02*
G01X-37453D01*
G01X-13347Y157552D02*
G01X13347D01*
G01X37453Y157552D02*
G01X64009D01*
G01X88391Y157552D02*
G01X92250D01*
G01X-64433Y158452D02*
G01X-37829D01*
G01X-12971Y158452D02*
G01X12971D01*
G01X37829Y158452D02*
G01X64433D01*
G01X87967Y158452D02*
G01X92250D01*
G01X-64953Y159352D02*
G01X-38131D01*
G01X-12669Y159352D02*
G01X12669D01*
G01X38131Y159352D02*
G01X64953D01*
G01X87447Y159352D02*
G01X92250D01*
G01X-65578Y160252D02*
G01X-38366D01*
G01X-12434Y160252D02*
G01X12434D01*
G01X38366Y160252D02*
G01X65578D01*
G01X86822Y160252D02*
G01X92250D01*
G01X-66324Y161152D02*
G01X-38525D01*
G01X-12275Y161152D02*
G01X12275D01*
G01X38525Y161152D02*
G01X66324D01*
G01X86076Y161152D02*
G01X92250D01*
G01X-67228Y162052D02*
G01X-38617D01*
G01X-12183Y162052D02*
G01X12183D01*
G01X38617Y162052D02*
G01X67228D01*
G01X85172Y162052D02*
G01X92250D01*
G01X-68355Y162952D02*
G01X-38650D01*
G01X-12150Y162952D02*
G01X12150D01*
G01X38650Y162952D02*
G01X68355D01*
G01X84045Y162952D02*
G01X92250D01*
G01X-69785Y163852D02*
G01X-38625D01*
G01X-12175Y163852D02*
G01X12175D01*
G01X38625Y163852D02*
G01X69785D01*
G01X82615Y163852D02*
G01X92250D01*
G01X-71877Y164752D02*
G01X-38542D01*
G01X-12258Y164752D02*
G01X12258D01*
G01X38542Y164752D02*
G01X71877D01*
G01X80523Y164752D02*
G01X92250D01*
G01X-71317Y165652D02*
G01X-38383D01*
G01X-12417Y165652D02*
G01X12417D01*
G01X38383Y165652D02*
G01X71317D01*
G01X81083Y165652D02*
G01X92250D01*
G01X-69432Y166552D02*
G01X-38157D01*
G01X-12643Y166552D02*
G01X12643D01*
G01X38157Y166552D02*
G01X69432D01*
G01X82968Y166552D02*
G01X92250D01*
G01X-68064Y167452D02*
G01X-37864D01*
G01X-12936Y167452D02*
G01X12936D01*
G01X37864Y167452D02*
G01X68064D01*
G01X84336Y167452D02*
G01X92250D01*
G01X-67013Y168352D02*
G01X-37498D01*
G01X-13302Y168352D02*
G01X13302D01*
G01X37498Y168352D02*
G01X67013D01*
G01X85387Y168352D02*
G01X92250D01*
G01X-66152Y169252D02*
G01X-37052D01*
G01X-13748Y169252D02*
G01X13748D01*
G01X37052Y169252D02*
G01X66152D01*
G01X86248Y169252D02*
G01X92250D01*
G01X-65435Y170152D02*
G01X-36512D01*
G01X-14288Y170152D02*
G01X14288D01*
G01X36512Y170152D02*
G01X65435D01*
G01X86965Y170152D02*
G01X92250D01*
G01X-64835Y171052D02*
G01X-35864D01*
G01X-14936Y171052D02*
G01X14936D01*
G01X35864Y171052D02*
G01X64835D01*
G01X87565Y171052D02*
G01X92250D01*
G01X-64333Y171952D02*
G01X-35083D01*
G01X-15717Y171952D02*
G01X15717D01*
G01X35083Y171952D02*
G01X64333D01*
G01X88067Y171952D02*
G01X92250D01*
G01X-63917Y172852D02*
G01X-34133D01*
G01X-16667Y172852D02*
G01X16667D01*
G01X34133Y172852D02*
G01X63917D01*
G01X-63589Y173752D02*
G01X-32959D01*
G01X-17841Y173752D02*
G01X17841D01*
G01X32959Y173752D02*
G01X63589D01*
G01X88811Y173752D02*
G01X92250D01*
G01X-63335Y174652D02*
G01X-31423D01*
G01X-19377Y174652D02*
G01X19377D01*
G01X31423Y174652D02*
G01X63335D01*
G01X-63146Y175552D02*
G01X-29033D01*
G01X-21767Y175552D02*
G01X21767D01*
G01X29033Y175552D02*
G01X63146D01*
G01X-63018Y176452D02*
G01X63018D01*
G01X-62950Y177352D02*
G01X62950D01*
G01Y178252D01*
G01X-62950D01*
G01X-63019Y179152D02*
G01X63019D01*
G01X89381Y179152D02*
G01X92250D01*
G01X-63147Y180052D02*
G01X63147D01*
G01X89253Y180052D02*
G01X92250D01*
G01X-63336Y180952D02*
G01X63336D01*
G01X89064Y180952D02*
G01X92250D01*
G01X-63590Y181852D02*
G01X63590D01*
G01X-63918Y182752D02*
G01X63918D01*
G01X88482Y182752D02*
G01X92250D01*
G01X-88250Y183652D02*
G01X-88065D01*
G01X-64335Y183652D02*
G01X64335D01*
G01X88065Y183652D02*
G01X92250D01*
G01X-88250Y184552D02*
G01X-87563D01*
G01X-64837Y184552D02*
G01X64837D01*
G01X87563Y184552D02*
G01X92250D01*
G01X-88250Y185452D02*
G01X-86962D01*
G01X-65438Y185452D02*
G01X65438D01*
G01X86962Y185452D02*
G01X92250D01*
G01X-88250Y186352D02*
G01X-86244D01*
G01X-66156Y186352D02*
G01X66156D01*
G01X86244Y186352D02*
G01X92250D01*
G01X-88250Y187252D02*
G01X-85383D01*
G01X-67017Y187252D02*
G01X67017D01*
G01X85383Y187252D02*
G01X92250D01*
G01X-88250Y188152D02*
G01X-84331D01*
G01X-68069Y188152D02*
G01X68069D01*
G01X84331Y188152D02*
G01X92250D01*
G01X-88250Y189052D02*
G01X-82961D01*
G01X-69439Y189052D02*
G01X69439D01*
G01X82961Y189052D02*
G01X92250D01*
G01X-88250Y189952D02*
G01X-81072D01*
G01X-71328Y189952D02*
G01X71328D01*
G01X81072Y189952D02*
G01X92250D01*
G54D11*
G01X-35000Y14000D02*
G01X-48000D01*
G01X-57000Y5000D01*
G01Y-56000D01*
G01X-52000Y-61000D01*
G01X8000D01*
G01X14000Y-67000D01*
G01Y-107000D01*
G01X28000Y-121000D01*
G01X44000D01*
G01X43135Y-118923D02*
G01X38150Y-121000D01*
G01X43135Y-123077D02*
G01X38150Y-121000D01*
G01X43135Y-119673D02*
G01X38150Y-121000D01*
G01X43135Y-120423D02*
G01X38150Y-121000D01*
G01X43135Y-121173D02*
G01X38150Y-121000D01*
G01X43135Y-121923D02*
G01X38150Y-121000D01*
G01X-35865Y16077D02*
G01X-40850Y14000D01*
G01X-35865Y11923D02*
G01X-40850Y14000D01*
G01X-35865Y15327D02*
G01X-40850Y14000D01*
G01X-35865Y14577D02*
G01X-40850Y14000D01*
G01X-35865Y13827D02*
G01X-40850Y14000D01*
G01X-35865Y13077D02*
G01X-40850Y14000D01*
G54D12*
G01X30000Y0000D02*
G01Y11200D01*
G01X33000Y14200D01*
G01X59000Y29000D02*
G01Y-90000D01*
G01X49000Y-100000D01*
G01X36000Y-28000D02*
G01X41000D01*
G01X47000Y-34000D01*
G01Y-80000D01*
G01X41000Y-86000D01*
G01Y-101000D01*
G01X47000Y-107000D01*
G01X61000Y-112000D02*
G01Y-145000D01*
G01X68400Y-152400D01*
G01X76200D01*
G01X76200Y-177800D02*
G01X68800D01*
G01X57000Y-166000D01*
G01X37000Y-103000D02*
G01Y-82000D01*
G01X42000Y-77000D01*
G01Y-47000D01*
G01X35000Y-40000D01*
G01X32452Y-40000D02*
G01X35000D01*
G01X33000Y-109000D02*
G01Y-53000D01*
G01X24000Y-44000D01*
G01X49000Y-90000D02*
G01Y-87000D01*
G01X51000Y-85000D01*
G01Y11200D01*
G01X48000Y14200D01*
G01X-25000Y13000D02*
G01Y13612D01*
G01X-8612Y30000D01*
G01X-8000D01*
G01X9000Y47000D01*
G01X35000Y-111000D02*
G01X33000Y-109000D01*
G01X-50000Y-55000D02*
G01X-43000Y-48000D01*
G01X16000Y38000D02*
G01X31000D01*
G01X33000Y40000D01*
G01X59000Y29000D02*
G01X48000Y40000D01*
G01X33000Y-31000D02*
G01X36000Y-28000D01*
G01X24000Y-44000D02*
G01Y-22000D01*
G01X-15000Y11000D02*
G01Y17000D01*
G01X-20000Y6000D02*
G01X-15000Y11000D01*
G01X-43000Y-2500D02*
G01Y-2000D01*
G01X-35000Y6000D01*
G01X-20000D01*
G01X-25000Y-17500D02*
G01X-43000D01*
G01X-43000Y-48000D02*
G01Y-17500D01*
G01X13000Y-6500D02*
G01Y-11000D01*
G01X24000Y-22000D01*
G01X13000Y8500D02*
G01Y12000D01*
G01X2000Y23000D01*
G01X1000D01*
G01X-15000Y17000D02*
G01X0000Y32000D01*
G01X8000D01*
G01X47000Y-107000D02*
G01X56000D01*
G01X61000Y-112000D01*
G01X45000Y-111000D02*
G01X37000Y-103000D01*
G01X45000Y-111000D02*
G01X53000D01*
G01X57000Y-115000D01*
G01Y-166000D01*
G01X-5000Y8500D02*
G01X-8500D01*
G01X-14000Y3000D01*
G01X0000Y-35000D02*
G01X20000Y-55000D01*
G01Y-59000D01*
G01X9000Y47000D02*
G01X21000D01*
G01X25000Y51000D01*
G01X43000D01*
G01X59000Y67000D01*
G01Y135200D01*
G01X76200Y152400D01*
G01X76692Y-168813D02*
G01X58837Y-167837D01*
G01X68689Y-182759D02*
G01X58837Y-167837D01*
G01X76194Y-169681D02*
G01X58837Y-167837D01*
G01X75696Y-170548D02*
G01X58837Y-167837D01*
G01X75198Y-171415D02*
G01X58837Y-167837D01*
G01X74701Y-172283D02*
G01X58837Y-167837D01*
G01X74203Y-173150D02*
G01X58837Y-167837D01*
G01X73705Y-174018D02*
G01X58837Y-167837D01*
G01X73208Y-174885D02*
G01X58837Y-167837D01*
G01X72710Y-175752D02*
G01X58837Y-167837D01*
G01X72212Y-176620D02*
G01X58837Y-167837D01*
G01X71715Y-177487D02*
G01X58837Y-167837D01*
G01X71217Y-178354D02*
G01X58837Y-167837D01*
G01X70719Y-179222D02*
G01X58837Y-167837D01*
G01X70221Y-180089D02*
G01X58837Y-167837D01*
G01X69724Y-180956D02*
G01X58837Y-167837D01*
G01X69226Y-181824D02*
G01X58837Y-167837D01*
G01X34057Y-41194D02*
G01X34945Y-40000D01*
G01X34057Y-38806D02*
G01X34945Y-40000D01*
G01X34057Y-40194D02*
G01X34945Y-40000D01*
G01X74772Y-143514D02*
G01X61627Y-145627D01*
G01X68487Y-157037D02*
G01X61627Y-145627D01*
G01X74350Y-144421D02*
G01X61627Y-145627D01*
G01X73929Y-145328D02*
G01X61627Y-145627D01*
G01X73507Y-146235D02*
G01X61627Y-145627D01*
G01X73086Y-147141D02*
G01X61627Y-145627D01*
G01X72664Y-148048D02*
G01X61627Y-145627D01*
G01X72243Y-148955D02*
G01X61627Y-145627D01*
G01X71821Y-149862D02*
G01X61627Y-145627D01*
G01X71400Y-150769D02*
G01X61627Y-145627D01*
G01X70978Y-151676D02*
G01X61627Y-145627D01*
G01X70557Y-152583D02*
G01X61627Y-145627D01*
G01X70135Y-153489D02*
G01X61627Y-145627D01*
G01X69714Y-154396D02*
G01X61627Y-145627D01*
G01X69293Y-155303D02*
G01X61627Y-145627D01*
G01X34930Y-31523D02*
G01X35841Y-28159D01*
G01X32477Y-29070D02*
G01X35841Y-28159D01*
G01X34223Y-30816D02*
G01X35841Y-28159D01*
G01X33516Y-30109D02*
G01X35841Y-28159D01*
G01X-3022Y-43477D02*
G01X14849Y-49849D01*
G01X8477Y-31978D02*
G01X14849Y-49849D01*
G01X-2315Y-42770D02*
G01X14849Y-49849D01*
G01X-1608Y-42063D02*
G01X14849Y-49849D01*
G01X-0901Y-41356D02*
G01X14849Y-49849D01*
G01X-0194Y-40649D02*
G01X14849Y-49849D01*
G01X0513Y-39942D02*
G01X14849Y-49849D01*
G01X1220Y-39235D02*
G01X14849Y-49849D01*
G01X1927Y-38528D02*
G01X14849Y-49849D01*
G01X2634Y-37820D02*
G01X14849Y-49849D01*
G01X3341Y-37113D02*
G01X14849Y-49849D01*
G01X4049Y-36406D02*
G01X14849Y-49849D01*
G01X4756Y-35699D02*
G01X14849Y-49849D01*
G01X5463Y-34992D02*
G01X14849Y-49849D01*
G01X6170Y-34285D02*
G01X14849Y-49849D01*
G01X6877Y-33578D02*
G01X14849Y-49849D01*
G01X7584Y-32871D02*
G01X14849Y-49849D01*
G01X-8000Y5000D02*
G01X-8450Y8500D01*
G01X-8000Y12000D02*
G01X-8450Y8500D01*
G01X-8000Y6000D02*
G01X-8450Y8500D01*
G01X-8000Y7000D02*
G01X-8450Y8500D01*
G01X-8000Y8000D02*
G01X-8450Y8500D01*
G01X-8000Y9000D02*
G01X-8450Y8500D01*
G01X-8000Y10000D02*
G01X-8450Y8500D01*
G01X-8000Y11000D02*
G01X-8450Y8500D01*
G01X-23115Y12332D02*
G01X-21380Y17232D01*
G01X-25952Y14759D02*
G01X-21380Y17232D01*
G01X-23875Y12982D02*
G01X-21380Y17232D01*
G01X-24635Y13632D02*
G01X-21380Y17232D01*
G01X67723Y155422D02*
G01X61351Y137551D01*
G01X79222Y143923D02*
G01X61351Y137551D01*
G01X68430Y154715D02*
G01X61351Y137551D01*
G01X69137Y154008D02*
G01X61351Y137551D01*
G01X69844Y153301D02*
G01X61351Y137551D01*
G01X70551Y152594D02*
G01X61351Y137551D01*
G01X71258Y151887D02*
G01X61351Y137551D01*
G01X71965Y151180D02*
G01X61351Y137551D01*
G01X72672Y150473D02*
G01X61351Y137551D01*
G01X73380Y149766D02*
G01X61351Y137551D01*
G01X74087Y149059D02*
G01X61351Y137551D01*
G01X74794Y148351D02*
G01X61351Y137551D01*
G01X75501Y147644D02*
G01X61351Y137551D01*
G01X76208Y146937D02*
G01X61351Y137551D01*
G01X76915Y146230D02*
G01X61351Y137551D01*
G01X77622Y145523D02*
G01X61351Y137551D01*
G01X78329Y144816D02*
G01X61351Y137551D01*
G01X29500Y37000D02*
G01X24700Y38000D01*
G01X29500Y43000D02*
G01X24700Y38000D01*
G01X29500Y38000D02*
G01X24700D01*
G01X29500Y39000D02*
G01X24700Y38000D01*
G01X29500Y40000D02*
G01X24700Y38000D01*
G01X29500Y41000D02*
G01X24700Y38000D01*
G01X29500Y42000D02*
G01X24700Y38000D01*
G01X16714Y36132D02*
G01X21600Y38000D01*
G01X16714Y39868D02*
G01X21600Y38000D01*
G01X16714Y37132D02*
G01X21600Y38000D01*
G01X16714Y38132D02*
G01X21600Y38000D01*
G01X-40000Y-21000D02*
G01X-43000Y-25800D01*
G01X-46000Y-21000D02*
G01X-43000Y-25800D01*
G01X-41000Y-21000D02*
G01X-43000Y-25800D01*
G01X-42000Y-21000D02*
G01X-43000Y-25800D01*
G01X-43000Y-21000D02*
G01Y-25800D01*
G01X-44000Y-21000D02*
G01X-43000Y-25800D01*
G01X-45000Y-21000D02*
G01X-43000Y-25800D01*
G01X-48174Y-55816D02*
G01X-46040Y-51040D01*
G01X-50816Y-53174D02*
G01X-46040Y-51040D01*
G01X-48881Y-55109D02*
G01X-46040Y-51040D01*
G01X-49588Y-54402D02*
G01X-46040Y-51040D01*
G01X-40000Y-14000D02*
G01X-35200Y-17500D01*
G01X-40000Y-21000D02*
G01X-35200Y-17500D01*
G01X-40000Y-15000D02*
G01X-35200Y-17500D01*
G01X-40000Y-16000D02*
G01X-35200Y-17500D01*
G01X-40000Y-17000D02*
G01X-35200Y-17500D01*
G01X-40000Y-18000D02*
G01X-35200Y-17500D01*
G01X-40000Y-19000D02*
G01X-35200Y-17500D01*
G01X-40000Y-20000D02*
G01X-35200Y-17500D01*
G01X-28000Y-21000D02*
G01X-32800Y-17500D01*
G01X-28000Y-14000D02*
G01X-32800Y-17500D01*
G01X-28000Y-20000D02*
G01X-32800Y-17500D01*
G01X-28000Y-19000D02*
G01X-32800Y-17500D01*
G01X-28000Y-18000D02*
G01X-32800Y-17500D01*
G01X-28000Y-17000D02*
G01X-32800Y-17500D01*
G01X-28000Y-16000D02*
G01X-32800Y-17500D01*
G01X-28000Y-15000D02*
G01X-32800Y-17500D01*
G01X34939Y-109001D02*
G01X33059Y-109059D01*
G01X33001Y-110939D02*
G01X33059Y-109059D01*
G01X34232Y-109708D02*
G01X33059Y-109059D01*
G01X16000Y-10000D02*
G01X13000Y-10900D01*
G01X10000Y-10000D02*
G01X13000Y-10900D01*
G01X15000Y-10000D02*
G01X13000Y-10900D01*
G01X14000Y-10000D02*
G01X13000Y-10900D01*
G01X13000Y-10000D02*
G01Y-10900D01*
G01X12000Y-10000D02*
G01X13000Y-10900D01*
G01X11000Y-10000D02*
G01X13000Y-10900D01*
G01X51500Y11200D02*
G01X51000Y6400D01*
G01X44500Y11200D02*
G01X51000Y6400D01*
G01X50500Y11200D02*
G01X51000Y6400D01*
G01X49500Y11200D02*
G01X51000Y6400D01*
G01X48500Y11200D02*
G01X51000Y6400D01*
G01X47500Y11200D02*
G01X51000Y6400D01*
G01X46500Y11200D02*
G01X51000Y6400D01*
G01X45500Y11200D02*
G01X51000Y6400D01*
G01X50448Y-88621D02*
G01X49000Y-87100D01*
G01X47552Y-88621D02*
G01X49000Y-87100D01*
G01X49448Y-88621D02*
G01X49000Y-87100D01*
G01X31868Y0714D02*
G01X30000Y5600D01*
G01X28132Y0714D02*
G01X30000Y5600D01*
G01X30868Y0714D02*
G01X30000Y5600D01*
G01X29868Y0714D02*
G01X30000Y5600D01*
G01X36500Y11200D02*
G01X30000Y6400D01*
G01X29500Y11200D02*
G01X30000Y6400D01*
G01X35500Y11200D02*
G01X30000Y6400D01*
G01X34500Y11200D02*
G01X30000Y6400D01*
G01X33500Y11200D02*
G01X30000Y6400D01*
G01X32500Y11200D02*
G01X30000Y6400D01*
G01X31500Y11200D02*
G01X30000Y6400D01*
G01X30500Y11200D02*
G01X30000Y6400D01*
G01X50826Y-100816D02*
G01X52960Y-96040D01*
G01X48184Y-98174D02*
G01X52960Y-96040D01*
G01X50119Y-100109D02*
G01X52960Y-96040D01*
G01X49412Y-99402D02*
G01X52960Y-96040D01*
G01X51500Y37000D02*
G01X54394Y33606D01*
G01X44500Y37000D02*
G01X54394Y33606D01*
G01X50500Y37000D02*
G01X54394Y33606D01*
G01X49500Y37000D02*
G01X54394Y33606D01*
G01X48500Y37000D02*
G01X54394Y33606D01*
G01X47500Y37000D02*
G01X54394Y33606D01*
G01X46500Y37000D02*
G01X54394Y33606D01*
G01X45500Y37000D02*
G01X54394Y33606D01*
G01X10000Y12000D02*
G01X9606Y15394D01*
G01X16000Y12000D02*
G01X9606Y15394D01*
G01X11000Y12000D02*
G01X9606Y15394D01*
G01X12000Y12000D02*
G01X9606Y15394D01*
G01X13000Y12000D02*
G01X9606Y15394D01*
G01X14000Y12000D02*
G01X9606Y15394D01*
G01X15000Y12000D02*
G01X9606Y15394D01*
G01X0436Y21081D02*
G01X5368Y19632D01*
G01X2712Y24033D02*
G01X5368Y19632D01*
G01X1047Y21873D02*
G01X5368Y19632D01*
G01X1657Y22665D02*
G01X5368Y19632D01*
G01X-40000Y-3243D02*
G01X-36606Y4394D01*
G01X-44243Y1000D02*
G01X-36606Y4394D01*
G01X-40707Y-2536D02*
G01X-36606Y4394D01*
G01X-41414Y-1828D02*
G01X-36606Y4394D01*
G01X-42121Y-1121D02*
G01X-36606Y4394D01*
G01X-42828Y-0414D02*
G01X-36606Y4394D01*
G01X-43536Y0293D02*
G01X-36606Y4394D01*
G01X7286Y33868D02*
G01X2400Y32000D01*
G01X7286Y30132D02*
G01X2400Y32000D01*
G01X7286Y32868D02*
G01X2400Y32000D01*
G01X7286Y31868D02*
G01X2400Y32000D01*
G54D13*
G01X-5000Y-6500D02*
G01X13000D01*
G01X10250Y-9750D02*
G01X5450Y-6500D01*
G01X10250Y-3250D02*
G01X5450Y-6500D01*
G01X10250Y-8500D02*
G01X5450Y-6500D01*
G01X10250Y-7250D02*
G01X5450Y-6500D01*
G01X10250Y-6000D02*
G01X5450Y-6500D01*
G01X10250Y-4750D02*
G01X5450Y-6500D01*
G01X-2250Y-3250D02*
G01X2550Y-6500D01*
G01X-2250Y-9750D02*
G01X2550Y-6500D01*
G01X-2250Y-4500D02*
G01X2550Y-6500D01*
G01X-2250Y-5750D02*
G01X2550Y-6500D01*
G01X-2250Y-7000D02*
G01X2550Y-6500D01*
G01X-2250Y-8250D02*
G01X2550Y-6500D01*
G54D14*
G01X-76200Y127000D02*
G01X-62329D01*
G01X-56495Y132834D01*
G01X-40714D01*
G01X-76200Y152400D02*
G01X-74049D01*
G01X-61856Y140207D01*
G01X-34733D01*
G01X-29714Y135188D01*
G01Y132834D01*
G01Y129911D01*
G01X-42300Y117325D01*
G01Y113000D01*
G01X-45300Y115500D02*
G01X-42300Y117143D01*
G01X-39300Y115500D02*
G01X-42300Y117143D01*
G01X-43800Y115500D02*
G01X-42300Y117143D01*
G01X-42300Y115500D02*
G01Y117143D01*
G01X-40800Y115500D02*
G01X-42300Y117143D01*
G01X-77902Y144072D02*
G01X-62591Y140943D01*
G01X-68284Y155496D02*
G01X-62591Y140943D01*
G01X-76936Y145220D02*
G01X-62591Y140943D01*
G01X-75970Y146367D02*
G01X-62591Y140943D01*
G01X-75004Y147515D02*
G01X-62591Y140943D01*
G01X-74038Y148662D02*
G01X-62591Y140943D01*
G01X-73072Y149810D02*
G01X-62591Y140943D01*
G01X-72106Y150957D02*
G01X-62591Y140943D01*
G01X-71140Y152105D02*
G01X-62591Y140943D01*
G01X-70174Y153252D02*
G01X-62591Y140943D01*
G01X-28214Y131334D02*
G01X-29714Y130053D01*
G01X-31214Y131334D02*
G01X-29714Y130053D01*
G01X-29714Y131334D02*
G01Y130053D01*
G01X-31214Y134334D02*
G01X-29714Y135103D01*
G01X-28214Y134334D02*
G01X-29714Y135103D01*
G01X-29714Y134334D02*
G01Y135103D01*
G01X-70782Y120451D02*
G01X-62866Y127000D01*
G01X-70782Y133549D02*
G01X-62866Y127000D01*
G01X-70782Y121951D02*
G01X-62866Y127000D01*
G01X-70782Y123451D02*
G01X-62866Y127000D01*
G01X-70782Y124951D02*
G01X-62866Y127000D01*
G01X-70782Y126451D02*
G01X-62866Y127000D01*
G01X-70782Y127951D02*
G01X-62866Y127000D01*
G01X-70782Y129451D02*
G01X-62866Y127000D01*
G01X-70782Y130951D02*
G01X-62866Y127000D01*
G01X-42214Y131334D02*
G01X-45814Y132834D01*
G01X-42214Y134334D02*
G01X-45814Y132834D01*
G01X-42214Y132834D02*
G01X-45814D01*
G54D15*
G01X15500Y-189000D02*
G01Y-166500D01*
G01X18000Y-164000D01*
G01Y-124000D01*
G01X-18000Y-163000D02*
G01Y-186500D01*
G01X-15500Y-189000D01*
G01X-59600Y-101600D02*
G01X-76200D01*
G01X-61000Y9000D02*
G01X-48000Y22000D01*
G01X-23000D01*
G01X-2900Y42100D02*
G01Y83400D01*
G01X6100Y-105000D02*
G01Y-112100D01*
G01X18000Y-124000D01*
G01X-61000Y9000D02*
G01Y-59000D01*
G01X-54000Y-66000D01*
G01X-1000D01*
G01X3500Y-70500D01*
G01Y-78000D01*
G01Y-88400D01*
G01X6100Y-91000D01*
G01Y-105000D01*
G01X-46300Y-88300D02*
G01X-59600Y-101600D01*
G01X-46300Y-78000D02*
G01Y-88300D01*
G01Y-89700D01*
G01X-31000Y-105000D01*
G01X-25300D01*
G01X-42300Y113000D02*
G01Y98000D01*
G01X-42300Y91400D02*
G01X-34300Y83400D01*
G01X15400Y113000D02*
G01Y98400D01*
G01X0400Y83400D01*
G01X-2900D01*
G01X25400Y146400D02*
G01X15400Y136400D01*
G01Y113000D01*
G01X-42300Y98000D02*
G01Y91400D01*
G01X-23000Y22000D02*
G01X-2900Y42100D01*
G01X25400Y163000D02*
G01Y146400D01*
G01X-43508Y97678D02*
G01X-42300Y93150D01*
G01X-41092Y97678D02*
G01X-42300Y93150D01*
G01X-41092Y98322D02*
G01X-42300Y102850D01*
G01X-43508Y98322D02*
G01X-42300Y102850D01*
G01X-35200Y75650D02*
G01X-37449Y86549D01*
G01X-35200Y91150D02*
G01X-37449Y86549D01*
G01X-35200Y77400D02*
G01X-37449Y86549D01*
G01X-35200Y79150D02*
G01X-37449Y86549D01*
G01X-35200Y80900D02*
G01X-37449Y86549D01*
G01X-35200Y82650D02*
G01X-37449Y86549D01*
G01X-35200Y84400D02*
G01X-37449Y86549D01*
G01X-35200Y86150D02*
G01X-37449Y86549D01*
G01X-35200Y87900D02*
G01X-37449Y86549D01*
G01X-39550Y110750D02*
G01X-42300Y105950D01*
G01X-45050Y110750D02*
G01X-42300Y105950D01*
G01X-41300Y110750D02*
G01X-42300Y105950D01*
G01X-43050Y110750D02*
G01X-42300Y105950D01*
G01X-19250Y-178250D02*
G01X-18000Y-171650D01*
G01X-11750Y-178250D02*
G01X-18000Y-171650D01*
G01X-17500Y-178250D02*
G01X-18000Y-171650D01*
G01X-15750Y-178250D02*
G01X-18000Y-171650D01*
G01X-14000Y-178250D02*
G01X-18000Y-171650D01*
G01X-19208Y-163322D02*
G01X-18000Y-167850D01*
G01X-16792Y-163322D02*
G01X-18000Y-167850D01*
G01X-71883Y-108630D02*
G01X-60435Y-101600D01*
G01X-71883Y-94570D02*
G01X-60435Y-101600D01*
G01X-71883Y-106880D02*
G01X-60435Y-101600D01*
G01X-71883Y-105130D02*
G01X-60435Y-101600D01*
G01X-71883Y-103380D02*
G01X-60435Y-101600D01*
G01X-71883Y-101630D02*
G01X-60435Y-101600D01*
G01X-71883Y-99880D02*
G01X-60435Y-101600D01*
G01X-71883Y-98130D02*
G01X-60435Y-101600D01*
G01X-71883Y-96380D02*
G01X-60435Y-101600D01*
G01X-26200Y-112750D02*
G01X-29380Y-105000D01*
G01X-26200Y-97250D02*
G01X-29380Y-105000D01*
G01X-26200Y-111000D02*
G01X-29380Y-105000D01*
G01X-26200Y-109250D02*
G01X-29380Y-105000D01*
G01X-26200Y-107500D02*
G01X-29380Y-105000D01*
G01X-26200Y-105750D02*
G01X-29380Y-105000D01*
G01X-26200Y-104000D02*
G01X-29380Y-105000D01*
G01X-26200Y-102250D02*
G01X-29380Y-105000D01*
G01X-26200Y-100500D02*
G01X-29380Y-105000D01*
G01X-43550Y-80250D02*
G01X-46300Y-85050D01*
G01X-49050Y-80250D02*
G01X-46300Y-85050D01*
G01X-45300Y-80250D02*
G01X-46300Y-85050D01*
G01X-47050Y-80250D02*
G01X-46300Y-85050D01*
G01X7000Y-112750D02*
G01X8999Y-114999D01*
G01X5200Y-112750D02*
G01X8999Y-114999D01*
G01X5200Y-97250D02*
G01X6100Y-94070D01*
G01X7000Y-97250D02*
G01X6100Y-94070D01*
G01X11750Y-178250D02*
G01X15500Y-171650D01*
G01X19250Y-178250D02*
G01X15500Y-171650D01*
G01X13500Y-178250D02*
G01X15500Y-171650D01*
G01X15250Y-178250D02*
G01X15500Y-171650D01*
G01X17000Y-178250D02*
G01X15500Y-171650D01*
G01X6250Y-80250D02*
G01X3500Y-85050D01*
G01X0750Y-80250D02*
G01X3500Y-85050D01*
G01X4500Y-80250D02*
G01X3500Y-85050D01*
G01X2750Y-80250D02*
G01X3500Y-85050D01*
G01X0750Y-75750D02*
G01X3500Y-70950D01*
G01X6250Y-75750D02*
G01X3500Y-70950D01*
G01X2500Y-75750D02*
G01X3500Y-70950D01*
G01X4250Y-75750D02*
G01X3500Y-70950D01*
G01X-2000Y75650D02*
G01X-2900Y72470D01*
G01X-3800Y75650D02*
G01X-2900Y72470D01*
G01X-2000Y91150D02*
G01X0160Y83400D01*
G01X-2000Y75650D02*
G01X0160Y83400D01*
G01X-2000Y89400D02*
G01X0160Y83400D01*
G01X-2000Y87650D02*
G01X0160Y83400D01*
G01X-2000Y85900D02*
G01X0160Y83400D01*
G01X-2000Y84150D02*
G01X0160Y83400D01*
G01X-2000Y82400D02*
G01X0160Y83400D01*
G01X-2000Y80650D02*
G01X0160Y83400D01*
G01X-2000Y78900D02*
G01X0160Y83400D01*
G01X12650Y115250D02*
G01X15400Y120050D01*
G01X18150Y115250D02*
G01X15400Y120050D01*
G01X14400Y115250D02*
G01X15400Y120050D01*
G01X16150Y115250D02*
G01X15400Y120050D01*
G01X18150Y110750D02*
G01X15400Y105950D01*
G01X12650Y110750D02*
G01X15400Y105950D01*
G01X16400Y110750D02*
G01X15400Y105950D01*
G01X14650Y110750D02*
G01X15400Y105950D01*
G01X18370Y158683D02*
G01X25400Y147235D01*
G01X32430Y158683D02*
G01X25400Y147235D01*
G01X20120Y158683D02*
G01X25400Y147235D01*
G01X21870Y158683D02*
G01X25400Y147235D01*
G01X23620Y158683D02*
G01X25400Y147235D01*
G01X25370Y158683D02*
G01X25400Y147235D01*
G01X27120Y158683D02*
G01X25400Y147235D01*
G01X28870Y158683D02*
G01X25400Y147235D01*
G01X30620Y158683D02*
G01X25400Y147235D01*
G54D16*
G01X-15500Y-189000D02*
G01Y-185500D01*
G01X-31000Y-170000D01*
G01X-68400D01*
G01X-76200Y-177800D01*
G01X-9600Y-105000D02*
G01Y-119500D01*
G01X-76200Y-152400D02*
G01X-61200D01*
G01X-25000Y-2500D02*
G01X-16000D01*
G01X0400Y113000D02*
G01Y122000D01*
G01X0400Y113000D02*
G01X-9100D01*
G01X-27300Y113000D02*
G01Y122000D01*
G01X-27300Y113000D02*
G01X-17800D01*
G01X-25400Y163000D02*
G01Y178000D01*
G01X-25400Y163000D02*
G01Y148000D01*
G01X-25400Y163000D02*
G01X-40400D01*
G01X-25400Y163000D02*
G01X-10400D01*
G01X-27300Y113000D02*
G01Y104000D01*
G01X-18600Y83400D02*
G01Y97900D01*
G01X-18600Y83400D02*
G01Y68900D01*
G01X-18600Y83400D02*
G01X-10600D01*
G01X-18600Y83400D02*
G01X-26600D01*
G01X0400Y113000D02*
G01Y104000D01*
G01X-11500Y-78000D02*
G01Y-87000D01*
G01X-11500Y-78000D02*
G01X-21000D01*
G01X-31300Y-78000D02*
G01Y-87000D01*
G01X-31300Y-78000D02*
G01X-21800D01*
G01X-9600Y-105000D02*
G01Y-90500D01*
G01X-9600Y-105000D02*
G01X-1600D01*
G01X-9600Y-105000D02*
G01X-17600D01*
G01X-18500Y-199000D02*
G01X-23167Y-177833D01*
G01X-18500Y-179000D02*
G01X-23167Y-177833D01*
G01X-18500Y-196500D02*
G01X-23167Y-177833D01*
G01X-18500Y-194000D02*
G01X-23167Y-177833D01*
G01X-18500Y-191500D02*
G01X-23167Y-177833D01*
G01X-18500Y-189000D02*
G01X-23167Y-177833D01*
G01X-18500Y-186500D02*
G01X-23167Y-177833D01*
G01X-18500Y-184000D02*
G01X-23167Y-177833D01*
G01X-18500Y-181500D02*
G01X-23167Y-177833D01*
G01X-68700Y-177850D02*
G01X-68650Y-170250D01*
G01X-76250Y-170300D02*
G01X-68650Y-170250D01*
G01X-70468Y-176082D02*
G01X-68650Y-170250D01*
G01X-72236Y-174314D02*
G01X-68650Y-170250D01*
G01X-74003Y-172547D02*
G01X-68650Y-170250D01*
G54D17*
X59523Y-207535D03*
X-58576Y-206950D03*
X-18000Y-163000D03*
X44000Y-121000D03*
X-51000Y-120000D03*
X35000Y-111000D03*
X49000Y-100000D03*
Y-90000D03*
X20980Y-86056D03*
X-50000Y-55000D03*
X32452Y-40000D03*
X33000Y-31000D03*
X30000Y0000D03*
X-25000Y13000D03*
X-35000Y14000D03*
X1000Y23000D03*
X8000Y32000D03*
X16000Y38000D03*
X12000Y60000D03*
X-42300Y98000D03*
X-13000Y104000D03*
X-59486Y206819D03*
X62513Y207794D03*
G54D18*
X-76200Y-177800D03*
X76200D03*
X-76200Y-152400D03*
X76200D03*
X-76200Y-127000D03*
X76200D03*
X-76200Y-101600D03*
X76200D03*
X-76200Y-76200D03*
X76200D03*
X-76200Y-50800D03*
X76200D03*
X0000Y-35000D03*
X-76200Y-25400D03*
X76200D03*
X-76200Y0000D03*
X76200D03*
X-76200Y25400D03*
X76200D03*
X-76200Y50800D03*
X76200D03*
X-76200Y76200D03*
X76200D03*
X-76200Y101600D03*
X76200D03*
X-76200Y127000D03*
X76200D03*
X-76200Y152400D03*
X76200D03*
X-25400Y163000D03*
X25400D03*
X-76200Y177800D03*
X76200D03*
G54D19*
X-40714Y132834D03*
X-29714D03*
G54D20*
X-43200Y-190000D03*
X43200D03*
X-43200Y-148500D03*
X43200D03*
G54D21*
X-43000Y-10000D03*
X13000Y1000D03*
G54D22*
X-25300Y-105000D03*
X6100D03*
X-34300Y83400D03*
X-2900D03*
G54D23*
X-9600Y-105000D03*
X-18600Y83400D03*
G54D24*
X-43000Y-17500D03*
X-25000D03*
X-5000Y-6500D03*
X13000D03*
X-43000Y-2500D03*
X-25000D03*
X-5000Y8500D03*
X13000D03*
G54D25*
X-46300Y-78000D03*
X-31300D03*
X-11500D03*
X3500D03*
X33000Y14200D03*
X48000D03*
X33000Y40000D03*
X48000D03*
X-42300Y113000D03*
X-27300D03*
X0400D03*
X15400D03*
G54D26*
X-15500Y-189000D03*
X15500D03*
M02*
