G71*
G90*
G04 Quadcept GERBER*
%MOMM*%
%FSLAX44Y44*%
%ADD10C,0.1*%
%ADD11C,0.15*%
%ADD12C,0.2*%
%ADD13C,0.25*%
%ADD14C,0.3*%
%ADD15C,0.35*%
%ADD16C,0.5*%
%ADD17C,0.6*%
%ADD18C,2*%
%ADD19R,0.6X0.6*%
%ADD20O,1X1.8*%
%AMT21*0 Rectangle 45*21,1,0.2,1.35,0,0,45*%
%ADD21T21*%
%AMT22*0 Rectangle 135*21,1,0.2,1.35,0,0,135*%
%ADD22T22*%
%AMT23*0 Rectangle 225*21,1,0.2,1.35,0,0,225*%
%ADD23T23*%
%AMT24*0 Rectangle 315*21,1,0.2,1.35,0,0,315*%
%ADD24T24*%
%ADD25R,0.3X2.3*%
%ADD26R,0.6X2.3*%
%ADD27R,0.8X0.9*%
%ADD28R,1.45X0.65*%
%ADD29R,1.45X0.65*%
%ADD30R,1.5X2*%
G75*
G36*
G01X-16263Y-35000D02*
G01X0000Y-51263D01*
G01X16263Y-35000D01*
G01X2828Y-21565D01*
G01X-2828Y-21565D01*
G01X-16263Y-35000D01*
G37*
G54D10*
G01X0500Y96700D02*
G01X-2186D01*
G01X-2264Y96711D01*
G01X-2579Y96700D01*
G01X-7000D01*
G01Y94694D01*
G01X-8591Y93700D01*
G01X-16409D01*
G01X-18000Y94694D01*
G01Y96700D01*
G01X-22421D01*
G01X-22736Y96711D01*
G01X-22814Y96700D01*
G01X-27339D01*
G01X-27572Y96717D01*
G01X-27732Y96700D01*
G01X-32000D01*
G01Y95461D01*
G01X-34901Y98362D01*
G01X-37497Y101601D01*
G01X-37535Y101656D01*
G01X-37660Y101805D01*
G01X-37865Y102060D01*
G01X-37946Y102131D01*
G01X-38243Y102428D01*
G01X-38644Y102765D01*
G01X-39073Y103065D01*
G01X-39527Y103327D01*
G01X-40002Y103549D01*
G01X-40494Y103728D01*
G01X-41000Y103863D01*
G01X-41516Y103954D01*
G01X-42038Y104000D01*
G01X-42562D01*
G01X-43084Y103954D01*
G01X-43600Y103863D01*
G01X-44106Y103728D01*
G01X-44598Y103549D01*
G01X-45073Y103327D01*
G01X-45500Y103081D01*
G01X-45527Y103065D01*
G01X-45956Y102765D01*
G01X-46357Y102428D01*
G01X-46728Y102057D01*
G01X-47065Y101656D01*
G01X-47365Y101227D01*
G01X-47604Y100813D01*
G01X-47653Y100739D01*
G01X-47775Y100457D01*
G01X-47849Y100298D01*
G01X-47878Y100217D01*
G01X-49384Y96727D01*
G01X-52227Y93884D01*
G01X-62648Y104305D01*
G01X-62761Y104439D01*
G01X-62817Y104486D01*
G01X-64295Y107000D01*
G01X-64967Y108144D01*
G01X-65225Y108592D01*
G01X-65877Y109521D01*
G01X-66606Y110391D01*
G01X-67409Y111194D01*
G01X-68279Y111923D01*
G01X-69208Y112575D01*
G01X-70192Y113142D01*
G01X-71220Y113622D01*
G01X-72287Y114010D01*
G01X-73369Y114300D01*
G01X-72287Y114590D01*
G01X-71220Y114978D01*
G01X-70192Y115458D01*
G01X-69208Y116025D01*
G01X-68279Y116677D01*
G01X-67409Y117406D01*
G01X-66606Y118209D01*
G01X-65877Y119079D01*
G01X-65225Y120008D01*
G01X-64658Y120992D01*
G01X-64178Y122020D01*
G01X-63790Y123087D01*
G01X-63496Y124184D01*
G01X-63299Y125302D01*
G01X-63200Y126432D01*
G01Y127568D01*
G01X-63299Y128698D01*
G01X-63496Y129816D01*
G01X-63790Y130913D01*
G01X-64178Y131980D01*
G01X-64658Y133008D01*
G01X-65225Y133992D01*
G01X-65877Y134921D01*
G01X-66606Y135791D01*
G01X-67409Y136594D01*
G01X-68279Y137323D01*
G01X-69208Y137975D01*
G01X-70192Y138542D01*
G01X-71220Y139022D01*
G01X-72287Y139410D01*
G01X-73369Y139700D01*
G01X-72287Y139990D01*
G01X-71220Y140378D01*
G01X-70192Y140858D01*
G01X-69208Y141425D01*
G01X-68279Y142077D01*
G01X-67409Y142806D01*
G01X-66606Y143609D01*
G01X-65877Y144479D01*
G01X-65225Y145408D01*
G01X-64658Y146392D01*
G01X-64178Y147420D01*
G01X-63790Y148487D01*
G01X-63496Y149584D01*
G01X-63299Y150702D01*
G01X-63200Y151832D01*
G01Y152968D01*
G01X-63299Y154098D01*
G01X-63496Y155216D01*
G01X-63790Y156313D01*
G01X-64178Y157380D01*
G01X-64658Y158408D01*
G01X-65225Y159392D01*
G01X-65586Y159907D01*
G01X-64039Y159324D01*
G01X-63489Y158774D01*
G01X-63349Y158624D01*
G01X-63313Y158598D01*
G01X-63266Y158550D01*
G01X-63015Y158375D01*
G01X-61911Y157550D01*
G01X-60428Y156067D01*
G01Y116106D01*
G01X-60444Y115931D01*
G01X-60428Y115756D01*
G01Y115581D01*
G01X-60398Y115408D01*
G01X-60383Y115234D01*
G01X-60337Y115064D01*
G01X-60307Y114892D01*
G01X-60247Y114727D01*
G01X-60202Y114558D01*
G01X-60128Y114399D01*
G01X-60068Y114234D01*
G01X-59980Y114082D01*
G01X-59906Y113923D01*
G01X-59805Y113780D01*
G01X-59718Y113628D01*
G01X-59605Y113494D01*
G01X-59504Y113350D01*
G01X-59380Y113226D01*
G01X-59268Y113092D01*
G01X-59133Y112979D01*
G01X-56131Y109976D01*
G01X-56018Y109842D01*
G01X-55884Y109729D01*
G01X-55760Y109605D01*
G01X-55616Y109505D01*
G01X-55482Y109392D01*
G01X-55330Y109304D01*
G01X-55186Y109204D01*
G01X-55027Y109130D01*
G01X-54876Y109042D01*
G01X-54711Y108982D01*
G01X-54552Y108908D01*
G01X-54383Y108863D01*
G01X-54218Y108803D01*
G01X-54045Y108772D01*
G01X-53876Y108727D01*
G01X-53701Y108712D01*
G01X-53529Y108681D01*
G01X-53353D01*
G01X-53179Y108666D01*
G01X-53004Y108681D01*
G01X-45500D01*
G01X0500D01*
G01X27190D01*
G01X28871Y107000D01*
G01X33250Y102621D01*
G01Y5049D01*
G01X33227Y5065D01*
G01X32773Y5327D01*
G01X32298Y5549D01*
G01X31806Y5728D01*
G01X31300Y5863D01*
G01X30784Y5954D01*
G01X30262Y6000D01*
G01X29738D01*
G01X29216Y5954D01*
G01X28700Y5863D01*
G01X28194Y5728D01*
G01X27702Y5549D01*
G01X27227Y5327D01*
G01X26773Y5065D01*
G01X26344Y4765D01*
G01X25943Y4428D01*
G01X25572Y4057D01*
G01X25235Y3656D01*
G01X24935Y3227D01*
G01X24933Y3223D01*
G01X24907Y3190D01*
G01X24770Y2942D01*
G01X24750Y2907D01*
G01Y18066D01*
G01X29898Y20500D01*
G01X33000D01*
G01Y24336D01*
G01X33015Y24521D01*
G01X33000Y24685D01*
G01Y28815D01*
G01X33015Y28979D01*
G01X33000Y29164D01*
G01Y33000D01*
G01X29898D01*
G01X23277Y36130D01*
G01X23227Y36180D01*
G01X21598Y40163D01*
G01X21549Y40298D01*
G01X21499Y40405D01*
G01X21421Y40595D01*
G01X21379Y40662D01*
G01X21327Y40773D01*
G01X21065Y41227D01*
G01X20765Y41656D01*
G01X20476Y42000D01*
G01X33000D01*
G01Y54500D01*
G01X12500D01*
G01Y42874D01*
G01X12344Y42765D01*
G01X11943Y42428D01*
G01X11572Y42057D01*
G01X11235Y41656D01*
G01X10935Y41227D01*
G01X10673Y40773D01*
G01X10451Y40298D01*
G01X10272Y39806D01*
G01X10137Y39300D01*
G01X10046Y38784D01*
G01X10000Y38262D01*
G01Y37738D01*
G01X10007Y37654D01*
G01X9806Y37728D01*
G01X9300Y37863D01*
G01X8784Y37954D01*
G01X8262Y38000D01*
G01X7738D01*
G01X7216Y37954D01*
G01X6700Y37863D01*
G01X6194Y37728D01*
G01X5702Y37549D01*
G01X5227Y37327D01*
G01X4773Y37065D01*
G01X4344Y36765D01*
G01X3943Y36428D01*
G01X3572Y36057D01*
G01X3235Y35656D01*
G01X2935Y35227D01*
G01X2673Y34773D01*
G01X2451Y34298D01*
G01X2272Y33806D01*
G01X2137Y33300D01*
G01X2046Y32784D01*
G01X2000Y32262D01*
G01Y31738D01*
G01X2046Y31216D01*
G01X2137Y30700D01*
G01X2272Y30194D01*
G01X2451Y29702D01*
G01X2673Y29227D01*
G01X2935Y28773D01*
G01X3022Y28649D01*
G01X2806Y28728D01*
G01X2300Y28863D01*
G01X1784Y28954D01*
G01X1262Y29000D01*
G01X0738D01*
G01X0500Y28979D01*
G01X0216Y28954D01*
G01X-0300Y28863D01*
G01X-0806Y28728D01*
G01X-1298Y28549D01*
G01X-1773Y28327D01*
G01X-2227Y28065D01*
G01X-2656Y27765D01*
G01X-3057Y27428D01*
G01X-3428Y27057D01*
G01X-3765Y26656D01*
G01X-4065Y26227D01*
G01X-4327Y25773D01*
G01X-4549Y25298D01*
G01X-4617Y25109D01*
G01X-4658Y25028D01*
G01X-4703Y24874D01*
G01X-4728Y24806D01*
G01X-4777Y24623D01*
G01X-5918Y20738D01*
G01X-13000Y13657D01*
G01Y15825D01*
G01X-12985Y16000D01*
G01X-13000Y16175D01*
G01Y16350D01*
G01X-13030Y16523D01*
G01X-13046Y16697D01*
G01X-13091Y16867D01*
G01X-13122Y17039D01*
G01X-13181Y17204D01*
G01X-13227Y17373D01*
G01X-13301Y17532D01*
G01X-13361Y17697D01*
G01X-13449Y17849D01*
G01X-13523Y18008D01*
G01X-13623Y18151D01*
G01X-13711Y18303D01*
G01X-13824Y18437D01*
G01X-13924Y18581D01*
G01X-14048Y18705D01*
G01X-14161Y18839D01*
G01X-14295Y18952D01*
G01X-15843Y20500D01*
G01X-12500D01*
G01Y33000D01*
G01X-33000D01*
G01Y24657D01*
G01X-35394Y27051D01*
G01X-36206Y28327D01*
G01X-36248Y28419D01*
G01X-36416Y28659D01*
G01X-36550Y28870D01*
G01X-36608Y28933D01*
G01X-36700Y29064D01*
G01X-36892Y29256D01*
G01Y32208D01*
G01X-35392D01*
G01Y36605D01*
G01X-35379Y36895D01*
G01X-35392Y36998D01*
G01Y43208D01*
G01Y44208D01*
G01Y55208D01*
G01X-45112D01*
G01Y88271D01*
G01X-42768Y90615D01*
G01X-41327Y91523D01*
G01X-40590Y91324D01*
G01X-35423Y86157D01*
G01X-35297Y86006D01*
G01X-35146Y85879D01*
G01X-35006Y85740D01*
G01X-34845Y85627D01*
G01X-34693Y85500D01*
G01X-34523Y85401D01*
G01X-34361Y85288D01*
G01X-34182Y85205D01*
G01X-34012Y85106D01*
G01X-33826Y85039D01*
G01X-33647Y84955D01*
G01X-33457Y84904D01*
G01X-33307Y84850D01*
G01X-32000Y83903D01*
G01Y81700D01*
G01Y71298D01*
G01X-32013Y71002D01*
G01X-32000Y70905D01*
G01Y66700D01*
G01X-30230D01*
G01X-29500Y65298D01*
G01Y54648D01*
G01X-29746Y54500D01*
G01X-33000D01*
G01Y50356D01*
G01X-33006Y50318D01*
G01X-33000Y49962D01*
G01Y42000D01*
G01X-12500D01*
G01Y49757D01*
G01X-12484Y49906D01*
G01X-12500Y50150D01*
G01Y54500D01*
G01X-16360D01*
G01X-20500Y55702D01*
G01Y65298D01*
G01X-19770Y66700D01*
G01X-18000D01*
G01Y70905D01*
G01X-17987Y71002D01*
G01X-18000Y71298D01*
G01Y81700D01*
G01Y83706D01*
G01X-16409Y84700D01*
G01X-8591D01*
G01X-7000Y83706D01*
G01Y81700D01*
G01Y66700D01*
G01X0500D01*
G01X2186D01*
G01X2264Y66689D01*
G01X2579Y66700D01*
G01X7000D01*
G01Y68706D01*
G01X8591Y69700D01*
G01X16409D01*
G01X18000Y68706D01*
G01Y66700D01*
G01X22421D01*
G01X22736Y66689D01*
G01X22814Y66700D01*
G01X32000D01*
G01Y81700D01*
G01Y96700D01*
G01X18000D01*
G01Y81700D01*
G01Y79694D01*
G01X16409Y78700D01*
G01X8591D01*
G01X7000Y79694D01*
G01Y81700D01*
G01Y96700D01*
G01X0500D01*
G01X25000Y4257D02*
G01X25521D01*
G01X25000Y5157D02*
G01X26682D01*
G01X25000Y6057D02*
G01X33000D01*
G01Y6957D01*
G01X25000D01*
G01Y7857D01*
G01X33000D01*
G01Y8757D01*
G01X25000D01*
G01Y9657D01*
G01X33000D01*
G01Y10557D01*
G01X25000D01*
G01Y11457D01*
G01X33000D01*
G01Y12357D01*
G01X25000D01*
G01Y13257D01*
G01X33000D01*
G01Y14157D01*
G01X25000D01*
G01Y15057D01*
G01X33000D01*
G01Y15957D01*
G01X25000D01*
G01Y16857D01*
G01X33000D01*
G01Y17757D01*
G01X25000D01*
G01X-12750Y15057D02*
G01X-11850D01*
G01X-12739Y15957D02*
G01X-10950D01*
G01X-12838Y16857D02*
G01X-10050D01*
G01X-13145Y17757D02*
G01X-9150D01*
G01X-13750Y18657D02*
G01X-8250D01*
G01X26249Y18657D02*
G01X33000D01*
G01X-14650Y19557D02*
G01X-7350D01*
G01X28152Y19557D02*
G01X33000D01*
G01X-15550Y20457D02*
G01X-6450D01*
G01X30056Y20457D02*
G01X33000D01*
G01X-12250Y21357D02*
G01X-5987D01*
G01X-12250Y22257D02*
G01X-5722D01*
G01X-12250Y23157D02*
G01X-5458D01*
G01X-12250Y24057D02*
G01X-5193D01*
G01X-12250Y24957D02*
G01X-4929D01*
G01X-33950Y25857D02*
G01X-33250D01*
G01X-12250Y25857D02*
G01X-4529D01*
G01X-34850Y26757D02*
G01X-33250D01*
G01X-12250Y26757D02*
G01X-3930D01*
G01X-35529Y27657D02*
G01X-33250D01*
G01X-12250Y27657D02*
G01X-3035D01*
G01X-36095Y28557D02*
G01X-33250D01*
G01X-12250Y28557D02*
G01X-1526D01*
G01X-36642Y29457D02*
G01X-33250D01*
G01Y30357D01*
G01X-36642D01*
G01Y31257D01*
G01X-33250D01*
G01Y32157D01*
G01X-36642D01*
G01X-12250Y29457D02*
G01X2316D01*
G01X-12250Y30357D02*
G01X1979D01*
G01X-12250Y31257D02*
G01X1792D01*
G01X-12250Y32157D02*
G01X1750D01*
G01X-35142Y33057D02*
G01X1844D01*
G01X30028Y33057D02*
G01X33000D01*
G01X-35142Y33957D02*
G01X2077D01*
G01X28124Y33957D02*
G01X33000D01*
G01X-35142Y34857D02*
G01X2471D01*
G01X26220Y34857D02*
G01X33000D01*
G01X-35142Y35757D02*
G01X3070D01*
G01X24316Y35757D02*
G01X33000D01*
G01X-35140Y36657D02*
G01X3965D01*
G01X23282Y36657D02*
G01X33000D01*
G01X-35142Y37557D02*
G01X5474D01*
G01X22914Y37557D02*
G01X33000D01*
G01X-35142Y38457D02*
G01X9767D01*
G01X22546Y38457D02*
G01X33000D01*
G01X-35142Y39357D02*
G01X9902D01*
G01X22178Y39357D02*
G01X33000D01*
G01X-35142Y40257D02*
G01X10186D01*
G01X21814Y40257D02*
G01X33000D01*
G01X-35142Y41157D02*
G01X10644D01*
G01X21356Y41157D02*
G01X33000D01*
G01X-35142Y42059D02*
G01X-33250D01*
G01Y42959D01*
G01X-35142D01*
G01Y43859D01*
G01X-33250D01*
G01Y44759D01*
G01X-35142D01*
G01Y45659D01*
G01X-33250D01*
G01Y46559D01*
G01X-35142D01*
G01Y47459D01*
G01X-33250D01*
G01Y48359D01*
G01X-35142D01*
G01Y49259D01*
G01X-33250D01*
G01X-33250Y51059D02*
G01X-35142D01*
G01Y51959D01*
G01X-33250D01*
G01Y52859D01*
G01X-35142D01*
G01Y53759D01*
G01X-33250D01*
G01X-12250Y42059D02*
G01X11323D01*
G01X-12250Y42959D02*
G01X12250D01*
G01Y43859D01*
G01X-12250D01*
G01Y44759D01*
G01X12250D01*
G01Y45659D01*
G01X-12250D01*
G01Y46559D01*
G01X12250D01*
G01Y47459D01*
G01X-12250D01*
G01Y48359D01*
G01X12250D01*
G01Y49259D01*
G01X-12250D01*
G01Y50159D01*
G01X12250D01*
G01Y51059D01*
G01X-12250D01*
G01Y51959D01*
G01X12250D01*
G01Y52859D01*
G01X-12250D01*
G01Y53759D01*
G01X12250D01*
G01X-35142Y50159D02*
G01X-33253D01*
G01X-35142Y54659D02*
G01X-29750D01*
G01X-16657Y54659D02*
G01X33000D01*
G01X-44862Y55559D02*
G01X-29750D01*
G01Y56459D01*
G01X-44862D01*
G01Y57359D01*
G01X-29750D01*
G01Y58259D01*
G01X-44862D01*
G01Y59159D01*
G01X-29750D01*
G01Y60059D01*
G01X-44862D01*
G01Y60959D01*
G01X-29750D01*
G01Y61859D01*
G01X-44862D01*
G01Y62759D01*
G01X-29750D01*
G01Y63659D01*
G01X-44862D01*
G01Y64559D01*
G01X-29750D01*
G01X-19757Y55559D02*
G01X33000D01*
G01X-20250Y56459D02*
G01X33000D01*
G01Y57359D01*
G01X-20250D01*
G01Y58259D01*
G01X33000D01*
G01Y59159D01*
G01X-20250D01*
G01Y60059D01*
G01X33000D01*
G01Y60959D01*
G01X-20250D01*
G01Y61859D01*
G01X33000D01*
G01Y62759D01*
G01X-20250D01*
G01Y63659D01*
G01X33000D01*
G01Y64559D01*
G01X-20250D01*
G01X-44862Y65459D02*
G01X-29834D01*
G01X-20166Y65459D02*
G01X33000D01*
G01X-44862Y66359D02*
G01X-30302D01*
G01X-19698Y66359D02*
G01X33000D01*
G01X-44862Y67259D02*
G01X-32250D01*
G01Y68159D01*
G01X-44862D01*
G01Y69059D01*
G01X-32250D01*
G01Y69959D01*
G01X-44862D01*
G01Y70859D01*
G01X-32250D01*
G01Y71759D01*
G01X-44862D01*
G01Y72659D01*
G01X-32250D01*
G01Y73559D01*
G01X-44862D01*
G01Y74459D01*
G01X-32250D01*
G01Y75359D01*
G01X-44862D01*
G01Y76259D01*
G01X-32250D01*
G01Y77159D01*
G01X-44862D01*
G01Y78059D01*
G01X-32250D01*
G01Y78959D01*
G01X-44862D01*
G01Y79859D01*
G01X-32250D01*
G01Y80759D01*
G01X-44862D01*
G01Y81659D01*
G01X-32250D01*
G01Y82559D01*
G01X-44862D01*
G01Y83459D01*
G01X-32250D01*
G01X-17750Y67259D02*
G01X-7250D01*
G01Y68159D01*
G01X-17750D01*
G01Y69059D01*
G01X-7250D01*
G01Y69959D01*
G01X-17750D01*
G01Y70859D01*
G01X-7250D01*
G01Y71759D01*
G01X-17750D01*
G01Y72659D01*
G01X-7250D01*
G01Y73559D01*
G01X-17750D01*
G01Y74459D01*
G01X-7250D01*
G01Y75359D01*
G01X-17750D01*
G01Y76259D01*
G01X-7250D01*
G01Y77159D01*
G01X-17750D01*
G01Y78059D01*
G01X-7250D01*
G01Y78959D01*
G01X-17750D01*
G01Y79859D01*
G01X-7250D01*
G01Y80759D01*
G01X-17750D01*
G01Y81659D01*
G01X-7250D01*
G01Y82559D01*
G01X-17750D01*
G01Y83459D01*
G01X-7250D01*
G01X-7250Y95159D02*
G01X-17750D01*
G01Y96059D01*
G01X-7250D01*
G01X7250Y67259D02*
G01X17750D01*
G01Y68159D01*
G01X7250D01*
G01X7250Y79859D02*
G01X17750D01*
G01Y80759D01*
G01X7250D01*
G01Y81659D01*
G01X17750D01*
G01Y82559D01*
G01X7250D01*
G01Y83459D01*
G01X17750D01*
G01Y84359D01*
G01X7250D01*
G01Y85259D01*
G01X17750D01*
G01Y86159D01*
G01X7250D01*
G01Y87059D01*
G01X17750D01*
G01Y87959D01*
G01X7250D01*
G01Y88859D01*
G01X17750D01*
G01Y89759D01*
G01X7250D01*
G01Y90659D01*
G01X17750D01*
G01Y91559D01*
G01X7250D01*
G01Y92459D01*
G01X17750D01*
G01Y93359D01*
G01X7250D01*
G01Y94259D01*
G01X17750D01*
G01Y95159D01*
G01X7250D01*
G01Y96059D01*
G01X17750D01*
G01X32250Y67259D02*
G01X33000D01*
G01Y68159D01*
G01X32250D01*
G01Y69059D01*
G01X33000D01*
G01Y69959D01*
G01X32250D01*
G01Y70859D01*
G01X33000D01*
G01Y71759D01*
G01X32250D01*
G01Y72659D01*
G01X33000D01*
G01Y73559D01*
G01X32250D01*
G01Y74459D01*
G01X33000D01*
G01Y75359D01*
G01X32250D01*
G01Y76259D01*
G01X33000D01*
G01Y77159D01*
G01X32250D01*
G01Y78059D01*
G01X33000D01*
G01Y78959D01*
G01X32250D01*
G01Y79859D01*
G01X33000D01*
G01Y80759D01*
G01X32250D01*
G01Y81659D01*
G01X33000D01*
G01Y82559D01*
G01X32250D01*
G01Y83459D01*
G01X33000D01*
G01Y84359D01*
G01X32250D01*
G01Y85259D01*
G01X33000D01*
G01Y86159D01*
G01X32250D01*
G01Y87059D01*
G01X33000D01*
G01Y87959D01*
G01X32250D01*
G01Y88859D01*
G01X33000D01*
G01Y89759D01*
G01X32250D01*
G01Y90659D01*
G01X33000D01*
G01Y91559D01*
G01X32250D01*
G01Y92459D01*
G01X33000D01*
G01Y93359D01*
G01X32250D01*
G01Y94259D01*
G01X33000D01*
G01Y95159D01*
G01X32250D01*
G01Y96059D01*
G01X33000D01*
G01X7815Y69059D02*
G01X17185D01*
G01X8427Y78959D02*
G01X16573D01*
G01X-44862Y84359D02*
G01X-32879D01*
G01X-16705Y84359D02*
G01X-8295D01*
G01X-44862Y85259D02*
G01X-34548D01*
G01X-44862Y86159D02*
G01X-35675D01*
G01X-44862Y87059D02*
G01X-36575D01*
G01X-44862Y87959D02*
G01X-37475D01*
G01X-44275Y88859D02*
G01X-38375D01*
G01X-43375Y89759D02*
G01X-39275D01*
G01X-42449Y90659D02*
G01X-40175D01*
G01X-52352Y94259D02*
G01X-52103D01*
G01X-17053Y94259D02*
G01X-7947D01*
G01X-53252Y95159D02*
G01X-51203D01*
G01X-54152Y96059D02*
G01X-50303D01*
G01X-32347Y96059D02*
G01X-32250D01*
G01X-55052Y96959D02*
G01X-49534D01*
G01X-33247Y96959D02*
G01X33000D01*
G01X-55952Y97859D02*
G01X-49146D01*
G01X-34147Y97859D02*
G01X33000D01*
G01X-56852Y98759D02*
G01X-48757D01*
G01X-34969Y98759D02*
G01X33000D01*
G01X-57752Y99659D02*
G01X-48369D01*
G01X-35690Y99659D02*
G01X33000D01*
G01X-58652Y100559D02*
G01X-47981D01*
G01X-36411Y100559D02*
G01X33000D01*
G01X-59552Y101459D02*
G01X-47453D01*
G01X-37133Y101459D02*
G01X33000D01*
G01X-60452Y102359D02*
G01X-46677D01*
G01X-37923Y102359D02*
G01X33000D01*
G01X-61352Y103259D02*
G01X-45442D01*
G01X-39158Y103259D02*
G01X32363D01*
G01X-62252Y104159D02*
G01X31463D01*
G01X-62903Y105059D02*
G01X30563D01*
G01X-63432Y105959D02*
G01X29663D01*
G01X-63961Y106859D02*
G01X28763D01*
G01X-64491Y107759D02*
G01X27863D01*
G01X-65023Y108659D02*
G01X26963D01*
G01X-65658Y109559D02*
G01X-55943D01*
G01X-66424Y110459D02*
G01X-56863D01*
G01X-67356Y111359D02*
G01X-57763D01*
G01X-68507Y112259D02*
G01X-58663D01*
G01X-69977Y113159D02*
G01X-59574D01*
G01X-72218Y114059D02*
G01X-60219D01*
G01X-71024Y114959D02*
G01X-60569D01*
G01X-69247Y115859D02*
G01X-60687D01*
G01X-67931Y116759D02*
G01X-60678D01*
G01X-66906Y117659D02*
G01X-60678D01*
G01X-66063Y118559D02*
G01X-60678D01*
G01X-65360Y119459D02*
G01X-60678D01*
G01X-64773Y120359D02*
G01X-60678D01*
G01X-64283Y121259D02*
G01X-60678D01*
G01X-63878Y122159D02*
G01X-60678D01*
G01X-63550Y123059D02*
G01X-60678D01*
G01X-63306Y123959D02*
G01X-60678D01*
G01X-63127Y124859D02*
G01X-60678D01*
G01X-63009Y125759D02*
G01X-60678D01*
G01X-62950Y126659D02*
G01X-60678D01*
G01Y127559D01*
G01X-62950D01*
G01X-62950Y151859D02*
G01X-60678D01*
G01Y152759D01*
G01X-62950D01*
G01X-63028Y128459D02*
G01X-60678D01*
G01X-63165Y129359D02*
G01X-60678D01*
G01X-63365Y130259D02*
G01X-60678D01*
G01X-63629Y131159D02*
G01X-60678D01*
G01X-63965Y132059D02*
G01X-60678D01*
G01X-64385Y132959D02*
G01X-60678D01*
G01X-64899Y133859D02*
G01X-60678D01*
G01X-65513Y134759D02*
G01X-60678D01*
G01X-66245Y135659D02*
G01X-60678D01*
G01X-67124Y136559D02*
G01X-60678D01*
G01X-68222Y137459D02*
G01X-60678D01*
G01X-69624Y138359D02*
G01X-60678D01*
G01X-71621Y139259D02*
G01X-60678D01*
G01X-71573Y140159D02*
G01X-60678D01*
G01X-69594Y141059D02*
G01X-60678D01*
G01X-68197Y141959D02*
G01X-60678D01*
G01X-67106Y142859D02*
G01X-60678D01*
G01X-66231Y143759D02*
G01X-60678D01*
G01X-65500Y144659D02*
G01X-60678D01*
G01X-64889Y145559D02*
G01X-60678D01*
G01X-64377Y146459D02*
G01X-60678D01*
G01X-63957Y147359D02*
G01X-60678D01*
G01X-63623Y148259D02*
G01X-60678D01*
G01X-63360Y149159D02*
G01X-60678D01*
G01X-63162Y150059D02*
G01X-60678D01*
G01X-63026Y150959D02*
G01X-60678D01*
G01X-63010Y153659D02*
G01X-60678D01*
G01X-63130Y154559D02*
G01X-60678D01*
G01X-63311Y155459D02*
G01X-60678D01*
G01X-63557Y156359D02*
G01X-60970D01*
G01X-63884Y157259D02*
G01X-61870D01*
G01X-64291Y158159D02*
G01X-62976D01*
G01X-64783Y159059D02*
G01X-64024D01*
G01X0500Y-215500D02*
G01X-45500D01*
G01X-91500D01*
G01Y-108000D01*
G01Y-0500D01*
G01Y107000D01*
G01Y214500D01*
G01X-45500D01*
G01X0500D01*
G01X46500D01*
G01X92500D01*
G01Y107000D01*
G01Y-0500D01*
G01Y-108000D01*
G01Y-215500D01*
G01X46500D01*
G01X0500D01*
G01X0500Y116681D02*
G01X28673D01*
G01X28847Y116696D01*
G01X29022Y116681D01*
G01X29197D01*
G01X29370Y116651D01*
G01X29544Y116635D01*
G01X29714Y116590D01*
G01X29886Y116560D01*
G01X30051Y116500D01*
G01X30220Y116454D01*
G01X30379Y116380D01*
G01X30544Y116320D01*
G01X30696Y116232D01*
G01X30855Y116158D01*
G01X30998Y116058D01*
G01X31150Y115970D01*
G01X31285Y115857D01*
G01X31428Y115757D01*
G01X31552Y115633D01*
G01X31686Y115520D01*
G01X31799Y115386D01*
G01X40076Y107109D01*
G01X40152Y107000D01*
G01X40477Y106536D01*
G01X40773Y105902D01*
G01X40954Y105225D01*
G01X40984Y104883D01*
G01X40996Y104818D01*
G01Y104749D01*
G01X41015Y104528D01*
G01X40996Y104313D01*
G01X40997Y104162D01*
G01X40970Y104008D01*
G01X40954Y103831D01*
G01X40910Y103664D01*
G01X40750Y102753D01*
G01Y93053D01*
G01X42250Y94553D01*
G01Y107000D01*
G01Y143224D01*
G01X42060Y144308D01*
G01X42000Y144650D01*
G01Y164825D01*
G01X41985Y165000D01*
G01X42000Y165175D01*
G01Y165350D01*
G01X42030Y165523D01*
G01X42046Y165697D01*
G01X42091Y165867D01*
G01X42122Y166039D01*
G01X42181Y166204D01*
G01X42227Y166373D01*
G01X42301Y166532D01*
G01X42361Y166697D01*
G01X42449Y166849D01*
G01X42523Y167008D01*
G01X42623Y167151D01*
G01X42711Y167303D01*
G01X42824Y167437D01*
G01X42924Y167581D01*
G01X43048Y167705D01*
G01X43161Y167839D01*
G01X43295Y167952D01*
G01X46500Y171157D01*
G01X55848Y180505D01*
G01X55961Y180639D01*
G01X56095Y180752D01*
G01X56219Y180876D01*
G01X56363Y180976D01*
G01X56497Y181089D01*
G01X56649Y181177D01*
G01X56792Y181277D01*
G01X56951Y181351D01*
G01X57103Y181439D01*
G01X57268Y181499D01*
G01X57427Y181573D01*
G01X57596Y181619D01*
G01X57761Y181678D01*
G01X57933Y181709D01*
G01X58103Y181754D01*
G01X58277Y181770D01*
G01X58450Y181800D01*
G01X58458D01*
G01X68937Y188584D01*
G01X69208Y188775D01*
G01X69413Y188893D01*
G01X69429Y188903D01*
G01X69436Y188906D01*
G01X70192Y189342D01*
G01X71220Y189822D01*
G01X72287Y190210D01*
G01X73384Y190504D01*
G01X74502Y190701D01*
G01X75632Y190800D01*
G01X76768D01*
G01X77898Y190701D01*
G01X79016Y190504D01*
G01X80113Y190210D01*
G01X81180Y189822D01*
G01X82208Y189342D01*
G01X83192Y188775D01*
G01X84121Y188123D01*
G01X84991Y187394D01*
G01X85794Y186591D01*
G01X86523Y185721D01*
G01X87175Y184792D01*
G01X87742Y183808D01*
G01X88222Y182780D01*
G01X88610Y181713D01*
G01X88904Y180616D01*
G01X89101Y179498D01*
G01X89200Y178368D01*
G01Y177232D01*
G01X89101Y176102D01*
G01X88904Y174984D01*
G01X88610Y173887D01*
G01X88222Y172820D01*
G01X87742Y171792D01*
G01X87175Y170808D01*
G01X86523Y169879D01*
G01X85794Y169009D01*
G01X84991Y168206D01*
G01X84121Y167477D01*
G01X83192Y166825D01*
G01X82208Y166258D01*
G01X81180Y165778D01*
G01X80113Y165390D01*
G01X79031Y165100D01*
G01X80113Y164810D01*
G01X81180Y164422D01*
G01X82208Y163942D01*
G01X83192Y163375D01*
G01X84121Y162723D01*
G01X84991Y161994D01*
G01X85794Y161191D01*
G01X86523Y160321D01*
G01X87175Y159392D01*
G01X87742Y158408D01*
G01X88222Y157380D01*
G01X88610Y156313D01*
G01X88904Y155216D01*
G01X89101Y154098D01*
G01X89200Y152968D01*
G01Y151832D01*
G01X89101Y150702D01*
G01X88904Y149584D01*
G01X88610Y148487D01*
G01X88222Y147420D01*
G01X87742Y146392D01*
G01X87175Y145408D01*
G01X86523Y144479D01*
G01X85794Y143609D01*
G01X84991Y142806D01*
G01X84121Y142077D01*
G01X83192Y141425D01*
G01X82208Y140858D01*
G01X81180Y140378D01*
G01X80113Y139990D01*
G01X79031Y139700D01*
G01X80113Y139410D01*
G01X81180Y139022D01*
G01X82208Y138542D01*
G01X83192Y137975D01*
G01X84121Y137323D01*
G01X84991Y136594D01*
G01X85794Y135791D01*
G01X86523Y134921D01*
G01X87175Y133992D01*
G01X87742Y133008D01*
G01X88222Y131980D01*
G01X88610Y130913D01*
G01X88904Y129816D01*
G01X89101Y128698D01*
G01X89200Y127568D01*
G01Y126432D01*
G01X89101Y125302D01*
G01X88904Y124184D01*
G01X88610Y123087D01*
G01X88222Y122020D01*
G01X87742Y120992D01*
G01X87175Y120008D01*
G01X86523Y119079D01*
G01X85794Y118209D01*
G01X84991Y117406D01*
G01X84121Y116677D01*
G01X83192Y116025D01*
G01X82208Y115458D01*
G01X81180Y114978D01*
G01X80113Y114590D01*
G01X79031Y114300D01*
G01X80113Y114010D01*
G01X81180Y113622D01*
G01X82208Y113142D01*
G01X83192Y112575D01*
G01X84121Y111923D01*
G01X84991Y111194D01*
G01X85794Y110391D01*
G01X86523Y109521D01*
G01X87175Y108592D01*
G01X87742Y107608D01*
G01X88026Y107000D01*
G01X88222Y106580D01*
G01X88610Y105513D01*
G01X88904Y104416D01*
G01X89101Y103298D01*
G01X89200Y102168D01*
G01Y101032D01*
G01X89101Y99902D01*
G01X88904Y98784D01*
G01X88610Y97687D01*
G01X88222Y96620D01*
G01X87742Y95592D01*
G01X87175Y94608D01*
G01X86523Y93679D01*
G01X85794Y92809D01*
G01X84991Y92006D01*
G01X84121Y91277D01*
G01X83192Y90625D01*
G01X82208Y90058D01*
G01X81180Y89578D01*
G01X80113Y89190D01*
G01X79031Y88900D01*
G01X80113Y88610D01*
G01X81180Y88222D01*
G01X82208Y87742D01*
G01X83192Y87175D01*
G01X84121Y86523D01*
G01X84991Y85794D01*
G01X85794Y84991D01*
G01X86523Y84121D01*
G01X87175Y83192D01*
G01X87742Y82208D01*
G01X88222Y81180D01*
G01X88610Y80113D01*
G01X88904Y79016D01*
G01X89101Y77898D01*
G01X89200Y76768D01*
G01Y75632D01*
G01X89101Y74502D01*
G01X88904Y73384D01*
G01X88610Y72287D01*
G01X88222Y71220D01*
G01X87742Y70192D01*
G01X87175Y69208D01*
G01X86523Y68279D01*
G01X85794Y67409D01*
G01X84991Y66606D01*
G01X84121Y65877D01*
G01X83192Y65225D01*
G01X82208Y64658D01*
G01X81180Y64178D01*
G01X80113Y63790D01*
G01X79031Y63500D01*
G01X80113Y63210D01*
G01X81180Y62822D01*
G01X82208Y62342D01*
G01X83192Y61775D01*
G01X84121Y61123D01*
G01X84991Y60394D01*
G01X85794Y59591D01*
G01X86523Y58721D01*
G01X87175Y57792D01*
G01X87742Y56808D01*
G01X88222Y55780D01*
G01X88610Y54713D01*
G01X88904Y53616D01*
G01X89101Y52498D01*
G01X89200Y51368D01*
G01Y50232D01*
G01X89101Y49102D01*
G01X88904Y47984D01*
G01X88610Y46887D01*
G01X88222Y45820D01*
G01X87742Y44792D01*
G01X87175Y43808D01*
G01X86523Y42879D01*
G01X85794Y42009D01*
G01X84991Y41206D01*
G01X84121Y40477D01*
G01X83192Y39825D01*
G01X82208Y39258D01*
G01X81180Y38778D01*
G01X80113Y38390D01*
G01X79031Y38100D01*
G01X80113Y37810D01*
G01X81180Y37422D01*
G01X82208Y36942D01*
G01X83192Y36375D01*
G01X84121Y35723D01*
G01X84991Y34994D01*
G01X85794Y34191D01*
G01X86523Y33321D01*
G01X87175Y32392D01*
G01X87742Y31408D01*
G01X88222Y30380D01*
G01X88610Y29313D01*
G01X88904Y28216D01*
G01X89101Y27098D01*
G01X89200Y25968D01*
G01Y24832D01*
G01X89101Y23702D01*
G01X88904Y22584D01*
G01X88610Y21487D01*
G01X88222Y20420D01*
G01X87742Y19392D01*
G01X87175Y18408D01*
G01X86523Y17479D01*
G01X85794Y16609D01*
G01X84991Y15806D01*
G01X84121Y15077D01*
G01X83192Y14425D01*
G01X82208Y13858D01*
G01X81180Y13378D01*
G01X80906Y13279D01*
G01X80895Y13273D01*
G01X80606Y13169D01*
G01X80113Y12990D01*
G01X80072Y12979D01*
G01X79179Y12660D01*
G01X80113Y12410D01*
G01X81180Y12022D01*
G01X82208Y11542D01*
G01X83192Y10975D01*
G01X84121Y10323D01*
G01X84991Y9594D01*
G01X85794Y8791D01*
G01X86523Y7921D01*
G01X87175Y6992D01*
G01X87742Y6008D01*
G01X88222Y4980D01*
G01X88610Y3913D01*
G01X88904Y2816D01*
G01X89101Y1698D01*
G01X89200Y0568D01*
G01Y-0500D01*
G01Y-0568D01*
G01X89101Y-1698D01*
G01X88904Y-2816D01*
G01X88610Y-3913D01*
G01X88222Y-4980D01*
G01X87742Y-6008D01*
G01X87175Y-6992D01*
G01X86523Y-7921D01*
G01X85794Y-8791D01*
G01X84991Y-9594D01*
G01X84121Y-10323D01*
G01X83192Y-10975D01*
G01X82208Y-11542D01*
G01X81180Y-12022D01*
G01X80906Y-12121D01*
G01X80895Y-12127D01*
G01X80606Y-12231D01*
G01X80113Y-12410D01*
G01X80072Y-12421D01*
G01X79179Y-12740D01*
G01X80113Y-12990D01*
G01X81180Y-13378D01*
G01X82208Y-13858D01*
G01X83192Y-14425D01*
G01X84121Y-15077D01*
G01X84991Y-15806D01*
G01X85794Y-16609D01*
G01X86523Y-17479D01*
G01X87175Y-18408D01*
G01X87742Y-19392D01*
G01X88222Y-20420D01*
G01X88610Y-21487D01*
G01X88904Y-22584D01*
G01X89101Y-23702D01*
G01X89200Y-24832D01*
G01Y-25968D01*
G01X89101Y-27098D01*
G01X88904Y-28216D01*
G01X88610Y-29313D01*
G01X88222Y-30380D01*
G01X87742Y-31408D01*
G01X87175Y-32392D01*
G01X86523Y-33321D01*
G01X85794Y-34191D01*
G01X84991Y-34994D01*
G01X84121Y-35723D01*
G01X83192Y-36375D01*
G01X82208Y-36942D01*
G01X81180Y-37422D01*
G01X80113Y-37810D01*
G01X79031Y-38100D01*
G01X80113Y-38390D01*
G01X81180Y-38778D01*
G01X82208Y-39258D01*
G01X83192Y-39825D01*
G01X84121Y-40477D01*
G01X84991Y-41206D01*
G01X85794Y-42009D01*
G01X86523Y-42879D01*
G01X87175Y-43808D01*
G01X87742Y-44792D01*
G01X88222Y-45820D01*
G01X88610Y-46887D01*
G01X88904Y-47984D01*
G01X89101Y-49102D01*
G01X89200Y-50232D01*
G01Y-51368D01*
G01X89101Y-52498D01*
G01X88904Y-53616D01*
G01X88610Y-54713D01*
G01X88222Y-55780D01*
G01X87742Y-56808D01*
G01X87175Y-57792D01*
G01X86523Y-58721D01*
G01X85794Y-59591D01*
G01X84991Y-60394D01*
G01X84121Y-61123D01*
G01X83192Y-61775D01*
G01X82208Y-62342D01*
G01X81180Y-62822D01*
G01X80113Y-63210D01*
G01X79031Y-63500D01*
G01X80113Y-63790D01*
G01X81180Y-64178D01*
G01X82208Y-64658D01*
G01X83192Y-65225D01*
G01X84121Y-65877D01*
G01X84991Y-66606D01*
G01X85794Y-67409D01*
G01X86523Y-68279D01*
G01X87175Y-69208D01*
G01X87742Y-70192D01*
G01X88222Y-71220D01*
G01X88610Y-72287D01*
G01X88904Y-73384D01*
G01X89101Y-74502D01*
G01X89200Y-75632D01*
G01Y-76768D01*
G01X89101Y-77898D01*
G01X88904Y-79016D01*
G01X88610Y-80113D01*
G01X88222Y-81180D01*
G01X87742Y-82208D01*
G01X87175Y-83192D01*
G01X86523Y-84121D01*
G01X85794Y-84991D01*
G01X84991Y-85794D01*
G01X84121Y-86523D01*
G01X83192Y-87175D01*
G01X82208Y-87742D01*
G01X81180Y-88222D01*
G01X80113Y-88610D01*
G01X79031Y-88900D01*
G01X80113Y-89190D01*
G01X81180Y-89578D01*
G01X82208Y-90058D01*
G01X83192Y-90625D01*
G01X84121Y-91277D01*
G01X84991Y-92006D01*
G01X85794Y-92809D01*
G01X86523Y-93679D01*
G01X87175Y-94608D01*
G01X87742Y-95592D01*
G01X88222Y-96620D01*
G01X88610Y-97687D01*
G01X88904Y-98784D01*
G01X89101Y-99902D01*
G01X89200Y-101032D01*
G01Y-102168D01*
G01X89101Y-103298D01*
G01X88904Y-104416D01*
G01X88610Y-105513D01*
G01X88222Y-106580D01*
G01X87742Y-107608D01*
G01X87516Y-108000D01*
G01X87175Y-108592D01*
G01X86523Y-109521D01*
G01X85794Y-110391D01*
G01X84991Y-111194D01*
G01X84121Y-111923D01*
G01X83192Y-112575D01*
G01X82208Y-113142D01*
G01X81180Y-113622D01*
G01X80113Y-114010D01*
G01X79031Y-114300D01*
G01X80113Y-114590D01*
G01X81180Y-114978D01*
G01X82208Y-115458D01*
G01X83192Y-116025D01*
G01X84121Y-116677D01*
G01X84991Y-117406D01*
G01X85794Y-118209D01*
G01X86523Y-119079D01*
G01X87175Y-120008D01*
G01X87742Y-120992D01*
G01X88222Y-122020D01*
G01X88610Y-123087D01*
G01X88904Y-124184D01*
G01X89101Y-125302D01*
G01X89200Y-126432D01*
G01Y-127568D01*
G01X89101Y-128698D01*
G01X88904Y-129816D01*
G01X88610Y-130913D01*
G01X88222Y-131980D01*
G01X87742Y-133008D01*
G01X87175Y-133992D01*
G01X86523Y-134921D01*
G01X85794Y-135791D01*
G01X84991Y-136594D01*
G01X84121Y-137323D01*
G01X83192Y-137975D01*
G01X82208Y-138542D01*
G01X81180Y-139022D01*
G01X80113Y-139410D01*
G01X79031Y-139700D01*
G01X80113Y-139990D01*
G01X81180Y-140378D01*
G01X82208Y-140858D01*
G01X83192Y-141425D01*
G01X84121Y-142077D01*
G01X84991Y-142806D01*
G01X85794Y-143609D01*
G01X86523Y-144479D01*
G01X87175Y-145408D01*
G01X87742Y-146392D01*
G01X88222Y-147420D01*
G01X88610Y-148487D01*
G01X88904Y-149584D01*
G01X89101Y-150702D01*
G01X89200Y-151832D01*
G01Y-152968D01*
G01X89101Y-154098D01*
G01X88904Y-155216D01*
G01X88610Y-156313D01*
G01X88222Y-157380D01*
G01X87742Y-158408D01*
G01X87175Y-159392D01*
G01X86523Y-160321D01*
G01X85794Y-161191D01*
G01X84991Y-161994D01*
G01X84121Y-162723D01*
G01X83192Y-163375D01*
G01X82208Y-163942D01*
G01X81180Y-164422D01*
G01X80113Y-164810D01*
G01X79031Y-165100D01*
G01X80113Y-165390D01*
G01X81180Y-165778D01*
G01X82208Y-166258D01*
G01X83192Y-166825D01*
G01X84121Y-167477D01*
G01X84991Y-168206D01*
G01X85794Y-169009D01*
G01X86523Y-169879D01*
G01X87175Y-170808D01*
G01X87742Y-171792D01*
G01X88222Y-172820D01*
G01X88610Y-173887D01*
G01X88904Y-174984D01*
G01X89101Y-176102D01*
G01X89200Y-177232D01*
G01Y-178368D01*
G01X89101Y-179498D01*
G01X88904Y-180616D01*
G01X88610Y-181713D01*
G01X88222Y-182780D01*
G01X87742Y-183808D01*
G01X87175Y-184792D01*
G01X86523Y-185721D01*
G01X85794Y-186591D01*
G01X84991Y-187394D01*
G01X84121Y-188123D01*
G01X83192Y-188775D01*
G01X82208Y-189342D01*
G01X81180Y-189822D01*
G01X80113Y-190210D01*
G01X79016Y-190504D01*
G01X77898Y-190701D01*
G01X76768Y-190800D01*
G01X75632D01*
G01X74502Y-190701D01*
G01X73384Y-190504D01*
G01X72287Y-190210D01*
G01X71220Y-189822D01*
G01X70192Y-189342D01*
G01X69208Y-188775D01*
G01X68279Y-188123D01*
G01X67409Y-187394D01*
G01X66606Y-186591D01*
G01X65877Y-185721D01*
G01X65225Y-184792D01*
G01X64658Y-183808D01*
G01X64178Y-182780D01*
G01X63790Y-181713D01*
G01X63496Y-180616D01*
G01X63299Y-179498D01*
G01X63200Y-178368D01*
G01Y-177232D01*
G01X63299Y-176102D01*
G01X63496Y-174984D01*
G01X63790Y-173887D01*
G01X64178Y-172820D01*
G01X64658Y-171792D01*
G01X65225Y-170808D01*
G01X65877Y-169879D01*
G01X66606Y-169009D01*
G01X67409Y-168206D01*
G01X68279Y-167477D01*
G01X69208Y-166825D01*
G01X70192Y-166258D01*
G01X71220Y-165778D01*
G01X72287Y-165390D01*
G01X73369Y-165100D01*
G01X72287Y-164810D01*
G01X71220Y-164422D01*
G01X70192Y-163942D01*
G01X69208Y-163375D01*
G01X68279Y-162723D01*
G01X67409Y-161994D01*
G01X66606Y-161191D01*
G01X65877Y-160321D01*
G01X65225Y-159392D01*
G01X64658Y-158408D01*
G01X64178Y-157380D01*
G01X63790Y-156313D01*
G01X63496Y-155216D01*
G01X63299Y-154098D01*
G01X63200Y-152968D01*
G01Y-151832D01*
G01X63299Y-150702D01*
G01X63496Y-149584D01*
G01X63790Y-148487D01*
G01X64178Y-147420D01*
G01X64658Y-146392D01*
G01X65225Y-145408D01*
G01X65877Y-144479D01*
G01X66606Y-143609D01*
G01X67409Y-142806D01*
G01X68279Y-142077D01*
G01X69208Y-141425D01*
G01X70192Y-140858D01*
G01X71220Y-140378D01*
G01X72287Y-139990D01*
G01X73369Y-139700D01*
G01X72287Y-139410D01*
G01X71220Y-139022D01*
G01X70192Y-138542D01*
G01X69208Y-137975D01*
G01X68279Y-137323D01*
G01X67409Y-136594D01*
G01X67227Y-136411D01*
G01X67224Y-136410D01*
G01X67000Y-136185D01*
G01X66606Y-135791D01*
G01X66599Y-135783D01*
G01X55603Y-124750D01*
G01X53053D01*
G01X58536Y-130233D01*
G01X58662Y-130338D01*
G01X58767Y-130464D01*
G01X58884Y-130580D01*
G01X58978Y-130715D01*
G01X59084Y-130841D01*
G01X59166Y-130983D01*
G01X59260Y-131118D01*
G01X59329Y-131267D01*
G01X59412Y-131409D01*
G01X59468Y-131564D01*
G01X59537Y-131713D01*
G01X59580Y-131871D01*
G01X59636Y-132026D01*
G01X59665Y-132188D01*
G01X59707Y-132346D01*
G01X59721Y-132510D01*
G01X59750Y-132672D01*
G01Y-132836D01*
G01X59764Y-133000D01*
G01X59750Y-133164D01*
G01Y-161836D01*
G01X59764Y-162000D01*
G01X59750Y-162164D01*
G01Y-162328D01*
G01X59721Y-162490D01*
G01X59707Y-162654D01*
G01X59665Y-162812D01*
G01X59636Y-162974D01*
G01X59580Y-163129D01*
G01X59537Y-163287D01*
G01X59468Y-163436D01*
G01X59412Y-163591D01*
G01X59329Y-163733D01*
G01X59260Y-163882D01*
G01X59166Y-164017D01*
G01X59084Y-164159D01*
G01X58978Y-164285D01*
G01X58884Y-164420D01*
G01X58767Y-164536D01*
G01X58662Y-164662D01*
G01X58536Y-164767D01*
G01X47767Y-175536D01*
G01X47662Y-175662D01*
G01X47536Y-175767D01*
G01X47420Y-175884D01*
G01X47285Y-175978D01*
G01X47159Y-176084D01*
G01X47017Y-176166D01*
G01X46882Y-176260D01*
G01X46733Y-176329D01*
G01X46591Y-176412D01*
G01X46500Y-176445D01*
G01X46436Y-176468D01*
G01X46287Y-176537D01*
G01X46129Y-176580D01*
G01X45974Y-176636D01*
G01X45812Y-176665D01*
G01X45654Y-176707D01*
G01X45490Y-176721D01*
G01X45328Y-176750D01*
G01X45164D01*
G01X45000Y-176764D01*
G01X44836Y-176750D01*
G01X0500D01*
G01X-45500D01*
G01X-45836D01*
G01X-46000Y-176764D01*
G01X-46164Y-176750D01*
G01X-46328D01*
G01X-46490Y-176721D01*
G01X-46654Y-176707D01*
G01X-46812Y-176665D01*
G01X-46974Y-176636D01*
G01X-47129Y-176580D01*
G01X-47287Y-176537D01*
G01X-47436Y-176468D01*
G01X-47591Y-176412D01*
G01X-47733Y-176329D01*
G01X-47882Y-176260D01*
G01X-48017Y-176166D01*
G01X-48159Y-176084D01*
G01X-48285Y-175978D01*
G01X-48420Y-175884D01*
G01X-48536Y-175767D01*
G01X-48662Y-175662D01*
G01X-48767Y-175536D01*
G01X-58536Y-165767D01*
G01X-58662Y-165662D01*
G01X-58767Y-165536D01*
G01X-58884Y-165420D01*
G01X-58978Y-165285D01*
G01X-59084Y-165159D01*
G01X-59166Y-165017D01*
G01X-59260Y-164882D01*
G01X-59329Y-164733D01*
G01X-59412Y-164591D01*
G01X-59468Y-164436D01*
G01X-59537Y-164287D01*
G01X-59580Y-164129D01*
G01X-59636Y-163974D01*
G01X-59665Y-163812D01*
G01X-59707Y-163654D01*
G01X-59721Y-163490D01*
G01X-59750Y-163328D01*
G01Y-163164D01*
G01X-59764Y-163000D01*
G01X-59750Y-162836D01*
G01Y-150553D01*
G01X-64262Y-146041D01*
G01X-65049Y-145714D01*
G01X-64658Y-146392D01*
G01X-64178Y-147420D01*
G01X-63790Y-148487D01*
G01X-63496Y-149584D01*
G01X-63299Y-150702D01*
G01X-63200Y-151832D01*
G01Y-152968D01*
G01X-63299Y-154098D01*
G01X-63496Y-155216D01*
G01X-63790Y-156313D01*
G01X-64178Y-157380D01*
G01X-64658Y-158408D01*
G01X-65225Y-159392D01*
G01X-65877Y-160321D01*
G01X-66606Y-161191D01*
G01X-67409Y-161994D01*
G01X-68279Y-162723D01*
G01X-69208Y-163375D01*
G01X-70192Y-163942D01*
G01X-71220Y-164422D01*
G01X-72287Y-164810D01*
G01X-73369Y-165100D01*
G01X-72287Y-165390D01*
G01X-71220Y-165778D01*
G01X-70192Y-166258D01*
G01X-69208Y-166825D01*
G01X-68279Y-167477D01*
G01X-67409Y-168206D01*
G01X-66606Y-169009D01*
G01X-65877Y-169879D01*
G01X-65225Y-170808D01*
G01X-64658Y-171792D01*
G01X-64178Y-172820D01*
G01X-63790Y-173887D01*
G01X-63496Y-174984D01*
G01X-63299Y-176102D01*
G01X-63200Y-177232D01*
G01Y-178368D01*
G01X-63299Y-179498D01*
G01X-63496Y-180616D01*
G01X-63790Y-181713D01*
G01X-64178Y-182780D01*
G01X-64658Y-183808D01*
G01X-65225Y-184792D01*
G01X-65877Y-185721D01*
G01X-66606Y-186591D01*
G01X-67409Y-187394D01*
G01X-68279Y-188123D01*
G01X-69208Y-188775D01*
G01X-70192Y-189342D01*
G01X-71220Y-189822D01*
G01X-72287Y-190210D01*
G01X-73384Y-190504D01*
G01X-74502Y-190701D01*
G01X-75632Y-190800D01*
G01X-76768D01*
G01X-77898Y-190701D01*
G01X-79016Y-190504D01*
G01X-80113Y-190210D01*
G01X-81180Y-189822D01*
G01X-82208Y-189342D01*
G01X-83192Y-188775D01*
G01X-84121Y-188123D01*
G01X-84991Y-187394D01*
G01X-85794Y-186591D01*
G01X-86523Y-185721D01*
G01X-87175Y-184792D01*
G01X-87742Y-183808D01*
G01X-88222Y-182780D01*
G01X-88610Y-181713D01*
G01X-88904Y-180616D01*
G01X-89101Y-179498D01*
G01X-89200Y-178368D01*
G01Y-177232D01*
G01X-89101Y-176102D01*
G01X-88904Y-174984D01*
G01X-88610Y-173887D01*
G01X-88222Y-172820D01*
G01X-87742Y-171792D01*
G01X-87175Y-170808D01*
G01X-86523Y-169879D01*
G01X-85794Y-169009D01*
G01X-84991Y-168206D01*
G01X-84121Y-167477D01*
G01X-83192Y-166825D01*
G01X-82208Y-166258D01*
G01X-81180Y-165778D01*
G01X-80113Y-165390D01*
G01X-79031Y-165100D01*
G01X-80113Y-164810D01*
G01X-81180Y-164422D01*
G01X-82208Y-163942D01*
G01X-83192Y-163375D01*
G01X-84121Y-162723D01*
G01X-84991Y-161994D01*
G01X-85794Y-161191D01*
G01X-86523Y-160321D01*
G01X-87175Y-159392D01*
G01X-87742Y-158408D01*
G01X-88222Y-157380D01*
G01X-88610Y-156313D01*
G01X-88904Y-155216D01*
G01X-89101Y-154098D01*
G01X-89200Y-152968D01*
G01Y-151832D01*
G01X-89101Y-150702D01*
G01X-88904Y-149584D01*
G01X-88610Y-148487D01*
G01X-88222Y-147420D01*
G01X-87742Y-146392D01*
G01X-87175Y-145408D01*
G01X-86523Y-144479D01*
G01X-85794Y-143609D01*
G01X-84991Y-142806D01*
G01X-84121Y-142077D01*
G01X-83192Y-141425D01*
G01X-82208Y-140858D01*
G01X-81180Y-140378D01*
G01X-80113Y-139990D01*
G01X-79326Y-139779D01*
G01X-80921Y-139116D01*
G01X-81180Y-139022D01*
G01X-81444Y-138898D01*
G01X-81493Y-138878D01*
G01X-81507Y-138869D01*
G01X-82208Y-138542D01*
G01X-83192Y-137975D01*
G01X-84121Y-137323D01*
G01X-84991Y-136594D01*
G01X-85794Y-135791D01*
G01X-86523Y-134921D01*
G01X-87175Y-133992D01*
G01X-87742Y-133008D01*
G01X-88222Y-131980D01*
G01X-88610Y-130913D01*
G01X-88904Y-129816D01*
G01X-89101Y-128698D01*
G01X-89200Y-127568D01*
G01Y-126432D01*
G01X-89101Y-125302D01*
G01X-88904Y-124184D01*
G01X-88610Y-123087D01*
G01X-88222Y-122020D01*
G01X-87742Y-120992D01*
G01X-87175Y-120008D01*
G01X-86523Y-119079D01*
G01X-85794Y-118209D01*
G01X-84991Y-117406D01*
G01X-84121Y-116677D01*
G01X-83192Y-116025D01*
G01X-82208Y-115458D01*
G01X-81180Y-114978D01*
G01X-80113Y-114590D01*
G01X-79031Y-114300D01*
G01X-80113Y-114010D01*
G01X-81180Y-113622D01*
G01X-82208Y-113142D01*
G01X-83192Y-112575D01*
G01X-84121Y-111923D01*
G01X-84991Y-111194D01*
G01X-85794Y-110391D01*
G01X-86523Y-109521D01*
G01X-87175Y-108592D01*
G01X-87516Y-108000D01*
G01X-87742Y-107608D01*
G01X-88222Y-106580D01*
G01X-88610Y-105513D01*
G01X-88904Y-104416D01*
G01X-89101Y-103298D01*
G01X-89200Y-102168D01*
G01Y-101032D01*
G01X-89101Y-99902D01*
G01X-88904Y-98784D01*
G01X-88610Y-97687D01*
G01X-88222Y-96620D01*
G01X-87742Y-95592D01*
G01X-87175Y-94608D01*
G01X-86523Y-93679D01*
G01X-85794Y-92809D01*
G01X-84991Y-92006D01*
G01X-84121Y-91277D01*
G01X-83192Y-90625D01*
G01X-82208Y-90058D01*
G01X-81180Y-89578D01*
G01X-80113Y-89190D01*
G01X-79031Y-88900D01*
G01X-80113Y-88610D01*
G01X-81180Y-88222D01*
G01X-82208Y-87742D01*
G01X-83192Y-87175D01*
G01X-84121Y-86523D01*
G01X-84991Y-85794D01*
G01X-85794Y-84991D01*
G01X-86523Y-84121D01*
G01X-87175Y-83192D01*
G01X-87742Y-82208D01*
G01X-88222Y-81180D01*
G01X-88610Y-80113D01*
G01X-88904Y-79016D01*
G01X-89101Y-77898D01*
G01X-89200Y-76768D01*
G01Y-75632D01*
G01X-89101Y-74502D01*
G01X-88904Y-73384D01*
G01X-88610Y-72287D01*
G01X-88222Y-71220D01*
G01X-87742Y-70192D01*
G01X-87175Y-69208D01*
G01X-86523Y-68279D01*
G01X-85794Y-67409D01*
G01X-84991Y-66606D01*
G01X-84121Y-65877D01*
G01X-83192Y-65225D01*
G01X-82208Y-64658D01*
G01X-81180Y-64178D01*
G01X-80113Y-63790D01*
G01X-79596Y-63651D01*
G01X-79037Y-63498D01*
G01X-80113Y-63210D01*
G01X-81180Y-62822D01*
G01X-82208Y-62342D01*
G01X-83192Y-61775D01*
G01X-84121Y-61123D01*
G01X-84991Y-60394D01*
G01X-85794Y-59591D01*
G01X-86523Y-58721D01*
G01X-87175Y-57792D01*
G01X-87742Y-56808D01*
G01X-88222Y-55780D01*
G01X-88610Y-54713D01*
G01X-88904Y-53616D01*
G01X-89101Y-52498D01*
G01X-89200Y-51368D01*
G01Y-50232D01*
G01X-89101Y-49102D01*
G01X-88904Y-47984D01*
G01X-88610Y-46887D01*
G01X-88222Y-45820D01*
G01X-87742Y-44792D01*
G01X-87175Y-43808D01*
G01X-86523Y-42879D01*
G01X-85794Y-42009D01*
G01X-84991Y-41206D01*
G01X-84121Y-40477D01*
G01X-83192Y-39825D01*
G01X-82208Y-39258D01*
G01X-81180Y-38778D01*
G01X-80113Y-38390D01*
G01X-79031Y-38100D01*
G01X-80113Y-37810D01*
G01X-81180Y-37422D01*
G01X-82208Y-36942D01*
G01X-83192Y-36375D01*
G01X-84121Y-35723D01*
G01X-84991Y-34994D01*
G01X-85794Y-34191D01*
G01X-86523Y-33321D01*
G01X-87175Y-32392D01*
G01X-87742Y-31408D01*
G01X-88222Y-30380D01*
G01X-88610Y-29313D01*
G01X-88904Y-28216D01*
G01X-89101Y-27098D01*
G01X-89200Y-25968D01*
G01Y-24832D01*
G01X-89101Y-23702D01*
G01X-88904Y-22584D01*
G01X-88610Y-21487D01*
G01X-88222Y-20420D01*
G01X-87742Y-19392D01*
G01X-87175Y-18408D01*
G01X-86523Y-17479D01*
G01X-85794Y-16609D01*
G01X-84991Y-15806D01*
G01X-84121Y-15077D01*
G01X-83192Y-14425D01*
G01X-82208Y-13858D01*
G01X-81180Y-13378D01*
G01X-80113Y-12990D01*
G01X-79031Y-12700D01*
G01X-80113Y-12410D01*
G01X-81180Y-12022D01*
G01X-82208Y-11542D01*
G01X-83192Y-10975D01*
G01X-84121Y-10323D01*
G01X-84991Y-9594D01*
G01X-85794Y-8791D01*
G01X-86523Y-7921D01*
G01X-87175Y-6992D01*
G01X-87742Y-6008D01*
G01X-88222Y-4980D01*
G01X-88610Y-3913D01*
G01X-88904Y-2816D01*
G01X-89101Y-1698D01*
G01X-89200Y-0568D01*
G01Y-0500D01*
G01Y0568D01*
G01X-89101Y1698D01*
G01X-88904Y2816D01*
G01X-88610Y3913D01*
G01X-88222Y4980D01*
G01X-87742Y6008D01*
G01X-87175Y6992D01*
G01X-86523Y7921D01*
G01X-85794Y8791D01*
G01X-84991Y9594D01*
G01X-84121Y10323D01*
G01X-83192Y10975D01*
G01X-82208Y11542D01*
G01X-81180Y12022D01*
G01X-80113Y12410D01*
G01X-79031Y12700D01*
G01X-80113Y12990D01*
G01X-81180Y13378D01*
G01X-82208Y13858D01*
G01X-83192Y14425D01*
G01X-84121Y15077D01*
G01X-84991Y15806D01*
G01X-85794Y16609D01*
G01X-86523Y17479D01*
G01X-87175Y18408D01*
G01X-87742Y19392D01*
G01X-88222Y20420D01*
G01X-88610Y21487D01*
G01X-88904Y22584D01*
G01X-89101Y23702D01*
G01X-89200Y24832D01*
G01Y25968D01*
G01X-89101Y27098D01*
G01X-88904Y28216D01*
G01X-88610Y29313D01*
G01X-88222Y30380D01*
G01X-87742Y31408D01*
G01X-87175Y32392D01*
G01X-86523Y33321D01*
G01X-85794Y34191D01*
G01X-84991Y34994D01*
G01X-84121Y35723D01*
G01X-83192Y36375D01*
G01X-82208Y36942D01*
G01X-81180Y37422D01*
G01X-80113Y37810D01*
G01X-79031Y38100D01*
G01X-80113Y38390D01*
G01X-81180Y38778D01*
G01X-82208Y39258D01*
G01X-83192Y39825D01*
G01X-84121Y40477D01*
G01X-84991Y41206D01*
G01X-85794Y42009D01*
G01X-86523Y42879D01*
G01X-87175Y43808D01*
G01X-87742Y44792D01*
G01X-88222Y45820D01*
G01X-88610Y46887D01*
G01X-88904Y47984D01*
G01X-89101Y49102D01*
G01X-89200Y50232D01*
G01Y51368D01*
G01X-89101Y52498D01*
G01X-88904Y53616D01*
G01X-88610Y54713D01*
G01X-88222Y55780D01*
G01X-87742Y56808D01*
G01X-87175Y57792D01*
G01X-86523Y58721D01*
G01X-85794Y59591D01*
G01X-84991Y60394D01*
G01X-84121Y61123D01*
G01X-83192Y61775D01*
G01X-82208Y62342D01*
G01X-81180Y62822D01*
G01X-80113Y63210D01*
G01X-79031Y63500D01*
G01X-80113Y63790D01*
G01X-81180Y64178D01*
G01X-82208Y64658D01*
G01X-83192Y65225D01*
G01X-84121Y65877D01*
G01X-84991Y66606D01*
G01X-85794Y67409D01*
G01X-86523Y68279D01*
G01X-87175Y69208D01*
G01X-87742Y70192D01*
G01X-88222Y71220D01*
G01X-88610Y72287D01*
G01X-88904Y73384D01*
G01X-89101Y74502D01*
G01X-89200Y75632D01*
G01Y76768D01*
G01X-89101Y77898D01*
G01X-88904Y79016D01*
G01X-88610Y80113D01*
G01X-88222Y81180D01*
G01X-87742Y82208D01*
G01X-87175Y83192D01*
G01X-86523Y84121D01*
G01X-85794Y84991D01*
G01X-84991Y85794D01*
G01X-84121Y86523D01*
G01X-83192Y87175D01*
G01X-82208Y87742D01*
G01X-81180Y88222D01*
G01X-80113Y88610D01*
G01X-79031Y88900D01*
G01X-80113Y89190D01*
G01X-81180Y89578D01*
G01X-82208Y90058D01*
G01X-83192Y90625D01*
G01X-84121Y91277D01*
G01X-84991Y92006D01*
G01X-85794Y92809D01*
G01X-86523Y93679D01*
G01X-87175Y94608D01*
G01X-87742Y95592D01*
G01X-88222Y96620D01*
G01X-88610Y97687D01*
G01X-88904Y98784D01*
G01X-89101Y99902D01*
G01X-89200Y101032D01*
G01Y102168D01*
G01X-89101Y103298D01*
G01X-88904Y104416D01*
G01X-88610Y105513D01*
G01X-88222Y106580D01*
G01X-88026Y107000D01*
G01X-87742Y107608D01*
G01X-87175Y108592D01*
G01X-86523Y109521D01*
G01X-85794Y110391D01*
G01X-84991Y111194D01*
G01X-84121Y111923D01*
G01X-83192Y112575D01*
G01X-82208Y113142D01*
G01X-81180Y113622D01*
G01X-80113Y114010D01*
G01X-79031Y114300D01*
G01X-80113Y114590D01*
G01X-81180Y114978D01*
G01X-82208Y115458D01*
G01X-83192Y116025D01*
G01X-84121Y116677D01*
G01X-84991Y117406D01*
G01X-85794Y118209D01*
G01X-86523Y119079D01*
G01X-87175Y120008D01*
G01X-87742Y120992D01*
G01X-88222Y122020D01*
G01X-88610Y123087D01*
G01X-88904Y124184D01*
G01X-89101Y125302D01*
G01X-89200Y126432D01*
G01Y127568D01*
G01X-89101Y128698D01*
G01X-88904Y129816D01*
G01X-88610Y130913D01*
G01X-88222Y131980D01*
G01X-87742Y133008D01*
G01X-87175Y133992D01*
G01X-86523Y134921D01*
G01X-85794Y135791D01*
G01X-84991Y136594D01*
G01X-84121Y137323D01*
G01X-83192Y137975D01*
G01X-82208Y138542D01*
G01X-81180Y139022D01*
G01X-80113Y139410D01*
G01X-79031Y139700D01*
G01X-80113Y139990D01*
G01X-81180Y140378D01*
G01X-82208Y140858D01*
G01X-83192Y141425D01*
G01X-84121Y142077D01*
G01X-84991Y142806D01*
G01X-85794Y143609D01*
G01X-86523Y144479D01*
G01X-87175Y145408D01*
G01X-87742Y146392D01*
G01X-88222Y147420D01*
G01X-88610Y148487D01*
G01X-88904Y149584D01*
G01X-89101Y150702D01*
G01X-89200Y151832D01*
G01Y152968D01*
G01X-89101Y154098D01*
G01X-88904Y155216D01*
G01X-88610Y156313D01*
G01X-88222Y157380D01*
G01X-87742Y158408D01*
G01X-87175Y159392D01*
G01X-86523Y160321D01*
G01X-85794Y161191D01*
G01X-84991Y161994D01*
G01X-84121Y162723D01*
G01X-83192Y163375D01*
G01X-82208Y163942D01*
G01X-81180Y164422D01*
G01X-80113Y164810D01*
G01X-79226Y165048D01*
G01X-80716Y165609D01*
G01X-81180Y165778D01*
G01X-82208Y166258D01*
G01X-83192Y166825D01*
G01X-84121Y167477D01*
G01X-84991Y168206D01*
G01X-85794Y169009D01*
G01X-86523Y169879D01*
G01X-87175Y170808D01*
G01X-87742Y171792D01*
G01X-88222Y172820D01*
G01X-88610Y173887D01*
G01X-88904Y174984D01*
G01X-89101Y176102D01*
G01X-89200Y177232D01*
G01Y178368D01*
G01X-89101Y179498D01*
G01X-88904Y180616D01*
G01X-88610Y181713D01*
G01X-88222Y182780D01*
G01X-87742Y183808D01*
G01X-87175Y184792D01*
G01X-86523Y185721D01*
G01X-85794Y186591D01*
G01X-84991Y187394D01*
G01X-84121Y188123D01*
G01X-83192Y188775D01*
G01X-82208Y189342D01*
G01X-81180Y189822D01*
G01X-80113Y190210D01*
G01X-79016Y190504D01*
G01X-77898Y190701D01*
G01X-76768Y190800D01*
G01X-75632D01*
G01X-74502Y190701D01*
G01X-73384Y190504D01*
G01X-72287Y190210D01*
G01X-71220Y189822D01*
G01X-70192Y189342D01*
G01X-69208Y188775D01*
G01X-68279Y188123D01*
G01X-67409Y187394D01*
G01X-66606Y186591D01*
G01X-65877Y185721D01*
G01X-65225Y184792D01*
G01X-64658Y183808D01*
G01X-64178Y182780D01*
G01X-64075Y182497D01*
G01X-64067Y182482D01*
G01X-63963Y182189D01*
G01X-63790Y181713D01*
G01X-63774Y181654D01*
G01X-57996Y165301D01*
G01X-57479Y164785D01*
G01X-57329Y164644D01*
G01X-57302Y164608D01*
G01X-57255Y164561D01*
G01X-57080Y164311D01*
G01X-56254Y163206D01*
G01X-53724Y160676D01*
G01X-53589Y160563D01*
G01X-53477Y160429D01*
G01X-53353Y160305D01*
G01X-53252Y160161D01*
G01X-53139Y160027D01*
G01X-53052Y159875D01*
G01X-52951Y159731D01*
G01X-52877Y159573D01*
G01X-52789Y159421D01*
G01X-52729Y159256D01*
G01X-52655Y159097D01*
G01X-52610Y158928D01*
G01X-52550Y158763D01*
G01X-52520Y158590D01*
G01X-52474Y158421D01*
G01X-52459Y158246D01*
G01X-52428Y158074D01*
G01Y157898D01*
G01X-52413Y157724D01*
G01X-52428Y157549D01*
G01Y117588D01*
G01X-51522Y116681D01*
G01X-45500D01*
G01X0500D01*
G01X46500Y-178688D02*
G01X46594Y-178722D01*
G01X47806Y-179422D01*
G01X48878Y-180322D01*
G01X49778Y-181394D01*
G01X50478Y-182606D01*
G01X50957Y-183922D01*
G01X51200Y-185300D01*
G01Y-194700D01*
G01X50957Y-196078D01*
G01X50478Y-197394D01*
G01X49778Y-198606D01*
G01X48878Y-199678D01*
G01X47806Y-200578D01*
G01X46594Y-201278D01*
G01X46500Y-201312D01*
G01X45278Y-201757D01*
G01X43900Y-202000D01*
G01X42500D01*
G01X41122Y-201757D01*
G01X39806Y-201278D01*
G01X38594Y-200578D01*
G01X37522Y-199678D01*
G01X36622Y-198606D01*
G01X35922Y-197394D01*
G01X35443Y-196078D01*
G01X35200Y-194700D01*
G01Y-185300D01*
G01X35443Y-183922D01*
G01X35922Y-182606D01*
G01X36622Y-181394D01*
G01X37522Y-180322D01*
G01X38594Y-179422D01*
G01X39806Y-178722D01*
G01X41122Y-178243D01*
G01X42500Y-178000D01*
G01X43900D01*
G01X45278Y-178243D01*
G01X46500Y-178688D01*
G01X-45500Y-201676D02*
G01X-46594Y-201278D01*
G01X-47806Y-200578D01*
G01X-48878Y-199678D01*
G01X-49778Y-198606D01*
G01X-50478Y-197394D01*
G01X-50957Y-196078D01*
G01X-51200Y-194700D01*
G01Y-185300D01*
G01X-50957Y-183922D01*
G01X-50478Y-182606D01*
G01X-49778Y-181394D01*
G01X-48878Y-180322D01*
G01X-47806Y-179422D01*
G01X-46594Y-178722D01*
G01X-45500Y-178324D01*
G01X-45278Y-178243D01*
G01X-43900Y-178000D01*
G01X-42500D01*
G01X-41122Y-178243D01*
G01X-39806Y-178722D01*
G01X-38594Y-179422D01*
G01X-37522Y-180322D01*
G01X-36622Y-181394D01*
G01X-35922Y-182606D01*
G01X-35443Y-183922D01*
G01X-35200Y-185300D01*
G01Y-194700D01*
G01X-35443Y-196078D01*
G01X-35922Y-197394D01*
G01X-36622Y-198606D01*
G01X-37522Y-199678D01*
G01X-38594Y-200578D01*
G01X-39806Y-201278D01*
G01X-41122Y-201757D01*
G01X-42500Y-202000D01*
G01X-43900D01*
G01X-45278Y-201757D01*
G01X-45500Y-201676D01*
G01X-12400Y163568D02*
G01Y162432D01*
G01X-12499Y161302D01*
G01X-12696Y160184D01*
G01X-12990Y159087D01*
G01X-13378Y158020D01*
G01X-13858Y156992D01*
G01X-14425Y156008D01*
G01X-15077Y155079D01*
G01X-15806Y154209D01*
G01X-16609Y153406D01*
G01X-17479Y152677D01*
G01X-18408Y152025D01*
G01X-19392Y151458D01*
G01X-20420Y150978D01*
G01X-21487Y150590D01*
G01X-22584Y150296D01*
G01X-23702Y150099D01*
G01X-24832Y150000D01*
G01X-25968D01*
G01X-27098Y150099D01*
G01X-28216Y150296D01*
G01X-29313Y150590D01*
G01X-30380Y150978D01*
G01X-31408Y151458D01*
G01X-32392Y152025D01*
G01X-33321Y152677D01*
G01X-34191Y153406D01*
G01X-34994Y154209D01*
G01X-35723Y155079D01*
G01X-36375Y156008D01*
G01X-36942Y156992D01*
G01X-37422Y158020D01*
G01X-37810Y159087D01*
G01X-38104Y160184D01*
G01X-38301Y161302D01*
G01X-38400Y162432D01*
G01Y163568D01*
G01X-38301Y164698D01*
G01X-38104Y165816D01*
G01X-37810Y166913D01*
G01X-37422Y167980D01*
G01X-36942Y169008D01*
G01X-36375Y169992D01*
G01X-35723Y170921D01*
G01X-34994Y171791D01*
G01X-34191Y172594D01*
G01X-33321Y173323D01*
G01X-32392Y173975D01*
G01X-31408Y174542D01*
G01X-30380Y175022D01*
G01X-29313Y175410D01*
G01X-28216Y175704D01*
G01X-27098Y175901D01*
G01X-25968Y176000D01*
G01X-24832D01*
G01X-23702Y175901D01*
G01X-22584Y175704D01*
G01X-21487Y175410D01*
G01X-20420Y175022D01*
G01X-19392Y174542D01*
G01X-18408Y173975D01*
G01X-17479Y173323D01*
G01X-16609Y172594D01*
G01X-15806Y171791D01*
G01X-15077Y170921D01*
G01X-14425Y169992D01*
G01X-13858Y169008D01*
G01X-13378Y167980D01*
G01X-12990Y166913D01*
G01X-12696Y165816D01*
G01X-12499Y164698D01*
G01X-12400Y163568D01*
G01X38400Y163568D02*
G01Y162432D01*
G01X38301Y161302D01*
G01X38104Y160184D01*
G01X37810Y159087D01*
G01X37422Y158020D01*
G01X36942Y156992D01*
G01X36375Y156008D01*
G01X35723Y155079D01*
G01X34994Y154209D01*
G01X34191Y153406D01*
G01X33321Y152677D01*
G01X32392Y152025D01*
G01X31408Y151458D01*
G01X30380Y150978D01*
G01X29313Y150590D01*
G01X28216Y150296D01*
G01X27098Y150099D01*
G01X25968Y150000D01*
G01X24832D01*
G01X23702Y150099D01*
G01X22584Y150296D01*
G01X21487Y150590D01*
G01X20420Y150978D01*
G01X19392Y151458D01*
G01X18408Y152025D01*
G01X17479Y152677D01*
G01X16609Y153406D01*
G01X15806Y154209D01*
G01X15077Y155079D01*
G01X14425Y156008D01*
G01X13858Y156992D01*
G01X13378Y158020D01*
G01X12990Y159087D01*
G01X12696Y160184D01*
G01X12499Y161302D01*
G01X12400Y162432D01*
G01Y163568D01*
G01X12499Y164698D01*
G01X12696Y165816D01*
G01X12990Y166913D01*
G01X13378Y167980D01*
G01X13858Y169008D01*
G01X14425Y169992D01*
G01X15077Y170921D01*
G01X15806Y171791D01*
G01X16609Y172594D01*
G01X17479Y173323D01*
G01X18408Y173975D01*
G01X19392Y174542D01*
G01X20420Y175022D01*
G01X21487Y175410D01*
G01X22584Y175704D01*
G01X23702Y175901D01*
G01X24832Y176000D01*
G01X25968D01*
G01X27098Y175901D01*
G01X28216Y175704D01*
G01X29313Y175410D01*
G01X30380Y175022D01*
G01X31408Y174542D01*
G01X32392Y173975D01*
G01X33321Y173323D01*
G01X34191Y172594D01*
G01X34994Y171791D01*
G01X35723Y170921D01*
G01X36375Y169992D01*
G01X36942Y169008D01*
G01X37422Y167980D01*
G01X37810Y166913D01*
G01X38104Y165816D01*
G01X38301Y164698D01*
G01X38400Y163568D01*
G01X-91250Y-215050D02*
G01X92250D01*
G01Y-214150D01*
G01X-91250D01*
G01Y-213250D01*
G01X92250D01*
G01Y-212350D01*
G01X-91250D01*
G01Y-211450D01*
G01X92250D01*
G01Y-210550D01*
G01X-91250D01*
G01Y-209650D01*
G01X92250D01*
G01Y-208750D01*
G01X-91250D01*
G01Y-207850D01*
G01X92250D01*
G01Y-206950D01*
G01X-91250D01*
G01Y-206050D01*
G01X92250D01*
G01Y-205150D01*
G01X-91250D01*
G01Y-204250D01*
G01X92250D01*
G01Y-203350D01*
G01X-91250D01*
G01Y-202450D01*
G01X92250D01*
G01X92250Y190851D02*
G01X-91250D01*
G01Y191751D01*
G01X92250D01*
G01Y192651D01*
G01X-91250D01*
G01Y193551D01*
G01X92250D01*
G01Y194451D01*
G01X-91250D01*
G01Y195351D01*
G01X92250D01*
G01Y196251D01*
G01X-91250D01*
G01Y197151D01*
G01X92250D01*
G01Y198051D01*
G01X-91250D01*
G01Y198951D01*
G01X92250D01*
G01Y199851D01*
G01X-91250D01*
G01Y200751D01*
G01X92250D01*
G01Y201651D01*
G01X-91250D01*
G01Y202551D01*
G01X92250D01*
G01Y203451D01*
G01X-91250D01*
G01Y204351D01*
G01X92250D01*
G01Y205251D01*
G01X-91250D01*
G01Y206151D01*
G01X92250D01*
G01Y207051D01*
G01X-91250D01*
G01Y207951D01*
G01X92250D01*
G01Y208851D01*
G01X-91250D01*
G01Y209751D01*
G01X92250D01*
G01Y210651D01*
G01X-91250D01*
G01Y211551D01*
G01X92250D01*
G01Y212451D01*
G01X-91250D01*
G01Y213351D01*
G01X92250D01*
G01Y214251D01*
G01X-91250D01*
G01X-91250Y-201550D02*
G01X-46097D01*
G01X-40303Y-201550D02*
G01X40303D01*
G01X46097Y-201550D02*
G01X92250D01*
G01X-91250Y-200650D02*
G01X-47932D01*
G01X-38468Y-200650D02*
G01X38468D01*
G01X47932Y-200650D02*
G01X92250D01*
G01X-91250Y-199750D02*
G01X-49043D01*
G01X-37357Y-199750D02*
G01X37357D01*
G01X49043Y-199750D02*
G01X92250D01*
G01X-91250Y-198850D02*
G01X-49824D01*
G01X-36576Y-198850D02*
G01X36576D01*
G01X49824Y-198850D02*
G01X92250D01*
G01X-91250Y-197950D02*
G01X-50407D01*
G01X-35993Y-197950D02*
G01X35993D01*
G01X50407Y-197950D02*
G01X92250D01*
G01X-91250Y-197050D02*
G01X-50853D01*
G01X-35547Y-197050D02*
G01X35547D01*
G01X50853Y-197050D02*
G01X92250D01*
G01X-91250Y-196150D02*
G01X-51181D01*
G01X-35219Y-196150D02*
G01X35219D01*
G01X51181Y-196150D02*
G01X92250D01*
G01X-91250Y-195250D02*
G01X-51353D01*
G01X-35047Y-195250D02*
G01X35047D01*
G01X51353Y-195250D02*
G01X92250D01*
G01X-91250Y-194350D02*
G01X-51450D01*
G01Y-193450D01*
G01X-91250D01*
G01Y-192550D01*
G01X-51450D01*
G01Y-191650D01*
G01X-91250D01*
G01X-34950Y-194350D02*
G01X34950D01*
G01Y-193450D01*
G01X-34950D01*
G01Y-192550D01*
G01X34950D01*
G01Y-191650D01*
G01X-34950D01*
G01Y-190750D01*
G01X34950D01*
G01Y-189850D01*
G01X-34950D01*
G01Y-188950D01*
G01X34950D01*
G01Y-188050D01*
G01X-34950D01*
G01Y-187150D01*
G01X34950D01*
G01Y-186250D01*
G01X-34950D01*
G01Y-185350D01*
G01X34950D01*
G01X51450Y-194350D02*
G01X92250D01*
G01Y-193450D01*
G01X51450D01*
G01Y-192550D01*
G01X92250D01*
G01Y-191650D01*
G01X51450D01*
G01X-91250Y-190750D02*
G01X-77589D01*
G01X-74811Y-190750D02*
G01X-51450D01*
G01X51450Y-190750D02*
G01X74811D01*
G01X77589Y-190750D02*
G01X92250D01*
G01X-91250Y-189850D02*
G01X-81352D01*
G01X-81352Y-140350D02*
G01X-91250D01*
G01X-91250Y38750D02*
G01X-81352D01*
G01X-81352Y88250D02*
G01X-91250D01*
G01X-71048Y-189850D02*
G01X-51450D01*
G01X51450Y-189850D02*
G01X71048D01*
G01X81352Y-189850D02*
G01X92250D01*
G01X92250Y-140350D02*
G01X81352D01*
G01X81352Y38750D02*
G01X92250D01*
G01X92250Y88250D02*
G01X81352D01*
G01X-91250Y-188950D02*
G01X-83138D01*
G01X-83138Y-141250D02*
G01X-91250D01*
G01X-91250Y39650D02*
G01X-83138D01*
G01X-83138Y87350D02*
G01X-91250D01*
G01X-69262Y-188950D02*
G01X-51450D01*
G01X51450Y-188950D02*
G01X69262D01*
G01X83138Y-188950D02*
G01X92250D01*
G01X92250Y-141250D02*
G01X83138D01*
G01X83138Y39650D02*
G01X92250D01*
G01X92250Y87350D02*
G01X83138D01*
G01X-91250Y-188050D02*
G01X-84459D01*
G01X-84459Y-142150D02*
G01X-91250D01*
G01X-91250Y40550D02*
G01X-84459D01*
G01X-84459Y86450D02*
G01X-91250D01*
G01X-67941Y-188050D02*
G01X-51450D01*
G01X51450Y-188050D02*
G01X67941D01*
G01X84459Y-188050D02*
G01X92250D01*
G01X92250Y-142150D02*
G01X84459D01*
G01X84459Y40550D02*
G01X92250D01*
G01X92250Y86450D02*
G01X84459D01*
G01X-91250Y-187150D02*
G01X-85485D01*
G01X-85485Y-143050D02*
G01X-91250D01*
G01X-91250Y41450D02*
G01X-85485D01*
G01X-85485Y85550D02*
G01X-91250D01*
G01X-66915Y-187150D02*
G01X-51450D01*
G01X51450Y-187150D02*
G01X66915D01*
G01X85485Y-187150D02*
G01X92250D01*
G01X92250Y-143050D02*
G01X85485D01*
G01X85485Y41450D02*
G01X92250D01*
G01X92250Y85550D02*
G01X85485D01*
G01X-91250Y-186250D02*
G01X-86330D01*
G01X-86330Y-143950D02*
G01X-91250D01*
G01X-91250Y42350D02*
G01X-86330D01*
G01X-86330Y84650D02*
G01X-91250D01*
G01X-66070Y-186250D02*
G01X-51450D01*
G01X51450Y-186250D02*
G01X66070D01*
G01X86330Y-186250D02*
G01X92250D01*
G01X92250Y-143950D02*
G01X86330D01*
G01X86330Y42350D02*
G01X92250D01*
G01X92250Y84650D02*
G01X86330D01*
G01X-91250Y-185350D02*
G01X-87034D01*
G01X-87034Y-144850D02*
G01X-91250D01*
G01X-91250Y43250D02*
G01X-87034D01*
G01X-87034Y83750D02*
G01X-91250D01*
G01X-65366Y-185350D02*
G01X-51450D01*
G01X51450Y-185350D02*
G01X65366D01*
G01X87034Y-185350D02*
G01X92250D01*
G01X92250Y-144850D02*
G01X87034D01*
G01X87034Y43250D02*
G01X92250D01*
G01X92250Y83750D02*
G01X87034D01*
G01X-91250Y-184450D02*
G01X-87622D01*
G01X-87622Y-145750D02*
G01X-91250D01*
G01X-91250Y44150D02*
G01X-87622D01*
G01X-87622Y82850D02*
G01X-91250D01*
G01X-64778Y-184450D02*
G01X-51300D01*
G01X-35100Y-184450D02*
G01X35100D01*
G01X51300Y-184450D02*
G01X64778D01*
G01X87622Y-184450D02*
G01X92250D01*
G01X92250Y-145750D02*
G01X87622D01*
G01X87622Y44150D02*
G01X92250D01*
G01X92250Y82850D02*
G01X87622D01*
G01X-91250Y-183550D02*
G01X-88113D01*
G01X-88113Y-146650D02*
G01X-91250D01*
G01X-91250Y45050D02*
G01X-88113D01*
G01X-88113Y81950D02*
G01X-91250D01*
G01X-64287Y-183550D02*
G01X-51072D01*
G01X-35328Y-183550D02*
G01X35328D01*
G01X51072Y-183550D02*
G01X64287D01*
G01X88113Y-183550D02*
G01X92250D01*
G01X92250Y-146650D02*
G01X88113D01*
G01X88113Y45050D02*
G01X92250D01*
G01X92250Y81950D02*
G01X88113D01*
G01X-91250Y-182650D02*
G01X-88519D01*
G01X-88519Y-147550D02*
G01X-91250D01*
G01X-91250Y45950D02*
G01X-88519D01*
G01X-88519Y81050D02*
G01X-91250D01*
G01X-63881Y-182650D02*
G01X-50744D01*
G01X-35656Y-182650D02*
G01X35656D01*
G01X50744Y-182650D02*
G01X63881D01*
G01X88519Y-182650D02*
G01X92250D01*
G01X92250Y-147550D02*
G01X88519D01*
G01X88519Y45950D02*
G01X92250D01*
G01X92250Y81050D02*
G01X88519D01*
G01X-91250Y-181750D02*
G01X-88847D01*
G01X-88847Y-148450D02*
G01X-91250D01*
G01X-91250Y46850D02*
G01X-88847D01*
G01X-88847Y80150D02*
G01X-91250D01*
G01X-63553Y-181750D02*
G01X-50234D01*
G01X-36166Y-181750D02*
G01X36166D01*
G01X50234Y-181750D02*
G01X63553D01*
G01X88847Y-181750D02*
G01X92250D01*
G01X92250Y-148450D02*
G01X88847D01*
G01X88847Y46850D02*
G01X92250D01*
G01X92250Y80150D02*
G01X88847D01*
G01X-91250Y-180850D02*
G01X-89091D01*
G01X-89091Y-149350D02*
G01X-91250D01*
G01X-91250Y47750D02*
G01X-89091D01*
G01X-89091Y79250D02*
G01X-91250D01*
G01X-63309Y-180850D02*
G01X-49572D01*
G01X-36828Y-180850D02*
G01X36828D01*
G01X49572Y-180850D02*
G01X63309D01*
G01X89091Y-180850D02*
G01X92250D01*
G01X92250Y-149350D02*
G01X89091D01*
G01X89091Y47750D02*
G01X92250D01*
G01X92250Y79250D02*
G01X89091D01*
G01X-91250Y-179950D02*
G01X-89271D01*
G01X-89271Y-150250D02*
G01X-91250D01*
G01X-91250Y48650D02*
G01X-89271D01*
G01X-89271Y78350D02*
G01X-91250D01*
G01X-63129Y-179950D02*
G01X-48686D01*
G01X-37714Y-179950D02*
G01X37714D01*
G01X48686Y-179950D02*
G01X63129D01*
G01X89271Y-179950D02*
G01X92250D01*
G01X92250Y-150250D02*
G01X89271D01*
G01X89271Y48650D02*
G01X92250D01*
G01X92250Y78350D02*
G01X89271D01*
G01X-91250Y-179050D02*
G01X-89390D01*
G01X-89390Y-151150D02*
G01X-91250D01*
G01X-91250Y49550D02*
G01X-89390D01*
G01X-89390Y77450D02*
G01X-91250D01*
G01X-63010Y-179050D02*
G01X-47412D01*
G01X-38988Y-179050D02*
G01X38988D01*
G01X47412Y-179050D02*
G01X63010D01*
G01X89390Y-179050D02*
G01X92250D01*
G01X92250Y-151150D02*
G01X89390D01*
G01X89390Y49550D02*
G01X92250D01*
G01X92250Y77450D02*
G01X89390D01*
G01X-91250Y-178150D02*
G01X-89450D01*
G01Y-177250D01*
G01X-91250D01*
G01X-91250Y-152950D02*
G01X-89450D01*
G01Y-152050D01*
G01X-91250D01*
G01X-91250Y-126850D02*
G01X-89450D01*
G01X-89450Y-101650D02*
G01X-91250D01*
G01X-91250Y-76450D02*
G01X-89450D01*
G01X-89450Y-51250D02*
G01X-91250D01*
G01Y-50350D01*
G01X-89450D01*
G01X-89450Y-25150D02*
G01X-91250D01*
G01X-91250Y0050D02*
G01X-89450D01*
G01X-89450Y25250D02*
G01X-91250D01*
G01X-91250Y50450D02*
G01X-89450D01*
G01Y51350D01*
G01X-91250D01*
G01X-91250Y75650D02*
G01X-89450D01*
G01Y76550D01*
G01X-91250D01*
G01X-91250Y101750D02*
G01X-89450D01*
G01X-89450Y126950D02*
G01X-91250D01*
G01X-91250Y152150D02*
G01X-89450D01*
G01X-89450Y177351D02*
G01X-91250D01*
G01Y178251D01*
G01X-89450D01*
G01X-62950Y-178150D02*
G01X-45001D01*
G01X-41399Y-178150D02*
G01X41399D01*
G01X45001Y-178150D02*
G01X62950D01*
G01X89450Y-178150D02*
G01X92250D01*
G01Y-177250D01*
G01X89450D01*
G01X89450Y-152950D02*
G01X92250D01*
G01Y-152050D01*
G01X89450D01*
G01X89450Y-126850D02*
G01X92250D01*
G01X92250Y-101650D02*
G01X89450D01*
G01X89450Y-76450D02*
G01X92250D01*
G01X92250Y-51250D02*
G01X89450D01*
G01Y-50350D01*
G01X92250D01*
G01X92250Y-25150D02*
G01X89450D01*
G01X89450Y0050D02*
G01X92250D01*
G01X92250Y25250D02*
G01X89450D01*
G01X89450Y50450D02*
G01X92250D01*
G01Y51350D01*
G01X89450D01*
G01X89450Y75650D02*
G01X92250D01*
G01Y76550D01*
G01X89450D01*
G01X89450Y101750D02*
G01X92250D01*
G01X92250Y126950D02*
G01X89450D01*
G01X89450Y152150D02*
G01X92250D01*
G01X92250Y177351D02*
G01X89450D01*
G01Y178251D01*
G01X92250D01*
G01X-62950Y-177250D02*
G01X62950D01*
G01X-91250Y-176350D02*
G01X-89373D01*
G01X-89373Y-153850D02*
G01X-91250D01*
G01X-91250Y52250D02*
G01X-89373D01*
G01X-89373Y74750D02*
G01X-91250D01*
G01X-63027Y-176350D02*
G01X-47948D01*
G01X46948Y-176350D02*
G01X63027D01*
G01X89373Y-176350D02*
G01X92250D01*
G01X92250Y-153850D02*
G01X89373D01*
G01X89373Y52250D02*
G01X92250D01*
G01X92250Y74750D02*
G01X89373D01*
G01X-91250Y-175450D02*
G01X-89236D01*
G01X-89236Y-154750D02*
G01X-91250D01*
G01X-91250Y53150D02*
G01X-89236D01*
G01X-89236Y73850D02*
G01X-91250D01*
G01X-63164Y-175450D02*
G01X-49103D01*
G01X48103Y-175450D02*
G01X63164D01*
G01X89236Y-175450D02*
G01X92250D01*
G01X92250Y-154750D02*
G01X89236D01*
G01X89236Y53150D02*
G01X92250D01*
G01X92250Y73850D02*
G01X89236D01*
G01X-91250Y-174550D02*
G01X-89038D01*
G01X-89038Y-155650D02*
G01X-91250D01*
G01X-91250Y54050D02*
G01X-89038D01*
G01X-89038Y72950D02*
G01X-91250D01*
G01X-63362Y-174550D02*
G01X-50003D01*
G01X49003Y-174550D02*
G01X63362D01*
G01X89038Y-174550D02*
G01X92250D01*
G01X92250Y-155650D02*
G01X89038D01*
G01X89038Y54050D02*
G01X92250D01*
G01X92250Y72950D02*
G01X89038D01*
G01X-91250Y-173650D02*
G01X-88774D01*
G01X-88774Y-156550D02*
G01X-91250D01*
G01X-91250Y54950D02*
G01X-88774D01*
G01X-88774Y72050D02*
G01X-91250D01*
G01X-63626Y-173650D02*
G01X-50903D01*
G01X49903Y-173650D02*
G01X63626D01*
G01X88774Y-173650D02*
G01X92250D01*
G01X92250Y-156550D02*
G01X88774D01*
G01X88774Y54950D02*
G01X92250D01*
G01X92250Y72050D02*
G01X88774D01*
G01X-91250Y-172750D02*
G01X-88439D01*
G01X-88439Y-157450D02*
G01X-91250D01*
G01X-91250Y55850D02*
G01X-88439D01*
G01X-88439Y71150D02*
G01X-91250D01*
G01X-63961Y-172750D02*
G01X-51803D01*
G01X50803Y-172750D02*
G01X63961D01*
G01X88439Y-172750D02*
G01X92250D01*
G01X92250Y-157450D02*
G01X88439D01*
G01X88439Y55850D02*
G01X92250D01*
G01X92250Y71150D02*
G01X88439D01*
G01X-91250Y-171850D02*
G01X-88019D01*
G01X-88019Y-158350D02*
G01X-91250D01*
G01X-91250Y56750D02*
G01X-88019D01*
G01X-88019Y70250D02*
G01X-91250D01*
G01X-64381Y-171850D02*
G01X-52703D01*
G01X51703Y-171850D02*
G01X64381D01*
G01X88019Y-171850D02*
G01X92250D01*
G01X92250Y-158350D02*
G01X88019D01*
G01X88019Y56750D02*
G01X92250D01*
G01X92250Y70250D02*
G01X88019D01*
G01X-91250Y-170950D02*
G01X-87506D01*
G01X-87506Y-159250D02*
G01X-91250D01*
G01X-91250Y57650D02*
G01X-87506D01*
G01X-87506Y69350D02*
G01X-91250D01*
G01X-64894Y-170950D02*
G01X-53603D01*
G01X52603Y-170950D02*
G01X64894D01*
G01X87506Y-170950D02*
G01X92250D01*
G01X92250Y-159250D02*
G01X87506D01*
G01X87506Y57650D02*
G01X92250D01*
G01X92250Y69350D02*
G01X87506D01*
G01X-91250Y-170050D02*
G01X-86893D01*
G01X-86893Y-160150D02*
G01X-91250D01*
G01X-91250Y58550D02*
G01X-86893D01*
G01X-86893Y68450D02*
G01X-91250D01*
G01X-65507Y-170050D02*
G01X-54503D01*
G01X53503Y-170050D02*
G01X65507D01*
G01X86893Y-170050D02*
G01X92250D01*
G01X92250Y-160150D02*
G01X86893D01*
G01X86893Y58550D02*
G01X92250D01*
G01X92250Y68450D02*
G01X86893D01*
G01X-91250Y-169150D02*
G01X-86162D01*
G01X-86162Y-161050D02*
G01X-91250D01*
G01X-91250Y59450D02*
G01X-86162D01*
G01X-86162Y67550D02*
G01X-91250D01*
G01X-66238Y-169150D02*
G01X-55403D01*
G01X54403Y-169150D02*
G01X66238D01*
G01X86162Y-169150D02*
G01X92250D01*
G01X92250Y-161050D02*
G01X86162D01*
G01X86162Y59450D02*
G01X92250D01*
G01X92250Y67550D02*
G01X86162D01*
G01X-91250Y-168250D02*
G01X-85285D01*
G01X-85285Y-161950D02*
G01X-91250D01*
G01X-91250Y60350D02*
G01X-85285D01*
G01X-85285Y66650D02*
G01X-91250D01*
G01X-67115Y-168250D02*
G01X-56303D01*
G01X55303Y-168250D02*
G01X67115D01*
G01X85285Y-168250D02*
G01X92250D01*
G01X92250Y-161950D02*
G01X85285D01*
G01X85285Y60350D02*
G01X92250D01*
G01X92250Y66650D02*
G01X85285D01*
G01X-91250Y-167350D02*
G01X-84191D01*
G01X-84191Y-162850D02*
G01X-91250D01*
G01X-91250Y61250D02*
G01X-84191D01*
G01X-84191Y65750D02*
G01X-91250D01*
G01X-68209Y-167350D02*
G01X-57203D01*
G01X56203Y-167350D02*
G01X68209D01*
G01X84191Y-167350D02*
G01X92250D01*
G01X92250Y-162850D02*
G01X84191D01*
G01X84191Y61250D02*
G01X92250D01*
G01X92250Y65750D02*
G01X84191D01*
G01X-91250Y-166450D02*
G01X-82791D01*
G01X-82791Y-163750D02*
G01X-91250D01*
G01X-91250Y62150D02*
G01X-82791D01*
G01X-82791Y64850D02*
G01X-91250D01*
G01X-69609Y-166450D02*
G01X-58103D01*
G01X57103Y-166450D02*
G01X69609D01*
G01X82791Y-166450D02*
G01X92250D01*
G01X92250Y-163750D02*
G01X82791D01*
G01X82791Y62150D02*
G01X92250D01*
G01X92250Y64850D02*
G01X82791D01*
G01X-91250Y-165550D02*
G01X-80803D01*
G01Y-164650D01*
G01X-91250D01*
G01X-91250Y63050D02*
G01X-80803D01*
G01Y63950D01*
G01X-91250D01*
G01X-71597Y-165550D02*
G01X-59006D01*
G01X58003Y-165550D02*
G01X71597D01*
G01X80803Y-165550D02*
G01X92250D01*
G01Y-164650D01*
G01X80803D01*
G01X80803Y63050D02*
G01X92250D01*
G01Y63950D01*
G01X80803D01*
G01X-71597Y-164650D02*
G01X-59627D01*
G01X58922Y-164650D02*
G01X71597D01*
G01X-69609Y-163750D02*
G01X-59931D01*
G01X59572Y-163750D02*
G01X69609D01*
G01X-68209Y-162850D02*
G01X-60001D01*
G01X59908Y-162850D02*
G01X68209D01*
G01X-67115Y-161950D02*
G01X-60000D01*
G01X60010Y-161950D02*
G01X67115D01*
G01X-66238Y-161050D02*
G01X-60000D01*
G01X60000Y-161050D02*
G01X66238D01*
G01X-65507Y-160150D02*
G01X-60000D01*
G01X60000Y-160150D02*
G01X65507D01*
G01X-64894Y-159250D02*
G01X-60000D01*
G01X60000Y-159250D02*
G01X64894D01*
G01X-64381Y-158350D02*
G01X-60000D01*
G01X60000Y-158350D02*
G01X64381D01*
G01X-63961Y-157450D02*
G01X-60000D01*
G01X60000Y-157450D02*
G01X63961D01*
G01X-63626Y-156550D02*
G01X-60000D01*
G01X60000Y-156550D02*
G01X63626D01*
G01X-63362Y-155650D02*
G01X-60000D01*
G01X60000Y-155650D02*
G01X63362D01*
G01X-63164Y-154750D02*
G01X-60000D01*
G01X60000Y-154750D02*
G01X63164D01*
G01X-63027Y-153850D02*
G01X-60000D01*
G01X60000Y-153850D02*
G01X63027D01*
G01X-62950Y-152950D02*
G01X-60000D01*
G01Y-152050D01*
G01X-62950D01*
G01X60000Y-152950D02*
G01X62950D01*
G01Y-152050D01*
G01X60000D01*
G01X-63010Y-151150D02*
G01X-60000D01*
G01X60000Y-151150D02*
G01X63010D01*
G01X-63129Y-150250D02*
G01X-60303D01*
G01X60000Y-150250D02*
G01X63129D01*
G01X-63309Y-149350D02*
G01X-61203D01*
G01X60000Y-149350D02*
G01X63309D01*
G01X-63553Y-148450D02*
G01X-62103D01*
G01X60000Y-148450D02*
G01X63553D01*
G01X-63881Y-147550D02*
G01X-63003D01*
G01X60000Y-147550D02*
G01X63881D01*
G01X-64287Y-146650D02*
G01X-63903D01*
G01X60000Y-146650D02*
G01X64287D01*
G01X60000Y-145750D02*
G01X64778D01*
G01X60000Y-144850D02*
G01X65366D01*
G01X60000Y-143950D02*
G01X66070D01*
G01X60000Y-143050D02*
G01X66915D01*
G01X60000Y-142150D02*
G01X67941D01*
G01X60000Y-141250D02*
G01X69262D01*
G01X60000Y-140350D02*
G01X71048D01*
G01X-91250Y-139450D02*
G01X-80368D01*
G01X60000Y-139450D02*
G01X72186D01*
G01X80214Y-139450D02*
G01X92250D01*
G01X92250Y37850D02*
G01X80214D01*
G01X80214Y89150D02*
G01X92250D01*
G01X-91250Y-138550D02*
G01X-82442D01*
G01X-82442Y36950D02*
G01X-91250D01*
G01X-91250Y90050D02*
G01X-82442D01*
G01X60000Y-138550D02*
G01X69958D01*
G01X82442Y-138550D02*
G01X92250D01*
G01X92250Y36950D02*
G01X82442D01*
G01X82442Y90050D02*
G01X92250D01*
G01X-91250Y-137650D02*
G01X-83905D01*
G01X-83905Y36050D02*
G01X-91250D01*
G01X-91250Y90950D02*
G01X-83905D01*
G01X60000Y-137650D02*
G01X68495D01*
G01X83905Y-137650D02*
G01X92250D01*
G01X92250Y36050D02*
G01X83905D01*
G01X83905Y90950D02*
G01X92250D01*
G01X-91250Y-136750D02*
G01X-85055D01*
G01X-85055Y35150D02*
G01X-91250D01*
G01X-91250Y91850D02*
G01X-85055D01*
G01X60000Y-136750D02*
G01X67345D01*
G01X85055Y-136750D02*
G01X92250D01*
G01X92250Y35150D02*
G01X85055D01*
G01X85055Y91850D02*
G01X92250D01*
G01X-91250Y-135850D02*
G01X-85985D01*
G01X-85985Y34250D02*
G01X-91250D01*
G01X-91250Y92750D02*
G01X-85985D01*
G01X60000Y-135850D02*
G01X66415D01*
G01X85985Y-135850D02*
G01X92250D01*
G01X92250Y34250D02*
G01X85985D01*
G01X85985Y92750D02*
G01X92250D01*
G01X-91250Y-134950D02*
G01X-86749D01*
G01X-86749Y33350D02*
G01X-91250D01*
G01X-91250Y93650D02*
G01X-86749D01*
G01X60000Y-134950D02*
G01X65519D01*
G01X86749Y-134950D02*
G01X92250D01*
G01X92250Y33350D02*
G01X86749D01*
G01X86749Y93650D02*
G01X92250D01*
G01X-91250Y-134050D02*
G01X-87384D01*
G01X-87384Y32450D02*
G01X-91250D01*
G01X-91250Y94550D02*
G01X-87384D01*
G01X60000Y-134050D02*
G01X64622D01*
G01X87384Y-134050D02*
G01X92250D01*
G01X92250Y32450D02*
G01X87384D01*
G01X87384Y94550D02*
G01X92250D01*
G01X-91250Y-133150D02*
G01X-87910D01*
G01X-87910Y31550D02*
G01X-91250D01*
G01X-91250Y95450D02*
G01X-87910D01*
G01X60001Y-133150D02*
G01X63725D01*
G01X87910Y-133150D02*
G01X92250D01*
G01X92250Y31550D02*
G01X87910D01*
G01X87910Y95450D02*
G01X92250D01*
G01X-91250Y-132250D02*
G01X-88346D01*
G01X-88346Y30650D02*
G01X-91250D01*
G01X-91250Y96350D02*
G01X-88346D01*
G01X59931Y-132250D02*
G01X62828D01*
G01X88346Y-132250D02*
G01X92250D01*
G01X92250Y30650D02*
G01X88346D01*
G01X88346Y96350D02*
G01X92250D01*
G01X-91250Y-131350D02*
G01X-88701D01*
G01X-88701Y29750D02*
G01X-91250D01*
G01X-91250Y97250D02*
G01X-88701D01*
G01X59627Y-131350D02*
G01X61931D01*
G01X88701Y-131350D02*
G01X92250D01*
G01X92250Y29750D02*
G01X88701D01*
G01X88701Y97250D02*
G01X92250D01*
G01X-91250Y-130450D02*
G01X-88984D01*
G01X-88984Y28850D02*
G01X-91250D01*
G01X-91250Y98150D02*
G01X-88984D01*
G01X59006Y-130450D02*
G01X61034D01*
G01X88984Y-130450D02*
G01X92250D01*
G01X92250Y28850D02*
G01X88984D01*
G01X88984Y98150D02*
G01X92250D01*
G01X-91250Y-129550D02*
G01X-89201D01*
G01X-89201Y27950D02*
G01X-91250D01*
G01X-91250Y99050D02*
G01X-89201D01*
G01X58103Y-129550D02*
G01X60137D01*
G01X89201Y-129550D02*
G01X92250D01*
G01X92250Y27950D02*
G01X89201D01*
G01X89201Y99050D02*
G01X92250D01*
G01X-91250Y-128650D02*
G01X-89355D01*
G01X-89355Y27050D02*
G01X-91250D01*
G01X-91250Y99950D02*
G01X-89355D01*
G01X57203Y-128650D02*
G01X59240D01*
G01X89355Y-128650D02*
G01X92250D01*
G01X92250Y27050D02*
G01X89355D01*
G01X89355Y99950D02*
G01X92250D01*
G01X-91250Y-127750D02*
G01X-89434D01*
G01X-89434Y26150D02*
G01X-91250D01*
G01X-91250Y100850D02*
G01X-89434D01*
G01X56303Y-127750D02*
G01X58343D01*
G01X89434Y-127750D02*
G01X92250D01*
G01X92250Y26150D02*
G01X89434D01*
G01X89434Y100850D02*
G01X92250D01*
G01X55403Y-126850D02*
G01X57446D01*
G01X-91250Y-125950D02*
G01X-89408D01*
G01X-89408Y24350D02*
G01X-91250D01*
G01X-91250Y102650D02*
G01X-89408D01*
G01X54503Y-125950D02*
G01X56549D01*
G01X89408Y-125950D02*
G01X92250D01*
G01X92250Y24350D02*
G01X89408D01*
G01X89408Y102650D02*
G01X92250D01*
G01X-91250Y-125050D02*
G01X-89307D01*
G01X-89307Y23450D02*
G01X-91250D01*
G01X-91250Y103550D02*
G01X-89307D01*
G01X53603Y-125050D02*
G01X55652D01*
G01X89307Y-125050D02*
G01X92250D01*
G01X92250Y23450D02*
G01X89307D01*
G01X89307Y103550D02*
G01X92250D01*
G01X-91250Y-124150D02*
G01X-89145D01*
G01X-89145Y22550D02*
G01X-91250D01*
G01X-91250Y104450D02*
G01X-89145D01*
G01X89145Y-124150D02*
G01X92250D01*
G01X92250Y22550D02*
G01X89145D01*
G01X89145Y104450D02*
G01X92250D01*
G01X-91250Y-123250D02*
G01X-88904D01*
G01X-88904Y21650D02*
G01X-91250D01*
G01X-91250Y105350D02*
G01X-88904D01*
G01X88904Y-123250D02*
G01X92250D01*
G01X92250Y21650D02*
G01X88904D01*
G01X88904Y105350D02*
G01X92250D01*
G01X-91250Y-122350D02*
G01X-88592D01*
G01X-88592Y20750D02*
G01X-91250D01*
G01X-91250Y106250D02*
G01X-88592D01*
G01X88592Y-122350D02*
G01X92250D01*
G01X92250Y20750D02*
G01X88592D01*
G01X88592Y106250D02*
G01X92250D01*
G01X-91250Y-121450D02*
G01X-88206D01*
G01X-88206Y19850D02*
G01X-91250D01*
G01X-91250Y107150D02*
G01X-88206D01*
G01X88206Y-121450D02*
G01X92250D01*
G01X92250Y19850D02*
G01X88206D01*
G01X88206Y107150D02*
G01X92250D01*
G01X-91250Y-120550D02*
G01X-87737D01*
G01X-87737Y18950D02*
G01X-91250D01*
G01X-91250Y108050D02*
G01X-87737D01*
G01X87737Y-120550D02*
G01X92250D01*
G01X92250Y18950D02*
G01X87737D01*
G01X87737Y108050D02*
G01X92250D01*
G01X-91250Y-119650D02*
G01X-87174D01*
G01X-87174Y18050D02*
G01X-91250D01*
G01X-91250Y108950D02*
G01X-87174D01*
G01X87174Y-119650D02*
G01X92250D01*
G01X92250Y18050D02*
G01X87174D01*
G01X87174Y108950D02*
G01X92250D01*
G01X-91250Y-118750D02*
G01X-86498D01*
G01X-86498Y17150D02*
G01X-91250D01*
G01X-91250Y109850D02*
G01X-86498D01*
G01X86498Y-118750D02*
G01X92250D01*
G01X92250Y17150D02*
G01X86498D01*
G01X86498Y109850D02*
G01X92250D01*
G01X-91250Y-117850D02*
G01X-85685D01*
G01X-85685Y16250D02*
G01X-91250D01*
G01X-91250Y110750D02*
G01X-85685D01*
G01X85685Y-117850D02*
G01X92250D01*
G01X92250Y16250D02*
G01X85685D01*
G01X85685Y110750D02*
G01X92250D01*
G01X-91250Y-116950D02*
G01X-84697D01*
G01X-84697Y15350D02*
G01X-91250D01*
G01X-91250Y111650D02*
G01X-84697D01*
G01X84697Y-116950D02*
G01X92250D01*
G01X92250Y15350D02*
G01X84697D01*
G01X84697Y111650D02*
G01X92250D01*
G01X-91250Y-116050D02*
G01X-83477D01*
G01X-83477Y14450D02*
G01X-91250D01*
G01X-91250Y112550D02*
G01X-83477D01*
G01X83477Y-116050D02*
G01X92250D01*
G01X92250Y14450D02*
G01X83477D01*
G01X83477Y112550D02*
G01X92250D01*
G01X-91250Y-115150D02*
G01X-81798D01*
G01X-81798Y13550D02*
G01X-91250D01*
G01X-91250Y113450D02*
G01X-81798D01*
G01X81798Y-115150D02*
G01X92250D01*
G01X92250Y13550D02*
G01X81798D01*
G01X81798Y113450D02*
G01X92250D01*
G01X-91250Y-114250D02*
G01X-79468D01*
G01X-79468Y12650D02*
G01X-91250D01*
G01X-91250Y114350D02*
G01X-79468D01*
G01X79468Y-114250D02*
G01X92250D01*
G01X92250Y12650D02*
G01X79468D01*
G01X79468Y114350D02*
G01X92250D01*
G01X-91250Y-113350D02*
G01X-82013D01*
G01X-82013Y11750D02*
G01X-91250D01*
G01X-91250Y115250D02*
G01X-82013D01*
G01X82013Y-113350D02*
G01X92250D01*
G01X92250Y11750D02*
G01X82013D01*
G01X82013Y115250D02*
G01X92250D01*
G01X-91250Y-112450D02*
G01X-83619D01*
G01X-83619Y10850D02*
G01X-91250D01*
G01X-91250Y116150D02*
G01X-83619D01*
G01X83619Y-112450D02*
G01X92250D01*
G01X92250Y10850D02*
G01X83619D01*
G01X83619Y116150D02*
G01X92250D01*
G01X-91250Y-111550D02*
G01X-84816D01*
G01X-84816Y9950D02*
G01X-91250D01*
G01X-91250Y117050D02*
G01X-84816D01*
G01X84816Y-111550D02*
G01X92250D01*
G01X92250Y9950D02*
G01X84816D01*
G01X84816Y117050D02*
G01X92250D01*
G01X-91250Y-110650D02*
G01X-85785D01*
G01X-85785Y9050D02*
G01X-91250D01*
G01X-91250Y117950D02*
G01X-85785D01*
G01X85785Y-110650D02*
G01X92250D01*
G01X92250Y9050D02*
G01X85785D01*
G01X85785Y117950D02*
G01X92250D01*
G01X-91250Y-109750D02*
G01X-86582D01*
G01X-86582Y8150D02*
G01X-91250D01*
G01X-91250Y118850D02*
G01X-86582D01*
G01X86582Y-109750D02*
G01X92250D01*
G01X92250Y8150D02*
G01X86582D01*
G01X86582Y118850D02*
G01X92250D01*
G01X-91250Y-108850D02*
G01X-87244D01*
G01X-87244Y7250D02*
G01X-91250D01*
G01X-91250Y119750D02*
G01X-87244D01*
G01X87244Y-108850D02*
G01X92250D01*
G01X92250Y7250D02*
G01X87244D01*
G01X87244Y119750D02*
G01X92250D01*
G01X-91250Y-107950D02*
G01X-87795D01*
G01X-87795Y6350D02*
G01X-91250D01*
G01X-91250Y120650D02*
G01X-87795D01*
G01X87795Y-107950D02*
G01X92250D01*
G01X92250Y6350D02*
G01X87795D01*
G01X87795Y120650D02*
G01X92250D01*
G01X-91250Y-107050D02*
G01X-88253D01*
G01X-88253Y5450D02*
G01X-91250D01*
G01X-91250Y121550D02*
G01X-88253D01*
G01X88253Y-107050D02*
G01X92250D01*
G01X92250Y5450D02*
G01X88253D01*
G01X88253Y121550D02*
G01X92250D01*
G01X-91250Y-106150D02*
G01X-88628D01*
G01X-88628Y4550D02*
G01X-91250D01*
G01X-91250Y122450D02*
G01X-88628D01*
G01X88628Y-106150D02*
G01X92250D01*
G01X92250Y4550D02*
G01X88628D01*
G01X88628Y122450D02*
G01X92250D01*
G01X-91250Y-105250D02*
G01X-88931D01*
G01X-88931Y3650D02*
G01X-91250D01*
G01X-91250Y123350D02*
G01X-88931D01*
G01X88931Y-105250D02*
G01X92250D01*
G01X92250Y3650D02*
G01X88931D01*
G01X88931Y123350D02*
G01X92250D01*
G01X-91250Y-104350D02*
G01X-89166D01*
G01X-89166Y2750D02*
G01X-91250D01*
G01X-91250Y124250D02*
G01X-89166D01*
G01X89166Y-104350D02*
G01X92250D01*
G01X92250Y2750D02*
G01X89166D01*
G01X89166Y124250D02*
G01X92250D01*
G01X-91250Y-103450D02*
G01X-89324D01*
G01X-89324Y1850D02*
G01X-91250D01*
G01X-91250Y125150D02*
G01X-89324D01*
G01X89324Y-103450D02*
G01X92250D01*
G01X92250Y1850D02*
G01X89324D01*
G01X89324Y125150D02*
G01X92250D01*
G01X-91250Y-102550D02*
G01X-89417D01*
G01X-89417Y0950D02*
G01X-91250D01*
G01X-91250Y126050D02*
G01X-89417D01*
G01X89417Y-102550D02*
G01X92250D01*
G01X92250Y0950D02*
G01X89417D01*
G01X89417Y126050D02*
G01X92250D01*
G01X-91250Y-100750D02*
G01X-89425D01*
G01X-89425Y-0850D02*
G01X-91250D01*
G01X-91250Y127850D02*
G01X-89425D01*
G01X89425Y-100750D02*
G01X92250D01*
G01X92250Y-0850D02*
G01X89425D01*
G01X89425Y127850D02*
G01X92250D01*
G01X-91250Y-99850D02*
G01X-89342D01*
G01X-89342Y-1750D02*
G01X-91250D01*
G01X-91250Y128750D02*
G01X-89342D01*
G01X89342Y-99850D02*
G01X92250D01*
G01X92250Y-1750D02*
G01X89342D01*
G01X89342Y128750D02*
G01X92250D01*
G01X-91250Y-98950D02*
G01X-89183D01*
G01X-89183Y-2650D02*
G01X-91250D01*
G01X-91250Y129650D02*
G01X-89183D01*
G01X89183Y-98950D02*
G01X92250D01*
G01X92250Y-2650D02*
G01X89183D01*
G01X89183Y129650D02*
G01X92250D01*
G01X-91250Y-98050D02*
G01X-88957D01*
G01X-88957Y-3550D02*
G01X-91250D01*
G01X-91250Y130550D02*
G01X-88957D01*
G01X88957Y-98050D02*
G01X92250D01*
G01X92250Y-3550D02*
G01X88957D01*
G01X88957Y130550D02*
G01X92250D01*
G01X-91250Y-97150D02*
G01X-88665D01*
G01X-88665Y-4450D02*
G01X-91250D01*
G01X-91250Y131450D02*
G01X-88665D01*
G01X88665Y-97150D02*
G01X92250D01*
G01X92250Y-4450D02*
G01X88665D01*
G01X88665Y131450D02*
G01X92250D01*
G01X-91250Y-96250D02*
G01X-88299D01*
G01X-88299Y-5350D02*
G01X-91250D01*
G01X-91250Y132350D02*
G01X-88299D01*
G01X88299Y-96250D02*
G01X92250D01*
G01X92250Y-5350D02*
G01X88299D01*
G01X88299Y132350D02*
G01X92250D01*
G01X-91250Y-95350D02*
G01X-87853D01*
G01X-87853Y-6250D02*
G01X-91250D01*
G01X-91250Y133250D02*
G01X-87853D01*
G01X87853Y-95350D02*
G01X92250D01*
G01X92250Y-6250D02*
G01X87853D01*
G01X87853Y133250D02*
G01X92250D01*
G01X-91250Y-94450D02*
G01X-87314D01*
G01X-87314Y-7150D02*
G01X-91250D01*
G01X-91250Y134150D02*
G01X-87314D01*
G01X87314Y-94450D02*
G01X92250D01*
G01X92250Y-7150D02*
G01X87314D01*
G01X87314Y134150D02*
G01X92250D01*
G01X-91250Y-93550D02*
G01X-86666D01*
G01X-86666Y-8050D02*
G01X-91250D01*
G01X-91250Y135050D02*
G01X-86666D01*
G01X86666Y-93550D02*
G01X92250D01*
G01X92250Y-8050D02*
G01X86666D01*
G01X86666Y135050D02*
G01X92250D01*
G01X-91250Y-92650D02*
G01X-85885D01*
G01X-85885Y-8950D02*
G01X-91250D01*
G01X-91250Y135950D02*
G01X-85885D01*
G01X85885Y-92650D02*
G01X92250D01*
G01X92250Y-8950D02*
G01X85885D01*
G01X85885Y135950D02*
G01X92250D01*
G01X-91250Y-91750D02*
G01X-84936D01*
G01X-84936Y-9850D02*
G01X-91250D01*
G01X-91250Y136850D02*
G01X-84936D01*
G01X84936Y-91750D02*
G01X92250D01*
G01X92250Y-9850D02*
G01X84936D01*
G01X84936Y136850D02*
G01X92250D01*
G01X-91250Y-90850D02*
G01X-83762D01*
G01X-83762Y-10750D02*
G01X-91250D01*
G01X-91250Y137750D02*
G01X-83762D01*
G01X83762Y-90850D02*
G01X92250D01*
G01X92250Y-10750D02*
G01X83762D01*
G01X83762Y137750D02*
G01X92250D01*
G01X-91250Y-89950D02*
G01X-82227D01*
G01X-82227Y-11650D02*
G01X-91250D01*
G01X-91250Y138650D02*
G01X-82227D01*
G01X82227Y-89950D02*
G01X92250D01*
G01X92250Y-11650D02*
G01X82227D01*
G01X82227Y138650D02*
G01X92250D01*
G01X-91250Y-89050D02*
G01X-79841D01*
G01X-79841Y-12550D02*
G01X-91250D01*
G01X-91250Y139550D02*
G01X-79841D01*
G01X79841Y-89050D02*
G01X92250D01*
G01X92250Y139550D02*
G01X79841D01*
G01X-91250Y-88150D02*
G01X-81584D01*
G01X-81584Y-13450D02*
G01X-91250D01*
G01X-91250Y140450D02*
G01X-81584D01*
G01X81584Y-88150D02*
G01X92250D01*
G01X92250Y-13450D02*
G01X81584D01*
G01X81584Y140450D02*
G01X92250D01*
G01X-91250Y-87250D02*
G01X-83311D01*
G01X-83311Y-14350D02*
G01X-91250D01*
G01X-91250Y141350D02*
G01X-83311D01*
G01X83311Y-87250D02*
G01X92250D01*
G01X92250Y-14350D02*
G01X83311D01*
G01X83311Y141350D02*
G01X92250D01*
G01X-91250Y-86350D02*
G01X-84578D01*
G01X-84578Y-15250D02*
G01X-91250D01*
G01X-91250Y142250D02*
G01X-84578D01*
G01X84578Y-86350D02*
G01X92250D01*
G01X92250Y-15250D02*
G01X84578D01*
G01X84578Y142250D02*
G01X92250D01*
G01X-91250Y-85450D02*
G01X-85585D01*
G01X-85585Y-16150D02*
G01X-91250D01*
G01X-91250Y143150D02*
G01X-85585D01*
G01X85585Y-85450D02*
G01X92250D01*
G01X92250Y-16150D02*
G01X85585D01*
G01X85585Y143150D02*
G01X92250D01*
G01X-91250Y-84550D02*
G01X-86414D01*
G01X-86414Y-17050D02*
G01X-91250D01*
G01X-91250Y144050D02*
G01X-86414D01*
G01X86414Y-84550D02*
G01X92250D01*
G01X92250Y-17050D02*
G01X86414D01*
G01X86414Y144050D02*
G01X92250D01*
G01X-91250Y-83650D02*
G01X-87104D01*
G01X-87104Y-17950D02*
G01X-91250D01*
G01X-91250Y144950D02*
G01X-87104D01*
G01X87104Y-83650D02*
G01X92250D01*
G01X92250Y-17950D02*
G01X87104D01*
G01X87104Y144950D02*
G01X92250D01*
G01X-91250Y-82750D02*
G01X-87679D01*
G01X-87679Y-18850D02*
G01X-91250D01*
G01X-91250Y145850D02*
G01X-87679D01*
G01X87679Y-82750D02*
G01X92250D01*
G01X92250Y-18850D02*
G01X87679D01*
G01X87679Y145850D02*
G01X92250D01*
G01X-91250Y-81850D02*
G01X-88159D01*
G01X-88159Y-19750D02*
G01X-91250D01*
G01X-91250Y146750D02*
G01X-88159D01*
G01X88159Y-81850D02*
G01X92250D01*
G01X92250Y-19750D02*
G01X88159D01*
G01X88159Y146750D02*
G01X92250D01*
G01X-91250Y-80950D02*
G01X-88555D01*
G01X-88555Y-20650D02*
G01X-91250D01*
G01X-91250Y147650D02*
G01X-88555D01*
G01X88555Y-80950D02*
G01X92250D01*
G01X92250Y-20650D02*
G01X88555D01*
G01X88555Y147650D02*
G01X92250D01*
G01X-91250Y-80050D02*
G01X-88877D01*
G01X-88877Y-21550D02*
G01X-91250D01*
G01X-91250Y148550D02*
G01X-88877D01*
G01X88877Y-80050D02*
G01X92250D01*
G01X92250Y-21550D02*
G01X88877D01*
G01X88877Y148550D02*
G01X92250D01*
G01X-91250Y-79150D02*
G01X-89118D01*
G01X-89118Y-22450D02*
G01X-91250D01*
G01X-91250Y149450D02*
G01X-89118D01*
G01X89118Y-79150D02*
G01X92250D01*
G01X92250Y-22450D02*
G01X89118D01*
G01X89118Y149450D02*
G01X92250D01*
G01X-91250Y-78250D02*
G01X-89289D01*
G01X-89289Y-23350D02*
G01X-91250D01*
G01X-91250Y150350D02*
G01X-89289D01*
G01X89289Y-78250D02*
G01X92250D01*
G01X92250Y-23350D02*
G01X89289D01*
G01X89289Y150350D02*
G01X92250D01*
G01X-91250Y-77350D02*
G01X-89399D01*
G01X-89399Y-24250D02*
G01X-91250D01*
G01X-91250Y151250D02*
G01X-89399D01*
G01X89399Y-77350D02*
G01X92250D01*
G01X92250Y-24250D02*
G01X89399D01*
G01X89399Y151250D02*
G01X92250D01*
G01X-91250Y-75550D02*
G01X-89443D01*
G01X-89443Y-26050D02*
G01X-91250D01*
G01X-91250Y153050D02*
G01X-89443D01*
G01X89443Y-75550D02*
G01X92250D01*
G01X92250Y-26050D02*
G01X89443D01*
G01X89443Y153050D02*
G01X92250D01*
G01X-91250Y-74650D02*
G01X-89364D01*
G01X-89364Y-26950D02*
G01X-91250D01*
G01X-91250Y153950D02*
G01X-89364D01*
G01X89364Y-74650D02*
G01X92250D01*
G01X92250Y-26950D02*
G01X89364D01*
G01X89364Y153950D02*
G01X92250D01*
G01X-91250Y-73750D02*
G01X-89219D01*
G01X-89219Y-27850D02*
G01X-91250D01*
G01X-91250Y154850D02*
G01X-89219D01*
G01X89219Y-73750D02*
G01X92250D01*
G01X92250Y-27850D02*
G01X89219D01*
G01X89219Y154850D02*
G01X92250D01*
G01X-91250Y-72850D02*
G01X-89011D01*
G01X-89011Y-28750D02*
G01X-91250D01*
G01X-91250Y155750D02*
G01X-89011D01*
G01X89011Y-72850D02*
G01X92250D01*
G01X92250Y-28750D02*
G01X89011D01*
G01X89011Y155750D02*
G01X92250D01*
G01X-91250Y-71950D02*
G01X-88737D01*
G01X-88737Y-29650D02*
G01X-91250D01*
G01X-91250Y156650D02*
G01X-88737D01*
G01X88737Y-71950D02*
G01X92250D01*
G01X92250Y-29650D02*
G01X88737D01*
G01X88737Y156650D02*
G01X92250D01*
G01X-91250Y-71050D02*
G01X-88392D01*
G01X-88392Y-30550D02*
G01X-91250D01*
G01X-91250Y157551D02*
G01X-88392D01*
G01X88392Y-71050D02*
G01X92250D01*
G01X92250Y-30550D02*
G01X88392D01*
G01X88392Y157551D02*
G01X92250D01*
G01X-91250Y-70150D02*
G01X-87968D01*
G01X-87968Y-31450D02*
G01X-91250D01*
G01X-91250Y158451D02*
G01X-87968D01*
G01X87968Y-70150D02*
G01X92250D01*
G01X92250Y-31450D02*
G01X87968D01*
G01X87968Y158451D02*
G01X92250D01*
G01X-91250Y-69250D02*
G01X-87449D01*
G01X-87449Y-32350D02*
G01X-91250D01*
G01X87449Y-69250D02*
G01X92250D01*
G01X92250Y-32350D02*
G01X87449D01*
G01X-91250Y-68350D02*
G01X-86823D01*
G01X-86823Y-33250D02*
G01X-91250D01*
G01X-91250Y160251D02*
G01X-86823D01*
G01X86823Y-68350D02*
G01X92250D01*
G01X92250Y-33250D02*
G01X86823D01*
G01X86823Y160251D02*
G01X92250D01*
G01X-91250Y-67450D02*
G01X-86078D01*
G01X-86078Y-34150D02*
G01X-91250D01*
G01X86078Y-67450D02*
G01X92250D01*
G01X92250Y-34150D02*
G01X86078D01*
G01X-91250Y-66550D02*
G01X-85174D01*
G01X-85174Y-35050D02*
G01X-91250D01*
G01X85174Y-66550D02*
G01X92250D01*
G01X92250Y-35050D02*
G01X85174D01*
G01X-91250Y-65650D02*
G01X-84048D01*
G01X-84048Y-35950D02*
G01X-91250D01*
G01X84048Y-65650D02*
G01X92250D01*
G01X92250Y-35950D02*
G01X84048D01*
G01X-91250Y-64750D02*
G01X-82618D01*
G01X-82618Y-36850D02*
G01X-91250D01*
G01X82618Y-64750D02*
G01X92250D01*
G01X92250Y-36850D02*
G01X82618D01*
G01X-91250Y-63850D02*
G01X-80528D01*
G01X-80528Y-37750D02*
G01X-91250D01*
G01X80528Y-63850D02*
G01X92250D01*
G01X92250Y-37750D02*
G01X80528D01*
G01X-91250Y-62950D02*
G01X-81078D01*
G01X-81078Y-38650D02*
G01X-91250D01*
G01X81078Y-62950D02*
G01X92250D01*
G01X92250Y-38650D02*
G01X81078D01*
G01X-91250Y-62050D02*
G01X-82964D01*
G01X-82964Y-39550D02*
G01X-91250D01*
G01X82964Y-62050D02*
G01X92250D01*
G01X92250Y-39550D02*
G01X82964D01*
G01X-91250Y-61150D02*
G01X-84333D01*
G01X-84333Y-40450D02*
G01X-91250D01*
G01X84333Y-61150D02*
G01X92250D01*
G01X92250Y-40450D02*
G01X84333D01*
G01X-91250Y-60250D02*
G01X-85385D01*
G01X-85385Y-41350D02*
G01X-91250D01*
G01X85385Y-60250D02*
G01X92250D01*
G01X92250Y-41350D02*
G01X85385D01*
G01X-91250Y-59350D02*
G01X-86246D01*
G01X-86246Y-42250D02*
G01X-91250D01*
G01X86246Y-59350D02*
G01X92250D01*
G01X92250Y-42250D02*
G01X86246D01*
G01X-91250Y-58450D02*
G01X-86963D01*
G01X-86963Y-43150D02*
G01X-91250D01*
G01X-91250Y185451D02*
G01X-86963D01*
G01X86963Y-58450D02*
G01X92250D01*
G01X92250Y-43150D02*
G01X86963D01*
G01X86963Y185451D02*
G01X92250D01*
G01X-91250Y-57550D02*
G01X-87564D01*
G01X-87564Y-44050D02*
G01X-91250D01*
G01X87564Y-57550D02*
G01X92250D01*
G01X92250Y-44050D02*
G01X87564D01*
G01X-91250Y-56650D02*
G01X-88066D01*
G01X-88066Y-44950D02*
G01X-91250D01*
G01X-91250Y171951D02*
G01X-88066D01*
G01X-88066Y183651D02*
G01X-91250D01*
G01X88066Y-56650D02*
G01X92250D01*
G01X92250Y-44950D02*
G01X88066D01*
G01X88066Y171951D02*
G01X92250D01*
G01X92250Y183651D02*
G01X88066D01*
G01X-91250Y-55750D02*
G01X-88483D01*
G01X-88483Y-45850D02*
G01X-91250D01*
G01X-91250Y172851D02*
G01X-88483D01*
G01X88483Y-55750D02*
G01X92250D01*
G01X92250Y-45850D02*
G01X88483D01*
G01X88483Y172851D02*
G01X92250D01*
G01X-91250Y-54850D02*
G01X-88810D01*
G01X-88810Y-46750D02*
G01X-91250D01*
G01X-91250Y181851D02*
G01X-88810D01*
G01X88810Y-54850D02*
G01X92250D01*
G01X92250Y-46750D02*
G01X88810D01*
G01X88810Y181851D02*
G01X92250D01*
G01X-91250Y-53950D02*
G01X-89065D01*
G01X-89065Y-47650D02*
G01X-91250D01*
G01X-91250Y174651D02*
G01X-89065D01*
G01X89065Y-53950D02*
G01X92250D01*
G01X92250Y-47650D02*
G01X89065D01*
G01X89065Y174651D02*
G01X92250D01*
G01X-91250Y-53050D02*
G01X-89254D01*
G01X-89254Y-48550D02*
G01X-91250D01*
G01X-91250Y175551D02*
G01X-89254D01*
G01X-89254Y180051D02*
G01X-91250D01*
G01X89254Y-53050D02*
G01X92250D01*
G01X92250Y-48550D02*
G01X89254D01*
G01X89254Y175551D02*
G01X92250D01*
G01X92250Y180051D02*
G01X89254D01*
G01X-91250Y-52150D02*
G01X-89382D01*
G01X-89382Y-49450D02*
G01X-91250D01*
G01X-91250Y176451D02*
G01X-89382D01*
G01X89382Y-52150D02*
G01X92250D01*
G01X92250Y-49450D02*
G01X89382D01*
G01X89382Y176451D02*
G01X92250D01*
G01X79960Y-12550D02*
G01X92250D01*
G01X-91250Y37850D02*
G01X-80214D01*
G01X-80214Y89150D02*
G01X-91250D01*
G01X41000Y93650D02*
G01X41097D01*
G01X41000Y94550D02*
G01X41997D01*
G01X41000Y95450D02*
G01X42000D01*
G01Y96350D01*
G01X41000D01*
G01Y97250D01*
G01X42000D01*
G01Y98150D01*
G01X41000D01*
G01Y99050D01*
G01X42000D01*
G01Y99950D01*
G01X41000D01*
G01Y100850D01*
G01X42000D01*
G01Y101750D01*
G01X41000D01*
G01Y102650D01*
G01X42000D01*
G01X41140Y103550D02*
G01X42000D01*
G01X41258Y104450D02*
G01X42000D01*
G01X41171Y105350D02*
G01X42000D01*
G01X40861Y106250D02*
G01X42000D01*
G01X40285Y107150D02*
G01X42000D01*
G01X39385Y108050D02*
G01X42000D01*
G01X38485Y108950D02*
G01X42000D01*
G01X37585Y109850D02*
G01X42000D01*
G01X36685Y110750D02*
G01X42000D01*
G01X35785Y111650D02*
G01X42000D01*
G01X34885Y112550D02*
G01X42000D01*
G01X33985Y113450D02*
G01X42000D01*
G01X33085Y114350D02*
G01X42000D01*
G01X32185Y115250D02*
G01X42000D01*
G01X31117Y116150D02*
G01X42000D01*
G01X-51641Y117050D02*
G01X42000D01*
G01X-52178Y117950D02*
G01X42000D01*
G01Y118850D01*
G01X-52178D01*
G01Y119750D01*
G01X42000D01*
G01Y120650D01*
G01X-52178D01*
G01Y121550D01*
G01X42000D01*
G01Y122450D01*
G01X-52178D01*
G01Y123350D01*
G01X42000D01*
G01Y124250D01*
G01X-52178D01*
G01Y125150D01*
G01X42000D01*
G01Y126050D01*
G01X-52178D01*
G01Y126950D01*
G01X42000D01*
G01Y127850D01*
G01X-52178D01*
G01Y128750D01*
G01X42000D01*
G01Y129650D01*
G01X-52178D01*
G01Y130550D01*
G01X42000D01*
G01Y131450D01*
G01X-52178D01*
G01Y132350D01*
G01X42000D01*
G01Y133250D01*
G01X-52178D01*
G01Y134150D01*
G01X42000D01*
G01Y135050D01*
G01X-52178D01*
G01Y135950D01*
G01X42000D01*
G01Y136850D01*
G01X-52178D01*
G01Y137750D01*
G01X42000D01*
G01Y138650D01*
G01X-52178D01*
G01Y139550D01*
G01X42000D01*
G01Y140450D01*
G01X-52178D01*
G01Y141350D01*
G01X42000D01*
G01Y142250D01*
G01X-52178D01*
G01Y143150D01*
G01X42000D01*
G01X-52178Y144050D02*
G01X41855D01*
G01X-52178Y144950D02*
G01X41750D01*
G01Y145850D01*
G01X-52178D01*
G01Y146750D01*
G01X41750D01*
G01Y147650D01*
G01X-52178D01*
G01Y148550D01*
G01X41750D01*
G01Y149450D01*
G01X-52178D01*
G01Y150350D01*
G01X-28668D01*
G01X-22132Y150350D02*
G01X22132D01*
G01X28668Y150350D02*
G01X41750D01*
G01X-52178Y151250D02*
G01X-31213D01*
G01X-19587Y151250D02*
G01X19587D01*
G01X31213Y151250D02*
G01X41750D01*
G01X-52178Y152150D02*
G01X-32819D01*
G01X-17981Y152150D02*
G01X17981D01*
G01X32819Y152150D02*
G01X41750D01*
G01X-52178Y153050D02*
G01X-34016D01*
G01X-16784Y153050D02*
G01X16784D01*
G01X34016Y153050D02*
G01X41750D01*
G01X-52178Y153950D02*
G01X-34985D01*
G01X-15815Y153950D02*
G01X15815D01*
G01X34985Y153950D02*
G01X41750D01*
G01X-52178Y154850D02*
G01X-35782D01*
G01X-15018Y154850D02*
G01X15018D01*
G01X35782Y154850D02*
G01X41750D01*
G01X-52178Y155750D02*
G01X-36444D01*
G01X-14356Y155750D02*
G01X14356D01*
G01X36444Y155750D02*
G01X41750D01*
G01X-52178Y156650D02*
G01X-36995D01*
G01X-13805Y156650D02*
G01X13805D01*
G01X36995Y156650D02*
G01X41750D01*
G01X-52178Y157551D02*
G01X-37453D01*
G01X-13347Y157551D02*
G01X13347D01*
G01X37453Y157551D02*
G01X41750D01*
G01X-52232Y158451D02*
G01X-37829D01*
G01X-12971Y158451D02*
G01X12971D01*
G01X37829Y158451D02*
G01X41750D01*
G01X-91250Y159351D02*
G01X-87448D01*
G01X-52514Y159351D02*
G01X-38131D01*
G01X-12669Y159351D02*
G01X12669D01*
G01X38131Y159351D02*
G01X41750D01*
G01X87448Y159351D02*
G01X92250D01*
G01X-53065Y160251D02*
G01X-38366D01*
G01X-12434Y160251D02*
G01X12434D01*
G01X38366Y160251D02*
G01X41750D01*
G01X-91250Y161151D02*
G01X-86077D01*
G01X-53949Y161151D02*
G01X-38525D01*
G01X-12275Y161151D02*
G01X12275D01*
G01X38525Y161151D02*
G01X41750D01*
G01X86077Y161151D02*
G01X92250D01*
G01X-91250Y162051D02*
G01X-85173D01*
G01X-54849Y162051D02*
G01X-38617D01*
G01X-12183Y162051D02*
G01X12183D01*
G01X38617Y162051D02*
G01X41750D01*
G01X85173Y162051D02*
G01X92250D01*
G01X-91250Y162951D02*
G01X-84046D01*
G01X-55749Y162951D02*
G01X-38650D01*
G01X-12150Y162951D02*
G01X12150D01*
G01X38650Y162951D02*
G01X41750D01*
G01X84046Y162951D02*
G01X92250D01*
G01X-91250Y163851D02*
G01X-82616D01*
G01X-56486Y163851D02*
G01X-38625D01*
G01X-12175Y163851D02*
G01X12175D01*
G01X38625Y163851D02*
G01X41750D01*
G01X82616Y163851D02*
G01X92250D01*
G01X-91250Y164751D02*
G01X-80525D01*
G01X-57193Y164751D02*
G01X-38542D01*
G01X-12258Y164751D02*
G01X12258D01*
G01X38542Y164751D02*
G01X41750D01*
G01X80525Y164751D02*
G01X92250D01*
G01X-91250Y165651D02*
G01X-81080D01*
G01X-57869Y165651D02*
G01X-38383D01*
G01X-12417Y165651D02*
G01X12417D01*
G01X38383Y165651D02*
G01X41792D01*
G01X81080Y165651D02*
G01X92250D01*
G01X-91250Y166551D02*
G01X-82966D01*
G01X-58187Y166551D02*
G01X-38157D01*
G01X-12643Y166551D02*
G01X12643D01*
G01X38157Y166551D02*
G01X42058D01*
G01X82966Y166551D02*
G01X92250D01*
G01X-91250Y167451D02*
G01X-84335D01*
G01X-58505Y167451D02*
G01X-37864D01*
G01X-12936Y167451D02*
G01X12936D01*
G01X37864Y167451D02*
G01X42583D01*
G01X84335Y167451D02*
G01X92250D01*
G01X-91250Y168351D02*
G01X-85386D01*
G01X-58823Y168351D02*
G01X-37499D01*
G01X-13301Y168351D02*
G01X13301D01*
G01X37499Y168351D02*
G01X43444D01*
G01X85386Y168351D02*
G01X92250D01*
G01X-91250Y169251D02*
G01X-86247D01*
G01X-59141Y169251D02*
G01X-37052D01*
G01X-13748Y169251D02*
G01X13748D01*
G01X37052Y169251D02*
G01X44344D01*
G01X86247Y169251D02*
G01X92250D01*
G01X-91250Y170151D02*
G01X-86964D01*
G01X-59459Y170151D02*
G01X-36513D01*
G01X-14287Y170151D02*
G01X14287D01*
G01X36513Y170151D02*
G01X45244D01*
G01X86964Y170151D02*
G01X92250D01*
G01X-91250Y171051D02*
G01X-87565D01*
G01X-59777Y171051D02*
G01X-35865D01*
G01X-14935Y171051D02*
G01X14935D01*
G01X35865Y171051D02*
G01X46144D01*
G01X87565Y171051D02*
G01X92250D01*
G01X-60095Y171951D02*
G01X-35084D01*
G01X-15716Y171951D02*
G01X15716D01*
G01X35084Y171951D02*
G01X47044D01*
G01X-60413Y172851D02*
G01X-34134D01*
G01X-16666Y172851D02*
G01X16666D01*
G01X34134Y172851D02*
G01X47944D01*
G01X-91250Y173751D02*
G01X-88811D01*
G01X-60731Y173751D02*
G01X-32961D01*
G01X-17839Y173751D02*
G01X17839D01*
G01X32961Y173751D02*
G01X48844D01*
G01X88811Y173751D02*
G01X92250D01*
G01X-61049Y174651D02*
G01X-31425D01*
G01X-19375Y174651D02*
G01X19375D01*
G01X31425Y174651D02*
G01X49744D01*
G01X-61367Y175551D02*
G01X-29037D01*
G01X-21763Y175551D02*
G01X21763D01*
G01X29037Y175551D02*
G01X50644D01*
G01X-61686Y176451D02*
G01X51544D01*
G01X-62004Y177351D02*
G01X52444D01*
G01X-62322Y178251D02*
G01X53344D01*
G01X-91250Y179151D02*
G01X-89381D01*
G01X-62640Y179151D02*
G01X54244D01*
G01X89381Y179151D02*
G01X92250D01*
G01X-62958Y180051D02*
G01X55144D01*
G01X-91250Y180951D02*
G01X-89064D01*
G01X-63276Y180951D02*
G01X56076D01*
G01X89064Y180951D02*
G01X92250D01*
G01X-63590Y181851D02*
G01X58287D01*
G01X-91250Y182751D02*
G01X-88482D01*
G01X-63918Y182751D02*
G01X59677D01*
G01X88482Y182751D02*
G01X92250D01*
G01X-64334Y183651D02*
G01X61067D01*
G01X-91250Y184551D02*
G01X-87563D01*
G01X-64837Y184551D02*
G01X62457D01*
G01X87563Y184551D02*
G01X92250D01*
G01X-65437Y185451D02*
G01X63847D01*
G01X-91250Y186351D02*
G01X-86245D01*
G01X-66155Y186351D02*
G01X65237D01*
G01X86245Y186351D02*
G01X92250D01*
G01X-91250Y187251D02*
G01X-85384D01*
G01X-67016Y187251D02*
G01X66627D01*
G01X85384Y187251D02*
G01X92250D01*
G01X-91250Y188151D02*
G01X-84332D01*
G01X-68068Y188151D02*
G01X68018D01*
G01X84332Y188151D02*
G01X92250D01*
G01X-91250Y189051D02*
G01X-82963D01*
G01X-69437Y189051D02*
G01X69437D01*
G01X82963Y189051D02*
G01X92250D01*
G01X-91250Y189951D02*
G01X-81075D01*
G01X-71325Y189951D02*
G01X71325D01*
G01X81075Y189951D02*
G01X92250D01*
G01X-45500Y-160176D02*
G01X-45278Y-160257D01*
G01X-43900Y-160500D01*
G01X-42500D01*
G01X-41122Y-160257D01*
G01X-39806Y-159778D01*
G01X-39084Y-159361D01*
G01X-38819Y-159819D01*
G01X-38231Y-160660D01*
G01X-37571Y-161446D01*
G01X-36846Y-162171D01*
G01X-36060Y-162831D01*
G01X-35219Y-163419D01*
G01X-34331Y-163932D01*
G01X-33401Y-164366D01*
G01X-32437Y-164717D01*
G01X-31446Y-164982D01*
G01X-30435Y-165161D01*
G01X-29413Y-165250D01*
G01X-28387D01*
G01X-27365Y-165161D01*
G01X-26354Y-164982D01*
G01X-25363Y-164717D01*
G01X-24399Y-164366D01*
G01X-23893Y-164130D01*
G01X-23863Y-164300D01*
G01X-23728Y-164806D01*
G01X-23549Y-165298D01*
G01X-23327Y-165773D01*
G01X-23065Y-166227D01*
G01X-22765Y-166656D01*
G01X-22428Y-167057D01*
G01X-22057Y-167428D01*
G01X-21656Y-167765D01*
G01X-21227Y-168065D01*
G01X-20773Y-168327D01*
G01X-20298Y-168549D01*
G01X-19806Y-168728D01*
G01X-19300Y-168863D01*
G01X-18784Y-168954D01*
G01X-18262Y-169000D01*
G01X-17738D01*
G01X-17216Y-168954D01*
G01X-17008Y-168918D01*
G01X-16855Y-168904D01*
G01X-16703Y-168864D01*
G01X-16700Y-168863D01*
G01X-16450Y-168796D01*
G01X-12527Y-167750D01*
G01X0500D01*
G01X9793D01*
G01X10000Y-167768D01*
G01X10207Y-167750D01*
G01X10416D01*
G01X10621Y-167714D01*
G01X10828Y-167696D01*
G01X11029Y-167642D01*
G01X11234Y-167606D01*
G01X11430Y-167534D01*
G01X11631Y-167481D01*
G01X11819Y-167393D01*
G01X12015Y-167321D01*
G01X12195Y-167217D01*
G01X12384Y-167129D01*
G01X12555Y-167010D01*
G01X12735Y-166906D01*
G01X12894Y-166772D01*
G01X13065Y-166653D01*
G01X13212Y-166505D01*
G01X13372Y-166372D01*
G01X13505Y-166212D01*
G01X19359Y-160359D01*
G01X19569Y-160660D01*
G01X20229Y-161446D01*
G01X20954Y-162171D01*
G01X21740Y-162831D01*
G01X22581Y-163419D01*
G01X23469Y-163932D01*
G01X24399Y-164366D01*
G01X25363Y-164717D01*
G01X26354Y-164982D01*
G01X27365Y-165161D01*
G01X28387Y-165250D01*
G01X29413D01*
G01X30435Y-165161D01*
G01X31446Y-164982D01*
G01X32437Y-164717D01*
G01X33401Y-164366D01*
G01X34331Y-163932D01*
G01X35219Y-163419D01*
G01X36060Y-162831D01*
G01X36846Y-162171D01*
G01X37571Y-161446D01*
G01X38231Y-160660D01*
G01X38819Y-159819D01*
G01X39084Y-159361D01*
G01X39806Y-159778D01*
G01X41122Y-160257D01*
G01X42500Y-160500D01*
G01X43900D01*
G01X45278Y-160257D01*
G01X46500Y-159812D01*
G01X46594Y-159778D01*
G01X47806Y-159078D01*
G01X48878Y-158178D01*
G01X49778Y-157106D01*
G01X50478Y-155894D01*
G01X50957Y-154578D01*
G01X51200Y-153200D01*
G01Y-143800D01*
G01X50957Y-142422D01*
G01X50478Y-141106D01*
G01X49778Y-139894D01*
G01X48878Y-138822D01*
G01X47806Y-137922D01*
G01X46594Y-137222D01*
G01X46500Y-137188D01*
G01X45278Y-136743D01*
G01X43900Y-136500D01*
G01X42500D01*
G01X41122Y-136743D01*
G01X39806Y-137222D01*
G01X38594Y-137922D01*
G01X38000Y-138420D01*
G01Y-122500D01*
G01X30000D01*
G01X26000D01*
G01X22000D01*
G01X21750D01*
G01Y-120260D01*
G01X25760Y-116250D01*
G01X29635D01*
G01X29678Y-116257D01*
G01X29683D01*
G01X34025Y-116921D01*
G01X34216Y-116954D01*
G01X34284Y-116960D01*
G01X34460Y-116987D01*
G01X34565Y-116985D01*
G01X34738Y-117000D01*
G01X35262D01*
G01X35784Y-116954D01*
G01X36300Y-116863D01*
G01X36806Y-116728D01*
G01X37298Y-116549D01*
G01X37773Y-116327D01*
G01X38227Y-116065D01*
G01X38656Y-115765D01*
G01X39057Y-115428D01*
G01X39428Y-115057D01*
G01X39765Y-114656D01*
G01X40065Y-114227D01*
G01X40327Y-113773D01*
G01X40549Y-113298D01*
G01X40728Y-112806D01*
G01X40863Y-112300D01*
G01X40954Y-111784D01*
G01X41000Y-111262D01*
G01Y-110738D01*
G01X40954Y-110216D01*
G01X40863Y-109700D01*
G01X40728Y-109194D01*
G01X40549Y-108702D01*
G01X40327Y-108227D01*
G01X40196Y-108000D01*
G01X40065Y-107773D01*
G01X39765Y-107344D01*
G01X39428Y-106943D01*
G01X39057Y-106572D01*
G01X38656Y-106235D01*
G01X38227Y-105935D01*
G01X37773Y-105673D01*
G01X37298Y-105451D01*
G01X36806Y-105272D01*
G01X36300Y-105137D01*
G01X35784Y-105046D01*
G01X35262Y-105000D01*
G01X34738D01*
G01X34216Y-105046D01*
G01X33700Y-105137D01*
G01X33194Y-105272D01*
G01X32702Y-105451D01*
G01X32287Y-105645D01*
G01X32214Y-105673D01*
G01X31947Y-105834D01*
G01X31773Y-105935D01*
G01X31723Y-105970D01*
G01X28779Y-107750D01*
G01X27924D01*
G01X31424Y-104250D01*
G01X42935D01*
G01X46500Y-105484D01*
G01X46993Y-105654D01*
G01X47194Y-105728D01*
G01X47240Y-105740D01*
G01X47389Y-105792D01*
G01X47497Y-105809D01*
G01X47700Y-105863D01*
G01X48216Y-105954D01*
G01X48738Y-106000D01*
G01X49262D01*
G01X49784Y-105954D01*
G01X50300Y-105863D01*
G01X50806Y-105728D01*
G01X51298Y-105549D01*
G01X51773Y-105327D01*
G01X52227Y-105065D01*
G01X52656Y-104765D01*
G01X53057Y-104428D01*
G01X53428Y-104057D01*
G01X53765Y-103656D01*
G01X54065Y-103227D01*
G01X54327Y-102773D01*
G01X54549Y-102298D01*
G01X54728Y-101806D01*
G01X54863Y-101300D01*
G01X54954Y-100784D01*
G01X55000Y-100262D01*
G01Y-99738D01*
G01X54954Y-99216D01*
G01X54863Y-98700D01*
G01X54728Y-98194D01*
G01X54549Y-97702D01*
G01X54327Y-97227D01*
G01X54065Y-96773D01*
G01X53765Y-96344D01*
G01X53428Y-95943D01*
G01X53057Y-95572D01*
G01X52656Y-95235D01*
G01X52320Y-95000D01*
G01X52656Y-94765D01*
G01X53057Y-94428D01*
G01X53428Y-94057D01*
G01X53765Y-93656D01*
G01X54065Y-93227D01*
G01X54327Y-92773D01*
G01X54549Y-92298D01*
G01X54728Y-91806D01*
G01X54863Y-91300D01*
G01X54954Y-90784D01*
G01X55000Y-90262D01*
G01Y-89738D01*
G01X54954Y-89216D01*
G01X54863Y-88700D01*
G01X54728Y-88194D01*
G01X54549Y-87702D01*
G01X54327Y-87227D01*
G01X54065Y-86773D01*
G01X53765Y-86344D01*
G01X53428Y-85943D01*
G01X53057Y-85572D01*
G01X52656Y-85235D01*
G01X52227Y-84935D01*
G01X51773Y-84673D01*
G01X51298Y-84451D01*
G01X50806Y-84272D01*
G01X50300Y-84137D01*
G01X49784Y-84046D01*
G01X49262Y-84000D01*
G01X48738D01*
G01X48216Y-84046D01*
G01X47700Y-84137D01*
G01X47194Y-84272D01*
G01X46702Y-84451D01*
G01X46500Y-84546D01*
G01X46227Y-84673D01*
G01X45773Y-84935D01*
G01X45344Y-85235D01*
G01X44943Y-85572D01*
G01X44896Y-85619D01*
G01X44834Y-85666D01*
G01X44668Y-85847D01*
G01X44572Y-85943D01*
G01X44491Y-86040D01*
G01X43932Y-86647D01*
G01X43811Y-86732D01*
G01X43680Y-86864D01*
G01X43537Y-86983D01*
G01X43417Y-87126D01*
G01X39493Y-91050D01*
G01X26815D01*
G01X26629Y-91034D01*
G01X26444Y-91050D01*
G01X26257D01*
G01X26074Y-91083D01*
G01X25888Y-91099D01*
G01X25708Y-91147D01*
G01X25525Y-91179D01*
G01X25350Y-91243D01*
G01X25170Y-91291D01*
G01X25001Y-91370D01*
G01X24826Y-91434D01*
G01X24665Y-91527D01*
G01X24496Y-91606D01*
G01X24343Y-91712D01*
G01X24182Y-91806D01*
G01X24039Y-91925D01*
G01X23887Y-92032D01*
G01X23755Y-92164D01*
G01X23612Y-92284D01*
G01X23493Y-92426D01*
G01X11713Y-104206D01*
G01Y-83000D01*
G01X46500D01*
G01X55015D01*
G01X71972Y-88495D01*
G01X72287Y-88610D01*
G01X72511Y-88670D01*
G01X72525Y-88675D01*
G01X72531Y-88676D01*
G01X73369Y-88900D01*
G01X72287Y-89190D01*
G01X71220Y-89578D01*
G01X70192Y-90058D01*
G01X69208Y-90625D01*
G01X68279Y-91277D01*
G01X67409Y-92006D01*
G01X66606Y-92809D01*
G01X65877Y-93679D01*
G01X65225Y-94608D01*
G01X64658Y-95592D01*
G01X64178Y-96620D01*
G01X63790Y-97687D01*
G01X63496Y-98784D01*
G01X63299Y-99902D01*
G01X63200Y-101032D01*
G01Y-102168D01*
G01X63299Y-103298D01*
G01X63496Y-104416D01*
G01X63790Y-105513D01*
G01X64178Y-106580D01*
G01X64658Y-107608D01*
G01X64884Y-108000D01*
G01X65225Y-108592D01*
G01X65877Y-109521D01*
G01X66606Y-110391D01*
G01X67409Y-111194D01*
G01X68279Y-111923D01*
G01X69208Y-112575D01*
G01X70192Y-113142D01*
G01X71220Y-113622D01*
G01X72287Y-114010D01*
G01X73368Y-114300D01*
G01X56828Y-117250D01*
G01X50600D01*
G01X46500Y-115542D01*
G01X46423Y-115509D01*
G01X46298Y-115451D01*
G01X46181Y-115409D01*
G01X46005Y-115335D01*
G01X45939Y-115321D01*
G01X45806Y-115272D01*
G01X45300Y-115137D01*
G01X44784Y-115046D01*
G01X44262Y-115000D01*
G01X43738D01*
G01X43216Y-115046D01*
G01X42700Y-115137D01*
G01X42194Y-115272D01*
G01X41702Y-115451D01*
G01X41227Y-115673D01*
G01X40773Y-115935D01*
G01X40344Y-116235D01*
G01X39943Y-116572D01*
G01X39572Y-116943D01*
G01X39235Y-117344D01*
G01X38935Y-117773D01*
G01X38673Y-118227D01*
G01X38451Y-118702D01*
G01X38272Y-119194D01*
G01X38137Y-119700D01*
G01X38046Y-120216D01*
G01X38000Y-120738D01*
G01Y-121262D01*
G01X38046Y-121784D01*
G01X38137Y-122300D01*
G01X38272Y-122806D01*
G01X38451Y-123298D01*
G01X38673Y-123773D01*
G01X38935Y-124227D01*
G01X39235Y-124656D01*
G01X39572Y-125057D01*
G01X39943Y-125428D01*
G01X40344Y-125765D01*
G01X40773Y-126065D01*
G01X41227Y-126327D01*
G01X41355Y-126387D01*
G01X41412Y-126423D01*
G01X41589Y-126496D01*
G01X41702Y-126549D01*
G01X41831Y-126596D01*
G01X46015Y-128319D01*
G01X46500Y-128803D01*
G01X52250Y-134553D01*
G01Y-160447D01*
G01X46500Y-166197D01*
G01X43447Y-169250D01*
G01X0500D01*
G01X-44447D01*
G01X-45500Y-168197D01*
G01X-52250Y-161447D01*
G01Y-149164D01*
G01X-52236Y-149000D01*
G01X-52250Y-148836D01*
G01Y-148672D01*
G01X-52279Y-148510D01*
G01X-52293Y-148346D01*
G01X-52335Y-148188D01*
G01X-52364Y-148026D01*
G01X-52420Y-147871D01*
G01X-52463Y-147713D01*
G01X-52532Y-147564D01*
G01X-52588Y-147409D01*
G01X-52671Y-147267D01*
G01X-52740Y-147118D01*
G01X-52834Y-146983D01*
G01X-52916Y-146841D01*
G01X-53022Y-146715D01*
G01X-53116Y-146580D01*
G01X-53233Y-146464D01*
G01X-53338Y-146338D01*
G01X-53464Y-146233D01*
G01X-58791Y-140906D01*
G01X-63663Y-123560D01*
G01X-63790Y-123087D01*
G01X-64178Y-122020D01*
G01X-64658Y-120992D01*
G01X-65225Y-120008D01*
G01X-65877Y-119079D01*
G01X-66606Y-118209D01*
G01X-67409Y-117406D01*
G01X-68279Y-116677D01*
G01X-69208Y-116025D01*
G01X-70192Y-115458D01*
G01X-71220Y-114978D01*
G01X-72287Y-114590D01*
G01X-73369Y-114300D01*
G01X-72287Y-114010D01*
G01X-71220Y-113622D01*
G01X-70192Y-113142D01*
G01X-69208Y-112575D01*
G01X-68279Y-111923D01*
G01X-67409Y-111194D01*
G01X-66606Y-110391D01*
G01X-65877Y-109521D01*
G01X-65225Y-108592D01*
G01X-64884Y-108000D01*
G01X-64658Y-107608D01*
G01X-64178Y-106580D01*
G01X-63790Y-105513D01*
G01X-63496Y-104416D01*
G01X-63299Y-103298D01*
G01X-63200Y-102168D01*
G01Y-101032D01*
G01X-63299Y-99902D01*
G01X-63496Y-98784D01*
G01X-63790Y-97687D01*
G01X-64178Y-96620D01*
G01X-64658Y-95592D01*
G01X-65225Y-94608D01*
G01X-65877Y-93679D01*
G01X-66606Y-92809D01*
G01X-67409Y-92006D01*
G01X-68279Y-91277D01*
G01X-69208Y-90625D01*
G01X-70192Y-90058D01*
G01X-71220Y-89578D01*
G01X-72287Y-89190D01*
G01X-73369Y-88900D01*
G01X-72287Y-88610D01*
G01X-71220Y-88222D01*
G01X-70192Y-87742D01*
G01X-69208Y-87175D01*
G01X-68279Y-86523D01*
G01X-67409Y-85794D01*
G01X-66606Y-84991D01*
G01X-65877Y-84121D01*
G01X-65225Y-83192D01*
G01X-64658Y-82208D01*
G01X-64370Y-81590D01*
G01X-64356Y-81570D01*
G01X-64319Y-81482D01*
G01X-64178Y-81180D01*
G01X-64098Y-80960D01*
G01X-62767Y-77814D01*
G01Y-106099D01*
G01X-62783Y-106285D01*
G01X-62767Y-106470D01*
G01Y-106657D01*
G01X-62734Y-106840D01*
G01X-62718Y-107026D01*
G01X-62670Y-107205D01*
G01X-62637Y-107389D01*
G01X-62574Y-107564D01*
G01X-62525Y-107744D01*
G01X-62447Y-107913D01*
G01X-62415Y-108000D01*
G01X-62383Y-108088D01*
G01X-62290Y-108249D01*
G01X-62211Y-108418D01*
G01X-62104Y-108570D01*
G01X-62011Y-108732D01*
G01X-61891Y-108874D01*
G01X-61785Y-109027D01*
G01X-61653Y-109159D01*
G01X-61533Y-109301D01*
G01X-61391Y-109421D01*
G01X-53938Y-116874D01*
G01X-53818Y-117017D01*
G01X-53675Y-117136D01*
G01X-53544Y-117268D01*
G01X-53391Y-117375D01*
G01X-53248Y-117495D01*
G01X-53087Y-117588D01*
G01X-52934Y-117695D01*
G01X-52766Y-117773D01*
G01X-52604Y-117867D01*
G01X-52429Y-117930D01*
G01X-52260Y-118009D01*
G01X-52080Y-118057D01*
G01X-51905Y-118121D01*
G01X-51722Y-118153D01*
G01X-51542Y-118201D01*
G01X-51357Y-118218D01*
G01X-51173Y-118250D01*
G01X-50987D01*
G01X-50801Y-118266D01*
G01X-50616Y-118250D01*
G01X-45500D01*
G01X-20760D01*
G01X-16750Y-122260D01*
G01Y-122500D01*
G01X-17000D01*
G01X-18000D01*
G01X-22000D01*
G01X-26000D01*
G01X-30000D01*
G01X-38000D01*
G01Y-138420D01*
G01X-38594Y-137922D01*
G01X-39806Y-137222D01*
G01X-41122Y-136743D01*
G01X-42500Y-136500D01*
G01X-43900D01*
G01X-45278Y-136743D01*
G01X-45500Y-136824D01*
G01X-46594Y-137222D01*
G01X-47806Y-137922D01*
G01X-48878Y-138822D01*
G01X-49778Y-139894D01*
G01X-50478Y-141106D01*
G01X-50957Y-142422D01*
G01X-51200Y-143800D01*
G01Y-153200D01*
G01X-50957Y-154578D01*
G01X-50478Y-155894D01*
G01X-49778Y-157106D01*
G01X-48878Y-158178D01*
G01X-47806Y-159078D01*
G01X-46594Y-159778D01*
G01X-45500Y-160176D01*
G01X-44647Y-168800D02*
G01X-19786D01*
G01X-16214Y-168800D02*
G01X43647D01*
G01X-45547Y-167900D02*
G01X-21713D01*
G01X-12840Y-167900D02*
G01X44547D01*
G01X-46447Y-167000D02*
G01X-22726D01*
G01X12822Y-167000D02*
G01X45447D01*
G01X-47347Y-166100D02*
G01X-23388D01*
G01X13868Y-166100D02*
G01X46347D01*
G01X-48247Y-165200D02*
G01X-30235D01*
G01X-27565Y-165200D02*
G01X-23834D01*
G01X14768Y-165200D02*
G01X27565D01*
G01X30235Y-165200D02*
G01X47247D01*
G01X-49149Y-164298D02*
G01X-33796D01*
G01X15670Y-164298D02*
G01X24004D01*
G01X33796Y-164298D02*
G01X48149D01*
G01X-50049Y-163398D02*
G01X-35500D01*
G01X16570Y-163398D02*
G01X22300D01*
G01X35500Y-163398D02*
G01X49049D01*
G01X-50949Y-162498D02*
G01X-36706D01*
G01X17470Y-162498D02*
G01X21094D01*
G01X36706Y-162498D02*
G01X49949D01*
G01X-51849Y-161598D02*
G01X-37669D01*
G01X18370Y-161598D02*
G01X20131D01*
G01X37669Y-161598D02*
G01X50849D01*
G01X-52000Y-160698D02*
G01X-38449D01*
G01X19270Y-160698D02*
G01X19351D01*
G01X38449Y-160698D02*
G01X51749D01*
G01X-52000Y-159798D02*
G01X-46789D01*
G01X-39611Y-159798D02*
G01X-39082D01*
G01X39082Y-159798D02*
G01X39611D01*
G01X46789Y-159798D02*
G01X52000D01*
G01X-52000Y-158898D02*
G01X-48271D01*
G01X48271Y-158898D02*
G01X52000D01*
G01X-52000Y-157998D02*
G01X-49280D01*
G01X49280Y-157998D02*
G01X52000D01*
G01X-52000Y-157098D02*
G01X-50033D01*
G01X50033Y-157098D02*
G01X52000D01*
G01X-52000Y-156198D02*
G01X-50553D01*
G01X50553Y-156198D02*
G01X52000D01*
G01X-52000Y-155298D02*
G01X-50945D01*
G01X50945Y-155298D02*
G01X52000D01*
G01X-52000Y-154398D02*
G01X-51239D01*
G01X51239Y-154398D02*
G01X52000D01*
G01X-52000Y-153498D02*
G01X-51397D01*
G01X51397Y-153498D02*
G01X52000D01*
G01X-52000Y-152598D02*
G01X-51450D01*
G01Y-151698D01*
G01X-52000D01*
G01Y-150798D01*
G01X-51450D01*
G01Y-149898D01*
G01X-52000D01*
G01X51450Y-152598D02*
G01X52000D01*
G01Y-151698D01*
G01X51450D01*
G01Y-150798D01*
G01X52000D01*
G01Y-149898D01*
G01X51450D01*
G01Y-148998D01*
G01X52000D01*
G01Y-148098D01*
G01X51450D01*
G01Y-147198D01*
G01X52000D01*
G01Y-146298D01*
G01X51450D01*
G01Y-145398D01*
G01X52000D01*
G01Y-144498D01*
G01X51450D01*
G01X-51986Y-148998D02*
G01X-51450D01*
G01X-52101Y-148098D02*
G01X-51450D01*
G01X-52453Y-147198D02*
G01X-51450D01*
G01X-53136Y-146298D02*
G01X-51450D01*
G01X-54049Y-145398D02*
G01X-51450D01*
G01X-54949Y-144498D02*
G01X-51450D01*
G01X-55849Y-143598D02*
G01X-51414D01*
G01X51414Y-143598D02*
G01X52000D01*
G01X-56749Y-142698D02*
G01X-51256D01*
G01X51256Y-142698D02*
G01X52000D01*
G01X-57649Y-141798D02*
G01X-50980D01*
G01X50980Y-141798D02*
G01X52000D01*
G01X-58543Y-140898D02*
G01X-50608D01*
G01X50608Y-140898D02*
G01X52000D01*
G01X-58796Y-139998D02*
G01X-50088D01*
G01X50088Y-139998D02*
G01X52000D01*
G01X-59049Y-139098D02*
G01X-49360D01*
G01X49360Y-139098D02*
G01X52000D01*
G01X-59302Y-138198D02*
G01X-48385D01*
G01X48385Y-138198D02*
G01X52000D01*
G01X-59554Y-137298D02*
G01X-46976D01*
G01X-39424Y-137298D02*
G01X-38250D01*
G01X38250Y-137298D02*
G01X39424D01*
G01X46976Y-137298D02*
G01X52000D01*
G01X-59807Y-136398D02*
G01X-38250D01*
G01X38250Y-136398D02*
G01X52000D01*
G01Y-135498D01*
G01X38250D01*
G01Y-134598D01*
G01X52000D01*
G01X-60060Y-135498D02*
G01X-38250D01*
G01X-60313Y-134598D02*
G01X-38250D01*
G01X-60566Y-133698D02*
G01X-38250D01*
G01X38250Y-133698D02*
G01X51145D01*
G01X-60818Y-132798D02*
G01X-38250D01*
G01X38250Y-132798D02*
G01X50245D01*
G01X-61071Y-131898D02*
G01X-38250D01*
G01X38250Y-131898D02*
G01X49345D01*
G01X-61324Y-130998D02*
G01X-38250D01*
G01X38250Y-130998D02*
G01X48445D01*
G01X-61577Y-130098D02*
G01X-38250D01*
G01X38250Y-130098D02*
G01X47545D01*
G01X-61830Y-129198D02*
G01X-38250D01*
G01X38250Y-129198D02*
G01X46645D01*
G01X-62082Y-128298D02*
G01X-38250D01*
G01X38250Y-128298D02*
G01X45715D01*
G01X-62335Y-127398D02*
G01X-38250D01*
G01X38250Y-127398D02*
G01X43530D01*
G01X-62588Y-126498D02*
G01X-38250D01*
G01X38250Y-126498D02*
G01X41343D01*
G01X-62841Y-125598D02*
G01X-38250D01*
G01X38250Y-125598D02*
G01X39895D01*
G01X-63094Y-124698D02*
G01X-38250D01*
G01X38250Y-124698D02*
G01X39021D01*
G01X-63346Y-123798D02*
G01X-38250D01*
G01X38250Y-123798D02*
G01X38437D01*
G01X-63609Y-122898D02*
G01X-38250D01*
G01X-63939Y-121998D02*
G01X-17262D01*
G01X22000Y-121998D02*
G01X37833D01*
G01X-64358Y-121098D02*
G01X-18162D01*
G01X22000Y-121098D02*
G01X37750D01*
G01X-64866Y-120198D02*
G01X-19062D01*
G01X22062Y-120198D02*
G01X37799D01*
G01X-65473Y-119298D02*
G01X-19962D01*
G01X22962Y-119298D02*
G01X37994D01*
G01X-66198Y-118398D02*
G01X-20862D01*
G01X23862Y-118398D02*
G01X38343D01*
G01X-67067Y-117498D02*
G01X-53493D01*
G01X24762Y-117498D02*
G01X38877D01*
G01X-68141Y-116598D02*
G01X-54464D01*
G01X25662Y-116598D02*
G01X31666D01*
G01X37412Y-116598D02*
G01X39667D01*
G01X49285Y-116598D02*
G01X60234D01*
G01X-69526Y-115698D02*
G01X-55364D01*
G01X38985Y-115698D02*
G01X40933D01*
G01X47125Y-115698D02*
G01X65280D01*
G01X-71465Y-114798D02*
G01X-56264D01*
G01X39896Y-114798D02*
G01X70326D01*
G01X-71729Y-113898D02*
G01X-57164D01*
G01X40505Y-113898D02*
G01X71729D01*
G01X-69692Y-112998D02*
G01X-58064D01*
G01X40908Y-112998D02*
G01X69692D01*
G01X-68278Y-112098D02*
G01X-58964D01*
G01X41149Y-112098D02*
G01X68278D01*
G01X-67164Y-111198D02*
G01X-59864D01*
G01X41250Y-111198D02*
G01X67164D01*
G01X-66278Y-110298D02*
G01X-60764D01*
G01X41212Y-110298D02*
G01X66278D01*
G01X-65540Y-109398D02*
G01X-61668D01*
G01X41032Y-109398D02*
G01X65540D01*
G01X-64921Y-108498D02*
G01X-62405D01*
G01X40704Y-108498D02*
G01X64921D01*
G01X-64403Y-107598D02*
G01X-62815D01*
G01X28326Y-107598D02*
G01X28780D01*
G01X40193Y-107598D02*
G01X64403D01*
G01X-63983Y-106698D02*
G01X-63009D01*
G01X29226Y-106698D02*
G01X30269D01*
G01X39433Y-106698D02*
G01X63983D01*
G01X-63644Y-105798D02*
G01X-63017D01*
G01X30126Y-105798D02*
G01X31757D01*
G01X38240Y-105798D02*
G01X47179D01*
G01X50794Y-105798D02*
G01X63644D01*
G01X-63375Y-104898D02*
G01X-63017D01*
G01X31026Y-104898D02*
G01X44557D01*
G01X52716Y-104898D02*
G01X63375D01*
G01X-63172Y-103998D02*
G01X-63017D01*
G01X53728Y-103998D02*
G01X63172D01*
G01X-63031Y-103098D02*
G01X-63017D01*
G01X11963Y-103098D02*
G01X12571D01*
G01X54390Y-103098D02*
G01X63031D01*
G01X11963Y-102198D02*
G01X13471D01*
G01X54835Y-102198D02*
G01X62953D01*
G01X11963Y-101298D02*
G01X14371D01*
G01X55113Y-101298D02*
G01X62950D01*
G01X11963Y-100398D02*
G01X15271D01*
G01X55238Y-100398D02*
G01X63006D01*
G01X-63120Y-99498D02*
G01X-63017D01*
G01X11963Y-99498D02*
G01X16171D01*
G01X55229Y-99498D02*
G01X63120D01*
G01X-63296Y-98598D02*
G01X-63017D01*
G01X11963Y-98598D02*
G01X17071D01*
G01X55086Y-98598D02*
G01X63296D01*
G01X-63537Y-97698D02*
G01X-63017D01*
G01X11963Y-97698D02*
G01X17971D01*
G01X54797Y-97698D02*
G01X63537D01*
G01X-63863Y-96798D02*
G01X-63017D01*
G01X11963Y-96798D02*
G01X18871D01*
G01X54330Y-96798D02*
G01X63863D01*
G01X-64265Y-95898D02*
G01X-63017D01*
G01X11963Y-95898D02*
G01X19771D01*
G01X53633Y-95898D02*
G01X64265D01*
G01X-64751Y-94998D02*
G01X-63017D01*
G01X11963Y-94998D02*
G01X20671D01*
G01X52573Y-94998D02*
G01X64751D01*
G01X-65333Y-94098D02*
G01X-63017D01*
G01X11963Y-94098D02*
G01X21571D01*
G01X53637Y-94098D02*
G01X65333D01*
G01X-66030Y-93198D02*
G01X-63017D01*
G01X11963Y-93198D02*
G01X22471D01*
G01X54332Y-93198D02*
G01X66030D01*
G01X-66868Y-92297D02*
G01X-63017D01*
G01X11963Y-92297D02*
G01X23351D01*
G01X54799Y-92297D02*
G01X66868D01*
G01X-67885Y-91397D02*
G01X-63017D01*
G01X11963Y-91397D02*
G01X24677D01*
G01X55087Y-91397D02*
G01X67885D01*
G01X-69181Y-90497D02*
G01X-63017D01*
G01X11963Y-90497D02*
G01X39796D01*
G01X55229Y-90497D02*
G01X69181D01*
G01X-70930Y-89597D02*
G01X-63017D01*
G01X11963Y-89597D02*
G01X40696D01*
G01X55238Y-89597D02*
G01X70930D01*
G01X-72361Y-88697D02*
G01X-63017D01*
G01X11963Y-88697D02*
G01X41596D01*
G01X55113Y-88697D02*
G01X72361D01*
G01X-70059Y-87797D02*
G01X-63017D01*
G01X11963Y-87797D02*
G01X42496D01*
G01X54833Y-87797D02*
G01X69567D01*
G01X-68562Y-86897D02*
G01X-63017D01*
G01X11963Y-86897D02*
G01X43390D01*
G01X54387Y-86897D02*
G01X66790D01*
G01X-67401Y-85997D02*
G01X-63017D01*
G01X11963Y-85997D02*
G01X44276D01*
G01X53724Y-85997D02*
G01X64013D01*
G01X-66462Y-85097D02*
G01X-63017D01*
G01X11963Y-85097D02*
G01X45292D01*
G01X52708Y-85097D02*
G01X61235D01*
G01X-65690Y-84197D02*
G01X-63017D01*
G01X11963Y-84197D02*
G01X47225D01*
G01X50775Y-84197D02*
G01X58458D01*
G01X-65049Y-83297D02*
G01X-63017D01*
G01X11963Y-83297D02*
G01X55681D01*
G01X-64517Y-82397D02*
G01X-63017D01*
G01X-64075Y-81497D02*
G01X-63017D01*
G01X-63695Y-80597D02*
G01X-63017D01*
G01X-63314Y-79697D02*
G01X-63017D01*
G54D11*
G01X46000Y145000D02*
G01Y93000D01*
G01X40000Y87000D01*
G01Y-3000D01*
G01X31343Y-11657D01*
G01X29000D01*
G01X19269Y-21388D01*
G01X22097Y-24217D02*
G01X31314Y-15000D01*
G01X33000D01*
G01X43000Y-5000D01*
G01Y85000D01*
G01X50000Y92000D01*
G01Y118000D01*
G01X59000Y127000D01*
G01X60000D01*
G01X-16440Y-18560D02*
G01X-32000Y-3000D01*
G01Y11000D01*
G01X-76200Y-76200D02*
G01Y-75200D01*
G01X-57022Y-59022D02*
G01Y-52425D01*
G01X-52970Y-48373D02*
G01X-47337D01*
G01X-35000Y-63000D02*
G01X-22343D01*
G01X-32000Y11000D02*
G01X-35000Y14000D01*
G01X44000Y-121000D02*
G01X70200D01*
G01X76200Y-127000D01*
G01X-76200Y-127000D02*
G01Y-128800D01*
G01X-56000Y-149000D01*
G01Y-163000D01*
G01X-46000Y-173000D01*
G01X45000D01*
G01X56000Y-162000D01*
G01Y-133000D01*
G01X44000Y-121000D01*
G01X-22343Y-63000D02*
G01X-22000Y-62657D01*
G01X-40796Y-36000D02*
G01X-35000Y-41796D01*
G01Y-48000D01*
G01X-44230Y-39000D02*
G01X-38000Y-45230D01*
G01Y-50000D01*
G01X-33000Y-55000D01*
G01X-41000Y-49207D02*
G01Y-52000D01*
G01X-42000Y-56000D02*
G01X-35000Y-63000D01*
G01X-44000Y-51710D02*
G01Y-54000D01*
G01X-42000Y-56000D01*
G01X-35000Y-48000D02*
G01X-31000Y-52000D01*
G01X-28314D01*
G01X-22097Y-45783D01*
G01X-33000Y-55000D02*
G01X-25657D01*
G01X-19269Y-48612D01*
G01X-41000Y-52000D02*
G01X-34000Y-59000D01*
G01X-24000D01*
G01X-16440Y-51440D01*
G01X-76200Y-75200D02*
G01X-73200D01*
G01X-57022Y-59022D01*
G01X22097Y-45783D02*
G01X27884Y-51571D01*
G01X33429D01*
G01X39000Y-46000D01*
G01Y-14000D01*
G01X46000Y-7000D01*
G01Y82000D01*
G01X64600Y100600D01*
G01Y101600D01*
G01X-47337Y-48373D02*
G01X-44000Y-51710D01*
G01X-57022Y-52425D02*
G01X-52970Y-48373D01*
G01X-47207Y-43000D02*
G01X-41000Y-49207D01*
G01X37000Y104528D02*
G01Y-1000D01*
G01X30000Y-8000D01*
G01X27000D01*
G01X16440Y-18560D01*
G01X-79751Y-135541D02*
G01X-62136Y-142864D01*
G01X-67295Y-124499D02*
G01X-62136Y-142864D01*
G01X-79189Y-135044D02*
G01X-62136Y-142864D01*
G01X-78628Y-134546D02*
G01X-62136Y-142864D01*
G01X-78067Y-134049D02*
G01X-62136Y-142864D01*
G01X-77506Y-133551D02*
G01X-62136Y-142864D01*
G01X-76945Y-133054D02*
G01X-62136Y-142864D01*
G01X-76383Y-132556D02*
G01X-62136Y-142864D01*
G01X-75822Y-132059D02*
G01X-62136Y-142864D01*
G01X-75261Y-131561D02*
G01X-62136Y-142864D01*
G01X-74700Y-131064D02*
G01X-62136Y-142864D01*
G01X-74139Y-130566D02*
G01X-62136Y-142864D01*
G01X-73577Y-130068D02*
G01X-62136Y-142864D01*
G01X-73016Y-129571D02*
G01X-62136Y-142864D01*
G01X-72455Y-129073D02*
G01X-62136Y-142864D01*
G01X-71894Y-128576D02*
G01X-62136Y-142864D01*
G01X-71332Y-128078D02*
G01X-62136Y-142864D01*
G01X-70771Y-127581D02*
G01X-62136Y-142864D01*
G01X-70210Y-127083D02*
G01X-62136Y-142864D01*
G01X-69649Y-126586D02*
G01X-62136Y-142864D01*
G01X-69088Y-126088D02*
G01X-62136Y-142864D01*
G01X-68526Y-125591D02*
G01X-62136Y-142864D01*
G01X-67965Y-125093D02*
G01X-62136Y-142864D01*
G01X74576Y-117894D02*
G01X57160Y-121000D01*
G01X69648Y-133530D02*
G01X57160Y-121000D01*
G01X74350Y-118609D02*
G01X57160Y-121000D01*
G01X74125Y-119324D02*
G01X57160Y-121000D01*
G01X73900Y-120040D02*
G01X57160Y-121000D01*
G01X73674Y-120755D02*
G01X57160Y-121000D01*
G01X73449Y-121470D02*
G01X57160Y-121000D01*
G01X73223Y-122186D02*
G01X57160Y-121000D01*
G01X72998Y-122901D02*
G01X57160Y-121000D01*
G01X72772Y-123616D02*
G01X57160Y-121000D01*
G01X72547Y-124332D02*
G01X57160Y-121000D01*
G01X72322Y-125047D02*
G01X57160Y-121000D01*
G01X72096Y-125762D02*
G01X57160Y-121000D01*
G01X71871Y-126478D02*
G01X57160Y-121000D01*
G01X71645Y-127193D02*
G01X57160Y-121000D01*
G01X71420Y-127908D02*
G01X57160Y-121000D01*
G01X71195Y-128624D02*
G01X57160Y-121000D01*
G01X70969Y-129339D02*
G01X57160Y-121000D01*
G01X70744Y-130054D02*
G01X57160Y-121000D01*
G01X70518Y-130770D02*
G01X57160Y-121000D01*
G01X70293Y-131485D02*
G01X57160Y-121000D01*
G01X70067Y-132200D02*
G01X57160Y-121000D01*
G01X43143Y-123081D02*
G01X48137Y-125137D01*
G01X46081Y-120143D02*
G01X48137Y-125137D01*
G01X43674Y-122550D02*
G01X48137Y-125137D01*
G01X44204Y-122020D02*
G01X48137Y-125137D01*
G01X44734Y-121490D02*
G01X48137Y-125137D01*
G01X45265Y-120959D02*
G01X48137Y-125137D01*
G01X44865Y-123077D02*
G01X49850Y-121000D01*
G01X44865Y-118923D02*
G01X49850Y-121000D01*
G01X44865Y-122327D02*
G01X49850Y-121000D01*
G01X44865Y-121577D02*
G01X49850Y-121000D01*
G01X44865Y-120827D02*
G01X49850Y-121000D01*
G01X44865Y-120077D02*
G01X49850Y-121000D01*
G01X-20506Y-14140D02*
G01X-21531Y-13469D01*
G01X-20860Y-14494D02*
G01X-21531Y-13469D01*
G01X-35437Y11793D02*
G01X-32141Y11141D01*
G01X-32793Y14437D02*
G01X-32141Y11141D01*
G01X-34906Y12323D02*
G01X-32141Y11141D01*
G01X-34376Y12853D02*
G01X-32141Y11141D01*
G01X-33846Y13384D02*
G01X-32141Y11141D01*
G01X26163Y-50203D02*
G01X27188Y-50875D01*
G01X26517Y-49849D02*
G01X27188Y-50875D01*
G01X64359Y101532D02*
G01X64600Y100675D01*
G01X64841Y101532D02*
G01X64600Y100675D01*
G01X20860Y-14494D02*
G01X21531Y-13469D01*
G01X20506Y-14140D02*
G01X21531Y-13469D01*
G01X36754Y104485D02*
G01X37000Y103078D01*
G01X37246Y104485D02*
G01X37000Y103078D01*
G01X-26517Y-49849D02*
G01X-27188Y-50875D01*
G01X-26163Y-50203D02*
G01X-27188Y-50875D01*
G01X-40939Y-36205D02*
G01X-39770Y-37025D01*
G01X-40591Y-35856D02*
G01X-39770Y-37025D01*
G01X-23688Y-52678D02*
G01X-24360Y-53703D01*
G01X-23335Y-53031D02*
G01X-24360Y-53703D01*
G01X-44374Y-39205D02*
G01X-43205Y-40025D01*
G01X-44026Y-38856D02*
G01X-43205Y-40025D01*
G01X-67682Y-79806D02*
G01X-60251Y-62251D01*
G01X-78639Y-67277D02*
G01X-60251Y-62251D01*
G01X-68175Y-79241D02*
G01X-60251Y-62251D01*
G01X-68669Y-78677D02*
G01X-60251Y-62251D01*
G01X-69163Y-78112D02*
G01X-60251Y-62251D01*
G01X-69657Y-77548D02*
G01X-60251Y-62251D01*
G01X-70150Y-76983D02*
G01X-60251Y-62251D01*
G01X-70644Y-76418D02*
G01X-60251Y-62251D01*
G01X-71138Y-75854D02*
G01X-60251Y-62251D01*
G01X-71632Y-75289D02*
G01X-60251Y-62251D01*
G01X-72125Y-74725D02*
G01X-60251Y-62251D01*
G01X-72619Y-74160D02*
G01X-60251Y-62251D01*
G01X-73113Y-73596D02*
G01X-60251Y-62251D01*
G01X-73607Y-73031D02*
G01X-60251Y-62251D01*
G01X-74100Y-72467D02*
G01X-60251Y-62251D01*
G01X-74594Y-71902D02*
G01X-60251Y-62251D01*
G01X-75088Y-71338D02*
G01X-60251Y-62251D01*
G01X-75582Y-70773D02*
G01X-60251Y-62251D01*
G01X-76075Y-70208D02*
G01X-60251Y-62251D01*
G01X-76569Y-69644D02*
G01X-60251Y-62251D01*
G01X-77063Y-69079D02*
G01X-60251Y-62251D01*
G01X-77557Y-68515D02*
G01X-60251Y-62251D01*
G01X-78050Y-67950D02*
G01X-60251Y-62251D01*
G01X-20860Y-55506D02*
G01X-21531Y-56531D01*
G01X-20506Y-55860D02*
G01X-21531Y-56531D01*
G01X-47351Y-43205D02*
G01X-46182Y-44025D01*
G01X-47002Y-42856D02*
G01X-46182Y-44025D01*
G01X26517Y-20151D02*
G01X27188Y-19125D01*
G01X26163Y-19797D02*
G01X27188Y-19125D01*
G01X59932Y127241D02*
G01X59075Y127000D01*
G01X59932Y126759D02*
G01X59075Y127000D01*
G01X23688Y-17322D02*
G01X24360Y-16297D01*
G01X23335Y-16969D02*
G01X24360Y-16297D01*
G01X45754Y144957D02*
G01X46000Y143550D01*
G01X46246Y144957D02*
G01X46000Y143550D01*
G54D12*
G01X13612Y-15731D02*
G01X29343Y0000D01*
G01X30000D01*
G01X20750Y26750D02*
G01Y-2936D01*
G01X10783Y-12903D01*
G01X46000Y145000D02*
G01Y165000D01*
G01X58800Y177800D01*
G01X76200D01*
G01X76200Y127000D02*
G01X60000D01*
G01X19269Y-48612D02*
G01X25657Y-55000D01*
G01X50000Y64000D02*
G01X62200Y76200D01*
G01X76200D01*
G01X76200Y50800D02*
G01X63800D01*
G01X54000Y41000D01*
G01Y-10000D01*
G01X13612Y-54269D02*
G01X22172Y-62828D01*
G01X58000Y7200D02*
G01X76200Y25400D01*
G01X10783Y-57097D02*
G01X20686Y-67000D01*
G01X55000Y-21200D02*
G01X76200Y0000D01*
G01X50000Y-8000D02*
G01Y64000D01*
G01X50000Y-8000D02*
G01X43000Y-15000D01*
G01Y-48000D01*
G01X36000Y-55000D01*
G01X25657D01*
G01X24000Y-59000D02*
G01X16440Y-51440D01*
G01X24000Y-59000D02*
G01X37000D01*
G01X47000Y-49000D01*
G01Y-17000D01*
G01X54000Y-10000D01*
G01X58000Y-12000D02*
G01Y7200D01*
G01X58000Y-12000D02*
G01X51000Y-19000D01*
G01Y-50000D01*
G01X38000Y-63000D01*
G01X22343D01*
G01X22172Y-62828D01*
G01X20686Y-67000D02*
G01X39000D01*
G01X55000Y-51000D01*
G01Y-21200D01*
G01X76200Y-25400D02*
G01X60600D01*
G01X59000Y-27000D01*
G01Y-52000D01*
G01X40000Y-71000D01*
G01X19029D01*
G01X7955Y-59926D01*
G01X-7955Y-59926D02*
G01X-14000Y-65971D01*
G01Y-69000D01*
G01X-8000Y-75000D01*
G01X42000D01*
G01X66200Y-50800D01*
G01X76200D01*
G01X-10783Y-57097D02*
G01X-18000Y-64314D01*
G01X73400Y-79000D02*
G01X76200Y-76200D01*
G01X-13000Y-5029D02*
G01X-7955Y-10074D01*
G01X32452Y-40000D02*
G01X27880D01*
G01X24926Y-42955D01*
G01X-13612Y-15731D02*
G01X-25000Y-4343D01*
G01Y13000D01*
G01X-76200Y101600D02*
G01X-65600D01*
G01X-54259Y90259D01*
G01Y31259D01*
G01X-43000Y20000D01*
G01Y14000D01*
G01X-36000Y7000D01*
G01Y-4657D01*
G01X-19269Y-21388D01*
G01X-22097Y-24217D02*
G01X-40000Y-6314D01*
G01Y6000D01*
G01X-47000Y13000D01*
G01Y18000D01*
G01X-57834Y28834D01*
G01Y68834D01*
G01X-65200Y76200D01*
G01X-76200D01*
G01X-76200Y50800D02*
G01X-66401D01*
G01X-61344Y45743D01*
G01Y26344D01*
G01X-51000Y16000D01*
G01Y11000D01*
G01X-44000Y4000D01*
G01Y-8000D01*
G01X-24955Y-27045D01*
G01X-24926D01*
G01X-24926Y-42955D02*
G01X-26880Y-41000D01*
G01X-27000D01*
G01X-48000Y-20000D01*
G01Y3000D01*
G01X-55000Y10000D01*
G01Y13000D01*
G01X-67400Y25400D01*
G01X-76200D01*
G01X-76200Y0000D02*
G01X-66000D01*
G01X-54552Y-11448D01*
G01Y-22244D01*
G01X-40796Y-36000D01*
G01X-76200Y-25400D02*
G01X-57895D01*
G01X-44295Y-39000D01*
G01X-13612Y-54269D02*
G01X-22000Y-62657D01*
G01X-47207Y-43000D02*
G01X-68400D01*
G01X-76200Y-50800D01*
G01X16000Y38000D02*
G01Y37750D01*
G01X20750Y33000D01*
G01Y26750D01*
G01X24926Y-27045D02*
G01X28880Y-31000D01*
G01X33000D01*
G01X-13000Y8000D02*
G01Y-5029D01*
G01X1000Y23000D02*
G01Y22000D01*
G01X-13000Y8000D01*
G01X8000Y32000D02*
G01Y30000D01*
G01X11000Y27000D01*
G01Y-7029D01*
G01X7955Y-10074D01*
G01X-76200Y-152400D02*
G01X-73600D01*
G01X-62000Y-164000D01*
G01X64600Y101600D02*
G01X76200D01*
G01X-18000Y-64314D02*
G01Y-71000D01*
G01X-10000Y-79000D01*
G01X73400D01*
G01X-18000Y-71000D02*
G01X-19462D01*
G01X-42787Y-94325D01*
G01X-44295Y-39000D02*
G01X-44230D01*
G01X-40160Y26160D02*
G01X-34000Y20000D01*
G01X-21000D01*
G01X-17000Y16000D01*
G01Y-6686D01*
G01X-10783Y-12903D01*
G01X-60523Y161819D02*
G01X-56428Y157724D01*
G01Y115931D01*
G01X-53179Y112681D01*
G01X28847D01*
G01X37000Y104528D01*
G01X31525Y-38228D02*
G01X28138Y-40000D01*
G01X31525Y-41772D02*
G01X28138Y-40000D01*
G01X31525Y-39228D02*
G01X28138Y-40000D01*
G01X31525Y-40228D02*
G01X28138Y-40000D01*
G01X31976Y-29282D02*
G01X29092Y-31000D01*
G01X31976Y-32718D02*
G01X29092Y-31000D01*
G01X31976Y-30282D02*
G01X29092Y-31000D01*
G01X31976Y-31282D02*
G01X29092Y-31000D01*
G01X-77419Y-161317D02*
G01X-62667Y-163333D01*
G01X-67738Y-149335D02*
G01X-62667Y-163333D01*
G01X-76790Y-160539D02*
G01X-62667Y-163333D01*
G01X-76162Y-159761D02*
G01X-62667Y-163333D01*
G01X-75533Y-158984D02*
G01X-62667Y-163333D01*
G01X-74905Y-158206D02*
G01X-62667Y-163333D01*
G01X-74276Y-157428D02*
G01X-62667Y-163333D01*
G01X-73648Y-156650D02*
G01X-62667Y-163333D01*
G01X-73020Y-155872D02*
G01X-62667Y-163333D01*
G01X-72391Y-155094D02*
G01X-62667Y-163333D01*
G01X-71763Y-154316D02*
G01X-62667Y-163333D01*
G01X-71134Y-153538D02*
G01X-62667Y-163333D01*
G01X-70506Y-152761D02*
G01X-62667Y-163333D01*
G01X-69877Y-151983D02*
G01X-62667Y-163333D01*
G01X-69249Y-151205D02*
G01X-62667Y-163333D01*
G01X-68621Y-150427D02*
G01X-62667Y-163333D01*
G01X71236Y-68693D02*
G01X55647Y-79000D01*
G01X73425Y-84762D02*
G01X55647Y-79000D01*
G01X71371Y-69683D02*
G01X55647Y-79000D01*
G01X71506Y-70674D02*
G01X55647Y-79000D01*
G01X71641Y-71665D02*
G01X55647Y-79000D01*
G01X71776Y-72656D02*
G01X55647Y-79000D01*
G01X71911Y-73647D02*
G01X55647Y-79000D01*
G01X72046Y-74638D02*
G01X55647Y-79000D01*
G01X72181Y-75628D02*
G01X55647Y-79000D01*
G01X72316Y-76619D02*
G01X55647Y-79000D01*
G01X72451Y-77610D02*
G01X55647Y-79000D01*
G01X72586Y-78601D02*
G01X55647Y-79000D01*
G01X72721Y-79592D02*
G01X55647Y-79000D01*
G01X72856Y-80583D02*
G01X55647Y-79000D01*
G01X72991Y-81574D02*
G01X55647Y-79000D01*
G01X73126Y-82564D02*
G01X55647Y-79000D01*
G01X73261Y-83555D02*
G01X55647Y-79000D01*
G01X-36287Y-103325D02*
G01X-29923Y-81461D01*
G01X-36287Y-85325D02*
G01X-29923Y-81461D01*
G01X-36287Y-102325D02*
G01X-29923Y-81461D01*
G01X-36287Y-101325D02*
G01X-29923Y-81461D01*
G01X-36287Y-100325D02*
G01X-29923Y-81461D01*
G01X-36287Y-99325D02*
G01X-29923Y-81461D01*
G01X-36287Y-98325D02*
G01X-29923Y-81461D01*
G01X-36287Y-97325D02*
G01X-29923Y-81461D01*
G01X-36287Y-96325D02*
G01X-29923Y-81461D01*
G01X-36287Y-95325D02*
G01X-29923Y-81461D01*
G01X-36287Y-94325D02*
G01X-29923Y-81461D01*
G01X-36287Y-93325D02*
G01X-29923Y-81461D01*
G01X-36287Y-92325D02*
G01X-29923Y-81461D01*
G01X-36287Y-91325D02*
G01X-29923Y-81461D01*
G01X-36287Y-90325D02*
G01X-29923Y-81461D01*
G01X-36287Y-89325D02*
G01X-29923Y-81461D01*
G01X-36287Y-88325D02*
G01X-29923Y-81461D01*
G01X-36287Y-87325D02*
G01X-29923Y-81461D01*
G01X-36287Y-86325D02*
G01X-29923Y-81461D01*
G01X68018Y-47051D02*
G01X66300Y-50800D01*
G01X68018Y-54549D02*
G01X66300Y-50800D01*
G01X68018Y-48051D02*
G01X66300Y-50800D01*
G01X68018Y-49051D02*
G01X66300Y-50800D01*
G01X68018Y-50051D02*
G01X66300Y-50800D01*
G01X68018Y-51051D02*
G01X66300Y-50800D01*
G01X68018Y-52051D02*
G01X66300Y-50800D01*
G01X68018Y-53051D02*
G01X66300Y-50800D01*
G01X70778Y-18216D02*
G01X61260Y-25400D01*
G01X70778Y-32584D02*
G01X61260Y-25400D01*
G01X70778Y-19216D02*
G01X61260Y-25400D01*
G01X70778Y-20216D02*
G01X61260Y-25400D01*
G01X70778Y-21216D02*
G01X61260Y-25400D01*
G01X70778Y-22216D02*
G01X61260Y-25400D01*
G01X70778Y-23216D02*
G01X61260Y-25400D01*
G01X70778Y-24216D02*
G01X61260Y-25400D01*
G01X70778Y-25216D02*
G01X61260Y-25400D01*
G01X70778Y-26216D02*
G01X61260Y-25400D01*
G01X70778Y-27216D02*
G01X61260Y-25400D01*
G01X70778Y-28216D02*
G01X61260Y-25400D01*
G01X70778Y-29216D02*
G01X61260Y-25400D01*
G01X70778Y-30216D02*
G01X61260Y-25400D01*
G01X70778Y-31216D02*
G01X61260Y-25400D01*
G01X67723Y3022D02*
G01X61351Y-14849D01*
G01X79222Y-8477D02*
G01X61351Y-14849D01*
G01X68430Y2315D02*
G01X61351Y-14849D01*
G01X69137Y1608D02*
G01X61351Y-14849D01*
G01X69844Y0901D02*
G01X61351Y-14849D01*
G01X70551Y0194D02*
G01X61351Y-14849D01*
G01X71258Y-0513D02*
G01X61351Y-14849D01*
G01X71965Y-1220D02*
G01X61351Y-14849D01*
G01X72672Y-1927D02*
G01X61351Y-14849D01*
G01X73380Y-2634D02*
G01X61351Y-14849D01*
G01X74087Y-3341D02*
G01X61351Y-14849D01*
G01X74794Y-4049D02*
G01X61351Y-14849D01*
G01X75501Y-4756D02*
G01X61351Y-14849D01*
G01X76208Y-5463D02*
G01X61351Y-14849D01*
G01X76915Y-6170D02*
G01X61351Y-14849D01*
G01X77622Y-6877D02*
G01X61351Y-14849D01*
G01X78329Y-7584D02*
G01X61351Y-14849D01*
G01X67723Y28422D02*
G01X61351Y10551D01*
G01X79222Y16923D02*
G01X61351Y10551D01*
G01X68430Y27715D02*
G01X61351Y10551D01*
G01X69137Y27008D02*
G01X61351Y10551D01*
G01X69844Y26301D02*
G01X61351Y10551D01*
G01X70551Y25594D02*
G01X61351Y10551D01*
G01X71258Y24887D02*
G01X61351Y10551D01*
G01X71965Y24180D02*
G01X61351Y10551D01*
G01X72672Y23473D02*
G01X61351Y10551D01*
G01X73380Y22766D02*
G01X61351Y10551D01*
G01X74087Y22059D02*
G01X61351Y10551D01*
G01X74794Y21351D02*
G01X61351Y10551D01*
G01X75501Y20644D02*
G01X61351Y10551D01*
G01X76208Y19937D02*
G01X61351Y10551D01*
G01X76915Y19230D02*
G01X61351Y10551D01*
G01X77622Y18523D02*
G01X61351Y10551D01*
G01X78329Y17816D02*
G01X61351Y10551D01*
G01X69484Y56791D02*
G01X64140Y50800D01*
G01X69484Y44809D02*
G01X64140Y50800D01*
G01X69484Y55791D02*
G01X64140Y50800D01*
G01X69484Y54791D02*
G01X64140Y50800D01*
G01X69484Y53791D02*
G01X64140Y50800D01*
G01X69484Y52791D02*
G01X64140Y50800D01*
G01X69484Y51791D02*
G01X64140Y50800D01*
G01X69484Y50791D02*
G01X64140Y50800D01*
G01X69484Y49791D02*
G01X64140Y50800D01*
G01X69484Y48791D02*
G01X64140Y50800D01*
G01X69484Y47791D02*
G01X64140Y50800D01*
G01X69484Y46791D02*
G01X64140Y50800D01*
G01X70200Y82908D02*
G01X62700Y76200D01*
G01X70200Y69492D02*
G01X62700Y76200D01*
G01X70200Y81908D02*
G01X62700Y76200D01*
G01X70200Y80908D02*
G01X62700Y76200D01*
G01X70200Y79908D02*
G01X62700Y76200D01*
G01X70200Y78908D02*
G01X62700Y76200D01*
G01X70200Y77908D02*
G01X62700Y76200D01*
G01X70200Y76908D02*
G01X62700Y76200D01*
G01X70200Y75908D02*
G01X62700Y76200D01*
G01X70200Y74908D02*
G01X62700Y76200D01*
G01X70200Y73908D02*
G01X62700Y76200D01*
G01X70200Y72908D02*
G01X62700Y76200D01*
G01X70200Y71908D02*
G01X62700Y76200D01*
G01X70200Y70908D02*
G01X62700Y76200D01*
G01X69057Y107075D02*
G01X64860Y101600D01*
G01X69057Y96125D02*
G01X64860Y101600D01*
G01X69057Y106075D02*
G01X64860Y101600D01*
G01X69057Y105075D02*
G01X64860Y101600D01*
G01X69057Y104075D02*
G01X64860Y101600D01*
G01X69057Y103075D02*
G01X64860Y101600D01*
G01X69057Y102075D02*
G01X64860Y101600D01*
G01X69057Y101075D02*
G01X64860Y101600D01*
G01X69057Y100075D02*
G01X64860Y101600D01*
G01X69057Y99075D02*
G01X64860Y101600D01*
G01X69057Y98075D02*
G01X64860Y101600D01*
G01X-60673Y161618D02*
G01X-59286Y160581D01*
G01X-60323Y161968D02*
G01X-59286Y160581D01*
G01X-40428Y25738D02*
G01X-38534Y24534D01*
G01X-39738Y26428D02*
G01X-38534Y24534D01*
G01X-68441Y97039D02*
G01X-65760Y101600D01*
G01X-68441Y106161D02*
G01X-65760Y101600D01*
G01X-68441Y98039D02*
G01X-65760Y101600D01*
G01X-68441Y99039D02*
G01X-65760Y101600D01*
G01X-68441Y100039D02*
G01X-65760Y101600D01*
G01X-68441Y101039D02*
G01X-65760Y101600D01*
G01X-68441Y102039D02*
G01X-65760Y101600D01*
G01X-68441Y103039D02*
G01X-65760Y101600D01*
G01X-68441Y104039D02*
G01X-65760Y101600D01*
G01X-68441Y105039D02*
G01X-65760Y101600D01*
G01X-68700Y71225D02*
G01X-65400Y76200D01*
G01X-68700Y81175D02*
G01X-65400Y76200D01*
G01X-68700Y72225D02*
G01X-65400Y76200D01*
G01X-68700Y73225D02*
G01X-65400Y76200D01*
G01X-68700Y74225D02*
G01X-65400Y76200D01*
G01X-68700Y75225D02*
G01X-65400Y76200D01*
G01X-68700Y76225D02*
G01X-65400Y76200D01*
G01X-68700Y77225D02*
G01X-65400Y76200D01*
G01X-68700Y78225D02*
G01X-65400Y76200D01*
G01X-68700Y79225D02*
G01X-65400Y76200D01*
G01X-67866Y47403D02*
G01X-66481Y50800D01*
G01X-67866Y54197D02*
G01X-66481Y50800D01*
G01X-67866Y48403D02*
G01X-66481Y50800D01*
G01X-67866Y49403D02*
G01X-66481Y50800D01*
G01X-67866Y50403D02*
G01X-66481Y50800D01*
G01X-67866Y51403D02*
G01X-66481Y50800D01*
G01X-67866Y52403D02*
G01X-66481Y50800D01*
G01X-76036Y16401D02*
G01X-58717Y16717D01*
G01X-68931Y30707D02*
G01X-58717Y16717D01*
G01X-75591Y17297D02*
G01X-58717Y16717D01*
G01X-75146Y18193D02*
G01X-58717Y16717D01*
G01X-74702Y19088D02*
G01X-58717Y16717D01*
G01X-74257Y19984D02*
G01X-58717Y16717D01*
G01X-73812Y20880D02*
G01X-58717Y16717D01*
G01X-73367Y21775D02*
G01X-58717Y16717D01*
G01X-72922Y22671D02*
G01X-58717Y16717D01*
G01X-72478Y23566D02*
G01X-58717Y16717D01*
G01X-72033Y24462D02*
G01X-58717Y16717D01*
G01X-71588Y25358D02*
G01X-58717Y16717D01*
G01X-71143Y26253D02*
G01X-58717Y16717D01*
G01X-70698Y27149D02*
G01X-58717Y16717D01*
G01X-70254Y28045D02*
G01X-58717Y16717D01*
G01X-69809Y28940D02*
G01X-58717Y16717D01*
G01X-68164Y-4053D02*
G01X-66120Y0000D01*
G01X-68164Y4053D02*
G01X-66120Y0000D01*
G01X-68164Y-3053D02*
G01X-66120Y0000D01*
G01X-68164Y-2053D02*
G01X-66120Y0000D01*
G01X-68164Y-1053D02*
G01X-66120Y0000D01*
G01X-68164Y-0053D02*
G01X-66120Y0000D01*
G01X-68164Y0947D02*
G01X-66120Y0000D01*
G01X-68164Y1947D02*
G01X-66120Y0000D01*
G01X-68164Y2947D02*
G01X-66120Y0000D01*
G01X-71538Y-33098D02*
G01X-58826Y-25400D01*
G01X-71538Y-17702D02*
G01X-58826Y-25400D01*
G01X-71538Y-32098D02*
G01X-58826Y-25400D01*
G01X-71538Y-31098D02*
G01X-58826Y-25400D01*
G01X-71538Y-30098D02*
G01X-58826Y-25400D01*
G01X-71538Y-29098D02*
G01X-58826Y-25400D01*
G01X-71538Y-28098D02*
G01X-58826Y-25400D01*
G01X-71538Y-27098D02*
G01X-58826Y-25400D01*
G01X-71538Y-26098D02*
G01X-58826Y-25400D01*
G01X-71538Y-25098D02*
G01X-58826Y-25400D01*
G01X-71538Y-24098D02*
G01X-58826Y-25400D01*
G01X-71538Y-23098D02*
G01X-58826Y-25400D01*
G01X-71538Y-22098D02*
G01X-58826Y-25400D01*
G01X-71538Y-21098D02*
G01X-58826Y-25400D01*
G01X-71538Y-20098D02*
G01X-58826Y-25400D01*
G01X-71538Y-19098D02*
G01X-58826Y-25400D01*
G01X-67372Y-49049D02*
G01X-68544Y-43144D01*
G01X-74449Y-41972D02*
G01X-68544Y-43144D01*
G01X-68079Y-48341D02*
G01X-68544Y-43144D01*
G01X-68786Y-47634D02*
G01X-68544Y-43144D01*
G01X-69493Y-46927D02*
G01X-68544Y-43144D01*
G01X-70200Y-46220D02*
G01X-68544Y-43144D01*
G01X-70908Y-45513D02*
G01X-68544Y-43144D01*
G01X-71615Y-44806D02*
G01X-68544Y-43144D01*
G01X-72322Y-44099D02*
G01X-68544Y-43144D01*
G01X-73029Y-43392D02*
G01X-68544Y-43144D01*
G01X-73736Y-42685D02*
G01X-68544Y-43144D01*
G01X70967Y134323D02*
G01X60720Y127000D01*
G01X70967Y119677D02*
G01X60720Y127000D01*
G01X70967Y133323D02*
G01X60720Y127000D01*
G01X70967Y132323D02*
G01X60720Y127000D01*
G01X70967Y131323D02*
G01X60720Y127000D01*
G01X70967Y130323D02*
G01X60720Y127000D01*
G01X70967Y129323D02*
G01X60720Y127000D01*
G01X70967Y128323D02*
G01X60720Y127000D01*
G01X70967Y127323D02*
G01X60720Y127000D01*
G01X70967Y126323D02*
G01X60720Y127000D01*
G01X70967Y125323D02*
G01X60720Y127000D01*
G01X70967Y124323D02*
G01X60720Y127000D01*
G01X70967Y123323D02*
G01X60720Y127000D01*
G01X70967Y122323D02*
G01X60720Y127000D01*
G01X70967Y121323D02*
G01X60720Y127000D01*
G01X-26868Y12286D02*
G01X-25000Y7400D01*
G01X-23132Y12286D02*
G01X-25000Y7400D01*
G01X-25868Y12286D02*
G01X-25000Y7400D01*
G01X-24868Y12286D02*
G01X-25000Y7400D01*
G01X71309Y185355D02*
G01X59640Y177800D01*
G01X71309Y170245D02*
G01X59640Y177800D01*
G01X71309Y184355D02*
G01X59640Y177800D01*
G01X71309Y183355D02*
G01X59640Y177800D01*
G01X71309Y182355D02*
G01X59640Y177800D01*
G01X71309Y181355D02*
G01X59640Y177800D01*
G01X71309Y180355D02*
G01X59640Y177800D01*
G01X71309Y179355D02*
G01X59640Y177800D01*
G01X71309Y178355D02*
G01X59640Y177800D01*
G01X71309Y177355D02*
G01X59640Y177800D01*
G01X71309Y176355D02*
G01X59640Y177800D01*
G01X71309Y175355D02*
G01X59640Y177800D01*
G01X71309Y174355D02*
G01X59640Y177800D01*
G01X71309Y173355D02*
G01X59640Y177800D01*
G01X71309Y172355D02*
G01X59640Y177800D01*
G01X71309Y171355D02*
G01X59640Y177800D01*
G01X16500Y24500D02*
G01X20750Y20600D01*
G01X29000Y24500D02*
G01X20750Y20600D01*
G01X17500Y24500D02*
G01X20750Y20600D01*
G01X18500Y24500D02*
G01X20750Y20600D01*
G01X19500Y24500D02*
G01X20750Y20600D01*
G01X20500Y24500D02*
G01X20750Y20600D01*
G01X21500Y24500D02*
G01X20750Y20600D01*
G01X22500Y24500D02*
G01X20750Y20600D01*
G01X23500Y24500D02*
G01X20750Y20600D01*
G01X24500Y24500D02*
G01X20750Y20600D01*
G01X25500Y24500D02*
G01X20750Y20600D01*
G01X26500Y24500D02*
G01X20750Y20600D01*
G01X27500Y24500D02*
G01X20750Y20600D01*
G01X15127Y36200D02*
G01X19829Y33921D01*
G01X17851Y38757D02*
G01X19829Y33921D01*
G01X15857Y36885D02*
G01X19829Y33921D01*
G01X16586Y37569D02*
G01X19829Y33921D01*
G01X29000Y29000D02*
G01X20750Y32900D01*
G01X16500Y29000D02*
G01X20750Y32900D01*
G01X28000Y29000D02*
G01X20750Y32900D01*
G01X27000Y29000D02*
G01X20750Y32900D01*
G01X26000Y29000D02*
G01X20750Y32900D01*
G01X25000Y29000D02*
G01X20750Y32900D01*
G01X24000Y29000D02*
G01X20750Y32900D01*
G01X23000Y29000D02*
G01X20750Y32900D01*
G01X22000Y29000D02*
G01X20750Y32900D01*
G01X21000Y29000D02*
G01X20750Y32900D01*
G01X20000Y29000D02*
G01X20750Y32900D01*
G01X19000Y29000D02*
G01X20750Y32900D01*
G01X18000Y29000D02*
G01X20750Y32900D01*
G01X28246Y0961D02*
G01X25750Y-3593D01*
G01X30656Y-1889D02*
G01X25750Y-3593D01*
G01X28892Y0198D02*
G01X25750Y-3593D01*
G01X29537Y-0566D02*
G01X25750Y-3593D01*
G01X-0919Y23564D02*
G01X-2368Y18632D01*
G01X2033Y21288D02*
G01X-2368Y18632D01*
G01X-0127Y22953D02*
G01X-2368Y18632D01*
G01X0665Y22343D02*
G01X-2368Y18632D01*
G01X6764Y30428D02*
G01X10546Y27454D01*
G01X9986Y32232D02*
G01X10546Y27454D01*
G01X7636Y30916D02*
G01X10546Y27454D01*
G01X8509Y31405D02*
G01X10546Y27454D01*
G54D13*
G01X2500Y-137000D02*
G01Y-151500D01*
G01X-1000Y-155000D01*
G01X-5000D01*
G01X-7500Y-152500D01*
G01Y-137000D01*
G01X-2500Y-137000D02*
G01Y-121500D01*
G01X0000Y-119000D01*
G01X4000D01*
G01X7500Y-122500D02*
G01Y-137000D01*
G01X-7500Y-137000D02*
G01Y-118500D01*
G01X34000Y-112000D02*
G01X24000D01*
G01X17500Y-118500D01*
G01Y-137000D01*
G01X-19000Y-114000D02*
G01X-12500Y-120500D01*
G01Y-137000D01*
G01X35000Y-111000D02*
G01X34000Y-112000D01*
G01X4000Y-119000D02*
G01X7500Y-122500D01*
G01X4000Y-119000D02*
G01Y-118969D01*
G01X8300Y-114669D01*
G01X14995D01*
G01X29664Y-100000D01*
G01X49000D01*
G01X49000Y-90000D02*
G01X46554D01*
G01X41253Y-95300D01*
G01X26629D01*
G01X11355Y-110575D01*
G01X0425D01*
G01X-7500Y-118500D01*
G01X-19000Y-114000D02*
G01X-50801D01*
G01X-58517Y-106285D01*
G01Y-68847D01*
G01X-50000Y-60330D01*
G01Y-55000D01*
G01X-76200Y177800D02*
G01Y177495D01*
G01X-60523Y161819D01*
G01X-79286Y169612D02*
G01X-61682Y162977D01*
G01X-67950Y180715D02*
G01X-61682Y162977D01*
G01X-78393Y170487D02*
G01X-61682Y162977D01*
G01X-77500Y171362D02*
G01X-61682Y162977D01*
G01X-76607Y172236D02*
G01X-61682Y162977D01*
G01X-75714Y173111D02*
G01X-61682Y162977D01*
G01X-74821Y173986D02*
G01X-61682Y162977D01*
G01X-73928Y174860D02*
G01X-61682Y162977D01*
G01X-73035Y175735D02*
G01X-61682Y162977D01*
G01X-72142Y176610D02*
G01X-61682Y162977D01*
G01X-71249Y177484D02*
G01X-61682Y162977D01*
G01X-70356Y178359D02*
G01X-61682Y162977D01*
G01X-69463Y179233D02*
G01X-61682Y162977D01*
G01X-12250Y-126750D02*
G01X-12500Y-124950D01*
G01X-12750Y-126750D02*
G01X-12500Y-124950D01*
G01X-51638Y-55616D02*
G01X-50000Y-59972D01*
G01X-48362Y-55616D02*
G01X-50000Y-59972D01*
G01X-50388Y-55616D02*
G01X-50000Y-59972D01*
G01X17750Y-126750D02*
G01X17500Y-124950D01*
G01X17250Y-126750D02*
G01X17500Y-124950D01*
G01X34095Y-109502D02*
G01X29964Y-112000D01*
G01X34735Y-112730D02*
G01X29964Y-112000D01*
G01X34338Y-110729D02*
G01X29964Y-112000D01*
G01X-7250Y-126750D02*
G01X-7500Y-124950D01*
G01X-7750Y-126750D02*
G01X-7500Y-124950D01*
G01X2250Y-147250D02*
G01X2500Y-149050D01*
G01X2750Y-147250D02*
G01X2500Y-149050D01*
G01X-7750Y-147250D02*
G01X-7500Y-149050D01*
G01X-7250Y-147250D02*
G01X-7500Y-149050D01*
G01X47711Y-88816D02*
G01X46623Y-90000D01*
G01X47711Y-91184D02*
G01X46623Y-90000D01*
G01X-2250Y-126750D02*
G01X-2500Y-124950D01*
G01X-2750Y-126750D02*
G01X-2500Y-124950D01*
G01X7750Y-126750D02*
G01X7500Y-124950D01*
G01X7250Y-126750D02*
G01X7500Y-124950D01*
G01X48428Y-98346D02*
G01X43650Y-100000D01*
G01X48428Y-101654D02*
G01X43650Y-100000D01*
G01X48428Y-99596D02*
G01X43650Y-100000D01*
G54D14*
G01X-25000Y74200D02*
G01Y52500D01*
G01X-20750Y48250D01*
G01X0000Y74200D02*
G01X25000D01*
G01X-42300Y98000D02*
G01X-40902D01*
G01X-32102Y89200D01*
G01X-25000D01*
G01X0000D01*
G01X-42300Y98000D02*
G01Y97447D01*
G01X-49612Y90135D01*
G01Y42850D01*
G01X-44970Y38208D01*
G01X-41392D01*
G01Y27392D01*
G01X-40160Y26160D01*
G01X-42892Y39708D02*
G01X-44762Y38208D01*
G01X-42892Y36708D02*
G01X-44762Y38208D01*
G01X-42892Y38208D02*
G01X-44762D01*
G01X-42892Y36708D02*
G01X-41392Y33108D01*
G01X-39892Y36708D02*
G01X-41392Y33108D01*
G01X-41392Y36708D02*
G01Y33108D01*
G01X-42691Y96552D02*
G01X-38258Y95355D01*
G01X-41130Y98938D02*
G01X-38258Y95355D01*
G01X-43677Y98594D02*
G01X-45593Y94154D01*
G01X-41501Y96731D02*
G01X-45593Y94154D01*
G01X-22500Y86200D02*
G01X-17700Y89200D01*
G01X-22500Y92200D02*
G01X-17700Y89200D01*
G01X-22500Y87700D02*
G01X-17700Y89200D01*
G01X-22500Y89200D02*
G01X-17700D01*
G01X-22500Y90700D02*
G01X-17700Y89200D01*
G01X-2500Y92200D02*
G01X-7300Y89200D01*
G01X-2500Y86200D02*
G01X-7300Y89200D01*
G01X-2500Y90700D02*
G01X-7300Y89200D01*
G01X-2500Y89200D02*
G01X-7300D01*
G01X-2500Y87700D02*
G01X-7300Y89200D01*
G01X-27500Y92200D02*
G01X-31642Y89200D01*
G01X-27500Y86200D02*
G01X-31642Y89200D01*
G01X-27500Y90700D02*
G01X-31642Y89200D01*
G01X-27500Y89200D02*
G01X-31642D01*
G01X-27500Y87700D02*
G01X-31642Y89200D01*
G01X-27500Y71200D02*
G01X-25000Y66400D01*
G01X-22500Y71200D02*
G01X-25000Y66400D01*
G01X-26000Y71200D02*
G01X-25000Y66400D01*
G01X-24500Y71200D02*
G01X-25000Y66400D01*
G01X-17000Y50000D02*
G01X-24750Y52250D01*
G01X-28500Y50000D02*
G01X-24750Y52250D01*
G01X-18500Y50000D02*
G01X-24750Y52250D01*
G01X-20000Y50000D02*
G01X-24750Y52250D01*
G01X-21500Y50000D02*
G01X-24750Y52250D01*
G01X-23000Y50000D02*
G01X-24750Y52250D01*
G01X-24500Y50000D02*
G01X-24750Y52250D01*
G01X-26000Y50000D02*
G01X-24750Y52250D01*
G01X22500Y77200D02*
G01X17700Y74200D01*
G01X22500Y71200D02*
G01X17700Y74200D01*
G01X22500Y75700D02*
G01X17700Y74200D01*
G01X22500Y74200D02*
G01X17700D01*
G01X22500Y72700D02*
G01X17700Y74200D01*
G01X2500Y71200D02*
G01X7300Y74200D01*
G01X2500Y77200D02*
G01X7300Y74200D01*
G01X2500Y72700D02*
G01X7300Y74200D01*
G01X2500Y74200D02*
G01X7300D01*
G01X2500Y75700D02*
G01X7300Y74200D01*
G54D15*
G01X-24000Y-137000D02*
G01Y-149000D01*
G01X-18000Y-155000D01*
G01Y-163000D01*
G01X24000Y-137000D02*
G01Y-149000D01*
G01X10000Y-163000D01*
G01X-18000D01*
G01X-16792Y-162678D02*
G01X-18000Y-158150D01*
G01X-19208Y-162678D02*
G01X-18000Y-158150D01*
G01X-17678Y-164208D02*
G01X-13150Y-163000D01*
G01X-17678Y-161792D02*
G01X-13150Y-163000D01*
G01X-25250Y-146750D02*
G01X-24000Y-148775D01*
G01X-22750Y-146750D02*
G01X-24000Y-148775D01*
G01X22750Y-146750D02*
G01X24000Y-148775D01*
G01X25250Y-146750D02*
G01X24000Y-148775D01*
G54D16*
G01X-25400Y163000D02*
G01Y178000D01*
G01X-25400Y163000D02*
G01Y148000D01*
G01X-25400Y163000D02*
G01X-40400D01*
G01X-25400Y163000D02*
G01X-10400D01*
G01X32000Y-137000D02*
G01Y-120500D01*
G01X76200Y-101600D02*
G01X61200D01*
G01X1213Y-94325D02*
G01X13713D01*
G01X-32000Y-137000D02*
G01Y-120500D01*
G01X25000Y89200D02*
G01Y98700D01*
G01X25000Y89200D02*
G01X16000D01*
G01X-41392Y49208D02*
G01Y57208D01*
G54D17*
X59523Y-207535D03*
X-58576Y-206950D03*
X-18000Y-163000D03*
X44000Y-121000D03*
X-51000Y-120000D03*
X35000Y-111000D03*
X49000Y-100000D03*
Y-90000D03*
X20980Y-86056D03*
X-50000Y-55000D03*
X32452Y-40000D03*
X33000Y-31000D03*
X30000Y0000D03*
X-25000Y13000D03*
X-35000Y14000D03*
X1000Y23000D03*
X8000Y32000D03*
X16000Y38000D03*
X12000Y60000D03*
X-42300Y98000D03*
X-13000Y104000D03*
X-59486Y206819D03*
X62513Y207794D03*
G54D18*
X-76200Y-177800D03*
X76200D03*
X-76200Y-152400D03*
X76200D03*
X-76200Y-127000D03*
X76200D03*
X-76200Y-101600D03*
X76200D03*
X-76200Y-76200D03*
X76200D03*
X-76200Y-50800D03*
X76200D03*
X0000Y-35000D03*
X-76200Y-25400D03*
X76200D03*
X-76200Y0000D03*
X76200D03*
X-76200Y25400D03*
X76200D03*
X-76200Y50800D03*
X76200D03*
X-76200Y76200D03*
X76200D03*
X-76200Y101600D03*
X76200D03*
X-76200Y127000D03*
X76200D03*
X-76200Y152400D03*
X76200D03*
X-25400Y163000D03*
X25400D03*
X-76200Y177800D03*
X76200D03*
G54D19*
X-41392Y38208D03*
Y49208D03*
G54D20*
X-43200Y-190000D03*
X43200D03*
X-43200Y-148500D03*
X43200D03*
G54D21*
X7955Y-59926D03*
X10783Y-57097D03*
X13612Y-54269D03*
X16440Y-51440D03*
X19269Y-48612D03*
X22097Y-45783D03*
X24926Y-42955D03*
G54D22*
X24926Y-27045D03*
X22097Y-24217D03*
X19269Y-21388D03*
X16440Y-18560D03*
X13612Y-15731D03*
X10783Y-12903D03*
X7955Y-10074D03*
G54D23*
X-24926Y-27045D03*
X-22097Y-24217D03*
X-19269Y-21388D03*
X-16440Y-18560D03*
X-13612Y-15731D03*
X-10783Y-12903D03*
X-7955Y-10074D03*
G54D24*
X-7955Y-59926D03*
X-10783Y-57097D03*
X-13612Y-54269D03*
X-16440Y-51440D03*
X-19269Y-48612D03*
X-22097Y-45783D03*
X-24926Y-42955D03*
G54D25*
X-17500Y-137000D03*
X-12500D03*
X-7500D03*
X-2500D03*
X2500D03*
X7500D03*
X12500D03*
X17500D03*
G54D26*
X-32000Y-137000D03*
X-24000D03*
X24000D03*
X32000D03*
G54D27*
X-25000Y74200D03*
X0000D03*
X25000D03*
X-25000Y89200D03*
X0000D03*
X25000D03*
G54D28*
X-22750Y26750D03*
Y48250D03*
G54D29*
X22750Y26750D03*
Y48250D03*
G54D30*
X-42787Y-94325D03*
X1213D03*
M02*
