G71*
G90*
G04 Quadcept GERBER*
%MOMM*%
%FSLAX44Y44*%
%ADD10C,0.2*%
%ADD11R,0.6X0.6*%
%ADD12R,0.2X0.8*%
%ADD13R,0.53X1.9*%
%ADD14R,0.8X0.9*%
%ADD15R,0.9X0.8*%
%ADD16R,1.1X2.5*%
G75*
G36*
G01X-0202Y-145005D02*
G01X-18998Y-145005D01*
G01X-18998Y-120621D01*
G01X-12648Y-114271D01*
G01X-12648Y-110715D01*
G01X-12600Y-110715D01*
G01X-12600Y-95500D01*
G01X-6600Y-95500D01*
G01X-6600Y-110715D01*
G01X-6552Y-110715D01*
G01X-6552Y-114271D01*
G01X-0202Y-120621D01*
G01X-0202Y-145005D01*
G37*
G36*
G01X-9202Y43395D02*
G01X-27998Y43395D01*
G01X-27998Y67779D01*
G01X-21648Y74129D01*
G01X-21648Y77685D01*
G01X-21600Y77685D01*
G01X-21600Y92900D01*
G01X-15600Y92900D01*
G01X-15600Y77685D01*
G01X-15552Y77685D01*
G01X-15552Y74129D01*
G01X-9202Y67779D01*
G01X-9202Y43395D01*
G37*
G54D10*
G01X-92710Y-215900D02*
G01X92290Y-215900D01*
G01X92290Y-215900D02*
G01X92290Y215900D01*
G01X92290Y215900D02*
G01X-92710Y215900D01*
G01X-92710Y215900D02*
G01X-92710Y-215900D01*
G54D11*
X-40714Y132834D03*
X-29714D03*
G54D12*
X-43000Y-10000D03*
X13000Y1000D03*
G54D13*
X-25300Y-105000D03*
X6100D03*
X-34300Y83400D03*
X-2900D03*
G54D14*
X-43000Y-17500D03*
X-25000D03*
X-5000Y-6500D03*
X13000D03*
X-43000Y-2500D03*
X-25000D03*
X-5000Y8500D03*
X13000D03*
G54D15*
X-46300Y-78000D03*
X-31300D03*
X-11500D03*
X3500D03*
X33000Y14200D03*
X48000D03*
X33000Y40000D03*
X48000D03*
X-42300Y113000D03*
X-27300D03*
X0400D03*
X15400D03*
G54D16*
X-15500Y-189000D03*
X15500D03*
M02*
