M48
METRIC,TZ,0000.0000
VER,1
FMAT,2
T01C0.3000
T02C0.6500
T03C0.6500
T04C1.0000
T05C1.2500
T06C1.3000
DETECT, ON
ATC, ON
%
T01
X-18000Y-163000
X30000Y0000
X49000Y-100000
X35000Y-111000
X33000Y-31000
X32452Y-40000
X49000Y-90000
X-25000Y13000
X-50000Y-55000
X-35000Y14000
X44000Y-121000
X16000Y38000
X-42300Y98000
X1000Y23000
X8000Y32000
X-13000Y104000
X12000Y60000
X-51000Y-120000
X20980Y-86056
X59523Y-207535
X-58576Y-206950
X-59486Y206819
X62513Y207794
T02
X-28900Y-153500
X28900Y-153500
T03
X-43200Y-152500
X-43200Y-151500
X-43200Y-150500
X-43200Y-149500
X-43200Y-148500
X-43200Y-147500
X-43200Y-146500
X-43200Y-145500
X-43200Y-144500
X-43200Y-194000
X-43200Y-193000
X-43200Y-192000
X-43200Y-191000
X-43200Y-190000
X-43200Y-189000
X-43200Y-188000
X-43200Y-187000
X-43200Y-186000
X43200Y-194000
X43200Y-193000
X43200Y-192000
X43200Y-191000
X43200Y-190000
X43200Y-189000
X43200Y-188000
X43200Y-187000
X43200Y-186000
X43200Y-152500
X43200Y-151500
X43200Y-150500
X43200Y-149500
X43200Y-148500
X43200Y-147500
X43200Y-146500
X43200Y-145500
X43200Y-144500
T04
X76200Y-177800
X76200Y-152400
X76200Y-127000
X76200Y-101600
X76200Y-76200
X76200Y-50800
X76200Y-25400
X76200Y0000
X76200Y25400
X76200Y50800
X76200Y76200
X76200Y101600
X-76200Y177800
X-76200Y152400
X-76200Y127000
X-76200Y101600
X-76200Y76200
X-76200Y50800
X-76200Y25400
X-76200Y0000
X-76200Y-25400
X-76200Y-177800
X-76200Y-152400
X-76200Y-127000
X-76200Y-101600
X-76200Y-76200
X-76200Y-50800
X76200Y127000
X76200Y152400
X76200Y177800
T05
X0000Y-35000
T06
X25400Y163000
X-25400Y163000
M30
