G71*
G90*
G04 Quadcept GERBER*
%MOMM*%
%FSLAX44Y44*%
%ADD10C,0.2*%
%ADD11C,2.1*%
%ADD12C,2.2*%
%ADD13R,0.8X0.8*%
%ADD14O,1.2X2*%
%ADD15R,0.3X0.9*%
%ADD16R,0.63X2*%
%ADD17R,1X1.1*%
%ADD18R,1.1X1*%
%ADD19R,1.3X2.7*%
G75*
G36*
G01X0814Y-146021D02*
G01X-20014Y-146021D01*
G01X-20014Y-119605D01*
G01X-13664Y-113255D01*
G01X-13664Y-109699D01*
G01X-13100Y-109699D01*
G01X-13100Y-95000D01*
G01X-6100Y-95000D01*
G01X-6100Y-109699D01*
G01X-5536Y-109699D01*
G01X-5536Y-113255D01*
G01X0814Y-119605D01*
G01X0814Y-146021D01*
G37*
G36*
G01X-8186Y42379D02*
G01X-29014Y42379D01*
G01X-29014Y68795D01*
G01X-22664Y75145D01*
G01X-22664Y78701D01*
G01X-22100Y78701D01*
G01X-22100Y93400D01*
G01X-15100Y93400D01*
G01X-15100Y78701D01*
G01X-14536Y78701D01*
G01X-14536Y75145D01*
G01X-8186Y68795D01*
G01X-8186Y42379D01*
G37*
G54D10*
G01X-92710Y-215900D02*
G01X92290Y-215900D01*
G01X92290Y-215900D02*
G01X92290Y215900D01*
G01X92290Y215900D02*
G01X-92710Y215900D01*
G01X-92710Y215900D02*
G01X-92710Y-215900D01*
G54D11*
X0000Y-35000D03*
G54D12*
X-76200Y-177800D03*
X76200D03*
X-76200Y-152400D03*
X76200D03*
X-76200Y-127000D03*
X76200D03*
X-76200Y-101600D03*
X76200D03*
X-76200Y-76200D03*
X76200D03*
X-76200Y-50800D03*
X76200D03*
X-76200Y-25400D03*
X76200D03*
X-76200Y0000D03*
X76200D03*
X-76200Y25400D03*
X76200D03*
X-76200Y50800D03*
X76200D03*
X-76200Y76200D03*
X76200D03*
X-76200Y101600D03*
X76200D03*
X-76200Y127000D03*
X76200D03*
X-76200Y152400D03*
X76200D03*
X-25400Y163000D03*
X25400D03*
X-76200Y177800D03*
X76200D03*
G54D13*
X-40714Y132834D03*
X-29714D03*
G54D14*
X-43200Y-190000D03*
X43200D03*
X-43200Y-148500D03*
X43200D03*
G54D15*
X-43000Y-10000D03*
X13000Y1000D03*
G54D16*
X-25300Y-105000D03*
X6100D03*
X-34300Y83400D03*
X-2900D03*
G54D17*
X-43000Y-17500D03*
X-25000D03*
X-5000Y-6500D03*
X13000D03*
X-43000Y-2500D03*
X-25000D03*
X-5000Y8500D03*
X13000D03*
G54D18*
X-46300Y-78000D03*
X-31300D03*
X-11500D03*
X3500D03*
X33000Y14200D03*
X48000D03*
X33000Y40000D03*
X48000D03*
X-42300Y113000D03*
X-27300D03*
X0400D03*
X15400D03*
G54D19*
X-15500Y-189000D03*
X15500D03*
M02*
